<svg width="198" height="155" viewBox="0 0 198 155" fill="none" xmlns="http://www.w3.org/2000/svg">
<g clip-path="url(#clip0)">
<path d="M198 57.394H114.773V59.9879H198V57.394Z" fill="#E6E6E6"/>
<path d="M142.738 35.6997H121.653V58.1016H142.738V35.6997Z" fill="#E6E6E6"/>
<path d="M138.521 40.1802H125.87V53.6213H138.521V40.1802Z" fill="#CCCCCC"/>
<path d="M174.253 35.6997H168.926V58.1016H174.253V35.6997Z" fill="#E6E6E6"/>
<path d="M174.253 39.2368H168.926V41.8307H174.253V39.2368Z" fill="#CCCCCC"/>
<path d="M174.253 50.5557H168.926V53.1496H174.253V50.5557Z" fill="#CCCCCC"/>
<path d="M166.041 35.6997H160.714V58.1016H166.041V35.6997Z" fill="#E6E6E6"/>
<path d="M166.041 39.2368H160.714V41.8307H166.041V39.2368Z" fill="#CCCCCC"/>
<path d="M166.041 50.5557H160.714V53.1496H166.041V50.5557Z" fill="#CCCCCC"/>
<path d="M178.842 35.6071L174.068 38.1182L183.423 58.1943L188.197 55.6832L178.842 35.6071Z" fill="#E6E6E6"/>
<path d="M180.319 38.7771L175.546 41.2881L176.629 43.6127L181.402 41.1016L180.319 38.7771Z" fill="#CCCCCC"/>
<path d="M185.046 48.9206L180.272 51.4316L181.356 53.7562L186.129 51.2452L185.046 48.9206Z" fill="#CCCCCC"/>
<path d="M129.532 44.6919L132.215 49.6282L134.897 54.5645H129.532H124.167L126.85 49.6282L129.532 44.6919Z" fill="#E6E6E6"/>
<path d="M134.193 45.6353L136.875 50.5716L139.558 55.5079H134.193H128.828L131.511 50.5716L134.193 45.6353Z" fill="#E6E6E6"/>
<path d="M136.079 44.189C136.937 44.189 137.633 43.45 137.633 42.5384C137.633 41.6267 136.937 40.8877 136.079 40.8877C135.221 40.8877 134.526 41.6267 134.526 42.5384C134.526 43.45 135.221 44.189 136.079 44.189Z" fill="#E6E6E6"/>
<path d="M114.773 24.3809L198 24.3809V21.787L114.773 21.787V24.3809Z" fill="#E6E6E6"/>
<path d="M170.036 22.4946L191.12 22.4946V0.0927505L170.036 0.0927505V22.4946Z" fill="#E6E6E6"/>
<path d="M174.253 18.0142H186.903V4.57303L174.253 4.57303V18.0142Z" fill="#CCCCCC"/>
<path d="M138.521 22.4946H143.847V0.0927505H138.521V22.4946Z" fill="#E6E6E6"/>
<path d="M138.521 6.22363L143.847 6.22363V3.62973L138.521 3.62973V6.22363Z" fill="#CCCCCC"/>
<path d="M138.521 17.5425H143.847V14.9486H138.521V17.5425Z" fill="#CCCCCC"/>
<path d="M146.732 22.4946H152.059V0.0927505H146.732V22.4946Z" fill="#E6E6E6"/>
<path d="M146.732 6.22363L152.059 6.22363V3.62973L146.732 3.62973V6.22363Z" fill="#CCCCCC"/>
<path d="M146.732 17.5425H152.059V14.9486H146.732V17.5425Z" fill="#CCCCCC"/>
<path d="M124.576 20.0759L129.35 22.5869L138.705 2.51081L133.931 -0.00022169L124.576 20.0759Z" fill="#E6E6E6"/>
<path d="M131.371 5.49434L136.144 8.00537L137.228 5.68077L132.454 3.16974L131.371 5.49434Z" fill="#CCCCCC"/>
<path d="M126.644 15.6384L131.418 18.1494L132.501 15.8248L127.728 13.3138L126.644 15.6384Z" fill="#CCCCCC"/>
<path d="M183.241 9.08447L180.559 14.0208L177.877 18.9571H183.241H188.606L185.923 14.0208L183.241 9.08447Z" fill="#E6E6E6"/>
<path d="M178.58 10.0278L175.898 14.9641L173.216 19.9004H178.58H183.945L181.263 14.9641L178.58 10.0278Z" fill="#E6E6E6"/>
<path d="M176.694 8.5816C177.552 8.5816 178.248 7.84257 178.248 6.93094C178.248 6.0193 177.552 5.28027 176.694 5.28027C175.836 5.28027 175.14 6.0193 175.14 6.93094C175.14 7.84257 175.836 8.5816 176.694 8.5816Z" fill="#E6E6E6"/>
<path d="M114.773 95.5952L198 95.5952V93.0013L114.773 93.0013V95.5952Z" fill="#E6E6E6"/>
<path d="M170.036 93.709H191.12V71.3071H170.036V93.709Z" fill="#E6E6E6"/>
<path d="M174.253 89.2285H186.903V75.7874H174.253V89.2285Z" fill="#CCCCCC"/>
<path d="M138.521 93.709H143.847V71.3071H138.521V93.709Z" fill="#E6E6E6"/>
<path d="M138.521 77.438H143.847V74.8441H138.521V77.438Z" fill="#CCCCCC"/>
<path d="M138.521 88.7568H143.847V86.1629H138.521V88.7568Z" fill="#CCCCCC"/>
<path d="M146.732 93.709H152.059V71.3071H146.732V93.709Z" fill="#E6E6E6"/>
<path d="M146.732 77.438H152.059V74.8441H146.732V77.438Z" fill="#CCCCCC"/>
<path d="M146.732 88.7568H152.059V86.1629H146.732V88.7568Z" fill="#CCCCCC"/>
<path d="M124.576 91.2907L129.35 93.8018L138.705 73.7256L133.931 71.2146L124.576 91.2907Z" fill="#E6E6E6"/>
<path d="M131.371 76.7087L136.144 79.2197L137.228 76.8951L132.454 74.3841L131.371 76.7087Z" fill="#CCCCCC"/>
<path d="M126.644 86.8527L131.418 89.3638L132.501 87.0392L127.728 84.5281L126.644 86.8527Z" fill="#CCCCCC"/>
<path d="M183.241 80.2988L180.559 85.2351L177.877 90.1717H183.241H188.606L185.923 85.2351L183.241 80.2988Z" fill="#E6E6E6"/>
<path d="M178.58 81.2422L175.898 86.1785L173.216 91.1151H178.58H183.945L181.263 86.1785L178.58 81.2422Z" fill="#E6E6E6"/>
<path d="M176.694 79.796C177.552 79.796 178.248 79.0569 178.248 78.1453C178.248 77.2337 177.552 76.4946 176.694 76.4946C175.836 76.4946 175.14 77.2337 175.14 78.1453C175.14 79.0569 175.836 79.796 176.694 79.796Z" fill="#E6E6E6"/>
<path d="M98.0411 155C152.188 155 196.082 151.687 196.082 147.601C196.082 143.515 152.188 140.203 98.0411 140.203C43.8945 140.203 0 143.515 0 147.601C0 151.687 43.8945 155 98.0411 155Z" fill="#E6E6E6"/>
<path d="M174.636 151.745C158.649 148.722 141.168 149.224 122.83 151.745C131.188 144.248 138.401 136.751 130.043 129.254C146.347 132.828 148.63 132.466 166.767 129.254C162.56 136.751 170.429 144.248 174.636 151.745Z" fill="#C86FC9"/>
<path opacity="0.2" d="M174.636 151.745C158.649 148.722 141.168 149.224 122.83 151.745C131.188 144.248 138.401 136.751 130.043 129.254C146.347 132.828 148.63 132.466 166.767 129.254C162.56 136.751 170.429 144.248 174.636 151.745Z" fill="black"/>
<path d="M170.736 148.546C157.157 146.133 142.306 146.534 126.729 148.546C133.829 142.562 139.957 136.578 132.857 130.593C146.706 133.446 148.646 133.157 164.052 130.593C160.478 136.578 167.163 142.562 170.736 148.546Z" fill="#C86FC9"/>
<path d="M165.564 138.904C169.56 138.904 172.8 135.462 172.8 131.216C172.8 126.97 169.56 123.528 165.564 123.528C161.568 123.528 158.328 126.97 158.328 131.216C158.328 135.462 161.568 138.904 165.564 138.904Z" fill="#2F3061"/>
<path d="M132.718 122.299L137.731 123.187L140.238 130.881L132.996 135.616L124.64 122.299H132.439H132.718Z" fill="#A0616A"/>
<path d="M146.922 134.137C153.383 134.137 158.621 128.572 158.621 121.708C158.621 114.843 153.383 109.278 146.922 109.278C140.462 109.278 135.224 114.843 135.224 121.708C135.224 128.572 140.462 134.137 146.922 134.137Z" fill="#A0616A"/>
<path d="M82.3045 76.4297C82.3045 76.4297 53.8948 79.685 48.8814 79.0931C43.8679 78.5012 41.6397 77.9094 41.6397 77.9094C41.6397 77.9094 38.2974 82.6443 39.9685 84.7158C40.9045 85.9095 42.037 86.9123 43.3108 87.6752C43.3108 87.6752 46.3746 86.7874 48.6029 87.6752C50.8311 88.563 73.3917 92.4101 77.291 88.8589C81.1904 85.3077 82.3045 76.4297 82.3045 76.4297Z" fill="#2F3061"/>
<path d="M84.2541 142.423C84.2541 142.423 65.5929 136.8 62.2506 111.942V109.574C62.2506 109.574 58.5583 116.457 57.2371 117.86C55.7052 119.488 50.2739 134.137 50.5525 135.617C50.831 137.096 50.5525 137.688 50.5525 137.688L42.4752 136.8V134.137C42.4752 134.137 46.7924 120.376 47.0709 117.121C47.3494 113.865 57.7941 91.2264 57.7941 91.2264C57.7941 91.2264 61.6935 82.6443 68.3781 91.2264C75.0628 99.8085 75.6198 105.727 75.6198 105.727L84.2541 123.483L84.2541 142.423Z" fill="#2F3061"/>
<path d="M42.4752 77.0214L33.5623 73.7661C33.5623 73.7661 25.2066 67.2556 27.1562 73.7661C29.1059 80.2767 38.0187 94.4815 40.5255 93.0019C43.0322 91.5222 46.047 87.8494 45.3752 87.3183C44.7034 86.7872 40.247 82.9401 42.4752 77.0214Z" fill="#2F3061"/>
<path d="M43.5526 132.39L36.3577 136.123C36.3577 136.123 27.6569 137.545 32.5093 140.212C37.3616 142.879 50.7474 145.723 51.4167 143.234C52.086 140.745 51.8205 136.615 51.1166 136.724C50.4128 136.834 45.5604 137.367 43.5526 132.39Z" fill="#2F3061"/>
<path d="M80.6333 122.891C80.6333 122.891 77.0124 139.463 83.14 143.015C89.2676 146.566 132.161 147.158 135.503 140.647C138.845 134.137 137.174 134.137 137.174 134.137L128.261 123.483L135.503 122.891C135.503 122.891 135.503 120.524 132.996 120.228C130.489 119.932 122.691 116.972 116.006 119.044C109.321 121.115 105.422 114.901 105.422 114.901L80.6333 122.891Z" fill="#575A89"/>
<path d="M75.8984 71.1027L71.1633 98.6247L103.751 94.4816L109.6 69.623L75.8984 71.1027Z" fill="#3F3D56"/>
<path d="M76.8733 72.1383L72.9739 96.7008L102.637 93.0018L108.347 70.6587L76.8733 72.1383Z" fill="white"/>
<path d="M72.2774 98.9204L71.1633 98.6245L70.6063 99.808L79.5192 126.146L80.3574 125.806L80.6331 124.075L72.2774 98.9204Z" fill="#B3B3B3"/>
<path d="M71.1633 98.3284L80.0762 125.85L113.778 120.524L103.751 94.4814L71.1633 98.3284Z" fill="#D0CDE1"/>
<path d="M75.6199 97.4408V98.9204L100.409 95.9611L100.13 94.4814L75.6199 97.4408Z" fill="#3F3D56"/>
<path d="M76.1769 100.4L80.0763 111.942L105.422 108.686L100.966 97.7368L76.1769 100.4Z" fill="#3F3D56"/>
<path d="M107.929 116.677L107.093 114.309C107.093 114.309 100.687 102.472 97.3447 104.839C94.0024 107.207 104.308 118.748 104.308 118.748H107.65L107.929 116.677Z" fill="#A0616A"/>
<path d="M86.7608 118.452L85.9252 114.901C85.9252 114.901 83.697 103.951 87.5963 104.543C91.4957 105.135 92.6098 115.493 92.6098 115.493L92.3313 117.86L86.7608 118.452Z" fill="#A0616A"/>
<path d="M93.4454 116.972C93.4454 116.972 86.2038 115.789 85.9252 117.564C85.6467 119.34 84.2541 145.974 91.2172 146.862C98.1804 147.75 132.718 151.597 129.097 142.423C125.476 133.249 119.905 134.433 119.905 134.433L96.2307 137.096L93.4454 116.972Z" fill="#575A89"/>
<path d="M115.31 120.376L107.929 114.901L103.055 118.896L109.182 125.998L115.31 120.376Z" fill="#575A89"/>
<path opacity="0.2" d="M95.5344 125.703L96.6483 136.948L115.867 135.764L99.1551 135.469L95.5344 125.703Z" fill="black"/>
<path d="M152.697 138.762C160.388 138.762 166.623 132.138 166.623 123.966C166.623 115.794 160.388 109.169 152.697 109.169C145.006 109.169 138.771 115.794 138.771 123.966C138.771 132.138 145.006 138.762 152.697 138.762Z" fill="#2F3061"/>
<path d="M81.0511 80.7205L98.3198 80.0818L99.9909 73.3223L82.1653 73.8938L81.0511 80.7205Z" fill="#C86FC9"/>
<path d="M76.5947 84.5678L102.776 83.6799L103.054 82.4961L76.8732 83.4755L76.5947 84.5678Z" fill="#E6E6E6"/>
<path d="M76.0376 87.5273L102.219 86.6394L102.498 85.4556L76.3161 86.435L76.0376 87.5273Z" fill="#E6E6E6"/>
<path d="M75.759 89.8942L101.94 89.0065L102.219 87.8228L76.0375 88.8019L75.759 89.8942Z" fill="#E6E6E6"/>
</g>
<defs>
<clipPath id="clip0">
<rect width="198" height="155" fill="white"/>
</clipPath>
</defs>
</svg>
