<svg width="222" height="165" viewBox="0 0 222 165" fill="none" xmlns="http://www.w3.org/2000/svg">
<g clip-path="url(#clip0)">
<path d="M187.987 0.131836H0.114716V95.784H187.987V0.131836Z" fill="#E6E6E6"/>
<path d="M187.872 0H0V9.88603H187.872V0Z" fill="#C86FC9"/>
<path d="M183.468 12.9224H4.33243V91.0245H183.468V12.9224Z" fill="white"/>
<path d="M17.8031 6.55292C18.8478 6.55292 19.6948 5.82075 19.6948 4.91757C19.6948 4.0144 18.8478 3.28223 17.8031 3.28223C16.7583 3.28223 15.9113 4.0144 15.9113 4.91757C15.9113 5.82075 16.7583 6.55292 17.8031 6.55292Z" fill="white"/>
<path d="M24.9836 6.55292C26.0284 6.55292 26.8754 5.82075 26.8754 4.91757C26.8754 4.0144 26.0284 3.28223 24.9836 3.28223C23.9389 3.28223 23.0919 4.0144 23.0919 4.91757C23.0919 5.82075 23.9389 6.55292 24.9836 6.55292Z" fill="white"/>
<path d="M10.6037 6.55292C11.6485 6.55292 12.4954 5.82075 12.4954 4.91757C12.4954 4.0144 11.6485 3.28223 10.6037 3.28223C9.55893 3.28223 8.71198 4.0144 8.71198 4.91757C8.71198 5.82075 9.55893 6.55292 10.6037 6.55292Z" fill="white"/>
<path d="M162.575 26.4097H25.2249V29.5109H162.575V26.4097Z" fill="#E6E6E6"/>
<path d="M118.386 34.1626H69.4142V37.2638H118.386V34.1626Z" fill="#E6E6E6"/>
<path d="M118.386 49.8892H69.4142V52.9904H118.386V49.8892Z" fill="#E6E6E6"/>
<path d="M118.386 57.9443H69.4142V61.0456H118.386V57.9443Z" fill="#E6E6E6"/>
<path d="M142.681 41.9155H45.1196V45.0168H142.681V41.9155Z" fill="#E6E6E6"/>
<path d="M162.575 72.0303H136.809V77.5375H162.575V72.0303Z" fill="#C86FC9"/>
<path d="M187.508 161.527L183.181 161.526L181.122 147.097L187.509 147.097L187.508 161.527Z" fill="#9F616A"/>
<path d="M180.09 160.457H188.435V164.999H174.835C174.835 163.795 175.389 162.639 176.374 161.787C177.359 160.936 178.696 160.457 180.09 160.457Z" fill="#2F3061"/>
<path d="M203.744 161.527L199.417 161.526L197.358 147.097L203.745 147.097L203.744 161.527Z" fill="#9F616A"/>
<path d="M196.326 160.457H204.672V164.999H191.071C191.071 164.403 191.207 163.812 191.471 163.261C191.736 162.71 192.123 162.209 192.61 161.787C193.098 161.366 193.678 161.031 194.315 160.803C194.953 160.575 195.636 160.457 196.326 160.457Z" fill="#2F3061"/>
<path d="M203.216 118.552C202.75 118.293 202.355 117.948 202.059 117.543C201.764 117.137 201.575 116.681 201.505 116.205C201.436 115.73 201.488 115.247 201.658 114.791C201.827 114.335 202.111 113.916 202.488 113.565L199.639 78.6099L207.846 79.298L208.072 113.53C208.712 114.117 209.081 114.886 209.11 115.693C209.138 116.499 208.823 117.286 208.224 117.905C207.626 118.524 206.785 118.932 205.862 119.051C204.939 119.171 203.997 118.993 203.216 118.552L203.216 118.552Z" fill="#9F616A"/>
<path d="M187.303 154.257L182.54 154.061C182.134 154.044 181.751 153.894 181.469 153.641C181.188 153.387 181.03 153.05 181.027 152.699L180.694 111.031C180.693 110.833 180.741 110.638 180.835 110.457C180.929 110.277 181.067 110.116 181.239 109.986C181.412 109.857 181.615 109.76 181.834 109.704C182.054 109.649 182.284 109.634 182.511 109.663L201.569 112.054C201.946 112.1 202.29 112.261 202.54 112.509C202.79 112.757 202.928 113.074 202.929 113.403L205.38 152.013C205.382 152.194 205.342 152.373 205.263 152.541C205.184 152.709 205.067 152.862 204.919 152.99C204.772 153.119 204.596 153.221 204.403 153.291C204.209 153.36 204.001 153.396 203.792 153.396H198.656C198.277 153.397 197.91 153.281 197.622 153.068C197.334 152.855 197.145 152.56 197.087 152.236C197.087 152.236 193.208 123.276 192.675 123.293C192.14 123.301 188.956 153.049 188.956 153.049C188.909 153.382 188.722 153.689 188.432 153.912C188.142 154.134 187.767 154.258 187.379 154.259C187.354 154.259 187.329 154.258 187.303 154.257Z" fill="#2F3061"/>
<path d="M201.497 90.3552C201.304 90.2357 201.146 90.0804 201.032 89.9008C200.918 89.7212 200.853 89.5219 200.84 89.3175L200.239 79.8962C200.18 78.9628 200.522 78.0434 201.2 77.3153C201.878 76.5872 202.844 76.1019 203.912 75.9531C204.979 75.8042 206.073 76.0023 206.982 76.5092C207.89 77.016 208.55 77.7958 208.833 78.698L211.474 87.1212C211.584 87.4726 211.528 87.8474 211.319 88.1632C211.109 88.479 210.763 88.7101 210.357 88.8057L202.842 90.5671C202.614 90.6211 202.374 90.63 202.141 90.5933C201.909 90.5567 201.688 90.4753 201.497 90.3552Z" fill="#3F3D56"/>
<path d="M194.477 67.9643C199.265 67.9643 203.146 64.609 203.146 60.47C203.146 56.3309 199.265 52.9756 194.477 52.9756C189.689 52.9756 185.807 56.3309 185.807 60.47C185.807 64.609 189.689 67.9643 194.477 67.9643Z" fill="#9F616A"/>
<path d="M163.061 75.1941C163.105 75.3587 163.133 75.5261 163.146 75.6945L178.308 83.2563L181.994 81.4222L185.923 85.8687L178.038 90.7266L160.74 78.9293C160.035 79.155 159.266 79.1897 158.538 79.0287C157.809 78.8677 157.154 78.5188 156.66 78.0282C156.166 77.5376 155.857 76.9287 155.773 76.2824C155.689 75.6361 155.835 74.9831 156.191 74.4102C156.547 73.8373 157.096 73.3717 157.766 73.0752C158.435 72.7788 159.193 72.6656 159.939 72.7507C160.685 72.8358 161.383 73.1151 161.941 73.5516C162.499 73.9881 162.889 74.561 163.061 75.1941V75.1941Z" fill="#9F616A"/>
<path d="M178.85 82.6131C178.825 82.4096 178.852 82.2038 178.931 82.0108C179.01 81.8179 179.139 81.6427 179.306 81.4983L187.023 74.8255C187.788 74.1645 188.809 73.7715 189.888 73.7225C190.968 73.6735 192.031 73.9718 192.871 74.56C193.712 75.1481 194.271 75.9845 194.44 76.9078C194.61 77.831 194.378 78.7759 193.789 79.56L188.293 86.8808C188.064 87.186 187.703 87.3999 187.292 87.4757C186.88 87.5515 186.45 87.483 186.096 87.2852L179.565 83.621C179.366 83.5099 179.199 83.3617 179.075 83.1872C178.951 83.0128 178.874 82.8166 178.85 82.6131Z" fill="#3F3D56"/>
<path d="M200.612 66.3993C198.994 67.8886 195.991 67.0891 195.78 65.0545C195.763 64.8966 195.765 64.7376 195.784 64.5798C195.892 63.6786 196.495 62.8604 196.35 61.9088C196.318 61.672 196.216 61.4463 196.054 61.2531C194.765 59.7612 191.74 61.9204 190.523 60.5699C189.778 59.7417 190.654 58.4379 190.082 57.5123C189.327 56.2906 187.089 56.8933 185.686 56.2243C184.125 55.4799 184.218 53.4093 185.246 52.1499C186.499 50.614 188.697 49.7944 190.867 49.6763C193.036 49.5582 195.191 50.0653 197.217 50.7478C199.519 51.5232 201.801 52.5949 203.218 54.3445C204.94 56.4723 205.106 59.3328 204.245 61.8208C203.721 63.3343 201.932 65.1831 200.612 66.3993Z" fill="#2F3061"/>
<path d="M221.647 164.943H153.524C153.431 164.943 153.341 164.911 153.275 164.854C153.208 164.797 153.171 164.719 153.171 164.638C153.171 164.557 153.208 164.48 153.275 164.422C153.341 164.365 153.431 164.333 153.524 164.333H221.647C221.741 164.333 221.83 164.365 221.897 164.422C221.963 164.48 222 164.557 222 164.638C222 164.719 221.963 164.797 221.897 164.854C221.83 164.911 221.741 164.943 221.647 164.943Z" fill="#3F3D56"/>
<path d="M203.13 72.9706C202.979 72.877 202.826 72.7851 202.669 72.6949C201.837 72.2164 200.936 71.8343 199.988 71.5586V69.5894H193.282V71.4164C191.059 71.9465 189.065 73.03 187.548 74.5321C186.032 76.0341 185.06 77.8884 184.753 79.8644L180.186 109.173C180.157 109.356 180.171 109.542 180.227 109.721C180.284 109.899 180.382 110.066 180.515 110.21C180.645 110.354 180.808 110.474 180.993 110.561C181.179 110.649 181.382 110.703 181.593 110.721C183.175 110.857 186.457 111.387 190.657 113.405C192.677 114.372 194.95 114.874 197.259 114.862C199.093 114.856 200.911 114.576 202.634 114.034C202.926 113.941 203.179 113.776 203.363 113.558C203.546 113.341 203.651 113.081 203.664 112.812C203.828 109.658 204.79 93.4231 207.59 83.52C208.134 81.5773 208.001 79.5389 207.208 77.6615C206.414 75.7842 204.995 74.1519 203.13 72.9706Z" fill="#3F3D56"/>
</g>
<defs>
<clipPath id="clip0">
<rect width="222" height="165" fill="white"/>
</clipPath>
</defs>
</svg>
