<svg width="205" height="220" viewBox="0 0 205 220" fill="none" xmlns="http://www.w3.org/2000/svg">
<path d="M130.039 124.821L41.4248 147.58C38.419 148.348 35.2302 147.896 32.5582 146.323C29.8861 144.749 27.949 142.183 27.1718 139.186L0.372546 35.3895C-0.397887 32.3915 0.0554695 29.2111 1.63316 26.546C3.21085 23.881 5.78403 21.949 8.78817 21.1738L91.2291 0L112.33 9.42144L138.455 110.605C139.225 113.603 138.772 116.783 137.194 119.448C135.616 122.113 133.043 124.046 130.039 124.821Z" fill="#F2F2F2"/>
<path d="M9.62693 24.428C7.48761 24.98 5.6552 26.3559 4.53169 28.2537C3.40818 30.1515 3.08534 32.4164 3.63398 34.5513L30.4332 138.348C30.9867 140.482 32.3661 142.31 34.269 143.43C36.1718 144.551 38.4426 144.873 40.5831 144.326L129.197 121.566C131.336 121.014 133.169 119.638 134.292 117.741C135.416 115.843 135.739 113.578 135.19 111.443L109.47 11.8272L90.9265 3.54736L9.62693 24.428Z" fill="white"/>
<path d="M112.103 9.95668L98.3892 13.479C97.3881 13.7361 96.3255 13.5861 95.4352 13.0618C94.545 12.5375 93.9 11.682 93.6422 10.6835L91.0338 0.580929C91.0224 0.5367 91.0237 0.490156 91.0376 0.446635C91.0515 0.403115 91.0774 0.36438 91.1123 0.334872C91.1473 0.305363 91.1899 0.286276 91.2352 0.279799C91.2805 0.273323 91.3268 0.279718 91.3686 0.298254L112.142 9.49929C112.188 9.51977 112.226 9.55409 112.252 9.59749C112.278 9.64089 112.29 9.69122 112.285 9.74149C112.281 9.79177 112.262 9.8395 112.229 9.87806C112.196 9.91662 112.152 9.9441 112.103 9.95668Z" fill="#F2F2F2"/>
<path d="M104.888 98.5975L64.5437 108.959C64.2959 109.023 64.0379 109.037 63.7844 109.002C63.531 108.966 63.2871 108.881 63.0667 108.751C62.8463 108.621 62.6537 108.449 62.4999 108.245C62.3461 108.041 62.234 107.809 62.1702 107.562C62.1064 107.314 62.092 107.057 62.1279 106.804C62.1638 106.552 62.2492 106.308 62.3794 106.089C62.5095 105.869 62.6818 105.677 62.8863 105.523C63.0909 105.37 63.3238 105.258 63.5716 105.194L103.916 94.8324C104.164 94.7687 104.422 94.7544 104.676 94.7902C104.929 94.826 105.173 94.9112 105.393 95.041C105.614 95.1708 105.806 95.3426 105.96 95.5467C106.114 95.7507 106.226 95.9829 106.29 96.2302C106.354 96.4774 106.368 96.7347 106.332 96.9875C106.296 97.2402 106.211 97.4835 106.081 97.7033C105.951 97.9231 105.778 98.1152 105.574 98.2686C105.369 98.4221 105.136 98.5338 104.888 98.5975Z" fill="#CCCCCC"/>
<path d="M114.315 102.951L66.1841 115.313C65.6835 115.441 65.1522 115.366 64.7071 115.104C64.262 114.842 63.9395 114.414 63.8106 113.915C63.6817 113.416 63.7569 112.886 64.0198 112.442C64.2826 111.998 64.7114 111.676 65.212 111.548L113.343 99.186C113.843 99.0579 114.374 99.1333 114.819 99.3955C115.263 99.6576 115.586 100.085 115.714 100.584C115.843 101.083 115.768 101.613 115.506 102.057C115.243 102.5 114.815 102.822 114.315 102.951Z" fill="#CCCCCC"/>
<path d="M48.0773 121.439C51.8819 121.439 54.9661 118.363 54.9661 114.568C54.9661 110.774 51.8819 107.698 48.0773 107.698C44.2727 107.698 41.1885 110.774 41.1885 114.568C41.1885 118.363 44.2727 121.439 48.0773 121.439Z" fill="#E6E6E6"/>
<path d="M100.599 80.616L47.0169 94.3726C45.4683 94.7683 43.8257 94.5352 42.4492 93.7245C41.0728 92.9137 40.075 91.5916 39.6747 90.048L28.446 46.5413C28.0492 44.9968 28.2829 43.3585 29.0958 41.9857C29.9087 40.6128 31.2343 39.6177 32.782 39.2185L86.3638 25.4618C87.9123 25.0661 89.555 25.2992 90.9314 26.1099C92.3079 26.9207 93.3057 28.2429 93.7059 29.7864L104.935 73.2931C105.331 74.8376 105.098 76.4759 104.285 77.8488C103.472 79.2216 102.146 80.2168 100.599 80.616Z" fill="white"/>
<path d="M100.599 80.616L47.0169 94.3726C45.4683 94.7683 43.8257 94.5352 42.4492 93.7245C41.0728 92.9137 40.075 91.5916 39.6747 90.048L28.446 46.5413C28.0492 44.9968 28.2829 43.3585 29.0958 41.9857C29.9087 40.6128 31.2343 39.6177 32.782 39.2185L86.3638 25.4618C87.9123 25.0661 89.555 25.2992 90.9314 26.1099C92.3079 26.9207 93.3057 28.2429 93.7059 29.7864L104.935 73.2931C105.331 74.8376 105.098 76.4759 104.285 77.8488C103.472 79.2216 102.146 80.2168 100.599 80.616ZM32.9588 39.9036C31.5933 40.2558 30.4235 41.1339 29.7063 42.3453C28.9891 43.5566 28.7829 45.0022 29.1329 46.3649L40.3617 89.8716C40.7149 91.2336 41.5953 92.4002 42.8098 93.1156C44.0243 93.8309 45.4737 94.0366 46.84 93.6874L100.422 79.9308C101.787 79.5786 102.957 78.7005 103.674 77.4892C104.392 76.2779 104.598 74.8322 104.248 73.4695L93.0189 29.9628C92.6658 28.6008 91.7854 27.4342 90.5709 26.7188C89.3564 26.0035 87.9069 25.7978 86.5406 26.147L32.9588 39.9036Z" fill="#E6E6E6"/>
<path d="M83.6455 40.0904L56.6034 47.0332C56.367 47.0991 56.1143 47.0729 55.8965 46.9601C55.6787 46.8472 55.5119 46.6561 55.43 46.4253C55.3918 46.3048 55.3787 46.1777 55.3914 46.052C55.4041 45.9262 55.4424 45.8043 55.5039 45.6938C55.5654 45.5832 55.6488 45.4864 55.7491 45.409C55.8494 45.3317 55.9644 45.2756 56.0871 45.2441L83.6143 38.1768C84.7262 38.7387 84.4336 39.8881 83.6451 40.0905L83.6455 40.0904Z" fill="#F2F2F2"/>
<path d="M84.8665 44.8214L57.8244 51.7642C57.588 51.83 57.3354 51.8039 57.1175 51.691C56.8997 51.5782 56.733 51.387 56.651 51.1563C56.6129 51.0357 56.5998 50.9087 56.6125 50.7829C56.6252 50.6571 56.6635 50.5353 56.725 50.4247C56.7865 50.3142 56.8699 50.2173 56.9701 50.14C57.0704 50.0627 57.1854 50.0066 57.3082 49.975L84.8353 42.9077C85.9473 43.4697 85.6547 44.619 84.8662 44.8215L84.8665 44.8214Z" fill="#F2F2F2"/>
<path d="M52.6739 55.9588L44.4209 58.0776C44.1514 58.1466 43.8654 58.106 43.6259 57.9649C43.3863 57.8238 43.2126 57.5936 43.143 57.3249L40.6359 47.6113C40.5668 47.3425 40.6075 47.0573 40.749 46.8183C40.8905 46.5793 41.1213 46.4061 41.3907 46.3367L49.6436 44.2178C49.9132 44.149 50.1991 44.1896 50.4386 44.3307C50.6782 44.4718 50.8519 44.7019 50.9216 44.9705L53.4286 54.6842C53.4977 54.953 53.457 55.2382 53.3155 55.4772C53.1741 55.7161 52.9433 55.8893 52.6739 55.9588V55.9588Z" fill="#E6E6E6"/>
<path d="M87.2878 54.528L46.0167 65.124C45.7803 65.1898 45.5276 65.1637 45.3098 65.0508C45.092 64.938 44.9253 64.7469 44.8433 64.5161C44.8052 64.3955 44.792 64.2685 44.8048 64.1427C44.8175 64.0169 44.8557 63.8951 44.9172 63.7845C44.9787 63.674 45.0621 63.5771 45.1624 63.4998C45.2627 63.4225 45.3777 63.3664 45.5004 63.3349L87.257 52.6143C88.3689 53.1762 88.0764 54.3256 87.2878 54.528L87.2878 54.528Z" fill="#F2F2F2"/>
<path d="M88.5093 59.2604L47.2382 69.8564C47.0017 69.9223 46.7491 69.8961 46.5313 69.7832C46.3134 69.6704 46.1467 69.4793 46.0647 69.2485C46.0266 69.128 46.0135 69.0009 46.0262 68.8751C46.0389 68.7494 46.0772 68.6275 46.1387 68.517C46.2001 68.4064 46.2836 68.3095 46.3839 68.2322C46.4841 68.1549 46.5991 68.0988 46.7219 68.0673L88.4784 57.3467C89.5904 57.9086 89.2978 59.058 88.5093 59.2604V59.2604Z" fill="#F2F2F2"/>
<path d="M89.7299 63.99L48.4587 74.5859C48.2223 74.6517 47.9697 74.6256 47.7518 74.5127C47.534 74.3999 47.3673 74.2088 47.2853 73.978C47.2472 73.8575 47.2341 73.7304 47.2468 73.6046C47.2595 73.4789 47.2977 73.357 47.3592 73.2465C47.4207 73.1359 47.5042 73.039 47.6044 72.9617C47.7047 72.8844 47.8197 72.8283 47.9425 72.7968L89.699 62.0762C90.811 62.6381 90.5184 63.7875 89.7299 63.99Z" fill="#F2F2F2"/>
<path d="M90.9512 68.7219L49.6801 79.3178C49.4436 79.3837 49.191 79.3575 48.9732 79.2447C48.7553 79.1318 48.5886 78.9407 48.5066 78.7099C48.4685 78.5894 48.4554 78.4623 48.4681 78.3366C48.4808 78.2108 48.5191 78.0889 48.5805 77.9784C48.642 77.8678 48.7255 77.771 48.8257 77.6937C48.926 77.6163 49.041 77.5602 49.1638 77.5287L90.9203 66.8081C92.0323 67.37 91.7397 68.5194 90.9512 68.7219L90.9512 68.7219Z" fill="#F2F2F2"/>
<path d="M92.1718 73.4514L50.9006 84.0473C50.6642 84.1132 50.4116 84.087 50.1937 83.9742C49.9759 83.8613 49.8092 83.6702 49.7272 83.4394C49.6891 83.3189 49.676 83.1918 49.6887 83.0661C49.7014 82.9403 49.7396 82.8184 49.8011 82.7079C49.8626 82.5974 49.946 82.5005 50.0463 82.4232C50.1466 82.3458 50.2616 82.2897 50.3844 82.2582L92.1409 71.5376C93.2529 72.0995 92.9603 73.2489 92.1718 73.4514Z" fill="#F2F2F2"/>
<path d="M48.5856 116.977C48.4356 117.016 48.277 117.005 48.1337 116.946L48.1249 116.942L46.2482 116.149C46.1611 116.112 46.0821 116.058 46.0158 115.991C45.9495 115.924 45.8971 115.844 45.8616 115.757C45.8262 115.669 45.8084 115.576 45.8092 115.481C45.8101 115.387 45.8296 115.294 45.8666 115.207C45.9036 115.12 45.9574 115.042 46.0249 114.976C46.0924 114.91 46.1723 114.857 46.2601 114.822C46.3478 114.787 46.4417 114.769 46.5362 114.77C46.6308 114.771 46.7243 114.791 46.8112 114.828L48.0273 115.344L49.6208 111.605C49.6577 111.518 49.7114 111.44 49.7788 111.374C49.8462 111.308 49.926 111.256 50.0136 111.221C50.1012 111.185 50.1949 111.168 50.2893 111.168C50.3837 111.169 50.4771 111.189 50.564 111.226L50.5642 111.226L50.5547 111.25L50.5646 111.226C50.74 111.3 50.8786 111.441 50.9499 111.618C51.0212 111.794 51.0194 111.992 50.9449 112.167L49.0702 116.563C49.0267 116.664 48.9605 116.754 48.8765 116.826C48.7925 116.897 48.6931 116.949 48.586 116.976L48.5856 116.977Z" fill="white"/>
<path d="M164.026 164.375H72.5214C69.4183 164.372 66.4434 163.141 64.2492 160.952C62.055 158.764 60.8208 155.797 60.8173 152.702V45.5186C60.8208 42.4237 62.055 39.4566 64.2492 37.2681C66.4434 35.0797 69.4183 33.8487 72.5214 33.8452H157.652L175.73 48.2173V152.702C175.727 155.797 174.493 158.764 172.299 160.952C170.104 163.141 167.129 164.372 164.026 164.375Z" fill="#E6E6E6"/>
<path d="M72.5213 37.2056C70.3115 37.2081 68.193 38.0847 66.6305 39.6431C65.0679 41.2015 64.189 43.3145 64.1865 45.5185V152.702C64.189 154.906 65.0679 157.019 66.6305 158.577C68.193 160.135 70.3115 161.012 72.5213 161.015H164.026C166.236 161.012 168.355 160.135 169.917 158.577C171.48 157.019 172.359 154.906 172.361 152.702V49.8361L156.473 37.2056H72.5213Z" fill="white"/>
<path d="M146.229 68.3717H104.568C104.051 68.3717 103.555 68.1669 103.19 67.8024C102.824 67.4378 102.619 66.9434 102.619 66.4278C102.619 65.9122 102.824 65.4178 103.19 65.0533C103.555 64.6887 104.051 64.4839 104.568 64.4839H146.229C146.746 64.4839 147.241 64.6887 147.607 65.0533C147.972 65.4178 148.178 65.9122 148.178 66.4278C148.178 66.9434 147.972 67.4378 147.607 67.8024C147.241 68.1669 146.746 68.3717 146.229 68.3717Z" fill="#F79AD3"/>
<path d="M154.268 74.9323H104.568C104.051 74.9316 103.556 74.7265 103.191 74.362C102.826 73.9975 102.621 73.5035 102.621 72.9884C102.621 72.4733 102.826 71.9792 103.191 71.6147C103.556 71.2502 104.051 71.0451 104.568 71.0444H154.268C154.525 71.0441 154.778 71.0941 155.015 71.1917C155.252 71.2892 155.467 71.4323 155.648 71.6129C155.83 71.7934 155.973 72.0078 156.071 72.2438C156.17 72.4799 156.22 72.7329 156.22 72.9884C156.22 73.2439 156.17 73.4969 156.071 73.7329C155.973 73.9689 155.83 74.1833 155.648 74.3639C155.467 74.5444 155.252 74.6875 155.015 74.7851C154.778 74.8826 154.525 74.9326 154.268 74.9323Z" fill="#F79AD3"/>
<path d="M146.229 93.8848H104.569C104.052 93.8848 103.557 94.0896 103.191 94.4541C102.826 94.8186 102.62 95.313 102.62 95.8286C102.62 96.3441 102.826 96.8385 103.191 97.2031C103.557 97.5676 104.052 97.7724 104.569 97.7724H146.229C146.746 97.7724 147.241 97.5676 147.607 97.2031C147.972 96.8385 148.178 96.3441 148.178 95.8286C148.178 95.313 147.972 94.8186 147.607 94.4541C147.241 94.0896 146.746 93.8848 146.229 93.8848Z" fill="#CCCCCC"/>
<path d="M154.269 100.446H104.569C104.052 100.446 103.557 100.651 103.191 101.016C102.826 101.38 102.62 101.875 102.62 102.39C102.62 102.906 102.826 103.4 103.191 103.765C103.557 104.129 104.052 104.334 104.569 104.334H154.269C154.786 104.334 155.282 104.129 155.647 103.765C156.013 103.4 156.218 102.906 156.218 102.39C156.218 101.875 156.013 101.38 155.647 101.016C155.282 100.651 154.786 100.446 154.269 100.446Z" fill="#CCCCCC"/>
<path d="M146.229 127.175H104.568C104.051 127.175 103.555 126.971 103.19 126.606C102.824 126.242 102.619 125.747 102.619 125.232C102.619 124.716 102.824 124.222 103.19 123.857C103.555 123.492 104.051 123.288 104.568 123.288H146.229C146.746 123.288 147.241 123.492 147.607 123.857C147.972 124.222 148.178 124.716 148.178 125.232C148.178 125.747 147.972 126.242 147.607 126.606C147.241 126.971 146.746 127.175 146.229 127.175Z" fill="#CCCCCC"/>
<path d="M154.268 133.737H104.568C104.051 133.736 103.556 133.531 103.191 133.166C102.826 132.802 102.621 132.308 102.621 131.793C102.621 131.277 102.826 130.783 103.191 130.419C103.556 130.054 104.051 129.849 104.568 129.849H154.268C154.525 129.848 154.778 129.898 155.015 129.996C155.252 130.093 155.467 130.237 155.648 130.417C155.83 130.598 155.973 130.812 156.071 131.048C156.17 131.284 156.22 131.537 156.22 131.793C156.22 132.048 156.17 132.301 156.071 132.537C155.973 132.773 155.83 132.988 155.648 133.168C155.467 133.349 155.252 133.492 155.015 133.589C154.778 133.687 154.525 133.737 154.268 133.737Z" fill="#CCCCCC"/>
<path d="M87.219 76.5789C91.0236 76.5789 94.1078 73.5028 94.1078 69.7082C94.1078 65.9135 91.0236 62.8374 87.219 62.8374C83.4144 62.8374 80.3302 65.9135 80.3302 69.7082C80.3302 73.5028 83.4144 76.5789 87.219 76.5789Z" fill="#F79AD3"/>
<path d="M86.5363 72.329C86.3814 72.3293 86.2305 72.2793 86.1065 72.1866L86.0988 72.1808L84.4799 70.9456C84.4046 70.8884 84.3415 70.8169 84.294 70.7353C84.2466 70.6536 84.2157 70.5635 84.2032 70.4699C84.1907 70.3764 84.1968 70.2813 84.2212 70.1902C84.2456 70.099 84.2878 70.0135 84.3454 69.9386C84.4029 69.8637 84.4748 69.8009 84.5567 69.7537C84.6386 69.7066 84.7291 69.676 84.8229 69.6637C84.9167 69.6515 85.012 69.6578 85.1034 69.6823C85.1948 69.7068 85.2804 69.7491 85.3553 69.8067L86.404 70.6087L88.8819 67.3844C88.9394 67.3096 89.011 67.2469 89.0928 67.1998C89.1746 67.1526 89.2649 67.122 89.3585 67.1097C89.4521 67.0974 89.5473 67.1035 89.6385 67.1279C89.7297 67.1522 89.8153 67.1942 89.8902 67.2516L89.8904 67.2517L89.875 67.273L89.8908 67.2517C90.0421 67.3676 90.141 67.5386 90.1659 67.7272C90.1909 67.9158 90.1398 68.1065 90.0239 68.2575L87.1092 72.0484C87.0418 72.1357 86.9551 72.2064 86.8559 72.2549C86.7566 72.3034 86.6475 72.3285 86.537 72.3282L86.5363 72.329Z" fill="white"/>
<path d="M94.8158 99.1091C94.8161 100.012 94.6382 100.905 94.2922 101.739C93.9463 102.573 93.439 103.33 92.7994 103.969C92.1598 104.607 91.4004 105.113 90.5646 105.459C89.7287 105.804 88.8329 105.982 87.9281 105.982C87.8689 105.983 87.8097 105.981 87.7508 105.975C86.3962 105.941 85.0821 105.508 83.9726 104.732C82.8632 103.957 82.0079 102.872 81.5136 101.613C81.0193 100.355 80.9081 98.9793 81.1939 97.6583C81.4796 96.3373 82.1496 95.1296 83.1201 94.1865C84.0905 93.2434 85.3183 92.6067 86.6497 92.356C87.9812 92.1054 89.3572 92.2519 90.6055 92.7774C91.8539 93.3028 92.9192 94.1837 93.6681 95.31C94.4169 96.4362 94.8162 97.7577 94.8158 99.1091Z" fill="#CCCCCC"/>
<path d="M87.219 135.383C91.0236 135.383 94.1078 132.306 94.1078 128.512C94.1078 124.717 91.0236 121.641 87.219 121.641C83.4144 121.641 80.3302 124.717 80.3302 128.512C80.3302 132.306 83.4144 135.383 87.219 135.383Z" fill="#CCCCCC"/>
<path d="M175.378 48.6797H161.217C160.183 48.6797 159.191 48.2701 158.46 47.541C157.729 46.8119 157.319 45.823 157.319 44.7918V34.3597C157.319 34.314 157.332 34.2693 157.356 34.2306C157.38 34.1919 157.415 34.1608 157.456 34.1409C157.498 34.1211 157.544 34.1132 157.589 34.1182C157.635 34.1232 157.678 34.1409 157.714 34.1692L175.53 48.2463C175.569 48.2776 175.598 48.3204 175.612 48.3689C175.627 48.4173 175.625 48.469 175.609 48.5166C175.592 48.5642 175.561 48.6056 175.52 48.6348C175.478 48.664 175.429 48.6797 175.378 48.6797Z" fill="#CCCCCC"/>
<path d="M94.8158 99.1091C94.8162 100.011 94.6383 100.905 94.2923 101.739C93.9463 102.573 93.4391 103.33 92.7995 103.969C92.1599 104.607 91.4005 105.113 90.5646 105.459C89.7288 105.804 88.8329 105.982 87.9281 105.982C87.8689 105.983 87.8097 105.981 87.7508 105.975C86.8609 103.761 86.5178 101.366 86.7505 98.9923C86.9832 96.6184 87.7849 94.3351 89.0879 92.335C90.6904 92.6089 92.1441 93.4391 93.1923 94.6787C94.2404 95.9183 94.8155 97.4875 94.8158 99.1091Z" fill="#F79AD3"/>
<path d="M102.619 95.8303C102.619 95.3146 102.825 94.8203 103.191 94.4556C103.557 94.091 104.052 93.8857 104.569 93.8848H114.95C115.557 95.1148 115.988 96.4233 116.231 97.7724H104.569C104.053 97.7723 103.557 97.5677 103.191 97.2036C102.826 96.8396 102.62 96.3457 102.619 95.8303Z" fill="#F79AD3"/>
<path d="M116.472 100.446C116.473 101.759 116.299 103.067 115.954 104.334H104.569C104.052 104.334 103.557 104.129 103.191 103.765C102.826 103.4 102.62 102.906 102.62 102.39C102.62 101.875 102.826 101.38 103.191 101.016C103.557 100.651 104.052 100.446 104.569 100.446H116.472Z" fill="#F79AD3"/>
<path d="M142.158 124.422C141.864 124.902 141.391 125.247 140.842 125.379C140.294 125.512 139.715 125.422 139.233 125.129L114.404 110.024C114.166 109.879 113.958 109.688 113.793 109.463C113.629 109.238 113.51 108.982 113.444 108.712C113.378 108.441 113.367 108.159 113.41 107.884C113.453 107.609 113.55 107.345 113.696 107.107C113.841 106.869 114.032 106.662 114.258 106.497C114.484 106.333 114.74 106.215 115.011 106.149C115.283 106.083 115.565 106.072 115.841 106.115C116.117 106.158 116.382 106.255 116.621 106.4L141.449 121.505C141.931 121.798 142.276 122.27 142.409 122.817C142.542 123.364 142.452 123.941 142.158 124.422Z" fill="#3F3D56"/>
<path d="M117.329 109.317C115.576 112.184 113.009 114.468 109.955 115.881C106.9 117.293 103.494 117.77 100.167 117.252C96.8402 116.733 93.7424 115.242 91.2651 112.968C88.7879 110.693 87.0425 107.737 86.2498 104.474C85.457 101.21 85.6524 97.7847 86.8112 94.6317C87.9701 91.4786 90.0404 88.7391 92.7603 86.7596C95.4802 84.78 98.7276 83.6494 102.092 83.5106C105.456 83.3718 108.786 84.2311 111.66 85.9799C115.511 88.3284 118.27 92.1045 119.333 96.4796C120.396 100.855 119.675 105.472 117.329 109.317ZM91.8949 93.8442C90.5799 95.9945 89.9337 98.4854 90.0381 101.002C90.1424 103.518 90.9927 105.948 92.4812 107.982C93.9698 110.017 96.0298 111.565 98.4008 112.432C100.772 113.299 103.347 113.445 105.802 112.852C108.256 112.259 110.479 110.954 112.189 109.101C113.899 107.248 115.02 104.93 115.41 102.442C115.8 99.9533 115.441 97.4054 114.38 95.1203C113.318 92.8351 111.6 90.9154 109.444 89.6038C106.552 87.8489 103.08 87.3098 99.7904 88.1048C96.5004 88.8998 93.6609 90.9639 91.8949 93.8442Z" fill="#3F3D56"/>
<path d="M171.874 103.198C176.685 103.198 180.585 99.3079 180.585 94.5095C180.585 89.7111 176.685 85.8213 171.874 85.8213C167.063 85.8213 163.163 89.7111 163.163 94.5095C163.163 99.3079 167.063 103.198 171.874 103.198Z" fill="#A0616A"/>
<path d="M171.311 143.216C171.143 142.694 171.088 142.143 171.149 141.598C171.209 141.053 171.385 140.527 171.663 140.054C171.942 139.582 172.318 139.173 172.766 138.855C173.214 138.538 173.724 138.318 174.263 138.211C174.434 138.177 174.607 138.156 174.781 138.147L183.957 123.459L175.575 115.511C175.255 115.207 174.998 114.844 174.819 114.44C174.641 114.037 174.544 113.603 174.535 113.162C174.526 112.721 174.604 112.283 174.766 111.873C174.927 111.463 175.169 111.089 175.476 110.772C175.784 110.455 176.151 110.203 176.557 110.028C176.962 109.854 177.399 109.762 177.841 109.757C178.283 109.751 178.721 109.834 179.131 109.999C179.541 110.163 179.914 110.408 180.228 110.717L191.801 122.098L191.824 122.126C192.182 122.67 192.355 123.314 192.317 123.963C192.279 124.612 192.032 125.231 191.614 125.729L178.757 140.895C178.795 141.017 178.827 141.14 178.852 141.265C178.96 141.803 178.952 142.357 178.83 142.892C178.708 143.426 178.474 143.929 178.143 144.367C177.812 144.805 177.393 145.169 176.911 145.434C176.43 145.699 175.898 145.859 175.35 145.905C175.239 145.914 175.129 145.919 175.02 145.919C174.195 145.916 173.392 145.653 172.726 145.167C172.06 144.682 171.565 143.999 171.311 143.216Z" fill="#A0616A"/>
<path d="M157.527 215.428L153.179 215.428L151.111 198.7L157.528 198.701L157.527 215.428Z" fill="#A0616A"/>
<path d="M158.636 219.632L144.616 219.631V219.454C144.616 218.74 144.757 218.032 145.031 217.372C145.305 216.711 145.707 216.111 146.214 215.606C146.721 215.1 147.323 214.7 147.985 214.426C148.647 214.152 149.356 214.012 150.073 214.012H150.073L158.636 214.012L158.636 219.632Z" fill="#2F3061"/>
<path d="M200.746 209.432L197.01 211.651L186.652 198.334L192.166 195.059L200.746 209.432Z" fill="#A0616A"/>
<path d="M203.855 212.478L191.808 219.632L191.718 219.48C191.351 218.866 191.109 218.186 191.006 217.478C190.903 216.771 190.941 216.05 191.117 215.358C191.293 214.665 191.604 214.013 192.033 213.44C192.461 212.868 192.999 212.384 193.615 212.019L193.615 212.019L200.973 207.649L203.855 212.478Z" fill="#2F3061"/>
<path d="M150.562 208.061C147.649 173.852 145.916 142.073 156.565 129.109L156.647 129.008L174.567 136.158L174.596 136.222C174.657 136.353 180.617 149.428 179.226 158.222L183.646 178.502L198.059 202.57C198.175 202.764 198.248 202.98 198.274 203.204C198.3 203.429 198.278 203.656 198.209 203.871C198.14 204.086 198.027 204.284 197.875 204.452C197.724 204.619 197.539 204.753 197.331 204.844L191.068 207.592C190.715 207.746 190.318 207.767 189.95 207.653C189.582 207.538 189.268 207.295 189.065 206.968L173.387 181.47L164.532 161.913C164.484 161.807 164.402 161.72 164.299 161.665C164.196 161.609 164.078 161.59 163.962 161.608C163.847 161.626 163.741 161.682 163.661 161.767C163.58 161.851 163.53 161.96 163.518 162.076L158.609 208.096C158.568 208.487 158.383 208.849 158.09 209.112C157.797 209.375 157.416 209.52 157.022 209.52H152.153C151.753 209.517 151.369 209.367 151.075 209.097C150.781 208.827 150.598 208.458 150.562 208.061Z" fill="#2F3061"/>
<path d="M156.625 129.38L156.54 129.339L156.526 129.246C155.857 124.573 156.649 119.381 158.881 113.814C159.981 111.089 162.026 108.849 164.643 107.503C167.261 106.156 170.276 105.792 173.14 106.476C174.789 106.882 176.337 107.624 177.683 108.657C179.03 109.69 180.147 110.991 180.964 112.477C181.77 113.948 182.261 115.57 182.406 117.239C182.551 118.909 182.346 120.591 181.805 122.178C178.991 130.385 175.341 138.064 175.305 138.14L175.228 138.301L156.625 129.38Z" fill="#F79AD3"/>
<path d="M137.073 117.741C137.505 117.401 138.003 117.156 138.536 117.022C139.069 116.887 139.625 116.867 140.166 116.962C140.708 117.057 141.223 117.265 141.678 117.572C142.134 117.879 142.519 118.279 142.808 118.745C142.899 118.893 142.98 119.047 143.049 119.206L160.057 122.635L164.586 112.021C164.759 111.616 165.011 111.248 165.327 110.941C165.643 110.633 166.017 110.39 166.428 110.227C166.838 110.065 167.277 109.984 167.719 109.992C168.161 109.999 168.597 110.093 169.002 110.27C169.407 110.446 169.773 110.7 170.079 111.019C170.384 111.337 170.624 111.712 170.783 112.123C170.943 112.534 171.019 112.972 171.008 113.413C170.997 113.854 170.898 114.288 170.718 114.69L164.082 129.487L164.063 129.519C163.678 130.043 163.134 130.43 162.512 130.622C161.889 130.814 161.221 130.8 160.606 130.583L141.861 123.883C141.76 123.962 141.655 124.035 141.547 124.102C141.079 124.391 140.556 124.578 140.011 124.651C139.466 124.724 138.912 124.681 138.385 124.526C137.858 124.37 137.37 124.105 136.952 123.748C136.535 123.392 136.198 122.951 135.963 122.455C135.915 122.355 135.872 122.254 135.834 122.151C135.548 121.379 135.514 120.538 135.737 119.745C135.959 118.953 136.427 118.252 137.073 117.741Z" fill="#A0616A"/>
<path d="M203.344 103.814C202.505 102.331 201.282 100.973 199.666 100.425C197.579 99.7172 195.319 100.471 193.173 100.974C191.52 101.362 189.792 101.599 188.126 101.272C186.46 100.945 184.852 99.9775 184.094 98.4618C182.979 96.2319 183.918 93.5729 183.85 91.0819C183.815 89.7258 183.472 88.3954 182.847 87.1908C182.222 85.9863 181.33 84.939 180.24 84.128C179.15 83.317 177.889 82.7634 176.553 82.509C175.218 82.2545 173.841 82.3059 172.528 82.6591C170.473 82.0677 168.613 82.013 167.342 83.5884C165.743 83.5884 164.209 84.222 163.078 85.3498C161.948 86.4775 161.313 88.0071 161.312 89.602H167.078C166.804 91.0682 167.117 92.5829 167.948 93.8225C168.966 95.3138 170.736 96.3926 171.076 98.1643C171.407 99.8812 170.236 101.51 169.009 102.758C167.782 104.006 166.358 105.243 165.974 106.949C165.74 108.244 166.006 109.579 166.721 110.686C167.434 111.779 168.318 112.751 169.34 113.564C173.946 117.499 179.419 120.292 185.314 121.714C189.465 122.711 194.005 122.969 197.859 121.136C199.4 120.402 200.774 119.36 201.895 118.075C203.016 116.789 203.86 115.288 204.374 113.663C204.888 112.039 205.062 110.326 204.885 108.632C204.708 106.938 204.183 105.298 203.344 103.814Z" fill="#2F3061"/>
<path d="M204.645 220H137.258C137.164 220 137.074 219.963 137.007 219.896C136.941 219.83 136.903 219.74 136.903 219.646C136.903 219.552 136.941 219.462 137.007 219.396C137.074 219.33 137.164 219.292 137.258 219.292H204.645C204.739 219.292 204.83 219.33 204.896 219.396C204.963 219.462 205 219.552 205 219.646C205 219.74 204.963 219.83 204.896 219.896C204.83 219.963 204.739 220 204.645 220Z" fill="#CCCCCC"/>
</svg>
