<svg width="242" height="190" viewBox="0 0 242 190" fill="none" xmlns="http://www.w3.org/2000/svg">
<g clip-path="url(#clip0)">
<path d="M219.695 0.124023H0.09375V140.383H219.695V0.124023Z" fill="#E6E6E6"/>
<path d="M213.416 17.7163H6.37323V132.086H213.416V17.7163Z" fill="white"/>
<path d="M219.602 0H0V9.30405H219.602V0Z" fill="#C86FC9"/>
<path d="M6.93294 6.48109C7.88793 6.48109 8.66209 5.70904 8.66209 4.75666C8.66209 3.80428 7.88793 3.03223 6.93294 3.03223C5.97796 3.03223 5.2038 3.80428 5.2038 4.75666C5.2038 5.70904 5.97796 6.48109 6.93294 6.48109Z" fill="white"/>
<path d="M13.4963 6.48109C14.4513 6.48109 15.2255 5.70904 15.2255 4.75666C15.2255 3.80428 14.4513 3.03223 13.4963 3.03223C12.5413 3.03223 11.7672 3.80428 11.7672 4.75666C11.7672 5.70904 12.5413 6.48109 13.4963 6.48109Z" fill="white"/>
<path d="M20.0597 6.48109C21.0147 6.48109 21.7889 5.70904 21.7889 4.75666C21.7889 3.80428 21.0147 3.03223 20.0597 3.03223C19.1047 3.03223 18.3306 3.80428 18.3306 4.75666C18.3306 5.70904 19.1047 6.48109 20.0597 6.48109Z" fill="white"/>
<path d="M78.3861 29.583H25.1859V120.219H78.3861V29.583Z" fill="#E6E6E6"/>
<path d="M131.903 29.583H87.5695V54.5316H131.903V29.583Z" fill="#C86FC9"/>
<path d="M131.903 61.4795H87.5695V88.3229H131.903V61.4795Z" fill="#E6E6E6"/>
<path d="M131.903 95.2705H87.5695V120.219H131.903V95.2705Z" fill="#E6E6E6"/>
<path d="M194.603 29.583H141.403V69.0817H194.603V29.583Z" fill="#E6E6E6"/>
<path d="M194.603 80.7202H141.403V120.219H194.603V80.7202Z" fill="#E6E6E6"/>
<path d="M174.109 71.9192V63.4157C174.109 60.3936 175.313 57.4953 177.455 55.3584C179.598 53.2215 182.504 52.021 185.535 52.021C188.565 52.021 191.471 53.2215 193.614 55.3584C195.757 57.4953 196.96 60.3936 196.96 63.4157V71.9192C196.96 72.325 196.798 72.714 196.51 73.001C196.223 73.2879 195.832 73.4493 195.426 73.4498H175.644C175.237 73.4493 174.846 73.2879 174.559 73.001C174.271 72.714 174.109 72.325 174.109 71.9192Z" fill="#2F3061"/>
<path d="M202.43 182.582L198.4 183.694L192.18 168.722L198.128 167.081L202.43 182.582Z" fill="#C86FC9"/>
<path d="M195.202 183.341L202.974 181.196L204.329 186.076L191.663 189.572C191.485 188.931 191.436 188.261 191.517 187.601C191.599 186.941 191.81 186.304 192.139 185.725C192.467 185.147 192.907 184.638 193.433 184.229C193.958 183.82 194.56 183.518 195.202 183.341Z" fill="#2F3061"/>
<path d="M160.415 185.674H156.233L154.244 169.589H160.415L160.415 185.674Z" fill="#C86FC9"/>
<path d="M153.246 184.482H161.31V189.546H148.169C148.169 188.881 148.3 188.223 148.555 187.608C148.81 186.994 149.184 186.436 149.656 185.966C150.127 185.495 150.687 185.122 151.303 184.868C151.919 184.613 152.579 184.482 153.246 184.482Z" fill="#2F3061"/>
<path d="M155.372 95.7826C155.671 96.1844 156.054 96.516 156.495 96.7542C156.936 96.9923 157.424 97.1311 157.924 97.1609C158.425 97.1906 158.926 97.1106 159.392 96.9264C159.858 96.7421 160.278 96.4582 160.622 96.0947L171.738 101.08L170.727 94.8452L160.326 91.0665C159.675 90.5303 158.85 90.2508 158.006 90.281C157.163 90.3112 156.359 90.649 155.749 91.2303C155.138 91.8116 154.763 92.5961 154.693 93.4351C154.624 94.2741 154.865 95.1094 155.372 95.7826H155.372Z" fill="#C86FC9"/>
<path d="M178.468 133.279C174.975 133.279 171.36 132.76 168.321 131.217C166.708 130.414 165.278 129.288 164.122 127.909C162.965 126.53 162.106 124.927 161.599 123.202C160.016 118.202 162.012 113.29 163.943 108.54C165.139 105.596 166.269 102.816 166.562 100.076L166.665 99.1031C167.121 94.7331 167.516 90.959 169.699 89.5435C170.831 88.8097 172.353 88.7679 174.352 89.4152L193.126 95.4974L192.435 131.039L192.321 131.077C192.223 131.11 185.605 133.279 178.468 133.279Z" fill="#2F3061"/>
<path d="M174.023 78.3506C174.023 78.3506 183.232 75.6294 190.395 76.6499C190.395 76.6499 186.302 99.0991 187.666 106.582C189.03 114.065 163.962 109.473 169.078 102.33L170.783 93.8269C170.783 93.8269 167.373 90.4255 170.442 86.3438L174.023 78.3506Z" fill="#C86FC9"/>
<path d="M169.494 132.605L158.144 130.483L162.107 100.072C162.373 99.2233 168.511 79.9554 171.299 78.9129C173.323 78.202 175.393 77.6285 177.495 77.1963L177.899 77.1157L175.623 80.5201L166.563 102.171L169.494 132.605Z" fill="#2F3061"/>
<path d="M163.58 181.947L148.916 179.51L157.145 145.998L169.391 100.168L169.512 100.982C169.521 101.043 170.665 107.03 187.64 104.373L187.789 104.35L187.83 104.495L208.346 176.788L191.637 179.565L176.397 126.82L163.58 181.947Z" fill="#2F3061"/>
<path d="M183.905 138.296L183.915 138.039C183.925 137.753 184.934 109.34 184.597 97.9136C184.259 86.4478 187.981 76.5185 188.018 76.4195L188.049 76.3398L188.131 76.3162C192.947 74.9442 197.125 79.0392 197.166 79.0807L197.225 79.1391L195.853 90.4237L201.725 131.459L183.905 138.296Z" fill="#2F3061"/>
<path d="M183.187 73.2518C187.813 73.2518 191.564 69.5115 191.564 64.8976C191.564 60.2838 187.813 56.5435 183.187 56.5435C178.56 56.5435 174.81 60.2838 174.81 64.8976C174.81 69.5115 178.56 73.2518 183.187 73.2518Z" fill="#C86FC9"/>
<path d="M171.406 64.0957C171.408 61.706 172.361 59.4149 174.056 57.7251C175.75 56.0353 178.048 55.0847 180.444 55.082H182.149C184.546 55.0847 186.843 56.0353 188.537 57.7251C190.232 59.4149 191.185 61.706 191.188 64.0957V64.2658H187.584L186.355 60.8332L186.109 64.2658H184.246L183.626 62.5339L183.502 64.2658H171.406V64.0957Z" fill="#2F3061"/>
<path d="M182.362 74.406C182.193 74.1776 182.092 73.9061 182.071 73.6228C182.049 73.3396 182.109 73.0561 182.242 72.805C184.049 69.377 186.58 63.0429 183.221 59.1366L182.98 58.856H192.73V73.4547L183.872 75.0132C183.783 75.0291 183.692 75.0371 183.601 75.0372C183.359 75.0371 183.121 74.9799 182.905 74.8702C182.69 74.7605 182.504 74.6014 182.362 74.406Z" fill="#2F3061"/>
<path d="M143.106 14.1314C136.283 8.38993 127.934 4.74993 119.075 3.6543C110.216 2.55868 101.228 4.05467 93.2056 7.96024C85.1832 11.8658 78.4722 18.0126 73.8889 25.6525C69.3057 33.2925 67.048 42.0963 67.3904 50.9926C67.7329 59.8889 70.6608 68.4941 75.8179 75.7612C80.9749 83.0282 88.1388 88.6438 96.4378 91.9245C104.737 95.2052 113.813 96.0096 122.562 94.2398C131.311 92.4701 139.356 88.2024 145.717 81.9562L202.204 129.49C203.064 130.215 204.177 130.569 205.298 130.475C206.42 130.382 207.458 129.848 208.185 128.99C208.911 128.133 209.267 127.023 209.173 125.905C209.079 124.786 208.543 123.751 207.684 123.026L207.678 123.021L151.19 75.4873C157.752 66.095 160.561 54.5974 159.065 43.2477C157.57 31.8979 151.878 21.5142 143.106 14.1314ZM139.464 70.9101C135.064 76.1112 129.216 79.894 122.659 81.7804C116.103 83.6667 109.133 83.5718 102.63 81.5076C96.128 79.4434 90.3855 75.5026 86.129 70.1837C81.8724 64.8647 79.293 58.4064 78.717 51.6255C78.1409 44.8446 79.5941 38.0456 82.8927 32.0883C86.1913 26.131 91.1872 21.283 97.2486 18.1573C103.31 15.0316 110.165 13.7686 116.946 14.5281C123.727 15.2875 130.13 18.0353 135.345 22.4239H135.346C138.808 25.3378 141.662 28.9034 143.743 32.9171C145.824 36.9308 147.092 41.3139 147.474 45.8163C147.857 50.3186 147.346 54.852 145.972 59.1576C144.598 63.4633 142.386 67.4568 139.464 70.9101Z" fill="#3F3D56"/>
<path opacity="0.3" d="M90.8457 75.018C84.2269 69.4477 79.9506 61.5989 78.866 53.0299C77.7814 44.4609 79.9678 35.7985 84.9911 28.7627C84.3314 29.4252 83.6937 30.1191 83.0779 30.8443C80.156 34.2977 77.9447 38.2912 76.5704 42.5968C75.1961 46.9024 74.6856 51.4358 75.0681 55.9382C75.4506 60.4405 76.7185 64.8237 78.7996 68.8373C80.8806 72.851 83.734 76.4166 87.1968 79.3305C90.6596 82.2445 94.664 84.4497 98.9814 85.8203C103.299 87.1908 107.845 87.7 112.359 87.3185C116.874 86.9371 121.269 85.6726 125.294 83.5972C129.318 81.5218 132.894 78.6762 135.816 75.2228C136.43 74.4967 137.009 73.753 137.551 72.9919C131.442 79.1136 123.247 82.7203 114.595 83.0956C105.943 83.471 97.4651 80.5876 90.8457 75.018Z" fill="black"/>
<path d="M185.876 110.388C186.363 110.506 186.871 110.517 187.362 110.419C187.854 110.321 188.318 110.117 188.722 109.821C189.126 109.525 189.46 109.144 189.7 108.705C189.941 108.266 190.082 107.78 190.114 107.281L201.858 104.03L197.084 99.8794L186.663 103.603C185.819 103.605 185.005 103.917 184.376 104.478C183.746 105.038 183.345 105.81 183.248 106.647C183.151 107.483 183.365 108.326 183.849 109.015C184.334 109.705 185.055 110.193 185.876 110.388Z" fill="#C86FC9"/>
<path d="M190.757 108.667L190.043 101.896L199.853 96.4981L193.457 88.7768L194.5 80.1034L197.099 78.9927L197.18 79.0963C198.406 80.6678 209.154 94.4981 209.154 96.2078C209.154 97.9638 207.097 103.12 204.284 104.523C201.571 105.876 191.381 108.506 190.949 108.618L190.757 108.667Z" fill="#2F3061"/>
<path d="M241.659 190H111.711C111.621 190 111.534 189.964 111.47 189.9C111.406 189.837 111.37 189.75 111.37 189.66C111.37 189.57 111.406 189.483 111.47 189.419C111.534 189.356 111.621 189.32 111.711 189.32H241.659C241.749 189.32 241.836 189.356 241.9 189.419C241.964 189.483 242 189.57 242 189.66C242 189.75 241.964 189.837 241.9 189.9C241.836 189.964 241.749 190 241.659 190Z" fill="#CCCCCC"/>
</g>
<defs>
<clipPath id="clip0">
<rect width="242" height="190" fill="white"/>
</clipPath>
</defs>
</svg>
