<svg width="23704" height="4116" viewBox="0 0 23704 4116" fill="none" xmlns="http://www.w3.org/2000/svg">
<rect x="21.5" y="1415.5" width="4101" height="1132" fill="white" stroke="#FF9CEB" stroke-width="43"/>
<rect x="5559.5" y="1415.5" width="5523" height="1132" fill="white" stroke="#FF9CEB" stroke-width="43"/>
<rect x="12519.5" y="1415.5" width="4303" height="1132" fill="white" stroke="#FF9CEB" stroke-width="43"/>
<rect x="19548.5" y="21.5" width="4101" height="1132" fill="white" stroke="#FF9CEB" stroke-width="43"/>
<rect x="19581.5" y="2962.5" width="4101" height="1132" fill="white" stroke="#FF9CEB" stroke-width="43"/>
<path d="M529.552 2092L506.512 2040.16H432.208L409.168 2092H370.864L469.36 1879.17L567.856 2092H529.552ZM469.36 1947.42L442 2011.36H496.72L469.36 1947.42ZM591.308 1890.4H652.076C666.86 1890.4 679.628 1892.99 690.38 1898.18C701.132 1903.17 709.484 1910.37 715.436 1919.78C721.388 1929.18 724.364 1940.32 724.364 1953.18C724.364 1972.38 717.836 1987.65 704.78 1998.98C691.724 2010.11 674.156 2015.68 652.076 2015.68H625.292V2092H591.308V1890.4ZM652.076 1920.35H625.292V1985.73H652.076C663.788 1985.73 673.196 1983.04 680.3 1977.66C687.404 1972.1 690.956 1963.94 690.956 1953.18C690.956 1942.43 687.404 1934.27 680.3 1928.7C673.196 1923.14 663.788 1920.35 652.076 1920.35ZM757.808 1890.4H818.576C833.36 1890.4 846.128 1892.99 856.88 1898.18C867.632 1903.17 875.984 1910.37 881.936 1919.78C887.888 1929.18 890.864 1940.32 890.864 1953.18C890.864 1972.38 884.336 1987.65 871.28 1998.98C858.224 2010.11 840.656 2015.68 818.576 2015.68H791.792V2092H757.808V1890.4ZM818.576 1920.35H791.792V1985.73H818.576C830.288 1985.73 839.696 1983.04 846.8 1977.66C853.904 1972.1 857.456 1963.94 857.456 1953.18C857.456 1942.43 853.904 1934.27 846.8 1928.7C839.696 1923.14 830.288 1920.35 818.576 1920.35ZM924.308 1890.4H958.292V2061.47H1038.36V2092H924.308V1890.4ZM1062.96 1890.4H1097.24V2092H1062.96V1890.4ZM1167.62 1991.2C1167.62 2005.41 1170.79 2017.89 1177.12 2028.64C1183.46 2039.39 1191.81 2047.74 1202.18 2053.7C1212.74 2059.46 1224.16 2062.34 1236.45 2062.34C1250.66 2062.34 1262.95 2059.65 1273.32 2054.27C1283.88 2048.7 1292.61 2041.79 1299.52 2033.54V2074.14C1291.27 2081.06 1282.15 2086.34 1272.16 2089.98C1262.37 2093.63 1250.08 2095.46 1235.3 2095.46C1220.52 2095.46 1206.79 2092.96 1194.12 2087.97C1181.44 2082.78 1170.31 2075.58 1160.71 2066.37C1151.3 2057.15 1143.91 2046.21 1138.53 2033.54C1133.35 2020.67 1130.76 2006.56 1130.76 1991.2C1130.76 1975.84 1133.35 1961.82 1138.53 1949.15C1143.91 1936.29 1151.3 1925.25 1160.71 1916.03C1170.31 1906.82 1181.44 1899.71 1194.12 1894.72C1206.79 1889.54 1220.52 1886.94 1235.3 1886.94C1250.08 1886.94 1262.37 1888.77 1272.16 1892.42C1282.15 1896.06 1291.27 1901.34 1299.52 1908.26V1948.86C1292.61 1940.61 1283.88 1933.79 1273.32 1928.42C1262.95 1922.85 1250.66 1920.06 1236.45 1920.06C1224.16 1920.06 1212.74 1923.04 1202.18 1928.99C1191.81 1934.75 1183.46 1943.01 1177.12 1953.76C1170.79 1964.32 1167.62 1976.8 1167.62 1991.2ZM1474.27 2092L1451.23 2040.16H1376.93L1353.89 2092H1315.58L1414.08 1879.17L1512.57 2092H1474.27ZM1414.08 1947.42L1386.72 2011.36H1441.44L1414.08 1947.42ZM1495.62 1921.79V1890.4H1636.16V1921.79H1582.88V2092H1548.61V1921.79H1495.62ZM1660.62 1890.4H1694.89V2092H1660.62V1890.4ZM1728.41 1991.2C1728.41 1976.22 1731 1962.4 1736.19 1949.73C1741.37 1936.86 1748.67 1925.82 1758.08 1916.61C1767.68 1907.2 1778.81 1899.9 1791.48 1894.72C1804.16 1889.54 1817.98 1886.94 1832.96 1886.94C1847.93 1886.94 1861.76 1889.54 1874.43 1894.72C1887.29 1899.9 1898.43 1907.2 1907.84 1916.61C1917.44 1925.82 1924.83 1936.86 1930.01 1949.73C1935.2 1962.4 1937.79 1976.22 1937.79 1991.2C1937.79 2006.18 1935.2 2020.1 1930.01 2032.96C1924.83 2045.63 1917.53 2056.77 1908.12 2066.37C1898.72 2075.78 1887.58 2083.17 1874.72 2088.54C1862.04 2093.73 1848.12 2096.32 1832.96 2096.32C1817.79 2096.32 1803.87 2093.73 1791.2 2088.54C1778.52 2083.17 1767.48 2075.78 1758.08 2066.37C1748.67 2056.77 1741.37 2045.63 1736.19 2032.96C1731 2020.1 1728.41 2006.18 1728.41 1991.2ZM1764.41 1991.2C1764.41 2005.02 1767.29 2017.41 1773.05 2028.35C1779 2039.1 1787.16 2047.55 1797.53 2053.7C1807.9 2059.84 1819.71 2062.91 1832.96 2062.91C1846.4 2062.91 1858.2 2059.84 1868.38 2053.7C1878.75 2047.55 1886.81 2039.1 1892.57 2028.35C1898.52 2017.41 1901.5 2005.02 1901.5 1991.2C1901.5 1977.38 1898.62 1965.09 1892.86 1954.34C1887.1 1943.39 1879.04 1934.85 1868.67 1928.7C1858.49 1922.56 1846.59 1919.49 1832.96 1919.49C1819.71 1919.49 1807.9 1922.56 1797.53 1928.7C1787.16 1934.85 1779 1943.39 1773.05 1954.34C1767.29 1965.09 1764.41 1977.38 1764.41 1991.2ZM2118.01 1890.4H2151.42V2102.08L2004.25 1956.64V2092H1970.84V1880.32L2118.01 2025.76V1890.4ZM2295.71 2026.91C2302.24 2038.62 2309.63 2048.03 2317.89 2055.14C2326.34 2062.24 2336.22 2065.79 2347.55 2065.79C2356.96 2065.79 2364.45 2063.39 2370.02 2058.59C2375.78 2053.6 2378.66 2047.07 2378.66 2039.01C2378.66 2031.52 2376.83 2025.57 2373.18 2021.15C2369.54 2016.54 2364.45 2012.7 2357.92 2009.63C2351.58 2006.37 2344.19 2003.2 2335.74 2000.13C2330.75 1998.4 2325.18 1996.1 2319.04 1993.22C2312.9 1990.34 2307.04 1986.69 2301.47 1982.27C2295.9 1977.66 2291.3 1972 2287.65 1965.28C2284 1958.56 2282.18 1950.5 2282.18 1941.09C2282.18 1930.34 2284.96 1920.93 2290.53 1912.86C2296.1 1904.61 2303.58 1898.27 2312.99 1893.86C2322.59 1889.25 2333.44 1886.94 2345.54 1886.94C2357.44 1886.94 2367.81 1889.06 2376.64 1893.28C2385.47 1897.5 2392.86 1902.88 2398.82 1909.41C2404.96 1915.94 2409.76 1922.75 2413.22 1929.86L2385.57 1945.41C2381.34 1938.11 2376.06 1931.58 2369.73 1925.82C2363.39 1920.06 2355.14 1917.18 2344.96 1917.18C2335.55 1917.18 2328.64 1919.39 2324.22 1923.81C2319.81 1928.22 2317.6 1933.22 2317.6 1938.78C2317.6 1946.66 2321.15 1953.38 2328.26 1958.94C2335.36 1964.51 2347.07 1970.08 2363.39 1975.65C2371.46 1978.34 2379.42 1982.18 2387.3 1987.17C2395.17 1992.16 2401.7 1998.69 2406.88 2006.75C2412.06 2014.62 2414.66 2024.42 2414.66 2036.13C2414.66 2048.61 2411.39 2059.36 2404.86 2068.38C2398.53 2077.41 2390.27 2084.32 2380.1 2089.12C2369.92 2093.92 2359.07 2096.32 2347.55 2096.32C2335.84 2096.32 2324.9 2094.02 2314.72 2089.41C2304.74 2084.61 2295.9 2078.37 2288.22 2070.69C2280.74 2062.82 2274.78 2054.18 2270.37 2044.77L2295.71 2026.91ZM2447.52 1890.4H2481.51V2024.32C2481.51 2036.61 2484.87 2046.59 2491.59 2054.27C2498.31 2061.95 2508.1 2065.79 2520.96 2065.79C2534.02 2065.79 2543.81 2061.95 2550.34 2054.27C2557.06 2046.59 2560.42 2036.61 2560.42 2024.32V1890.4H2594.4V2025.76C2594.4 2040.54 2591.24 2053.31 2584.9 2064.06C2578.76 2074.62 2570.12 2082.78 2558.98 2088.54C2548.04 2094.3 2535.36 2097.18 2520.96 2097.18C2506.56 2097.18 2493.8 2094.3 2482.66 2088.54C2471.72 2082.78 2463.08 2074.62 2456.74 2064.06C2450.6 2053.31 2447.52 2040.54 2447.52 2025.76V1890.4ZM2774.76 2033.82C2774.76 2047.07 2771.6 2058.02 2765.26 2066.66C2759.12 2075.3 2750.57 2081.73 2739.63 2085.95C2728.88 2089.98 2716.4 2092 2702.19 2092H2637.96V1890.4H2698.73C2717.93 1890.4 2733.48 1894.62 2745.39 1903.07C2757.29 1911.33 2763.24 1924 2763.24 1941.09C2763.24 1951.26 2760.46 1959.9 2754.89 1967.01C2749.32 1973.92 2741.64 1979.2 2731.85 1982.85C2744.33 1986.11 2754.6 1991.97 2762.67 2000.42C2770.73 2008.67 2774.76 2019.81 2774.76 2033.82ZM2696.43 1918.34H2671.95V1971.33H2696.43C2705.84 1971.33 2713.52 1969.02 2719.47 1964.42C2725.42 1959.62 2728.4 1953.09 2728.4 1944.83C2728.4 1936.38 2725.42 1929.86 2719.47 1925.25C2713.52 1920.64 2705.84 1918.34 2696.43 1918.34ZM2671.95 2064.06H2700.17C2711.69 2064.06 2721.2 2061.28 2728.68 2055.71C2736.17 2049.95 2739.92 2041.5 2739.92 2030.37C2739.92 2019.42 2736.17 2011.26 2728.68 2005.89C2721.2 2000.51 2711.69 1997.82 2700.17 1997.82H2671.95V2064.06ZM2848.09 1969.31L2834.27 2092H2799.13L2826.78 1880.32L2909.44 2017.12L2992.38 1880.32L3020.03 2092H2984.89L2971.07 1969.31L2909.44 2073.28L2848.09 1969.31ZM3053.09 1890.4H3087.36V2092H3053.09V1890.4ZM3112.24 1921.79V1890.4H3252.79V1921.79H3199.51V2092H3165.23V1921.79H3112.24ZM3265.8 1921.79V1890.4H3406.35V1921.79H3353.07V2092H3318.8V1921.79H3265.8ZM3430.81 1890.4H3553.5V1920.35H3464.22V1969.31H3547.74V1998.69H3464.22V2062.05H3553.5V2092H3430.81V1890.4ZM3660.43 2092H3595.34V1890.4H3660.43C3680.97 1890.4 3699.02 1894.62 3714.57 1903.07C3730.12 1911.33 3742.22 1923.04 3750.86 1938.21C3759.69 1953.18 3764.11 1970.85 3764.11 1991.2C3764.11 2011.36 3759.69 2029.02 3750.86 2044.19C3742.22 2059.36 3730.12 2071.17 3714.57 2079.62C3699.02 2087.87 3680.97 2092 3660.43 2092ZM3659.56 1922.37H3630.19V2060.03H3659.56C3672.81 2060.03 3684.72 2057.44 3695.28 2052.26C3705.84 2047.07 3714.09 2039.39 3720.04 2029.22C3726.19 2019.04 3729.26 2006.37 3729.26 1991.2C3729.26 1976.03 3726.19 1963.36 3720.04 1953.18C3714.09 1943.01 3705.84 1935.33 3695.28 1930.14C3684.72 1924.96 3672.81 1922.37 3659.56 1922.37Z" fill="#818286"/>
<path d="M21113.6 688L21090.5 636.16H21016.2L20993.2 688H20954.9L21053.4 475.168L21151.9 688H21113.6ZM21053.4 543.424L21026 607.36H21080.7L21053.4 543.424ZM21191.9 587.2C21191.9 601.408 21195.1 613.888 21201.4 624.64C21207.8 635.392 21216.1 643.744 21226.5 649.696C21237.1 655.456 21248.5 658.336 21260.8 658.336C21275 658.336 21287.3 655.648 21297.6 650.272C21308.2 644.704 21316.9 637.792 21323.8 629.536V670.144C21315.6 677.056 21306.5 682.336 21296.5 685.984C21286.7 689.632 21274.4 691.456 21259.6 691.456C21244.8 691.456 21231.1 688.96 21218.4 683.968C21205.8 678.784 21194.6 671.584 21185 662.368C21175.6 653.152 21168.2 642.208 21162.8 629.536C21157.7 616.672 21155.1 602.56 21155.1 587.2C21155.1 571.84 21157.7 557.824 21162.8 545.152C21168.2 532.288 21175.6 521.248 21185 512.032C21194.6 502.816 21205.8 495.712 21218.4 490.72C21231.1 485.536 21244.8 482.944 21259.6 482.944C21274.4 482.944 21286.7 484.768 21296.5 488.416C21306.5 492.064 21315.6 497.344 21323.8 504.256V544.864C21316.9 536.608 21308.2 529.792 21297.6 524.416C21287.3 518.848 21275 516.064 21260.8 516.064C21248.5 516.064 21237.1 519.04 21226.5 524.992C21216.1 530.752 21207.8 539.008 21201.4 549.76C21195.1 560.32 21191.9 572.8 21191.9 587.2ZM21391.1 587.2C21391.1 601.408 21394.2 613.888 21400.6 624.64C21406.9 635.392 21415.3 643.744 21425.6 649.696C21436.2 655.456 21447.6 658.336 21459.9 658.336C21474.1 658.336 21486.4 655.648 21496.8 650.272C21507.3 644.704 21516.1 637.792 21523 629.536V670.144C21514.7 677.056 21505.6 682.336 21495.6 685.984C21485.8 689.632 21473.5 691.456 21458.7 691.456C21444 691.456 21430.2 688.96 21417.6 683.968C21404.9 678.784 21393.7 671.584 21384.1 662.368C21374.7 653.152 21367.3 642.208 21362 629.536C21356.8 616.672 21354.2 602.56 21354.2 587.2C21354.2 571.84 21356.8 557.824 21362 545.152C21367.3 532.288 21374.7 521.248 21384.1 512.032C21393.7 502.816 21404.9 495.712 21417.6 490.72C21430.2 485.536 21444 482.944 21458.7 482.944C21473.5 482.944 21485.8 484.768 21495.6 488.416C21505.6 492.064 21514.7 497.344 21523 504.256V544.864C21516.1 536.608 21507.3 529.792 21496.8 524.416C21486.4 518.848 21474.1 516.064 21459.9 516.064C21447.6 516.064 21436.2 519.04 21425.6 524.992C21415.3 530.752 21406.9 539.008 21400.6 549.76C21394.2 560.32 21391.1 572.8 21391.1 587.2ZM21564.8 486.4H21687.5V516.352H21598.2V565.312H21681.8V594.688H21598.2V658.048H21687.5V688H21564.8V486.4ZM21729.4 486.4H21790.1C21804.9 486.4 21817.7 488.992 21828.4 494.176C21839.2 499.168 21847.5 506.368 21853.5 515.776C21859.5 525.184 21862.4 536.32 21862.4 549.184C21862.4 568.384 21855.9 583.648 21842.8 594.976C21829.8 606.112 21812.2 611.68 21790.1 611.68H21763.4V688H21729.4V486.4ZM21790.1 516.352H21763.4V581.728H21790.1C21801.9 581.728 21811.3 579.04 21818.4 573.664C21825.5 568.096 21829 559.936 21829 549.184C21829 538.432 21825.5 530.272 21818.4 524.704C21811.3 519.136 21801.9 516.352 21790.1 516.352ZM21867 517.792V486.4H22007.5V517.792H21954.3V688H21920V517.792H21867ZM22032 486.4H22154.7V516.352H22065.4V565.312H22148.9V594.688H22065.4V658.048H22154.7V688H22032V486.4ZM22261.6 688H22196.5V486.4H22261.6C22282.2 486.4 22300.2 490.624 22315.8 499.072C22331.3 507.328 22343.4 519.04 22352 534.208C22360.9 549.184 22365.3 566.848 22365.3 587.2C22365.3 607.36 22360.9 625.024 22352 640.192C22343.4 655.36 22331.3 667.168 22315.8 675.616C22300.2 683.872 22282.2 688 22261.6 688ZM22260.8 518.368H22231.4V656.032H22260.8C22274 656.032 22285.9 653.44 22296.5 648.256C22307 643.072 22315.3 635.392 22321.2 625.216C22327.4 615.04 22330.4 602.368 22330.4 587.2C22330.4 572.032 22327.4 559.36 22321.2 549.184C22315.3 539.008 22307 531.328 22296.5 526.144C22285.9 520.96 22274 518.368 22260.8 518.368Z" fill="#818286"/>
<path d="M21009.5 3427.4H21071.7C21086.5 3427.4 21099.2 3429.99 21110 3435.18C21120.9 3440.36 21129.4 3447.66 21135.3 3457.06C21141.3 3466.47 21144.2 3477.51 21144.2 3490.18C21144.2 3504.78 21140.2 3517.26 21132.2 3527.62C21124.3 3537.8 21113.3 3544.9 21099.3 3548.94L21156.3 3629H21115.2L21064.5 3552.68H21043.4V3629H21009.5V3427.4ZM21070.2 3457.06H21043.4V3524.46H21070.2C21081.9 3524.46 21091.4 3521.58 21098.5 3515.82C21105.6 3509.86 21109.1 3501.51 21109.1 3490.76C21109.1 3480.01 21105.6 3471.75 21098.5 3465.99C21091.4 3460.04 21081.9 3457.06 21070.2 3457.06ZM21180.5 3427.4H21303.2V3457.35H21213.9V3506.31H21297.4V3535.69H21213.9V3599.05H21303.2V3629H21180.5V3427.4ZM21302.7 3654.34C21307.7 3660.87 21315.3 3664.14 21325.7 3664.14C21330.1 3664.14 21334.4 3662.31 21338.7 3658.66C21342.9 3655.02 21345 3648.58 21345 3639.37V3427.4H21379.8V3645.7C21379.8 3662.79 21374.9 3675.18 21364.9 3682.86C21354.9 3690.73 21342.2 3694.66 21326.9 3694.66C21317.8 3694.66 21309.5 3692.84 21301.8 3689.19C21293.9 3685.74 21288.2 3682.47 21284.5 3679.4L21302.7 3654.34ZM21424.6 3427.4H21547.3V3457.35H21458V3506.31H21541.5V3535.69H21458V3599.05H21547.3V3629H21424.6V3427.4ZM21614.5 3528.2C21614.5 3542.41 21617.6 3554.89 21624 3565.64C21630.3 3576.39 21638.7 3584.74 21649 3590.7C21659.6 3596.46 21671 3599.34 21683.3 3599.34C21697.5 3599.34 21709.8 3596.65 21720.2 3591.27C21730.7 3585.7 21739.5 3578.79 21746.4 3570.54V3611.14C21738.1 3618.06 21729 3623.34 21719 3626.98C21709.2 3630.63 21696.9 3632.46 21682.1 3632.46C21667.4 3632.46 21653.6 3629.96 21641 3624.97C21628.3 3619.78 21617.2 3612.58 21607.6 3603.37C21598.1 3594.15 21590.8 3583.21 21585.4 3570.54C21580.2 3557.67 21577.6 3543.56 21577.6 3528.2C21577.6 3512.84 21580.2 3498.82 21585.4 3486.15C21590.8 3473.29 21598.1 3462.25 21607.6 3453.03C21617.2 3443.82 21628.3 3436.71 21641 3431.72C21653.6 3426.54 21667.4 3423.94 21682.1 3423.94C21696.9 3423.94 21709.2 3425.77 21719 3429.42C21729 3433.06 21738.1 3438.34 21746.4 3445.26V3485.86C21739.5 3477.61 21730.7 3470.79 21720.2 3465.42C21709.8 3459.85 21697.5 3457.06 21683.3 3457.06C21671 3457.06 21659.6 3460.04 21649 3465.99C21638.7 3471.75 21630.3 3480.01 21624 3490.76C21617.6 3501.32 21614.5 3513.8 21614.5 3528.2ZM21759.4 3458.79V3427.4H21899.9V3458.79H21846.6V3629H21812.4V3458.79H21759.4ZM21924.4 3427.4H22047.1V3457.35H21957.8V3506.31H22041.3V3535.69H21957.8V3599.05H22047.1V3629H21924.4V3427.4ZM22154 3629H22088.9V3427.4H22154C22174.5 3427.4 22192.6 3431.62 22208.1 3440.07C22223.7 3448.33 22235.8 3460.04 22244.4 3475.21C22253.3 3490.18 22257.7 3507.85 22257.7 3528.2C22257.7 3548.36 22253.3 3566.02 22244.4 3581.19C22235.8 3596.36 22223.7 3608.17 22208.1 3616.62C22192.6 3624.87 22174.5 3629 22154 3629ZM22153.1 3459.37H22123.7V3597.03H22153.1C22166.4 3597.03 22178.3 3594.44 22188.8 3589.26C22199.4 3584.07 22207.7 3576.39 22213.6 3566.22C22219.7 3556.04 22222.8 3543.37 22222.8 3528.2C22222.8 3513.03 22219.7 3500.36 22213.6 3490.18C22207.7 3480.01 22199.4 3472.33 22188.8 3467.14C22178.3 3461.96 22166.4 3459.37 22153.1 3459.37Z" fill="#818286"/>
<path d="M23031.5 3291C22900.5 3291 22794 3397.54 22794 3528.5C22794 3659.46 22900.5 3766 23031.5 3766C23162.5 3766 23269 3659.46 23269 3528.5C23269 3397.54 23162.5 3291 23031.5 3291ZM23117.5 3588.66C23119.3 3590.34 23120.7 3592.36 23121.6 3594.59C23122.6 3596.83 23123.1 3599.24 23123.2 3601.67C23123.2 3604.11 23122.7 3606.53 23121.8 3608.79C23120.9 3611.05 23119.6 3613.1 23117.8 3614.83C23116.1 3616.55 23114 3617.91 23111.8 3618.83C23109.5 3619.75 23107.1 3620.21 23104.7 3620.18C23102.2 3620.14 23099.8 3619.63 23097.6 3618.65C23095.4 3617.67 23093.3 3616.26 23091.7 3614.49L23031.5 3554.34L22971.3 3614.49C22967.9 3617.77 22963.3 3619.57 22958.5 3619.51C22953.8 3619.45 22949.2 3617.53 22945.8 3614.16C22942.5 3610.8 22940.5 3606.24 22940.5 3601.48C22940.4 3596.72 22942.2 3592.12 22945.5 3588.66L23005.7 3528.5L22945.5 3468.34C22942.2 3464.88 22940.4 3460.28 22940.5 3455.52C22940.5 3450.76 22942.5 3446.2 22945.8 3442.84C22949.2 3439.47 22953.8 3437.55 22958.5 3437.49C22963.3 3437.43 22967.9 3439.23 22971.3 3442.51L23031.5 3502.66L23091.7 3442.51C23095.1 3439.23 23099.7 3437.43 23104.5 3437.49C23109.2 3437.55 23113.8 3439.47 23117.2 3442.84C23120.5 3446.2 23122.5 3450.76 23122.5 3455.52C23122.6 3460.28 23120.8 3464.88 23117.5 3468.34L23057.3 3528.5L23117.5 3588.66Z" fill="#FF2F2B"/>
<path d="M22998.5 331C22867.5 331 22761 437.544 22761 568.5C22761 699.456 22867.5 806 22998.5 806C23129.5 806 23236 699.456 23236 568.5C23236 437.544 23129.5 331 22998.5 331ZM23053.5 469.641L23081 493.687L22997 589.715L22969.5 563.385L23053.5 469.641ZM22925.3 667.416L22844.8 586.769L22870.6 560.93L22951.2 641.577L22925.3 667.416ZM22999.6 668.319L22918.1 586.769L22943.9 560.941L22997.8 614.847L23124.6 469.641L23152.2 493.687L22999.6 668.319Z" fill="#5BF235"/>
<path d="M6390.55 2092L6367.51 2040.16H6293.21L6270.17 2092H6231.86L6330.36 1879.17L6428.86 2092H6390.55ZM6330.36 1947.42L6303 2011.36H6357.72L6330.36 1947.42ZM6452.31 1890.4H6513.08C6527.86 1890.4 6540.63 1892.99 6551.38 1898.18C6562.13 1903.17 6570.48 1910.37 6576.44 1919.78C6582.39 1929.18 6585.36 1940.32 6585.36 1953.18C6585.36 1972.38 6578.84 1987.65 6565.78 1998.98C6552.72 2010.11 6535.16 2015.68 6513.08 2015.68H6486.29V2092H6452.31V1890.4ZM6513.08 1920.35H6486.29V1985.73H6513.08C6524.79 1985.73 6534.2 1983.04 6541.3 1977.66C6548.4 1972.1 6551.96 1963.94 6551.96 1953.18C6551.96 1942.43 6548.4 1934.27 6541.3 1928.7C6534.2 1923.14 6524.79 1920.35 6513.08 1920.35ZM6618.81 1890.4H6679.58C6694.36 1890.4 6707.13 1892.99 6717.88 1898.18C6728.63 1903.17 6736.98 1910.37 6742.94 1919.78C6748.89 1929.18 6751.86 1940.32 6751.86 1953.18C6751.86 1972.38 6745.34 1987.65 6732.28 1998.98C6719.22 2010.11 6701.66 2015.68 6679.58 2015.68H6652.79V2092H6618.81V1890.4ZM6679.58 1920.35H6652.79V1985.73H6679.58C6691.29 1985.73 6700.7 1983.04 6707.8 1977.66C6714.9 1972.1 6718.46 1963.94 6718.46 1953.18C6718.46 1942.43 6714.9 1934.27 6707.8 1928.7C6700.7 1923.14 6691.29 1920.35 6679.58 1920.35ZM6785.31 1890.4H6819.29V2061.47H6899.36V2092H6785.31V1890.4ZM6923.96 1890.4H6958.24V2092H6923.96V1890.4ZM7028.62 1991.2C7028.62 2005.41 7031.79 2017.89 7038.12 2028.64C7044.46 2039.39 7052.81 2047.74 7063.18 2053.7C7073.74 2059.46 7085.16 2062.34 7097.45 2062.34C7111.66 2062.34 7123.95 2059.65 7134.32 2054.27C7144.88 2048.7 7153.61 2041.79 7160.52 2033.54V2074.14C7152.27 2081.06 7143.15 2086.34 7133.16 2089.98C7123.37 2093.63 7111.08 2095.46 7096.3 2095.46C7081.52 2095.46 7067.79 2092.96 7055.12 2087.97C7042.44 2082.78 7031.31 2075.58 7021.71 2066.37C7012.3 2057.15 7004.91 2046.21 6999.53 2033.54C6994.35 2020.67 6991.76 2006.56 6991.76 1991.2C6991.76 1975.84 6994.35 1961.82 6999.53 1949.15C7004.91 1936.29 7012.3 1925.25 7021.71 1916.03C7031.31 1906.82 7042.44 1899.71 7055.12 1894.72C7067.79 1889.54 7081.52 1886.94 7096.3 1886.94C7111.08 1886.94 7123.37 1888.77 7133.16 1892.42C7143.15 1896.06 7152.27 1901.34 7160.52 1908.26V1948.86C7153.61 1940.61 7144.88 1933.79 7134.32 1928.42C7123.95 1922.85 7111.66 1920.06 7097.45 1920.06C7085.16 1920.06 7073.74 1923.04 7063.18 1928.99C7052.81 1934.75 7044.46 1943.01 7038.12 1953.76C7031.79 1964.32 7028.62 1976.8 7028.62 1991.2ZM7335.27 2092L7312.23 2040.16H7237.93L7214.89 2092H7176.58L7275.08 1879.17L7373.57 2092H7335.27ZM7275.08 1947.42L7247.72 2011.36H7302.44L7275.08 1947.42ZM7356.62 1921.79V1890.4H7497.16V1921.79H7443.88V2092H7409.61V1921.79H7356.62ZM7521.62 1890.4H7555.89V2092H7521.62V1890.4ZM7589.41 1991.2C7589.41 1976.22 7592 1962.4 7597.19 1949.73C7602.37 1936.86 7609.67 1925.82 7619.08 1916.61C7628.68 1907.2 7639.81 1899.9 7652.48 1894.72C7665.16 1889.54 7678.98 1886.94 7693.96 1886.94C7708.93 1886.94 7722.76 1889.54 7735.43 1894.72C7748.29 1899.9 7759.43 1907.2 7768.84 1916.61C7778.44 1925.82 7785.83 1936.86 7791.01 1949.73C7796.2 1962.4 7798.79 1976.22 7798.79 1991.2C7798.79 2006.18 7796.2 2020.1 7791.01 2032.96C7785.83 2045.63 7778.53 2056.77 7769.12 2066.37C7759.72 2075.78 7748.58 2083.17 7735.72 2088.54C7723.04 2093.73 7709.12 2096.32 7693.96 2096.32C7678.79 2096.32 7664.87 2093.73 7652.2 2088.54C7639.52 2083.17 7628.48 2075.78 7619.08 2066.37C7609.67 2056.77 7602.37 2045.63 7597.19 2032.96C7592 2020.1 7589.41 2006.18 7589.41 1991.2ZM7625.41 1991.2C7625.41 2005.02 7628.29 2017.41 7634.05 2028.35C7640 2039.1 7648.16 2047.55 7658.53 2053.7C7668.9 2059.84 7680.71 2062.91 7693.96 2062.91C7707.4 2062.91 7719.2 2059.84 7729.38 2053.7C7739.75 2047.55 7747.81 2039.1 7753.57 2028.35C7759.52 2017.41 7762.5 2005.02 7762.5 1991.2C7762.5 1977.38 7759.62 1965.09 7753.86 1954.34C7748.1 1943.39 7740.04 1934.85 7729.67 1928.7C7719.49 1922.56 7707.59 1919.49 7693.96 1919.49C7680.71 1919.49 7668.9 1922.56 7658.53 1928.7C7648.16 1934.85 7640 1943.39 7634.05 1954.34C7628.29 1965.09 7625.41 1977.38 7625.41 1991.2ZM7979.01 1890.4H8012.42V2102.08L7865.25 1956.64V2092H7831.84V1880.32L7979.01 2025.76V1890.4ZM8156.71 2026.91C8163.24 2038.62 8170.63 2048.03 8178.89 2055.14C8187.34 2062.24 8197.22 2065.79 8208.55 2065.79C8217.96 2065.79 8225.45 2063.39 8231.02 2058.59C8236.78 2053.6 8239.66 2047.07 8239.66 2039.01C8239.66 2031.52 8237.83 2025.57 8234.18 2021.15C8230.54 2016.54 8225.45 2012.7 8218.92 2009.63C8212.58 2006.37 8205.19 2003.2 8196.74 2000.13C8191.75 1998.4 8186.18 1996.1 8180.04 1993.22C8173.9 1990.34 8168.04 1986.69 8162.47 1982.27C8156.9 1977.66 8152.3 1972 8148.65 1965.28C8145 1958.56 8143.18 1950.5 8143.18 1941.09C8143.18 1930.34 8145.96 1920.93 8151.53 1912.86C8157.1 1904.61 8164.58 1898.27 8173.99 1893.86C8183.59 1889.25 8194.44 1886.94 8206.54 1886.94C8218.44 1886.94 8228.81 1889.06 8237.64 1893.28C8246.47 1897.5 8253.86 1902.88 8259.82 1909.41C8265.96 1915.94 8270.76 1922.75 8274.22 1929.86L8246.57 1945.41C8242.34 1938.11 8237.06 1931.58 8230.73 1925.82C8224.39 1920.06 8216.14 1917.18 8205.96 1917.18C8196.55 1917.18 8189.64 1919.39 8185.22 1923.81C8180.81 1928.22 8178.6 1933.22 8178.6 1938.78C8178.6 1946.66 8182.15 1953.38 8189.26 1958.94C8196.36 1964.51 8208.07 1970.08 8224.39 1975.65C8232.46 1978.34 8240.42 1982.18 8248.3 1987.17C8256.17 1992.16 8262.7 1998.69 8267.88 2006.75C8273.06 2014.62 8275.66 2024.42 8275.66 2036.13C8275.66 2048.61 8272.39 2059.36 8265.86 2068.38C8259.53 2077.41 8251.27 2084.32 8241.1 2089.12C8230.92 2093.92 8220.07 2096.32 8208.55 2096.32C8196.84 2096.32 8185.9 2094.02 8175.72 2089.41C8165.74 2084.61 8156.9 2078.37 8149.22 2070.69C8141.74 2062.82 8135.78 2054.18 8131.37 2044.77L8156.71 2026.91ZM8335.31 1991.2C8335.31 2005.41 8338.48 2017.89 8344.81 2028.64C8351.15 2039.39 8359.5 2047.74 8369.87 2053.7C8380.43 2059.46 8391.85 2062.34 8404.14 2062.34C8418.35 2062.34 8430.64 2059.65 8441 2054.27C8451.56 2048.7 8460.3 2041.79 8467.21 2033.54V2074.14C8458.96 2081.06 8449.84 2086.34 8439.85 2089.98C8430.06 2093.63 8417.77 2095.46 8402.99 2095.46C8388.2 2095.46 8374.48 2092.96 8361.8 2087.97C8349.13 2082.78 8338 2075.58 8328.4 2066.37C8318.99 2057.15 8311.6 2046.21 8306.22 2033.54C8301.04 2020.67 8298.44 2006.56 8298.44 1991.2C8298.44 1975.84 8301.04 1961.82 8306.22 1949.15C8311.6 1936.29 8318.99 1925.25 8328.4 1916.03C8338 1906.82 8349.13 1899.71 8361.8 1894.72C8374.48 1889.54 8388.2 1886.94 8402.99 1886.94C8417.77 1886.94 8430.06 1888.77 8439.85 1892.42C8449.84 1896.06 8458.96 1901.34 8467.21 1908.26V1948.86C8460.3 1940.61 8451.56 1933.79 8441 1928.42C8430.64 1922.85 8418.35 1920.06 8404.14 1920.06C8391.85 1920.06 8380.43 1923.04 8369.87 1928.99C8359.5 1934.75 8351.15 1943.01 8344.81 1953.76C8338.48 1964.32 8335.31 1976.8 8335.31 1991.2ZM8509.09 1890.4H8571.3C8586.08 1890.4 8598.85 1892.99 8609.6 1898.18C8620.55 1903.36 8628.99 1910.66 8634.95 1920.06C8640.9 1929.47 8643.87 1940.51 8643.87 1953.18C8643.87 1967.78 8639.84 1980.26 8631.78 1990.62C8623.91 2000.8 8612.96 2007.9 8598.95 2011.94L8655.97 2092H8614.79L8564.1 2015.68H8543.07V2092H8509.09V1890.4ZM8569.86 1920.06H8543.07V1987.46H8569.86C8581.57 1987.46 8590.98 1984.58 8598.08 1978.82C8605.19 1972.86 8608.74 1964.51 8608.74 1953.76C8608.74 1943.01 8605.19 1934.75 8598.08 1928.99C8590.98 1923.04 8581.57 1920.06 8569.86 1920.06ZM8680.09 1890.4H8802.78V1920.35H8713.5V1969.31H8797.02V1998.69H8713.5V2062.05H8802.78V2092H8680.09V1890.4ZM8844.62 1890.4H8967.31V1920.35H8878.03V1969.31H8961.55V1998.69H8878.03V2062.05H8967.31V2092H8844.62V1890.4ZM9156.32 1890.4H9189.73V2102.08L9042.56 1956.64V2092H9009.15V1880.32L9156.32 2025.76V1890.4ZM9234.43 1890.4H9268.7V2092H9234.43V1890.4ZM9460.91 1890.4H9494.32V2102.08L9347.15 1956.64V2092H9313.75V1880.32L9460.91 2025.76V1890.4ZM9634.93 2015.39V1986.59H9731.99C9732.37 2001.38 9730.45 2015.39 9726.23 2028.64C9722 2041.7 9715.67 2053.31 9707.22 2063.49C9698.77 2073.66 9688.31 2081.73 9675.83 2087.68C9663.35 2093.44 9649.04 2096.32 9632.91 2096.32C9617.75 2096.32 9603.73 2093.82 9590.87 2088.83C9578 2083.65 9566.77 2076.35 9557.17 2066.94C9547.76 2057.54 9540.47 2046.4 9535.28 2033.54C9530.1 2020.67 9527.51 2006.56 9527.51 1991.2C9527.51 1975.84 9530.1 1961.82 9535.28 1949.15C9540.66 1936.29 9548.05 1925.25 9557.46 1916.03C9567.06 1906.82 9578.29 1899.71 9591.15 1894.72C9604.21 1889.54 9618.32 1886.94 9633.49 1886.94C9653.27 1886.94 9670.45 1890.88 9685.04 1898.75C9699.63 1906.62 9711.35 1917.57 9720.18 1931.58L9692.53 1950.3C9686.96 1940.7 9679.19 1933.02 9669.2 1927.26C9659.41 1921.31 9647.51 1918.34 9633.49 1918.34C9620.43 1918.34 9608.53 1921.41 9597.78 1927.55C9587.22 1933.5 9578.77 1941.95 9572.43 1952.9C9566.29 1963.65 9563.22 1976.42 9563.22 1991.2C9563.22 2005.79 9566.29 2018.66 9572.43 2029.79C9578.58 2040.74 9586.93 2049.28 9597.49 2055.42C9608.24 2061.57 9620.24 2064.64 9633.49 2064.64C9645.59 2064.64 9655.95 2062.43 9664.59 2058.02C9673.23 2053.6 9680.24 2047.65 9685.62 2040.16C9690.99 2032.67 9694.74 2024.42 9696.85 2015.39H9634.93Z" fill="#818286"/>
<path d="M10173.5 1744C10042.5 1744 9936 1850.54 9936 1981.5C9936 2112.46 10042.5 2219 10173.5 2219C10304.5 2219 10411 2112.46 10411 1981.5C10411 1850.54 10304.5 1744 10173.5 1744ZM10310.5 1961.83H10208.9L10251 1919.72L10244.6 1912.28C10233.2 1900.41 10219 1891.55 10203.3 1886.51C10187.6 1881.47 10170.9 1880.39 10154.7 1883.38C10138.5 1886.37 10123.2 1893.33 10110.4 1903.64C10097.5 1913.95 10087.4 1927.28 10080.9 1942.45C10074.5 1957.63 10071.9 1974.16 10073.4 1990.58C10074.9 2006.99 10080.4 2022.79 10089.5 2036.54C10098.6 2050.29 10111 2061.57 10125.5 2069.38C10140 2077.18 10156.3 2081.27 10172.7 2081.27C10193.4 2081.25 10213.5 2074.85 10230.3 2062.94C10247.2 2051.03 10260 2034.2 10266.9 2014.76L10273 1997.49L10307.4 2009.67L10301.4 2026.94C10293.1 2050.51 10278.4 2071.33 10259.1 2087.14C10239.7 2102.94 10216.4 2113.12 10191.6 2116.56C10166.8 2120 10141.6 2116.57 10118.7 2106.64C10095.7 2096.71 10076 2080.67 10061.5 2060.26C10047.1 2039.86 10038.6 2015.88 10036.8 1990.95C10035.1 1966.02 10040.3 1941.09 10051.7 1918.89C10063.2 1896.69 10080.6 1878.07 10101.9 1865.07C10123.3 1852.08 10147.8 1845.2 10172.8 1845.19C10191.2 1845.12 10209.5 1848.83 10226.5 1856.08C10243.4 1863.34 10258.7 1873.99 10271.4 1887.38L10272 1888.09L10277 1893.8L10310.5 1860.25V1961.83Z" fill="#818286"/>
<path d="M16849 2004.5H17563.5H18278" stroke="#818286" stroke-width="57"/>
<path d="M18283 737V708.5H18254.5V737H18283ZM19580.2 757.153C19591.3 746.023 19591.3 727.977 19580.2 716.847L19398.8 535.475C19387.6 524.345 19369.6 524.345 19358.5 535.475C19347.3 546.605 19347.3 564.65 19358.5 575.78L19519.7 737L19358.5 898.22C19347.3 909.35 19347.3 927.395 19358.5 938.525C19369.6 949.655 19387.6 949.655 19398.8 938.525L19580.2 757.153ZM18311.5 2101.5V737H18254.5V2101.5H18311.5ZM18283 765.5H19560V708.5H18283V765.5Z" fill="#818286"/>
<path d="M5558.15 2112.15C5569.28 2101.02 5569.28 2082.98 5558.15 2071.85L5376.78 1890.47C5365.65 1879.34 5347.6 1879.34 5336.47 1890.47C5325.34 1901.6 5325.34 1919.65 5336.47 1930.78L5497.7 2092L5336.47 2253.22C5325.34 2264.35 5325.34 2282.4 5336.47 2293.53C5347.6 2304.66 5365.65 2304.66 5376.78 2293.53L5558.15 2112.15ZM4144 2120.5H5538V2063.5H4144V2120.5Z" fill="#818286"/>
<path d="M12518.2 2112.15C12529.3 2101.02 12529.3 2082.98 12518.2 2071.85L12336.8 1890.47C12325.6 1879.34 12307.6 1879.34 12296.5 1890.47C12285.3 1901.6 12285.3 1919.65 12296.5 1930.78L12457.7 2092L12296.5 2253.22C12285.3 2264.35 12285.3 2282.4 12296.5 2293.53C12307.6 2304.66 12325.6 2304.66 12336.8 2293.53L12518.2 2112.15ZM11104 2120.5H12498V2063.5H11104V2120.5Z" fill="#818286"/>
<path d="M18283 3648.5H18254.5V3677H18283V3648.5ZM19547.2 3668.65C19558.3 3657.52 19558.3 3639.48 19547.2 3628.35L19365.8 3446.97C19354.6 3435.84 19336.6 3435.84 19325.5 3446.97C19314.3 3458.1 19314.3 3476.15 19325.5 3487.28L19486.7 3648.5L19325.5 3809.72C19314.3 3820.85 19314.3 3838.9 19325.5 3850.03C19336.6 3861.16 19354.6 3861.16 19365.8 3850.03L19547.2 3668.65ZM18254.5 2101.5V3648.5H18311.5V2101.5H18254.5ZM18283 3677H19527V3620H18283V3677Z" fill="#818286"/>
<path d="M13330.5 1876.4H13364.7V2078H13330.5V1876.4ZM13556.9 1876.4H13590.4V2088.08L13443.2 1942.64V2078H13409.8V1866.32L13556.9 2011.76V1876.4ZM13614.9 1907.79V1876.4H13755.4V1907.79H13702.2V2078H13667.9V1907.79H13614.9ZM13779.9 1876.4H13902.6V1906.35H13813.3V1955.31H13896.8V1984.69H13813.3V2048.05H13902.6V2078H13779.9V1876.4ZM13944.4 1876.4H14006.6C14021.4 1876.4 14034.2 1878.99 14044.9 1884.18C14055.9 1889.36 14064.3 1896.66 14070.3 1906.06C14076.2 1915.47 14079.2 1926.51 14079.2 1939.18C14079.2 1953.78 14075.2 1966.26 14067.1 1976.62C14059.2 1986.8 14048.3 1993.9 14034.3 1997.94L14091.3 2078H14050.1L13999.4 2001.68H13978.4V2078H13944.4V1876.4ZM14005.2 1906.06H13978.4V1973.46H14005.2C14016.9 1973.46 14026.3 1970.58 14033.4 1964.82C14040.5 1958.86 14044.1 1950.51 14044.1 1939.76C14044.1 1929.01 14040.5 1920.75 14033.4 1914.99C14026.3 1909.04 14016.9 1906.06 14005.2 1906.06ZM14192.3 2018.1L14251.7 1876.4H14290.8L14192.3 2089.23L14093.8 1876.4H14133L14192.3 2018.1ZM14314.3 1876.4H14348.5V2078H14314.3V1876.4ZM14393.6 1876.4H14516.3V1906.35H14427V1955.31H14510.5V1984.69H14427V2048.05H14516.3V2078H14393.6V1876.4ZM14740.4 2011.47L14787.7 1876.4H14827.1L14744.7 2088.66L14682.5 1946.38L14620.3 2088.66L14538 1876.4H14577.4L14625.2 2011.47L14682.5 1866.32L14740.4 2011.47Z" fill="#818286"/>
<path d="M15817.8 1977.5C15790.1 1977.5 15763.2 1965.11 15742.2 1942.63C15721.8 1920.7 15709.4 1891.46 15707.2 1860.32C15704.8 1827.09 15714.9 1796.54 15735.7 1774.28C15756.4 1752.01 15785.4 1740 15817.8 1740C15850 1740 15879.1 1752.23 15899.7 1774.44C15920.6 1796.86 15930.8 1827.36 15928.4 1860.3C15926.2 1891.49 15913.7 1920.72 15893.3 1942.62C15872.4 1965.11 15845.6 1977.5 15817.8 1977.5ZM15995.7 2215H15639.9C15634.2 2215.03 15628.6 2213.75 15623.4 2211.25C15618.3 2208.76 15613.8 2205.11 15610.2 2200.6C15606.5 2195.71 15603.9 2190.04 15602.7 2184.01C15601.5 2177.99 15601.6 2171.76 15603.1 2165.8C15614.5 2120.18 15642.7 2082.34 15684.5 2056.39C15721.7 2033.37 15769 2020.68 15817.8 2020.68C15867.5 2020.68 15913.6 2032.83 15951 2055.83C15993 2081.65 16021.2 2119.7 16032.5 2165.88C16034 2171.85 16034.1 2178.07 16032.9 2184.1C16031.6 2190.12 16029.1 2195.78 16025.3 2200.67C16021.8 2205.16 16017.3 2208.78 16012.2 2211.27C16007 2213.75 16001.4 2215.03 15995.7 2215ZM15562.8 1982.9C15515.3 1982.9 15473.5 1938.74 15469.7 1884.48C15467.7 1856.69 15476.4 1830.98 15494 1812.13C15511.3 1793.46 15535.8 1783.18 15562.8 1783.18C15589.8 1783.18 15614.1 1793.52 15631.5 1812.29C15649.2 1831.29 15657.8 1856.94 15655.8 1884.51C15651.9 1938.76 15610.2 1982.9 15562.8 1982.9ZM15651.4 2025.34C15627.6 2013.73 15596.8 2007.93 15562.8 2007.93C15523 2007.93 15484.4 2018.29 15454.1 2037.1C15419.6 2058.47 15396.5 2089.57 15387.1 2127.12C15385.8 2132.53 15385.6 2138.17 15386.8 2143.63C15387.9 2149.09 15390.2 2154.22 15393.6 2158.65C15396.8 2162.77 15400.9 2166.1 15405.6 2168.38C15410.3 2170.67 15415.5 2171.84 15420.7 2171.82H15570.5C15573 2171.82 15575.5 2170.93 15577.4 2169.31C15579.4 2167.69 15580.7 2165.44 15581.1 2162.95C15581.3 2162.1 15581.4 2161.25 15581.7 2160.42C15593.1 2114.45 15619.9 2075.62 15659.5 2047.31C15661 2046.26 15662.2 2044.86 15663 2043.24C15663.7 2041.62 15664.1 2039.84 15664 2038.04C15663.9 2036.25 15663.4 2034.5 15662.5 2032.96C15661.5 2031.43 15660.2 2030.15 15658.7 2029.24C15656.6 2028 15654.1 2026.69 15651.4 2025.34Z" fill="#818286"/>
</svg>
