<svg width="15133" height="4866" viewBox="0 0 15133 4866" fill="none" xmlns="http://www.w3.org/2000/svg">
<rect x="21.5" y="1415.5" width="4101" height="1132" rx="115.5" fill="white" stroke="#FF9CEB" stroke-width="43"/>
<rect x="5559.5" y="1415.5" width="4101" height="1132" rx="115.5" fill="white" stroke="#FF9CEB" stroke-width="43"/>
<rect x="11010.5" y="21.5" width="4101" height="1132" rx="115.5" fill="white" stroke="#FF9CEB" stroke-width="43"/>
<rect x="10980.5" y="2962.5" width="4101" height="1132" rx="115.5" fill="white" stroke="#FF9CEB" stroke-width="43"/>
<path d="M1329.55 2092L1306.51 2040.16H1232.21L1209.17 2092H1170.86L1269.36 1879.17L1367.86 2092H1329.55ZM1269.36 1947.42L1242 2011.36H1296.72L1269.36 1947.42ZM1391.31 1890.4H1452.08C1466.86 1890.4 1479.63 1892.99 1490.38 1898.18C1501.13 1903.17 1509.48 1910.37 1515.44 1919.78C1521.39 1929.18 1524.36 1940.32 1524.36 1953.18C1524.36 1972.38 1517.84 1987.65 1504.78 1998.98C1491.72 2010.11 1474.16 2015.68 1452.08 2015.68H1425.29V2092H1391.31V1890.4ZM1452.08 1920.35H1425.29V1985.73H1452.08C1463.79 1985.73 1473.2 1983.04 1480.3 1977.66C1487.4 1972.1 1490.96 1963.94 1490.96 1953.18C1490.96 1942.43 1487.4 1934.27 1480.3 1928.7C1473.2 1923.14 1463.79 1920.35 1452.08 1920.35ZM1557.81 1890.4H1618.58C1633.36 1890.4 1646.13 1892.99 1656.88 1898.18C1667.63 1903.17 1675.98 1910.37 1681.94 1919.78C1687.89 1929.18 1690.86 1940.32 1690.86 1953.18C1690.86 1972.38 1684.34 1987.65 1671.28 1998.98C1658.22 2010.11 1640.66 2015.68 1618.58 2015.68H1591.79V2092H1557.81V1890.4ZM1618.58 1920.35H1591.79V1985.73H1618.58C1630.29 1985.73 1639.7 1983.04 1646.8 1977.66C1653.9 1972.1 1657.46 1963.94 1657.46 1953.18C1657.46 1942.43 1653.9 1934.27 1646.8 1928.7C1639.7 1923.14 1630.29 1920.35 1618.58 1920.35ZM1724.31 1890.4H1758.29V2061.47H1838.36V2092H1724.31V1890.4ZM1862.96 1890.4H1897.24V2092H1862.96V1890.4ZM1967.62 1991.2C1967.62 2005.41 1970.79 2017.89 1977.12 2028.64C1983.46 2039.39 1991.81 2047.74 2002.18 2053.7C2012.74 2059.46 2024.16 2062.34 2036.45 2062.34C2050.66 2062.34 2062.95 2059.65 2073.32 2054.27C2083.88 2048.7 2092.61 2041.79 2099.52 2033.54V2074.14C2091.27 2081.06 2082.15 2086.34 2072.16 2089.98C2062.37 2093.63 2050.08 2095.46 2035.3 2095.46C2020.52 2095.46 2006.79 2092.96 1994.12 2087.97C1981.44 2082.78 1970.31 2075.58 1960.71 2066.37C1951.3 2057.15 1943.91 2046.21 1938.53 2033.54C1933.35 2020.67 1930.76 2006.56 1930.76 1991.2C1930.76 1975.84 1933.35 1961.82 1938.53 1949.15C1943.91 1936.29 1951.3 1925.25 1960.71 1916.03C1970.31 1906.82 1981.44 1899.71 1994.12 1894.72C2006.79 1889.54 2020.52 1886.94 2035.3 1886.94C2050.08 1886.94 2062.37 1888.77 2072.16 1892.42C2082.15 1896.06 2091.27 1901.34 2099.52 1908.26V1948.86C2092.61 1940.61 2083.88 1933.79 2073.32 1928.42C2062.95 1922.85 2050.66 1920.06 2036.45 1920.06C2024.16 1920.06 2012.74 1923.04 2002.18 1928.99C1991.81 1934.75 1983.46 1943.01 1977.12 1953.76C1970.79 1964.32 1967.62 1976.8 1967.62 1991.2ZM2274.27 2092L2251.23 2040.16H2176.93L2153.89 2092H2115.58L2214.08 1879.17L2312.57 2092H2274.27ZM2214.08 1947.42L2186.72 2011.36H2241.44L2214.08 1947.42ZM2295.62 1921.79V1890.4H2436.16V1921.79H2382.88V2092H2348.61V1921.79H2295.62ZM2460.62 1890.4H2494.89V2092H2460.62V1890.4ZM2528.41 1991.2C2528.41 1976.22 2531 1962.4 2536.19 1949.73C2541.37 1936.86 2548.67 1925.82 2558.08 1916.61C2567.68 1907.2 2578.81 1899.9 2591.48 1894.72C2604.16 1889.54 2617.98 1886.94 2632.96 1886.94C2647.93 1886.94 2661.76 1889.54 2674.43 1894.72C2687.29 1899.9 2698.43 1907.2 2707.84 1916.61C2717.44 1925.82 2724.83 1936.86 2730.01 1949.73C2735.2 1962.4 2737.79 1976.22 2737.79 1991.2C2737.79 2006.18 2735.2 2020.1 2730.01 2032.96C2724.83 2045.63 2717.53 2056.77 2708.12 2066.37C2698.72 2075.78 2687.58 2083.17 2674.72 2088.54C2662.04 2093.73 2648.12 2096.32 2632.96 2096.32C2617.79 2096.32 2603.87 2093.73 2591.2 2088.54C2578.52 2083.17 2567.48 2075.78 2558.08 2066.37C2548.67 2056.77 2541.37 2045.63 2536.19 2032.96C2531 2020.1 2528.41 2006.18 2528.41 1991.2ZM2564.41 1991.2C2564.41 2005.02 2567.29 2017.41 2573.05 2028.35C2579 2039.1 2587.16 2047.55 2597.53 2053.7C2607.9 2059.84 2619.71 2062.91 2632.96 2062.91C2646.4 2062.91 2658.2 2059.84 2668.38 2053.7C2678.75 2047.55 2686.81 2039.1 2692.57 2028.35C2698.52 2017.41 2701.5 2005.02 2701.5 1991.2C2701.5 1977.38 2698.62 1965.09 2692.86 1954.34C2687.1 1943.39 2679.04 1934.85 2668.67 1928.7C2658.49 1922.56 2646.59 1919.49 2632.96 1919.49C2619.71 1919.49 2607.9 1922.56 2597.53 1928.7C2587.16 1934.85 2579 1943.39 2573.05 1954.34C2567.29 1965.09 2564.41 1977.38 2564.41 1991.2ZM2918.01 1890.4H2951.42V2102.08L2804.25 1956.64V2092H2770.84V1880.32L2918.01 2025.76V1890.4Z" fill="#818286"/>
<path d="M12575.6 688L12552.5 636.16H12478.2L12455.2 688H12416.9L12515.4 475.168L12613.9 688H12575.6ZM12515.4 543.424L12488 607.36H12542.7L12515.4 543.424ZM12653.9 587.2C12653.9 601.408 12657.1 613.888 12663.4 624.64C12669.8 635.392 12678.1 643.744 12688.5 649.696C12699.1 655.456 12710.5 658.336 12722.8 658.336C12737 658.336 12749.3 655.648 12759.6 650.272C12770.2 644.704 12778.9 637.792 12785.8 629.536V670.144C12777.6 677.056 12768.5 682.336 12758.5 685.984C12748.7 689.632 12736.4 691.456 12721.6 691.456C12706.8 691.456 12693.1 688.96 12680.4 683.968C12667.8 678.784 12656.6 671.584 12647 662.368C12637.6 653.152 12630.2 642.208 12624.8 629.536C12619.7 616.672 12617.1 602.56 12617.1 587.2C12617.1 571.84 12619.7 557.824 12624.8 545.152C12630.2 532.288 12637.6 521.248 12647 512.032C12656.6 502.816 12667.8 495.712 12680.4 490.72C12693.1 485.536 12706.8 482.944 12721.6 482.944C12736.4 482.944 12748.7 484.768 12758.5 488.416C12768.5 492.064 12777.6 497.344 12785.8 504.256V544.864C12778.9 536.608 12770.2 529.792 12759.6 524.416C12749.3 518.848 12737 516.064 12722.8 516.064C12710.5 516.064 12699.1 519.04 12688.5 524.992C12678.1 530.752 12669.8 539.008 12663.4 549.76C12657.1 560.32 12653.9 572.8 12653.9 587.2ZM12853.1 587.2C12853.1 601.408 12856.2 613.888 12862.6 624.64C12868.9 635.392 12877.3 643.744 12887.6 649.696C12898.2 655.456 12909.6 658.336 12921.9 658.336C12936.1 658.336 12948.4 655.648 12958.8 650.272C12969.3 644.704 12978.1 637.792 12985 629.536V670.144C12976.7 677.056 12967.6 682.336 12957.6 685.984C12947.8 689.632 12935.5 691.456 12920.7 691.456C12906 691.456 12892.2 688.96 12879.6 683.968C12866.9 678.784 12855.7 671.584 12846.1 662.368C12836.7 653.152 12829.3 642.208 12824 629.536C12818.8 616.672 12816.2 602.56 12816.2 587.2C12816.2 571.84 12818.8 557.824 12824 545.152C12829.3 532.288 12836.7 521.248 12846.1 512.032C12855.7 502.816 12866.9 495.712 12879.6 490.72C12892.2 485.536 12906 482.944 12920.7 482.944C12935.5 482.944 12947.8 484.768 12957.6 488.416C12967.6 492.064 12976.7 497.344 12985 504.256V544.864C12978.1 536.608 12969.3 529.792 12958.8 524.416C12948.4 518.848 12936.1 516.064 12921.9 516.064C12909.6 516.064 12898.2 519.04 12887.6 524.992C12877.3 530.752 12868.9 539.008 12862.6 549.76C12856.2 560.32 12853.1 572.8 12853.1 587.2ZM13026.8 486.4H13149.5V516.352H13060.2V565.312H13143.8V594.688H13060.2V658.048H13149.5V688H13026.8V486.4ZM13191.4 486.4H13252.1C13266.9 486.4 13279.7 488.992 13290.4 494.176C13301.2 499.168 13309.5 506.368 13315.5 515.776C13321.5 525.184 13324.4 536.32 13324.4 549.184C13324.4 568.384 13317.9 583.648 13304.8 594.976C13291.8 606.112 13274.2 611.68 13252.1 611.68H13225.4V688H13191.4V486.4ZM13252.1 516.352H13225.4V581.728H13252.1C13263.9 581.728 13273.3 579.04 13280.4 573.664C13287.5 568.096 13291 559.936 13291 549.184C13291 538.432 13287.5 530.272 13280.4 524.704C13273.3 519.136 13263.9 516.352 13252.1 516.352ZM13329 517.792V486.4H13469.5V517.792H13416.3V688H13382V517.792H13329ZM13494 486.4H13616.7V516.352H13527.4V565.312H13610.9V594.688H13527.4V658.048H13616.7V688H13494V486.4ZM13723.6 688H13658.5V486.4H13723.6C13744.2 486.4 13762.2 490.624 13777.8 499.072C13793.3 507.328 13805.4 519.04 13814 534.208C13822.9 549.184 13827.3 566.848 13827.3 587.2C13827.3 607.36 13822.9 625.024 13814 640.192C13805.4 655.36 13793.3 667.168 13777.8 675.616C13762.2 683.872 13744.2 688 13723.6 688ZM13722.8 518.368H13693.4V656.032H13722.8C13736 656.032 13747.9 653.44 13758.5 648.256C13769 643.072 13777.3 635.392 13783.2 625.216C13789.4 615.04 13792.4 602.368 13792.4 587.2C13792.4 572.032 13789.4 559.36 13783.2 549.184C13777.3 539.008 13769 531.328 13758.5 526.144C13747.9 520.96 13736 518.368 13722.8 518.368Z" fill="#818286"/>
<path d="M12408.5 3427.4H12470.7C12485.5 3427.4 12498.2 3429.99 12509 3435.18C12519.9 3440.36 12528.4 3447.66 12534.3 3457.06C12540.3 3466.47 12543.2 3477.51 12543.2 3490.18C12543.2 3504.78 12539.2 3517.26 12531.2 3527.62C12523.3 3537.8 12512.3 3544.9 12498.3 3548.94L12555.3 3629H12514.2L12463.5 3552.68H12442.4V3629H12408.5V3427.4ZM12469.2 3457.06H12442.4V3524.46H12469.2C12480.9 3524.46 12490.4 3521.58 12497.5 3515.82C12504.6 3509.86 12508.1 3501.51 12508.1 3490.76C12508.1 3480.01 12504.6 3471.75 12497.5 3465.99C12490.4 3460.04 12480.9 3457.06 12469.2 3457.06ZM12579.5 3427.4H12702.2V3457.35H12612.9V3506.31H12696.4V3535.69H12612.9V3599.05H12702.2V3629H12579.5V3427.4ZM12701.7 3654.34C12706.7 3660.87 12714.3 3664.14 12724.7 3664.14C12729.1 3664.14 12733.4 3662.31 12737.7 3658.66C12741.9 3655.02 12744 3648.58 12744 3639.37V3427.4H12778.8V3645.7C12778.8 3662.79 12773.9 3675.18 12763.9 3682.86C12753.9 3690.73 12741.2 3694.66 12725.9 3694.66C12716.8 3694.66 12708.5 3692.84 12700.8 3689.19C12692.9 3685.74 12687.2 3682.47 12683.5 3679.4L12701.7 3654.34ZM12823.6 3427.4H12946.3V3457.35H12857V3506.31H12940.5V3535.69H12857V3599.05H12946.3V3629H12823.6V3427.4ZM13013.5 3528.2C13013.5 3542.41 13016.6 3554.89 13023 3565.64C13029.3 3576.39 13037.7 3584.74 13048 3590.7C13058.6 3596.46 13070 3599.34 13082.3 3599.34C13096.5 3599.34 13108.8 3596.65 13119.2 3591.27C13129.7 3585.7 13138.5 3578.79 13145.4 3570.54V3611.14C13137.1 3618.06 13128 3623.34 13118 3626.98C13108.2 3630.63 13095.9 3632.46 13081.1 3632.46C13066.4 3632.46 13052.6 3629.96 13040 3624.97C13027.3 3619.78 13016.2 3612.58 13006.6 3603.37C12997.1 3594.15 12989.8 3583.21 12984.4 3570.54C12979.2 3557.67 12976.6 3543.56 12976.6 3528.2C12976.6 3512.84 12979.2 3498.82 12984.4 3486.15C12989.8 3473.29 12997.1 3462.25 13006.6 3453.03C13016.2 3443.82 13027.3 3436.71 13040 3431.72C13052.6 3426.54 13066.4 3423.94 13081.1 3423.94C13095.9 3423.94 13108.2 3425.77 13118 3429.42C13128 3433.06 13137.1 3438.34 13145.4 3445.26V3485.86C13138.5 3477.61 13129.7 3470.79 13119.2 3465.42C13108.8 3459.85 13096.5 3457.06 13082.3 3457.06C13070 3457.06 13058.6 3460.04 13048 3465.99C13037.7 3471.75 13029.3 3480.01 13023 3490.76C13016.6 3501.32 13013.5 3513.8 13013.5 3528.2ZM13158.4 3458.79V3427.4H13298.9V3458.79H13245.6V3629H13211.4V3458.79H13158.4ZM13323.4 3427.4H13446.1V3457.35H13356.8V3506.31H13440.3V3535.69H13356.8V3599.05H13446.1V3629H13323.4V3427.4ZM13553 3629H13487.9V3427.4H13553C13573.5 3427.4 13591.6 3431.62 13607.1 3440.07C13622.7 3448.33 13634.8 3460.04 13643.4 3475.21C13652.3 3490.18 13656.7 3507.85 13656.7 3528.2C13656.7 3548.36 13652.3 3566.02 13643.4 3581.19C13634.8 3596.36 13622.7 3608.17 13607.1 3616.62C13591.6 3624.87 13573.5 3629 13553 3629ZM13552.1 3459.37H13522.7V3597.03H13552.1C13565.4 3597.03 13577.3 3594.44 13587.8 3589.26C13598.4 3584.07 13606.7 3576.39 13612.6 3566.22C13618.7 3556.04 13621.8 3543.37 13621.8 3528.2C13621.8 3513.03 13618.7 3500.36 13612.6 3490.18C13606.7 3480.01 13598.4 3472.33 13587.8 3467.14C13577.3 3461.96 13565.4 3459.37 13552.1 3459.37Z" fill="#818286"/>
<path d="M14430.5 3291C14299.5 3291 14193 3397.54 14193 3528.5C14193 3659.46 14299.5 3766 14430.5 3766C14561.5 3766 14668 3659.46 14668 3528.5C14668 3397.54 14561.5 3291 14430.5 3291ZM14516.5 3588.66C14518.3 3590.34 14519.7 3592.36 14520.6 3594.59C14521.6 3596.83 14522.1 3599.24 14522.2 3601.67C14522.2 3604.11 14521.7 3606.53 14520.8 3608.79C14519.9 3611.05 14518.6 3613.1 14516.8 3614.83C14515.1 3616.55 14513 3617.91 14510.8 3618.83C14508.5 3619.75 14506.1 3620.21 14503.7 3620.18C14501.2 3620.14 14498.8 3619.63 14496.6 3618.65C14494.4 3617.67 14492.3 3616.26 14490.7 3614.49L14430.5 3554.34L14370.3 3614.49C14366.9 3617.77 14362.3 3619.57 14357.5 3619.51C14352.8 3619.45 14348.2 3617.53 14344.8 3614.16C14341.5 3610.8 14339.5 3606.24 14339.5 3601.48C14339.4 3596.72 14341.2 3592.12 14344.5 3588.66L14404.7 3528.5L14344.5 3468.34C14341.2 3464.88 14339.4 3460.28 14339.5 3455.52C14339.5 3450.76 14341.5 3446.2 14344.8 3442.84C14348.2 3439.47 14352.8 3437.55 14357.5 3437.49C14362.3 3437.43 14366.9 3439.23 14370.3 3442.51L14430.5 3502.66L14490.7 3442.51C14494.1 3439.23 14498.7 3437.43 14503.5 3437.49C14508.2 3437.55 14512.8 3439.47 14516.2 3442.84C14519.5 3446.2 14521.5 3450.76 14521.5 3455.52C14521.6 3460.28 14519.8 3464.88 14516.5 3468.34L14456.3 3528.5L14516.5 3588.66Z" fill="#FF2F2B"/>
<path d="M14460.5 331C14329.5 331 14223 437.544 14223 568.5C14223 699.456 14329.5 806 14460.5 806C14591.5 806 14698 699.456 14698 568.5C14698 437.544 14591.5 331 14460.5 331ZM14515.5 469.641L14543 493.687L14459 589.715L14431.5 563.385L14515.5 469.641ZM14387.3 667.416L14306.8 586.769L14332.6 560.93L14413.2 641.577L14387.3 667.416ZM14461.6 668.319L14380.1 586.769L14405.9 560.941L14459.8 614.847L14586.6 469.641L14614.2 493.687L14461.6 668.319Z" fill="#5BF235"/>
<path d="M6598.46 1890.4H6659.23C6674.02 1890.4 6686.78 1892.99 6697.54 1898.18C6708.29 1903.17 6716.64 1910.37 6722.59 1919.78C6728.54 1929.18 6731.52 1940.32 6731.52 1953.18C6731.52 1972.38 6724.99 1987.65 6711.94 1998.98C6698.88 2010.11 6681.31 2015.68 6659.23 2015.68H6632.45V2092H6598.46V1890.4ZM6659.23 1920.35H6632.45V1985.73H6659.23C6670.94 1985.73 6680.35 1983.04 6687.46 1977.66C6694.56 1972.1 6698.11 1963.94 6698.11 1953.18C6698.11 1942.43 6694.56 1934.27 6687.46 1928.7C6680.35 1923.14 6670.94 1920.35 6659.23 1920.35ZM6764.96 1890.4H6887.65V1920.35H6798.37V1969.31H6881.89V1998.69H6798.37V2062.05H6887.65V2092H6764.96V1890.4ZM7076.66 1890.4H7110.07V2102.08L6962.9 1956.64V2092H6929.5V1880.32L7076.66 2025.76V1890.4ZM7219.86 2092H7154.78V1890.4H7219.86C7240.41 1890.4 7258.46 1894.62 7274.01 1903.07C7289.56 1911.33 7301.66 1923.04 7310.3 1938.21C7319.13 1953.18 7323.54 1970.85 7323.54 1991.2C7323.54 2011.36 7319.13 2029.02 7310.3 2044.19C7301.66 2059.36 7289.56 2071.17 7274.01 2079.62C7258.46 2087.87 7240.41 2092 7219.86 2092ZM7219 1922.37H7189.62V2060.03H7219C7232.25 2060.03 7244.15 2057.44 7254.71 2052.26C7265.27 2047.07 7273.53 2039.39 7279.48 2029.22C7285.62 2019.04 7288.7 2006.37 7288.7 1991.2C7288.7 1976.03 7285.62 1963.36 7279.48 1953.18C7273.53 1943.01 7265.27 1935.33 7254.71 1930.14C7244.15 1924.96 7232.25 1922.37 7219 1922.37ZM7356.71 1890.4H7390.99V2092H7356.71V1890.4ZM7583.19 1890.4H7616.6V2102.08L7469.43 1956.64V2092H7436.03V1880.32L7583.19 2025.76V1890.4ZM7757.21 2015.39V1986.59H7854.27C7854.65 2001.38 7852.73 2015.39 7848.51 2028.64C7844.28 2041.7 7837.95 2053.31 7829.5 2063.49C7821.05 2073.66 7810.59 2081.73 7798.11 2087.68C7785.63 2093.44 7771.32 2096.32 7755.2 2096.32C7740.03 2096.32 7726.01 2093.82 7713.15 2088.83C7700.28 2083.65 7689.05 2076.35 7679.45 2066.94C7670.04 2057.54 7662.75 2046.4 7657.56 2033.54C7652.38 2020.67 7649.79 2006.56 7649.79 1991.2C7649.79 1975.84 7652.38 1961.82 7657.56 1949.15C7662.94 1936.29 7670.33 1925.25 7679.74 1916.03C7689.34 1906.82 7700.57 1899.71 7713.44 1894.72C7726.49 1889.54 7740.6 1886.94 7755.77 1886.94C7775.55 1886.94 7792.73 1890.88 7807.32 1898.75C7821.92 1906.62 7833.63 1917.57 7842.46 1931.58L7814.81 1950.3C7809.24 1940.7 7801.47 1933.02 7791.48 1927.26C7781.69 1921.31 7769.79 1918.34 7755.77 1918.34C7742.72 1918.34 7730.81 1921.41 7720.06 1927.55C7709.5 1933.5 7701.05 1941.95 7694.72 1952.9C7688.57 1963.65 7685.5 1976.42 7685.5 1991.2C7685.5 2005.79 7688.57 2018.66 7694.72 2029.79C7700.86 2040.74 7709.21 2049.28 7719.77 2055.42C7730.52 2061.57 7742.52 2064.64 7755.77 2064.64C7767.87 2064.64 7778.24 2062.43 7786.88 2058.02C7795.52 2053.6 7802.52 2047.65 7807.9 2040.16C7813.28 2032.67 7817.02 2024.42 7819.13 2015.39H7757.21Z" fill="#818286"/>
<path d="M8406.5 1744C8275.54 1744 8169 1850.54 8169 1981.5C8169 2112.46 8275.54 2219 8406.5 2219C8537.46 2219 8644 2112.46 8644 1981.5C8644 1850.54 8537.46 1744 8406.5 1744ZM8543.52 1961.83H8441.9L8484.01 1919.72L8477.61 1912.28C8466.18 1900.41 8451.97 1891.55 8436.28 1886.51C8420.58 1881.47 8403.88 1880.39 8387.67 1883.38C8371.45 1886.37 8356.23 1893.33 8343.37 1903.64C8330.5 1913.95 8320.39 1927.28 8313.94 1942.45C8307.49 1957.63 8304.9 1974.16 8306.4 1990.58C8307.9 2006.99 8313.44 2022.79 8322.54 2036.54C8331.63 2050.29 8343.99 2061.57 8358.51 2069.38C8373.03 2077.18 8389.26 2081.27 8405.75 2081.27C8426.38 2081.25 8446.5 2074.85 8463.35 2062.94C8480.2 2051.03 8492.95 2034.2 8499.86 2014.76L8505.99 1997.49L8540.44 2009.67L8534.38 2026.94C8526.06 2050.51 8511.41 2071.33 8492.05 2087.14C8472.69 2102.94 8449.36 2113.12 8424.6 2116.56C8399.84 2120 8374.62 2116.57 8351.68 2106.64C8328.75 2096.71 8308.98 2080.67 8294.54 2060.26C8280.11 2039.86 8271.56 2015.88 8269.83 1990.95C8268.1 1966.02 8273.26 1941.09 8284.75 1918.89C8296.23 1896.69 8313.59 1878.07 8334.94 1865.07C8356.29 1852.08 8380.8 1845.2 8405.79 1845.19C8424.24 1845.12 8442.5 1848.83 8459.46 1856.08C8476.42 1863.34 8491.71 1873.99 8504.4 1887.38L8505.04 1888.09L8509.96 1893.8L8543.52 1860.25V1961.83Z" fill="#818286"/>
<path d="M9682 617.5V589H9653.5V617.5H9682ZM10979.2 637.653C10990.3 626.523 10990.3 608.477 10979.2 597.347L10797.8 415.975C10786.6 404.845 10768.6 404.845 10757.5 415.975C10746.3 427.105 10746.3 445.15 10757.5 456.28L10918.7 617.5L10757.5 778.72C10746.3 789.85 10746.3 807.895 10757.5 819.025C10768.6 830.155 10786.6 830.155 10797.8 819.025L10979.2 637.653ZM9710.5 1982V617.5H9653.5V1982H9710.5ZM9682 646H10959V589H9682V646Z" fill="#818286"/>
<path d="M9682 617.5V589H9653.5V617.5H9682ZM10979.2 637.653C10990.3 626.523 10990.3 608.477 10979.2 597.347L10797.8 415.975C10786.6 404.845 10768.6 404.845 10757.5 415.975C10746.3 427.105 10746.3 445.15 10757.5 456.28L10918.7 617.5L10757.5 778.72C10746.3 789.85 10746.3 807.895 10757.5 819.025C10768.6 830.155 10786.6 830.155 10797.8 819.025L10979.2 637.653ZM9710.5 1982V617.5H9653.5V1982H9710.5ZM9682 646H10959V589H9682V646Z" fill="#818286"/>
<path d="M5558.15 2112.15C5569.28 2101.02 5569.28 2082.98 5558.15 2071.85L5376.78 1890.47C5365.65 1879.34 5347.6 1879.34 5336.47 1890.47C5325.34 1901.6 5325.34 1919.65 5336.47 1930.78L5497.7 2092L5336.47 2253.22C5325.34 2264.35 5325.34 2282.4 5336.47 2293.53C5347.6 2304.66 5365.65 2304.66 5376.78 2293.53L5558.15 2112.15ZM4144 2120.5H5538V2063.5H4144V2120.5Z" fill="#818286"/>
<path d="M9682 3529H9653.5V3557.5H9682V3529ZM10946.2 3549.15C10957.3 3538.02 10957.3 3519.98 10946.2 3508.85L10764.8 3327.47C10753.6 3316.34 10735.6 3316.34 10724.5 3327.47C10713.3 3338.6 10713.3 3356.65 10724.5 3367.78L10885.7 3529L10724.5 3690.22C10713.3 3701.35 10713.3 3719.4 10724.5 3730.53C10735.6 3741.66 10753.6 3741.66 10764.8 3730.53L10946.2 3549.15ZM9653.5 1982V3529H9710.5V1982H9653.5ZM9682 3557.5H10926V3500.5H9682V3557.5Z" fill="#818286"/>
</svg>
