<svg width="392" height="327" viewBox="0 0 392 327" fill="none" xmlns="http://www.w3.org/2000/svg">
<g clip-path="url(#clip0)">
<path d="M314.164 253.225C310.972 253.225 307.851 252.386 305.197 250.813C302.543 249.24 300.474 247.004 299.253 244.388C298.031 241.773 297.711 238.895 298.334 236.118C298.957 233.341 300.494 230.791 302.751 228.789C305.008 226.787 307.884 225.423 311.015 224.871C314.146 224.319 317.391 224.602 320.34 225.686C323.289 226.769 325.81 228.604 327.583 230.958C329.357 233.312 330.304 236.079 330.304 238.911C330.299 242.706 328.597 246.344 325.571 249.028C322.545 251.711 318.443 253.221 314.164 253.225Z" fill="#CCCCCC"/>
<path d="M321.613 238.36H314.784V231.478C314.784 231.332 314.719 231.192 314.603 231.089C314.486 230.985 314.328 230.927 314.164 230.927C313.999 230.927 313.841 230.985 313.725 231.089C313.608 231.192 313.543 231.332 313.543 231.478V238.36H306.715C306.55 238.36 306.392 238.418 306.276 238.521C306.159 238.624 306.094 238.764 306.094 238.91C306.094 239.056 306.159 239.196 306.276 239.3C306.392 239.403 306.55 239.461 306.715 239.461H313.543V246.343C313.543 246.489 313.608 246.629 313.725 246.732C313.841 246.835 313.999 246.893 314.164 246.893C314.328 246.893 314.486 246.835 314.603 246.732C314.719 246.629 314.784 246.489 314.784 246.343V239.461H321.613C321.777 239.461 321.935 239.403 322.052 239.3C322.168 239.196 322.234 239.056 322.234 238.91C322.234 238.764 322.168 238.624 322.052 238.521C321.935 238.418 321.777 238.36 321.613 238.36Z" fill="white"/>
<path d="M376.318 320.304L369.221 320.304L365.847 296.026L376.32 296.027L376.318 320.304Z" fill="#FFB8B8"/>
<path d="M364.152 318.505H377.838V326.148H355.535C355.535 325.144 355.758 324.15 356.191 323.223C356.624 322.296 357.258 321.453 358.059 320.743C358.859 320.034 359.809 319.471 360.854 319.087C361.9 318.703 363.02 318.505 364.152 318.505V318.505Z" fill="#2F2E41"/>
<path d="M348.073 320.304L340.977 320.304L337.602 296.026L348.076 296.027L348.073 320.304Z" fill="#FFB8B8"/>
<path d="M335.907 318.505H349.594V326.148H327.29C327.29 325.144 327.513 324.15 327.946 323.223C328.379 322.296 329.014 321.453 329.814 320.743C330.614 320.034 331.564 319.471 332.61 319.087C333.655 318.703 334.776 318.505 335.907 318.505V318.505Z" fill="#2F2E41"/>
<path d="M381.785 236.371C381.214 235.811 380.788 235.148 380.537 234.426C380.286 233.705 380.217 232.944 380.334 232.196C380.451 231.449 380.751 230.733 381.214 230.1C381.676 229.466 382.29 228.93 383.011 228.53L380.813 216.895L388.46 213.985L391.304 230.455C391.982 231.574 392.173 232.876 391.842 234.112C391.511 235.348 390.68 236.434 389.507 237.163C388.333 237.892 386.899 238.214 385.476 238.068C384.053 237.922 382.739 237.318 381.785 236.371V236.371Z" fill="#FFB8B8"/>
<path d="M321.92 230.873C322.587 230.405 323.131 229.813 323.512 229.138C323.894 228.464 324.104 227.723 324.128 226.968C324.152 226.214 323.989 225.464 323.651 224.772C323.312 224.079 322.807 223.461 322.17 222.96L326.505 211.807L319.506 207.817L313.633 223.644C312.756 224.649 312.325 225.904 312.421 227.171C312.517 228.439 313.135 229.632 314.156 230.523C315.177 231.414 316.532 231.942 317.963 232.006C319.394 232.071 320.801 231.668 321.92 230.873V230.873Z" fill="#FFB8B8"/>
<path d="M358.266 148.708C366.686 148.708 373.512 142.654 373.512 135.186C373.512 127.717 366.686 121.663 358.266 121.663C349.845 121.663 343.019 127.717 343.019 135.186C343.019 142.654 349.845 148.708 358.266 148.708Z" fill="#FFB8B8"/>
<path d="M321.449 222.529C321.187 222.529 320.927 222.496 320.676 222.432L316.232 221.3C315.522 221.119 314.922 220.695 314.563 220.123C314.204 219.55 314.115 218.875 314.315 218.244L323.486 189.526L336.275 161.681C337.547 158.913 340.203 157.098 343.209 156.944C344.581 156.884 345.944 157.179 347.131 157.792C348.319 158.406 349.28 159.311 349.899 160.399V160.399C350.587 161.564 350.965 162.853 351.003 164.167C351.042 165.482 350.74 166.786 350.121 167.981L335.585 196.175L324.028 220.996C323.818 221.45 323.46 221.837 323.001 222.11C322.542 222.383 322.001 222.529 321.449 222.529Z" fill="#3F3D56"/>
<path d="M366.87 146.526L358.399 146.659C357.516 146.675 356.642 146.506 355.847 146.167C355.051 145.828 354.357 145.327 353.82 144.706C353.282 144.086 352.917 143.361 352.753 142.592C352.589 141.823 352.631 141.031 352.876 140.279C353.057 139.735 353.193 139.181 353.283 138.62C353.378 138.008 353.397 137.389 353.339 136.774C353.285 136.157 352.997 135.576 352.522 135.124C352.046 134.672 351.412 134.377 350.722 134.286C350.033 134.196 349.329 134.317 348.727 134.628C348.125 134.939 347.66 135.422 347.408 135.998C345.984 136.016 342.949 135.604 341.525 135.622C338.5 128.746 345.091 119.748 352.185 116.368C359.418 112.923 368.806 116.428 371.579 123.609C375.427 123.67 378.553 127.036 379.049 130.825C379.545 134.614 377.787 138.57 375.099 141.474C372.41 144.377 368.88 146.494 366.87 146.526Z" fill="#2F2E41"/>
<path d="M339.024 318.037C338.337 318.034 337.676 317.807 337.166 317.4C336.655 316.994 336.331 316.435 336.254 315.83L333.111 222.105L372.708 224.605L372.738 224.831C381.686 291.263 378.627 314.259 378.595 314.483C378.573 314.823 378.473 315.156 378.299 315.459C378.126 315.763 377.884 316.032 377.588 316.249C377.293 316.466 376.95 316.627 376.581 316.721C376.212 316.816 375.825 316.841 375.445 316.797L366.694 316.983C366.031 316.917 365.416 316.642 364.962 316.208C364.508 315.774 364.244 315.21 364.218 314.618L356.042 246.734C355.991 246.558 355.872 246.403 355.706 246.297C355.539 246.19 355.336 246.139 355.131 246.153C354.921 246.152 354.717 246.216 354.554 246.335C354.391 246.453 354.279 246.618 354.238 246.801L351.079 314.907C351.113 315.539 350.871 316.159 350.404 316.637C349.937 317.116 349.281 317.417 348.571 317.478L339.301 318.025C339.209 318.033 339.116 318.037 339.024 318.037V318.037Z" fill="#2F2E41"/>
<path d="M355.454 233.304C355.217 233.304 354.981 233.301 354.743 233.294C343.357 232.99 334.449 225.35 331.991 223.015C331.678 222.718 331.452 222.356 331.335 221.962C331.218 221.569 331.213 221.156 331.319 220.76L337.888 196.114L336.145 174.688C335.872 171.715 336.311 168.723 337.435 165.911C338.559 163.099 340.342 160.53 342.667 158.373C344.604 156.559 346.958 155.134 349.57 154.197C352.182 153.26 354.99 152.832 357.805 152.942C368.889 153.411 377.633 162.197 377.712 172.945C377.834 189.591 377.282 190.735 377.1 191.11C371.569 202.56 374.59 218.632 375.648 223.286C375.742 223.701 375.715 224.131 375.57 224.534C375.425 224.938 375.166 225.302 374.818 225.591C368.734 230.711 362.222 233.303 355.454 233.304Z" fill="#3F3D56"/>
<path d="M384.049 227.039C383.417 227.039 382.804 226.848 382.31 226.499C381.816 226.149 381.471 225.662 381.33 225.115L374.553 198.932L365.471 169.005C365.083 167.736 365.029 166.405 365.311 165.115C365.594 163.824 366.207 162.608 367.102 161.56C367.916 160.578 369.033 159.826 370.318 159.395C371.603 158.965 373.002 158.873 374.344 159.132C377.28 159.725 379.562 161.904 380.3 164.821L387.721 194.127L391.423 223.824C391.502 224.476 391.288 225.128 390.828 225.64C390.367 226.153 389.697 226.482 388.963 226.558L384.369 227.023C384.263 227.033 384.156 227.039 384.049 227.039Z" fill="#3F3D56"/>
<path d="M19.1394 229.863C19.9436 229.374 20.617 228.735 21.1124 227.99C21.6078 227.245 21.913 226.413 22.0067 225.552C22.1003 224.692 21.98 223.823 21.6543 223.008C21.3286 222.193 20.8053 221.452 20.1214 220.835L22.7082 169.624L9.53847 170.935L10.3036 221.027C9.21253 222.115 8.6092 223.519 8.60791 224.975C8.60663 226.431 9.20748 227.837 10.2966 228.926C11.3857 230.015 12.8875 230.712 14.5173 230.884C16.1471 231.057 17.7917 230.694 19.1394 229.863V229.863Z" fill="#FFB8B8"/>
<path d="M43.1641 316.553L50.6598 317.722L58.0679 292.636L48.2469 290.911L43.1641 316.553Z" fill="#FFB8B8"/>
<path d="M63.8916 326.149L40.3345 322.476L41.9346 314.403L56.3901 316.657C57.5853 316.844 58.7275 317.237 59.7513 317.815C60.7751 318.393 61.6606 319.144 62.3572 320.025C63.0538 320.906 63.5478 321.901 63.8111 322.952C64.0744 324.002 64.1017 325.089 63.8916 326.149V326.149Z" fill="#2F2E41"/>
<path d="M22.5906 319.881H30.2011L33.8214 293.846L22.5894 293.847L22.5906 319.881Z" fill="#FFB8B8"/>
<path d="M44.8789 326.148L20.9605 326.149L20.9601 317.953L35.6373 317.952C38.0882 317.952 40.4388 318.815 42.1719 320.352C43.9051 321.889 44.8788 323.974 44.8789 326.148V326.148Z" fill="#2F2E41"/>
<path d="M54.9651 312.752C54.8463 312.752 54.7276 312.745 54.6097 312.733L45.6521 312.079C45.2443 312.037 44.8504 311.921 44.4945 311.739C44.1386 311.558 43.8281 311.314 43.5818 311.022C43.3355 310.731 43.1585 310.398 43.0617 310.044C42.9649 309.69 42.9502 309.322 43.0185 308.963L51.29 267.847L45.7009 241.71C45.6553 241.497 45.5247 241.307 45.3332 241.173C45.1416 241.039 44.902 240.972 44.6586 240.982C44.4152 240.993 44.1843 241.082 44.0087 241.231C43.833 241.381 43.7243 241.582 43.7027 241.798L36.7156 311.514C36.6388 312.213 36.2587 312.859 35.6553 313.315C35.052 313.771 34.2726 314.001 33.4816 313.957L25.0425 313.678C24.303 313.632 23.6082 313.347 23.0893 312.877C22.5705 312.407 22.2636 311.785 22.2265 311.128L21.6592 227.571L65.4111 222.721L68.4675 264.586L68.4554 264.63L57.9082 310.698C57.7475 311.283 57.3702 311.804 56.8366 312.176C56.303 312.548 55.644 312.751 54.9651 312.752V312.752Z" fill="#2F2E41"/>
<path d="M36.0844 136.438C44.5049 136.438 51.331 130.384 51.331 122.915C51.331 115.447 44.5049 109.393 36.0844 109.393C27.664 109.393 20.8379 115.447 20.8379 122.915C20.8379 130.384 27.664 136.438 36.0844 136.438Z" fill="#FFB8B8"/>
<path d="M50.4503 233.678C48.0658 233.691 45.727 233.097 43.7107 231.968C36.3253 227.874 27.9368 229.501 23.5938 230.836C23.1629 230.969 22.7034 231.015 22.2497 230.969C21.796 230.923 21.3598 230.787 20.9739 230.571C20.5923 230.358 20.2699 230.072 20.0308 229.734C19.7917 229.395 19.642 229.013 19.5931 228.616L11.6954 166.058C10.3719 155.576 17.4907 145.722 28.6221 142.626C29.0403 142.51 29.4656 142.4 29.8979 142.295C33.3619 141.462 36.9896 141.313 40.5258 141.857C44.062 142.401 47.4207 143.626 50.3657 145.446C53.3654 147.285 55.8741 149.686 57.7152 152.478C59.5563 155.27 60.6851 158.386 61.0221 161.606L67.6708 224.583C67.7161 224.991 67.654 225.403 67.4895 225.785C67.325 226.168 67.0625 226.512 66.7228 226.79C64.3921 228.702 57.6276 233.677 50.4503 233.678Z" fill="#C86FC9"/>
<path d="M26.401 179.473L8.58311 177.735C8.07614 177.686 7.58714 177.54 7.14941 177.308C6.71169 177.076 6.33554 176.763 6.04656 176.39C5.75758 176.017 5.56257 175.594 5.47481 175.148C5.38705 174.702 5.40861 174.245 5.53801 173.808L10.0733 158.477C10.3732 156.178 11.6888 154.078 13.7316 152.638C15.7744 151.198 18.3777 150.535 20.9707 150.794C23.5638 151.054 25.9349 152.215 27.5642 154.023C29.1935 155.831 29.948 158.138 29.6623 160.438L30.3356 176.226C30.3547 176.678 30.2638 177.128 30.0689 177.546C29.8741 177.964 29.58 178.34 29.2066 178.648C28.8332 178.957 28.3893 179.19 27.9052 179.332C27.421 179.474 26.908 179.522 26.401 179.473V179.473Z" fill="#C86FC9"/>
<path d="M67.5994 227.67C68.3312 227.099 68.9129 226.392 69.3034 225.6C69.694 224.808 69.884 223.949 69.86 223.085C69.836 222.22 69.5986 221.371 69.1645 220.597C68.7304 219.822 68.1102 219.142 67.3476 218.603L62.9569 167.488L50.0522 170.065L57.6273 219.843C56.692 221.039 56.2839 222.498 56.4805 223.944C56.677 225.389 57.4644 226.72 58.6936 227.685C59.9228 228.65 61.5083 229.181 63.1497 229.178C64.7911 229.175 66.3743 228.639 67.5994 227.67Z" fill="#FFB8B8"/>
<path d="M45.105 176.26C44.7315 175.952 44.4373 175.576 44.2425 175.158C44.0476 174.74 43.9568 174.289 43.9762 173.837L44.6495 158.05C44.3638 155.749 45.1183 153.442 46.7476 151.634C48.3769 149.827 50.748 148.666 53.341 148.406C55.934 148.146 58.5373 148.809 60.5801 150.249C62.623 151.689 63.9385 153.789 64.2384 156.088L68.7738 171.419C68.9032 171.857 68.9247 172.314 68.837 172.759C68.7492 173.205 68.5542 173.629 68.2652 174.001C67.9762 174.374 67.6001 174.687 67.1624 174.919C66.7246 175.151 66.2356 175.297 65.7287 175.347L47.9107 177.084C47.4037 177.134 46.8906 177.086 46.4064 176.944C45.9221 176.801 45.4783 176.568 45.105 176.26V176.26Z" fill="#C86FC9"/>
<path d="M35.1777 136.947C34.9067 136.947 34.6366 136.919 34.3728 136.864L34.2954 136.847C20.8903 135.028 17.9279 128.142 17.2776 125.266C16.6046 122.288 17.371 119.414 19.1028 118.298C18.1586 115.654 18.3101 113.31 19.5542 111.327C21.724 107.869 26.4329 106.7 27.0645 106.557C30.8251 104.096 35.3246 105.739 36.1432 106.072C43.4176 103.685 46.198 105.672 46.7009 106.116C49.9526 106.634 51.9346 107.748 52.5927 109.428C53.8286 112.583 49.92 116.508 49.753 116.673L49.6663 116.759L43.8435 117.005C43.291 117.028 42.7502 117.155 42.2561 117.375C41.7621 117.596 41.3259 117.906 40.9758 118.286C40.6257 118.666 40.3696 119.107 40.224 119.58C40.0784 120.053 40.0466 120.549 40.1306 121.033C40.2882 121.659 40.4873 122.276 40.7268 122.881C41.7213 125.637 42.4663 127.992 41.5053 128.887C41.2876 129.06 41.0193 129.176 40.7311 129.22C40.4429 129.264 40.1465 129.236 39.8757 129.138C38.9653 128.922 38.3471 128.967 38.0392 129.272C37.561 129.745 37.707 130.943 38.4502 132.645C38.6834 133.183 38.7461 133.767 38.6317 134.335C38.5172 134.902 38.23 135.431 37.8009 135.864C37.4779 136.202 37.0761 136.474 36.6233 136.661C36.1704 136.848 35.6772 136.945 35.1777 136.947Z" fill="#2F2E41"/>
<path d="M87.5273 327H0.620761C0.456125 327 0.298222 326.942 0.181807 326.839C0.0653915 326.736 0 326.596 0 326.449C0 326.303 0.0653915 326.163 0.181807 326.06C0.298222 325.957 0.456125 325.899 0.620761 325.899H87.5273C87.692 325.899 87.8498 325.957 87.9663 326.06C88.0827 326.163 88.1481 326.303 88.1481 326.449C88.1481 326.596 88.0827 326.736 87.9663 326.839C87.8498 326.942 87.692 327 87.5273 327Z" fill="#CCCCCC"/>
<path d="M390.459 327H303.552C303.388 327 303.23 326.942 303.113 326.839C302.997 326.736 302.932 326.596 302.932 326.449C302.932 326.303 302.997 326.163 303.113 326.06C303.23 325.957 303.388 325.899 303.552 325.899H390.459C390.624 325.899 390.781 325.957 390.898 326.06C391.014 326.163 391.08 326.303 391.08 326.449C391.08 326.596 391.014 326.736 390.898 326.839C390.781 326.942 390.624 327 390.459 327Z" fill="#CCCCCC"/>
<path d="M266.128 233.437H115.904C110.144 233.432 104.621 231.4 100.548 227.787C96.4749 224.175 94.1838 219.277 94.1772 214.168V19.2696C94.1838 14.1608 96.4749 9.26283 100.548 5.65034C104.621 2.03784 110.144 0.00579813 115.904 0H266.128C271.888 0.00579813 277.411 2.03784 281.484 5.65034C285.557 9.26283 287.848 14.1608 287.855 19.2696V214.168C287.848 219.277 285.557 224.175 281.484 227.787C277.411 231.4 271.888 233.432 266.128 233.437V233.437Z" fill="white"/>
<path d="M242.539 154.723H139.493C128.967 154.679 128.923 140.458 139.494 140.409L242.539 140.409C253.058 140.453 253.115 154.675 242.539 154.723Z" fill="#CCCCCC"/>
<path d="M242.539 40.1747H139.493C128.967 40.1297 128.923 25.9088 139.494 25.8601L242.539 25.8601C253.058 25.9038 253.115 40.1258 242.539 40.1747Z" fill="#CCCCCC"/>
<path d="M242.539 181.15H139.493C128.967 181.106 128.923 166.885 139.494 166.836L242.539 166.836C253.058 166.88 253.115 181.102 242.539 181.15Z" fill="#CCCCCC"/>
<path d="M242.539 207.577H139.493C128.967 207.532 128.923 193.311 139.494 193.263L242.539 193.263C253.058 193.306 253.115 207.528 242.539 207.577Z" fill="#CCCCCC"/>
<path d="M240.677 123.231H141.355C138.64 123.229 136.036 122.271 134.116 120.568C132.196 118.865 131.116 116.556 131.113 114.147V64.8171C131.116 62.4087 132.196 60.0997 134.116 58.3966C136.036 56.6936 138.64 55.7356 141.355 55.7329H240.677C243.393 55.7356 245.996 56.6936 247.916 58.3966C249.837 60.0997 250.917 62.4087 250.92 64.8171V114.147C250.917 116.556 249.837 118.865 247.916 120.568C245.996 122.271 243.393 123.229 240.677 123.231V123.231Z" fill="#C86FC9"/>
<path d="M266.128 233.437H115.904C110.144 233.432 104.621 231.4 100.548 227.787C96.4749 224.175 94.1838 219.277 94.1772 214.168V19.2696C94.1838 14.1608 96.4749 9.26283 100.548 5.65034C104.621 2.03784 110.144 0.00579813 115.904 0H266.128C271.888 0.00579813 277.411 2.03784 281.484 5.65034C285.557 9.26283 287.848 14.1608 287.855 19.2696V214.168C287.848 219.277 285.557 224.175 281.484 227.787C277.411 231.4 271.888 233.432 266.128 233.437V233.437ZM115.904 3.30336C111.131 3.30814 106.555 4.99184 103.18 7.98505C99.8056 10.9783 97.9072 15.0366 97.9018 19.2696V214.168C97.9072 218.401 99.8056 222.459 103.18 225.452C106.555 228.446 111.131 230.129 115.904 230.134H266.128C270.901 230.129 275.477 228.446 278.852 225.452C282.226 222.459 284.125 218.401 284.13 214.168V19.2696C284.125 15.0366 282.226 10.9782 278.852 7.98503C275.477 4.99182 270.901 3.30813 266.128 3.30336H115.904Z" fill="#E6E6E6"/>
</g>
<defs>
<clipPath id="clip0">
<rect width="392" height="327" fill="white"/>
</clipPath>
</defs>
</svg>
