<svg width="407" height="334" viewBox="0 0 407 334" fill="none" xmlns="http://www.w3.org/2000/svg">
<g clip-path="url(#clip0)">
<path d="M100.459 304.765L101.287 322.228L101.287 322.229C101.427 325.181 100.389 328.067 98.4026 330.253C96.4161 332.439 93.6433 333.745 90.6942 333.885L90.3329 333.903L88.9775 305.31L100.459 304.765Z" fill="#2F2E41"/>
<path d="M348.544 275.254C340.233 291.485 329.692 307.183 316.355 321.39C316.058 321.711 315.759 322.024 315.457 322.342L283.857 307.37C284.051 307.049 284.263 306.688 284.491 306.293C298.065 283.05 380.005 141.262 377.416 109.149C377.718 111.798 387.43 199.387 348.544 275.254Z" fill="#E6E6E6"/>
<path d="M322.451 324.279C322.008 324.53 321.555 324.777 321.098 325.015L297.393 313.783C297.724 313.548 298.11 313.27 298.554 312.957C305.816 307.738 327.412 292.081 348.543 275.254C371.252 257.171 393.429 237.742 396.722 228.467C396.053 230.594 375.268 295.24 322.451 324.279Z" fill="#E6E6E6"/>
<path d="M39.4334 333.205C59.6383 333.205 76.0177 316.813 76.0177 296.592C76.0177 276.371 59.6383 259.979 39.4334 259.979C19.2285 259.979 2.84912 276.371 2.84912 296.592C2.84912 316.813 19.2285 333.205 39.4334 333.205Z" fill="#C86FC9"/>
<path d="M54.0877 281.228H24.7789C23.4838 281.229 22.2422 281.745 21.3264 282.661C20.4106 283.578 19.8955 284.82 19.894 286.116V307.068C19.8955 308.364 20.4106 309.607 21.3264 310.523C22.2421 311.44 23.4838 311.955 24.7789 311.957H54.0878C55.3829 311.955 56.6245 311.44 57.5403 310.523C58.456 309.607 58.9712 308.364 58.9726 307.068V286.116C58.9712 284.82 58.456 283.577 57.5403 282.661C56.6245 281.744 55.3828 281.229 54.0877 281.228V281.228ZM54.0877 284.021C54.2627 284.022 54.4369 284.045 54.6062 284.089L39.4367 296.199L24.3559 284.064C24.495 284.035 24.6367 284.021 24.7788 284.021H54.0877ZM54.0877 309.163H24.7789C24.2238 309.162 23.6917 308.941 23.2992 308.549C22.9068 308.156 22.686 307.623 22.6854 307.068V286.304L38.5588 299.077C38.806 299.276 39.1135 299.385 39.4307 299.386C39.7478 299.386 40.0557 299.279 40.3037 299.081L56.1813 286.405V307.068C56.1807 307.623 55.9599 308.156 55.5674 308.549C55.1749 308.941 54.6428 309.162 54.0877 309.163Z" fill="white"/>
<path d="M180.621 243.732L188.806 243.799C189.635 243.806 190.454 243.632 191.209 243.289C191.963 242.946 192.633 242.443 193.173 241.814C193.713 241.185 194.109 240.446 194.334 239.648C194.559 238.851 194.608 238.013 194.476 237.195V237.195C194.335 236.314 193.988 235.479 193.466 234.756C192.943 234.034 192.258 233.444 191.465 233.035C190.673 232.625 189.796 232.408 188.905 232.4C188.013 232.392 187.132 232.593 186.333 232.988L178.613 236.8L152.21 242.693L140.899 231.119L134.401 241.829L149.665 253.631L180.621 243.732Z" fill="#FFB8B8"/>
<path d="M179.086 328.372L169.442 330.228C162.855 309.446 155.717 289.765 155.718 274.544C146.395 284.928 134.834 290.868 121.221 292.734L122.704 269.718L133.832 263.778L150.864 255.911C152.355 255.222 153.964 254.824 155.604 254.738V254.738C158.792 254.57 161.93 255.588 164.413 257.597C166.896 259.606 168.549 262.463 169.054 265.618L179.086 328.372Z" fill="#2F2E41"/>
<path d="M132.905 289.95L129.061 292.874C127.408 294.131 125.455 294.933 123.397 295.202C121.338 295.471 119.245 295.196 117.326 294.405C106.316 286.146 98.4941 288.582 91.405 301.048C82.9018 291.444 80.804 277.572 88.3927 263.221L130.494 264.149L139.025 261.551L132.905 289.95Z" fill="#2F2E41"/>
<path d="M118.884 332.961C116.471 333.704 113.875 333.573 111.549 332.592C109.223 331.612 107.316 329.843 106.162 327.596C102.378 324.261 99.1858 319.486 96.417 313.679C94.4303 309.42 92.7244 305.035 91.3102 300.552C89.3942 294.63 92.5979 288.16 98.5606 286.388C98.7379 286.335 98.9174 286.286 99.099 286.239C107.059 284.194 115.233 288.788 117.954 296.549L125.866 319.116C126.333 320.449 126.534 321.861 126.456 323.272C126.378 324.683 126.023 326.064 125.412 327.338C124.8 328.611 123.944 329.751 122.892 330.694C121.841 331.636 120.614 332.362 119.282 332.83C119.15 332.876 119.017 332.92 118.884 332.961Z" fill="#2F2E41"/>
<path opacity="0.2" d="M95.0693 311.11C95.0693 311.11 104.343 321.504 106.197 327.444Z" fill="black"/>
<path d="M59.104 262.054L56.0004 269.635C55.6863 270.402 55.5433 271.229 55.5812 272.057C55.619 272.885 55.8369 273.695 56.2197 274.43C56.6024 275.165 57.1408 275.808 57.7973 276.313C58.4537 276.819 59.2125 277.175 60.0206 277.357V277.357C60.8903 277.553 61.7938 277.542 62.6584 277.324C63.523 277.107 64.3245 276.689 64.9984 276.105C65.6723 275.521 66.1999 274.787 66.5385 273.962C66.8772 273.136 67.0176 272.243 66.9483 271.354L66.2796 262.764L70.622 236.042L85.5615 229.832L78.0399 219.816L61.4204 229.614L59.104 262.054Z" fill="#FFB8B8"/>
<path d="M133.276 263.221C122.618 281.137 101.371 288.075 83.1737 274.046C86.3748 263.519 96.71 234.427 90.0332 233.313C75.8568 239.263 75.8362 225.294 73.1846 218.302L105.456 206.423L122.89 211.249L126.464 212.518C128.789 213.344 130.807 214.863 132.244 216.87C133.681 218.878 134.47 221.278 134.504 223.748C127.181 234.336 121.759 245.631 133.276 263.221Z" fill="#C86FC9"/>
<path d="M137.356 248.743L124.559 238.163L128.824 213.476L146.258 232.038L137.356 248.743Z" fill="#C86FC9"/>
<path d="M349.702 79.1513H347.873V29.0161C347.873 21.3206 344.819 13.9402 339.381 8.49863C333.944 3.05705 326.57 0 318.88 0H212.746C205.057 0 197.682 3.05705 192.245 8.49863C186.808 13.9402 183.753 21.3206 183.753 29.0161V304.062C183.753 311.758 186.808 319.138 192.245 324.58C197.682 330.022 205.057 333.079 212.746 333.079H318.88C326.569 333.079 333.944 330.022 339.381 324.58C344.818 319.138 347.873 311.758 347.873 304.062V114.838H349.702L349.702 79.1513Z" fill="#3F3D56"/>
<path d="M320.049 7.54835H306.195C306.833 9.11169 307.076 10.8079 306.904 12.4876C306.732 14.1673 306.15 15.7789 305.209 17.1804C304.268 18.5818 302.997 19.7301 301.508 20.5241C300.019 21.3181 298.358 21.7333 296.67 21.7333H235.868C234.181 21.7332 232.52 21.3178 231.031 20.5239C229.542 19.73 228.272 18.5818 227.331 17.1806C226.39 15.7793 225.808 14.168 225.635 12.4885C225.463 10.809 225.706 9.11297 226.344 7.54973H213.402C207.659 7.54973 202.152 9.83277 198.091 13.8966C194.031 17.9605 191.75 23.4722 191.75 29.2194V303.861C191.75 309.608 194.031 315.12 198.091 319.183C202.152 323.247 207.659 325.53 213.402 325.53H320.045C325.788 325.53 331.295 323.247 335.356 319.183C339.416 315.12 341.698 309.608 341.698 303.861V303.861V29.218C341.698 23.4708 339.416 17.9591 335.356 13.8952C331.295 9.83139 325.788 7.54834 320.045 7.54834H320.049L320.049 7.54835Z" fill="white"/>
<path d="M266.909 310.182C273.476 310.182 278.799 304.855 278.799 298.283C278.799 291.711 273.476 286.384 266.909 286.384C260.343 286.384 255.02 291.711 255.02 298.283C255.02 304.855 260.343 310.182 266.909 310.182Z" fill="#E6E6E6"/>
<path d="M218.674 188.238C217.55 188.238 216.636 189.283 216.636 190.566C216.636 191.85 217.55 192.895 218.674 192.895H314.773C315.897 192.895 316.812 191.85 316.812 190.566C316.812 189.283 315.897 188.238 314.773 188.238H218.674Z" fill="#E6E6E6"/>
<path d="M218.674 243.158C217.55 243.158 216.636 244.203 216.636 245.487C216.636 246.771 217.55 247.815 218.674 247.815H314.773C315.897 247.815 316.812 246.771 316.812 245.487C316.812 244.203 315.897 243.158 314.773 243.158H218.674Z" fill="#E6E6E6"/>
<path d="M218.674 202.209C217.55 202.209 216.636 203.254 216.636 204.538C216.636 205.822 217.55 206.867 218.674 206.867H260.026C261.15 206.867 262.064 205.822 262.064 204.538C262.064 203.254 261.15 202.209 260.026 202.209H218.674Z" fill="#E6E6E6"/>
<path d="M218.674 215.527C217.55 215.527 216.636 216.572 216.636 217.855C216.636 219.139 217.55 220.184 218.674 220.184H314.773C315.897 220.184 316.812 219.139 316.812 217.855C316.812 216.572 315.897 215.527 314.773 215.527H218.674Z" fill="#E6E6E6"/>
<path d="M218.674 229.498C217.55 229.498 216.636 230.543 216.636 231.827C216.636 233.11 217.55 234.155 218.674 234.155H260.026C261.15 234.155 262.064 233.11 262.064 231.827C262.064 230.543 261.15 229.498 260.026 229.498H218.674Z" fill="#E6E6E6"/>
<path d="M236.816 82.2095H296.638C297.299 82.2103 297.932 82.4733 298.399 82.941C298.867 83.4086 299.13 84.0427 299.13 84.704V147.055C299.13 147.717 298.867 148.351 298.399 148.818C297.932 149.286 297.299 149.549 296.638 149.55H236.816C236.155 149.549 235.522 149.286 235.055 148.818C234.587 148.351 234.325 147.717 234.324 147.055V84.704C234.325 84.0426 234.587 83.4086 235.055 82.941C235.522 82.4733 236.155 82.2103 236.816 82.2095V82.2095Z" fill="#C86FC9"/>
<path d="M283.891 136.692C284.113 136.692 284.334 136.649 284.539 136.564C284.745 136.479 284.932 136.355 285.089 136.197C285.247 136.04 285.372 135.853 285.457 135.648C285.542 135.442 285.586 135.222 285.587 134.999C285.587 134.776 285.543 134.556 285.458 134.35C285.373 134.145 285.248 133.958 285.091 133.8C284.933 133.643 284.746 133.518 284.541 133.433C284.335 133.348 284.115 133.304 283.892 133.305H249.563C249.34 133.304 249.12 133.348 248.914 133.433C248.709 133.517 248.522 133.642 248.364 133.799C248.207 133.956 248.082 134.143 247.997 134.349C247.911 134.554 247.867 134.775 247.867 134.997C247.867 135.22 247.911 135.441 247.996 135.646C248.081 135.852 248.206 136.039 248.363 136.196C248.521 136.354 248.707 136.478 248.913 136.563C249.118 136.648 249.339 136.692 249.561 136.692H283.891Z" fill="white"/>
<path d="M283.891 126.714C284.339 126.714 284.77 126.535 285.087 126.218C285.405 125.9 285.583 125.469 285.583 125.02C285.583 124.571 285.405 124.14 285.087 123.823C284.77 123.505 284.339 123.327 283.891 123.327H249.563C249.114 123.326 248.683 123.505 248.366 123.822C248.048 124.14 247.87 124.57 247.87 125.019C247.869 125.469 248.047 125.899 248.365 126.217C248.682 126.535 249.112 126.714 249.561 126.714H283.891Z" fill="white"/>
<path d="M266.727 95.0674C268.834 95.0674 270.893 95.6926 272.645 96.8639C274.396 98.0353 275.762 99.7002 276.568 101.648C277.374 103.596 277.585 105.739 277.174 107.807C276.763 109.875 275.749 111.775 274.259 113.266C272.769 114.756 270.871 115.772 268.805 116.183C266.739 116.594 264.597 116.383 262.651 115.576C260.704 114.77 259.041 113.403 257.87 111.65C256.7 109.897 256.075 107.836 256.075 105.728V105.728C256.078 102.901 257.202 100.192 259.199 98.1932C261.195 96.1947 263.903 95.0706 266.727 95.0674V95.0674Z" fill="white"/>
<path d="M130.818 203.191H99.1957C98.5452 203.19 97.9216 202.931 97.4616 202.471C97.0016 202.01 96.7429 201.386 96.7422 200.735V187.094C96.7422 182.246 98.6665 177.597 102.092 174.169C105.517 170.741 110.163 168.815 115.007 168.815C119.851 168.815 124.497 170.741 127.922 174.169C131.347 177.597 133.272 182.246 133.272 187.094V200.735C133.271 201.386 133.012 202.011 132.552 202.471C132.092 202.931 131.469 203.19 130.818 203.191V203.191Z" fill="#2F2E41"/>
<path d="M130.248 195.395C133.795 188.901 131.41 180.758 124.921 177.208C118.432 173.658 110.295 176.044 106.748 182.539C103.2 189.033 105.585 197.176 112.075 200.727C118.564 204.277 126.7 201.89 130.248 195.395Z" fill="#FFB6B6"/>
<path d="M137.593 188.458H118.256L118.058 185.68L117.067 188.458H114.089L113.696 182.952L111.731 188.458H105.97V188.185C105.975 184.352 107.498 180.676 110.207 177.966C112.915 175.255 116.588 173.73 120.418 173.726H123.144C126.975 173.73 130.647 175.255 133.356 177.965C136.065 180.676 137.588 184.352 137.593 188.185V188.458Z" fill="#2F2E41"/>
<path d="M118.098 205.737C117.952 205.737 117.807 205.724 117.664 205.699L103.505 203.199V179.779H119.091L118.705 180.23C113.336 186.496 117.381 196.657 120.27 202.156C120.483 202.559 120.578 203.014 120.544 203.468C120.51 203.923 120.349 204.358 120.078 204.725C119.852 205.038 119.554 205.293 119.21 205.469C118.866 205.645 118.485 205.737 118.098 205.737V205.737Z" fill="#2F2E41"/>
<path d="M165.239 321.363L182.708 321.362H182.708C185.661 321.362 188.492 322.536 190.58 324.626C192.668 326.715 193.841 329.549 193.841 332.504V332.866L165.239 332.867L165.239 321.363Z" fill="#2F2E41"/>
<path d="M406.543 334H0.457303C0.336019 334 0.219702 333.952 0.133941 333.866C0.0481797 333.78 0 333.664 0 333.543C0 333.421 0.0481797 333.305 0.133941 333.219C0.219702 333.133 0.336019 333.085 0.457303 333.085H406.543C406.664 333.085 406.78 333.133 406.866 333.219C406.952 333.305 407 333.421 407 333.543C407 333.664 406.952 333.78 406.866 333.866C406.78 333.952 406.664 334 406.543 334Z" fill="#CACACA"/>
</g>
<defs>
<clipPath id="clip0">
<rect width="407" height="334" fill="white"/>
</clipPath>
</defs>
</svg>
