<svg width="539" height="579" viewBox="0 0 539 579" fill="none" xmlns="http://www.w3.org/2000/svg">
<g clip-path="url(#clip0_190_3)">
<path d="M506.768 440.049H101.832C98.224 440.045 94.7649 438.61 92.2136 436.059C89.6623 433.508 88.2272 430.049 88.223 426.441V96.7176C88.2272 93.1095 89.6623 89.6505 92.2136 87.0992C94.7649 84.5479 98.224 83.1128 101.832 83.1086H506.768C510.376 83.1128 513.835 84.5479 516.386 87.0992C518.937 89.6505 520.372 93.1095 520.377 96.7176V426.44C520.372 430.049 518.937 433.508 516.386 436.059C513.835 438.61 510.376 440.045 506.768 440.049V440.049Z" fill="#E6E6E6"/>
<path d="M467.423 430.87H111.014C107.406 430.866 103.947 429.431 101.395 426.879C98.844 424.328 97.4088 420.869 97.4047 417.261V105.904C97.4088 102.296 98.844 98.8373 101.395 96.286C103.947 93.7347 107.406 92.2996 111.014 92.2954H497.588C501.196 92.2996 504.655 93.7347 507.206 96.286C509.758 98.8373 511.193 102.296 511.197 105.904V387.096C511.184 398.702 506.568 409.828 498.362 418.035C490.155 426.241 479.029 430.857 467.423 430.87V430.87Z" fill="white"/>
<path d="M369.269 162.698H206.516C206.054 162.699 205.597 162.609 205.171 162.433C204.744 162.257 204.357 161.998 204.03 161.672C203.703 161.346 203.444 160.959 203.268 160.533C203.091 160.107 203 159.65 203 159.189C203 158.727 203.091 158.27 203.268 157.844C203.444 157.418 203.703 157.031 204.03 156.705C204.357 156.379 204.744 156.12 205.171 155.944C205.597 155.768 206.054 155.678 206.516 155.679H369.269C370.199 155.68 371.09 156.051 371.747 156.709C372.404 157.367 372.773 158.259 372.773 159.189C372.773 160.118 372.404 161.01 371.747 161.668C371.09 162.326 370.199 162.697 369.269 162.698V162.698Z" fill="#2E4680"/>
<path d="M451.871 200.145H206.729C205.798 200.145 204.906 199.776 204.247 199.117C203.589 198.459 203.219 197.567 203.219 196.636C203.219 195.705 203.589 194.812 204.247 194.154C204.906 193.496 205.798 193.126 206.729 193.126H451.871C452.802 193.126 453.695 193.496 454.353 194.154C455.011 194.812 455.381 195.705 455.381 196.636C455.381 197.567 455.011 198.459 454.353 199.117C453.695 199.776 452.802 200.145 451.871 200.145V200.145Z" fill="#E6E6E6"/>
<path d="M451.871 237.592H206.729C206.268 237.593 205.811 237.503 205.384 237.327C204.958 237.151 204.57 236.893 204.244 236.567C203.917 236.241 203.658 235.853 203.481 235.427C203.305 235.001 203.214 234.544 203.214 234.083C203.214 233.621 203.305 233.164 203.481 232.738C203.658 232.312 203.917 231.925 204.244 231.599C204.57 231.273 204.958 231.014 205.384 230.838C205.811 230.662 206.268 230.572 206.729 230.573H451.871C452.801 230.575 453.692 230.945 454.349 231.603C455.006 232.261 455.375 233.153 455.375 234.083C455.375 235.013 455.006 235.904 454.349 236.562C453.692 237.22 452.801 237.591 451.871 237.592V237.592Z" fill="#E6E6E6"/>
<path d="M451.871 275.04H206.729C205.798 275.04 204.906 274.67 204.247 274.012C203.589 273.353 203.219 272.461 203.219 271.53C203.219 270.599 203.589 269.706 204.247 269.048C204.906 268.39 205.798 268.02 206.729 268.02H451.871C452.802 268.02 453.695 268.39 454.353 269.048C455.011 269.706 455.381 270.599 455.381 271.53C455.381 272.461 455.011 273.353 454.353 274.012C453.695 274.67 452.802 275.04 451.871 275.04V275.04Z" fill="#E6E6E6"/>
<path d="M451.871 312.487H206.729C205.798 312.487 204.906 312.117 204.247 311.459C203.589 310.8 203.219 309.908 203.219 308.977C203.219 308.046 203.589 307.153 204.247 306.495C204.906 305.837 205.798 305.467 206.729 305.467H451.871C452.802 305.467 453.695 305.837 454.353 306.495C455.011 307.153 455.381 308.046 455.381 308.977C455.381 309.908 455.011 310.8 454.353 311.459C453.695 312.117 452.802 312.487 451.871 312.487V312.487Z" fill="#E6E6E6"/>
<path d="M440.847 372.161C437.332 372.161 433.896 371.118 430.974 369.166C428.051 367.213 425.773 364.437 424.428 361.19C423.083 357.942 422.731 354.369 423.417 350.922C424.102 347.474 425.795 344.308 428.281 341.822C430.766 339.337 433.933 337.644 437.38 336.958C440.827 336.273 444.401 336.625 447.648 337.97C450.896 339.315 453.671 341.593 455.624 344.515C457.577 347.438 458.619 350.874 458.619 354.389C458.619 359.102 456.747 363.623 453.414 366.955C450.081 370.288 445.561 372.161 440.847 372.161Z" fill="#2E4680"/>
<path d="M450.845 353.545L445.807 346.191C445.583 345.864 445.238 345.639 444.849 345.566C444.459 345.494 444.057 345.579 443.73 345.803C443.403 346.027 443.178 346.371 443.106 346.761C443.033 347.15 443.118 347.553 443.342 347.88L446.6 352.636H433.835C433.37 352.636 432.924 352.82 432.595 353.149C432.266 353.478 432.082 353.924 432.082 354.389C432.082 354.854 432.266 355.3 432.595 355.628C432.924 355.957 433.37 356.142 433.835 356.142H446.76L443.342 361.132C443.118 361.459 443.033 361.861 443.106 362.251C443.178 362.64 443.403 362.985 443.73 363.209C444.057 363.433 444.459 363.518 444.849 363.445C445.238 363.372 445.583 363.148 445.807 362.821L450.845 355.467C451.009 355.173 451.096 354.842 451.096 354.506C451.096 354.169 451.009 353.838 450.845 353.545L450.845 353.545Z" fill="white"/>
<path d="M536.947 34.4842H71.6544C71.1819 34.4741 70.7322 34.2793 70.4016 33.9416C70.071 33.6039 69.8859 33.1501 69.8859 32.6776C69.8859 32.205 70.071 31.7512 70.4016 31.4135C70.7322 31.0758 71.1819 30.881 71.6544 30.871H536.947C537.42 30.881 537.87 31.0758 538.2 31.4135C538.531 31.7512 538.716 32.205 538.716 32.6776C538.716 33.1501 538.531 33.6039 538.2 33.9416C537.87 34.2793 537.42 34.4741 536.947 34.4842V34.4842Z" fill="#CACACA"/>
<path d="M102.579 21.6469C108.426 21.6469 113.166 16.8011 113.166 10.8235C113.166 4.84582 108.426 0 102.579 0C96.7314 0 91.9912 4.84582 91.9912 10.8235C91.9912 16.8011 96.7314 21.6469 102.579 21.6469Z" fill="#3F3D56"/>
<path d="M139.154 21.6469C145.001 21.6469 149.741 16.8011 149.741 10.8235C149.741 4.84582 145.001 0 139.154 0C133.306 0 128.566 4.84582 128.566 10.8235C128.566 16.8011 133.306 21.6469 139.154 21.6469Z" fill="#3F3D56"/>
<path d="M175.729 21.6469C181.576 21.6469 186.316 16.8011 186.316 10.8235C186.316 4.84582 181.576 0 175.729 0C169.881 0 165.141 4.84582 165.141 10.8235C165.141 16.8011 169.881 21.6469 175.729 21.6469Z" fill="#3F3D56"/>
<path d="M514.926 2.68268H488.945C488.43 2.69287 487.94 2.90461 487.579 3.27243C487.218 3.64025 487.016 4.1348 487.016 4.6499C487.016 5.165 487.218 5.65957 487.579 6.02739C487.94 6.39521 488.43 6.60694 488.945 6.61713H514.926C515.441 6.60694 515.932 6.39521 516.292 6.02739C516.653 5.65957 516.855 5.165 516.855 4.6499C516.855 4.1348 516.653 3.64025 516.292 3.27243C515.932 2.90461 515.441 2.69287 514.926 2.68268V2.68268Z" fill="#3F3D56"/>
<path d="M514.926 10.0671H488.945C488.43 10.0773 487.94 10.289 487.579 10.6568C487.218 11.0246 487.016 11.5192 487.016 12.0343C487.016 12.5494 487.218 13.044 487.579 13.4118C487.94 13.7796 488.43 13.9913 488.945 14.0015H514.926C515.441 13.9913 515.932 13.7796 516.292 13.4118C516.653 13.044 516.855 12.5494 516.855 12.0343C516.855 11.5192 516.653 11.0246 516.292 10.6568C515.932 10.289 515.441 10.0773 514.926 10.0671V10.0671Z" fill="#3F3D56"/>
<path d="M514.926 17.4418H488.945C488.43 17.452 487.94 17.6637 487.579 18.0315C487.218 18.3993 487.016 18.8939 487.016 19.409C487.016 19.9241 487.218 20.4187 487.579 20.7865C487.94 21.1543 488.43 21.366 488.945 21.3762H514.926C515.441 21.366 515.932 21.1543 516.292 20.7865C516.653 20.4187 516.855 19.9241 516.855 19.409C516.855 18.8939 516.653 18.3993 516.292 18.0315C515.932 17.6637 515.441 17.452 514.926 17.4418V17.4418Z" fill="#3F3D56"/>
<path d="M129.883 390.627C130.596 390.031 131.168 389.287 131.562 388.445C131.955 387.604 132.159 386.687 132.159 385.758C132.16 384.83 131.956 383.913 131.564 383.071C131.172 382.23 130.599 381.484 129.888 380.888L126.034 347.593L113.8 350.426L120.599 381.986C119.676 383.248 119.249 384.805 119.397 386.361C119.545 387.917 120.259 389.365 121.403 390.43C122.548 391.495 124.043 392.104 125.606 392.14C127.169 392.176 128.691 391.638 129.883 390.627Z" fill="#FFB6B6"/>
<path d="M128.619 353.022L114.455 361.858C114.455 361.858 113.593 367.037 112.619 354.022C112.518 352.664 113.465 350.297 113.361 348.902C113.244 347.329 108.738 346.614 108.619 345.022C108.535 343.889 109.837 342.881 109.753 341.751C109.626 340.04 109.499 338.338 109.375 336.663C109.271 335.262 107.719 334.374 107.619 333.022C107.518 331.659 108.869 329.832 108.774 328.54C108.06 318.851 110.529 294.476 110.529 293.98C110.338 292.736 109.818 291.565 109.024 290.589L109.78 288.328L109.28 284.085C108.623 278.511 109.795 272.873 112.619 268.022V268.022L116.216 265.667L132.814 293.584C125.83 317.742 121.27 327.231 128.619 353.022Z" fill="#2E4680"/>
<path d="M117.567 561.177H126.135L130.213 528.128H117.567V561.177Z" fill="#FFB6B6"/>
<path d="M114.771 555.308L128.46 554.491V560.356L141.474 569.344C142.117 569.788 142.601 570.426 142.855 571.164C143.11 571.903 143.122 572.703 142.89 573.449C142.657 574.195 142.193 574.847 141.563 575.31C140.934 575.773 140.173 576.022 139.392 576.022H123.095L120.286 570.221L119.19 576.022H113.045L114.771 555.308Z" fill="#2F2E41"/>
<path d="M165.696 561.177H174.264L178.341 528.128H165.696V561.177Z" fill="#FFB6B6"/>
<path d="M162.899 555.308L176.588 554.491V560.356L189.602 569.344C190.245 569.788 190.729 570.426 190.984 571.164C191.239 571.903 191.251 572.703 191.018 573.449C190.786 574.195 190.321 574.847 189.692 575.31C189.062 575.773 188.302 576.022 187.52 576.022H171.224L168.415 570.221L167.318 576.022H161.173L162.899 555.308Z" fill="#2F2E41"/>
<path d="M113.93 532.677H113.964L115.611 453.973C114.545 451.916 114.004 449.627 114.036 447.31C114.068 444.994 114.673 442.721 115.796 440.694L116.032 440.267L115.42 437.432C114.634 433.789 114.995 429.992 116.452 426.562L117.989 376.437C112.497 340.844 138.671 317.632 138.671 317.632H177.878L186.296 346.552C191.86 400.767 190.851 478.567 182.02 529.751L182.261 529.872C182.718 530.127 183.059 530.548 183.213 531.047C183.368 531.547 183.324 532.086 183.092 532.555C182.684 533.737 181.65 534.452 180.783 534.153L160.077 533.433C159.621 533.178 159.279 532.758 159.125 532.258C158.97 531.759 159.014 531.219 159.247 530.751C159.655 529.569 160.688 528.853 161.555 529.152L162.963 529.864L161.51 526.907C160.635 525.127 160.257 523.143 160.415 521.166C160.573 519.188 161.262 517.29 162.408 515.671V515.671L162.154 509.161C161.07 507.893 160.325 506.371 159.986 504.738C159.646 503.105 159.725 501.413 160.213 499.818L161.61 495.259L159.96 453.042L160.293 443.571L159.607 432.826L156.433 384.496L144.42 443.929L132.148 533.275C132.443 533.542 132.663 533.881 132.784 534.26C132.905 534.638 132.924 535.042 132.839 535.43C132.712 535.944 132.414 536.401 131.994 536.724C131.574 537.046 131.056 537.216 130.526 537.206H113.871C113.521 537.206 113.177 537.125 112.864 536.969C112.551 536.814 112.278 536.589 112.067 536.311C111.855 536.033 111.711 535.71 111.645 535.367C111.579 535.024 111.592 534.67 111.685 534.333C111.826 533.849 112.122 533.425 112.528 533.126C112.933 532.826 113.426 532.669 113.93 532.677V532.677Z" fill="#2F2E41"/>
<path d="M209.21 377.69C209.796 376.969 210.217 376.129 210.443 375.229C210.669 374.328 210.695 373.389 210.519 372.477C210.343 371.566 209.969 370.704 209.424 369.952C208.879 369.2 208.176 368.577 207.364 368.127L197.254 336.171L185.781 341.277L198.453 370.97C197.787 372.385 197.663 373.994 198.104 375.494C198.545 376.994 199.521 378.28 200.847 379.108C202.173 379.936 203.757 380.249 205.298 379.988C206.839 379.726 208.231 378.909 209.21 377.69H209.21Z" fill="#FFB6B6"/>
<path d="M167.612 276.098C167.612 276.098 179.141 316.9 178.619 321.022C177.542 329.522 124.559 355.649 120.619 344.022L121.113 340.2C119.122 336.219 131.267 320.419 131.857 318.352C132.606 315.71 129.214 307.033 129.214 307.033C129.214 307.033 131.559 299.112 131.184 294.208C130.803 289.304 129.672 290.06 125.524 287.036C121.377 284.019 114.586 270.064 114.586 270.064C114.586 270.064 117.603 256.484 117.603 253.841C117.603 251.198 129.998 246.697 131.503 245.192C132.158 244.318 132.71 243.37 133.147 242.369C133.452 241.759 133.258 240.344 133.584 239.643C133.792 239.185 134.52 239.47 134.735 238.998C134.943 238.54 134.763 238.013 134.971 237.562C135.242 236.966 135.894 236.446 136.15 235.884C137.329 233.304 138.335 231.202 138.647 231.202C139.396 231.202 163.547 234.601 163.547 234.601C164.862 236.634 166.377 238.53 168.069 240.26C170.712 242.896 183.079 249.312 183.079 249.312L167.612 276.098Z" fill="#2E4680"/>
<path d="M200.223 344.742C198.336 346.628 189.001 355.29 188.619 353.022C188.245 350.761 188.041 350.491 186.529 349.742C185.017 348.986 185.017 348.611 184.642 345.969C184.268 343.326 180.869 340.683 181.25 339.553C181.625 338.422 181.275 339.86 181.275 338.723C181.275 337.592 180.145 333.445 178.633 332.689C177.128 331.933 174.86 331.184 175.997 329.297C177.128 327.41 165.35 270.813 165.35 270.813L175.914 250.068L183.079 249.312C183.079 249.312 185.256 250.558 185.938 261.788C185.972 262.357 186.593 263.401 186.619 264.022C186.641 264.538 186.071 264.624 186.086 265.178C186.09 265.296 186.093 265.415 186.096 265.535C186.11 266.086 187.597 266.491 187.619 267.022C187.659 267.972 188.243 274.027 188.306 274.917C188.377 275.92 188.461 276.886 188.557 277.816C189.6 287.937 189.973 288.792 190.619 292.022C191.619 297.022 195.765 326.224 195.765 326.224C195.765 326.224 198.782 326.974 198.782 329.616C198.782 332.259 202.109 337.57 200.604 340.587C199.092 343.611 202.109 342.855 200.223 344.742Z" fill="#2E4680"/>
<path d="M148.875 230.428C158.757 230.428 166.768 222.416 166.768 212.534C166.768 202.652 158.757 194.64 148.875 194.64C138.992 194.64 130.981 202.652 130.981 212.534C130.981 222.416 138.992 230.428 148.875 230.428Z" fill="#FFB8B8"/>
<path d="M110.315 250.139C106.528 248.797 102.742 247.453 98.9554 246.106C99.608 245.011 100.439 244.033 101.414 243.212C105.02 240.201 109.996 239.657 114.573 238.642C119.158 237.626 124.134 235.544 125.81 231.163C127.55 226.607 125.026 221.689 123.561 217.047C121.397 210.535 121.659 203.46 124.301 197.127C125.65 193.999 127.702 191.224 130.297 189.018C132.892 186.811 135.961 185.233 139.266 184.404C145.896 182.931 153.389 185.332 157.466 190.758C160.092 189.97 162.916 190.171 165.405 191.323C167.893 192.476 169.874 194.499 170.972 197.011C171.49 198.189 171.72 199.472 171.644 200.756C171.568 202.04 171.189 203.287 170.537 204.396C169.123 206.536 166.098 207.631 163.82 206.441L165.14 203.09C161.056 204.476 158.401 211.86 158.953 216.14C159.497 220.413 161.992 224.155 164.524 227.645C167.055 231.134 169.754 234.659 170.842 238.83C172.409 244.829 170.291 251.387 166.374 256.196C162.456 261.006 156.936 264.27 151.22 266.671C146.941 268.47 142.495 269.84 137.945 270.762C138.758 269.181 139.563 267.599 140.375 266.018L130.735 271.85C128.871 272.032 126.992 272.14 125.113 272.177C119.644 272.271 114.065 271.698 109.06 269.514C104.048 267.324 99.6445 263.356 97.831 258.198C97.2496 256.53 96.9744 254.771 97.0186 253.005C101.451 252.047 105.883 251.092 110.315 250.139Z" fill="#2F2E41"/>
<path d="M283.233 577.385H250.046L249.903 577.126C249.479 576.357 249.069 575.541 248.687 574.704C245.268 567.385 243.823 559.015 242.548 551.63L241.588 546.064C241.472 545.39 241.56 544.696 241.84 544.072C242.12 543.448 242.58 542.922 243.161 542.561C243.742 542.2 244.418 542.02 245.101 542.045C245.785 542.07 246.446 542.299 246.999 542.702C252.042 546.372 257.087 550.038 262.135 553.701C264.046 555.091 266.229 556.701 268.319 558.44C268.521 557.46 268.732 556.478 268.942 555.509C269.088 554.84 269.43 554.23 269.924 553.757C270.418 553.283 271.043 552.968 271.717 552.851C272.392 552.735 273.086 552.822 273.71 553.102C274.335 553.382 274.862 553.842 275.223 554.423L279.106 560.662C281.938 565.217 284.438 569.706 283.928 574.548C283.931 574.607 283.926 574.666 283.915 574.724C283.813 575.519 283.624 576.301 283.352 577.055L283.233 577.385Z" fill="#F0F0F0"/>
<path d="M316.542 578.103L1.18451 578.41C0.869919 578.409 0.568853 578.282 0.347046 578.059C0.125239 577.836 0.000732422 577.534 0.000732422 577.22C0.000732422 576.905 0.125239 576.603 0.347046 576.38C0.568853 576.157 0.869919 576.031 1.18451 576.029L316.542 575.722C316.857 575.723 317.158 575.849 317.38 576.073C317.602 576.296 317.727 576.598 317.727 576.912C317.727 577.227 317.602 577.529 317.38 577.752C317.158 577.975 316.857 578.101 316.542 578.103V578.103Z" fill="#CACACA"/>
<path d="M260.982 138.595C260.64 137.936 260.165 137.442 259.557 137.113C258.949 136.771 258.246 136.6 257.448 136.6C256.574 136.6 255.795 136.796 255.111 137.189C254.427 137.582 253.889 138.139 253.496 138.861C253.116 139.583 252.926 140.419 252.926 141.369C252.926 142.319 253.116 143.161 253.496 143.896C253.889 144.618 254.427 145.175 255.111 145.568C255.795 145.961 256.574 146.157 257.448 146.157C258.626 146.157 259.582 145.828 260.317 145.169C261.052 144.51 261.501 143.617 261.666 142.49H256.707V140.761H263.984V142.452C263.845 143.478 263.477 144.422 262.882 145.283C262.299 146.144 261.533 146.835 260.583 147.354C259.646 147.861 258.601 148.114 257.448 148.114C256.207 148.114 255.073 147.829 254.047 147.259C253.021 146.676 252.204 145.872 251.596 144.846C251.001 143.82 250.703 142.661 250.703 141.369C250.703 140.077 251.001 138.918 251.596 137.892C252.204 136.866 253.021 136.068 254.047 135.498C255.086 134.915 256.219 134.624 257.448 134.624C258.854 134.624 260.102 134.972 261.191 135.669C262.293 136.353 263.091 137.328 263.585 138.595H260.982ZM272.979 148L269.939 142.718H268.286V148H266.12V134.795H270.68C271.694 134.795 272.549 134.972 273.245 135.327C273.955 135.682 274.48 136.157 274.822 136.752C275.177 137.347 275.354 138.012 275.354 138.747C275.354 139.608 275.101 140.394 274.594 141.103C274.1 141.8 273.334 142.275 272.295 142.528L275.563 148H272.979ZM268.286 140.989H270.68C271.491 140.989 272.099 140.786 272.504 140.381C272.922 139.976 273.131 139.431 273.131 138.747C273.131 138.063 272.929 137.531 272.523 137.151C272.118 136.758 271.504 136.562 270.68 136.562H268.286V140.989ZM286.086 145.302H280.557L279.607 148H277.346L282.077 134.776H284.585L289.316 148H287.036L286.086 145.302ZM285.478 143.535L283.331 137.398L281.165 143.535H285.478ZM302.222 148H300.056L293.539 138.139V148H291.373V134.776H293.539L300.056 144.618V134.776H302.222V148ZM313.598 134.795V136.562H310.083V148H307.917V136.562H304.383V134.795H313.598ZM320.142 148.133C319.256 148.133 318.458 147.981 317.748 147.677C317.039 147.36 316.482 146.917 316.076 146.347C315.671 145.777 315.468 145.112 315.468 144.352H317.786C317.837 144.922 318.059 145.391 318.451 145.758C318.857 146.125 319.42 146.309 320.142 146.309C320.89 146.309 321.472 146.132 321.89 145.777C322.308 145.41 322.517 144.941 322.517 144.371C322.517 143.928 322.384 143.567 322.118 143.288C321.865 143.009 321.542 142.794 321.149 142.642C320.769 142.49 320.237 142.325 319.553 142.148C318.692 141.92 317.989 141.692 317.444 141.464C316.912 141.223 316.456 140.856 316.076 140.362C315.696 139.868 315.506 139.209 315.506 138.386C315.506 137.626 315.696 136.961 316.076 136.391C316.456 135.821 316.988 135.384 317.672 135.08C318.356 134.776 319.148 134.624 320.047 134.624C321.327 134.624 322.372 134.947 323.182 135.593C324.006 136.226 324.462 137.1 324.55 138.215H322.156C322.118 137.734 321.89 137.322 321.472 136.98C321.054 136.638 320.503 136.467 319.819 136.467C319.199 136.467 318.692 136.625 318.299 136.942C317.907 137.259 317.71 137.715 317.71 138.31C317.71 138.715 317.831 139.051 318.071 139.317C318.325 139.57 318.641 139.773 319.021 139.925C319.401 140.077 319.921 140.242 320.579 140.419C321.453 140.66 322.163 140.9 322.707 141.141C323.265 141.382 323.733 141.755 324.113 142.262C324.506 142.756 324.702 143.421 324.702 144.257C324.702 144.928 324.519 145.562 324.151 146.157C323.797 146.752 323.271 147.234 322.574 147.601C321.89 147.956 321.08 148.133 320.142 148.133Z" fill="black"/>
</g>
<defs>
<clipPath id="clip0_190_3">
<rect width="538.715" height="578.41" fill="white"/>
</clipPath>
</defs>
</svg>
