<svg width="632" height="530" viewBox="0 0 632 530" fill="none" xmlns="http://www.w3.org/2000/svg">
<g clip-path="url(#clip0)">
<path opacity="0.1" d="M197.336 530C271.988 530 332.505 520.04 332.505 507.754C332.505 495.468 271.988 485.508 197.336 485.508C122.684 485.508 62.1665 495.468 62.1665 507.754C62.1665 520.04 122.684 530 197.336 530Z" fill="#C86FC9"/>
<path opacity="0.1" d="M195.15 23.383C216.59 2.86715 250.248 -1.33488 280.89 0.321215C377.119 5.46253 463.975 55.3122 539.129 111.712C566.334 132.135 593.117 154.134 610.771 182.257C646.718 239.491 636.052 318.786 586.071 365.935C569.065 382.002 548.451 394.28 527.291 405.181C489.66 424.566 449.058 440.126 406.35 444.557C375.896 447.714 345.066 445.144 314.788 440.738C230.192 428.428 147.155 401.189 77.5616 354.614C47.039 334.21 18.2693 308.788 5.68576 275.734C-6.89778 242.68 1.13269 200.795 32.3269 181.237C45.2178 173.142 60.6299 169.496 75.7176 166.054C97.9138 161.006 120.497 156.025 140.542 145.761C161.241 135.151 185.754 114.641 181.656 91.1717C177.257 65.978 173.717 43.8617 195.15 23.383Z" fill="#C86FC9"/>
<path d="M524.075 54.6635C527.923 82.1991 517.217 106.8 517.217 106.8C517.217 106.8 500.274 86.7596 496.415 59.2239C494.258 43.7752 496.677 29.2659 499.215 19.49C499.536 18.2204 500.188 17.0791 501.095 16.2046C502.001 15.3301 503.121 14.7601 504.32 14.5638C505.519 14.3675 506.744 14.5533 507.848 15.0987C508.951 15.6441 509.885 16.5256 510.536 17.6361C515.641 26.1391 521.918 39.221 524.075 54.6635Z" fill="#C86FC9"/>
<path d="M595.615 98.5498C599.427 98.5305 603.225 99.052 606.913 100.101C613.122 101.831 613.219 111.378 607.043 113.257C603.378 114.391 599.591 115.001 595.78 115.074C581.819 115.241 570.42 107.108 570.42 107.108C570.42 107.108 581.654 98.7167 595.615 98.5498Z" fill="#C86FC9"/>
<path d="M556.356 56.6901C543.363 72.1944 540.614 92.4569 540.614 92.4569C540.614 92.4569 558.929 87.5751 571.917 72.0646C577.938 64.8779 581.763 56.6716 584.13 49.936C584.579 48.6609 584.663 47.2688 584.373 45.9409C584.082 44.613 583.43 43.4107 582.502 42.4906C581.573 41.5705 580.411 40.9752 579.167 40.7822C577.923 40.5892 576.653 40.8073 575.525 41.4083C569.538 44.6031 562.378 49.5034 556.356 56.6901Z" fill="#C86FC9"/>
<path d="M572.355 53.7676H302.358C296.134 53.7676 291.089 59.2455 291.089 66.0029V424.022C291.089 430.78 296.134 436.258 302.358 436.258H572.355C578.578 436.258 583.624 430.78 583.624 424.022V66.0029C583.624 59.2455 578.578 53.7676 572.355 53.7676Z" fill="#464353"/>
<path opacity="0.1" d="M558.388 92.3521H316.324V397.673H558.388V92.3521Z" fill="#C86FC9"/>
<path d="M437.356 428.991C443.046 428.991 447.658 423.983 447.658 417.806C447.658 411.629 443.046 406.621 437.356 406.621C431.667 406.621 427.055 411.629 427.055 417.806C427.055 423.983 431.667 428.991 437.356 428.991Z" fill="white"/>
<path d="M437.356 81.4204C436.394 81.4204 435.453 81.1105 434.653 80.53C433.853 79.9494 433.229 79.1243 432.861 78.1588C432.492 77.1934 432.396 76.1311 432.584 75.1062C432.772 74.0813 433.235 73.1399 433.915 72.401C434.596 71.6621 435.463 71.1589 436.407 70.955C437.351 70.7512 438.329 70.8558 439.218 71.2557C440.108 71.6556 440.868 72.3328 441.402 73.2016C441.937 74.0705 442.222 75.092 442.222 76.137C442.219 77.5372 441.706 78.8792 440.794 79.8693C439.882 80.8594 438.646 81.4171 437.356 81.4204Z" fill="white"/>
<path d="M437.356 71.1625C438.262 71.1625 439.148 71.4542 439.902 72.0008C440.655 72.5474 441.242 73.3243 441.589 74.2333C441.936 75.1422 442.027 76.1424 441.85 77.1074C441.673 78.0723 441.237 78.9587 440.596 79.6544C439.955 80.3501 439.139 80.8239 438.25 81.0158C437.361 81.2077 436.44 81.1092 435.603 80.7327C434.766 80.3562 434.05 79.7186 433.547 78.9006C433.044 78.0825 432.775 77.1208 432.775 76.1369C432.776 74.8181 433.26 73.5538 434.118 72.6213C434.977 71.6887 436.142 71.1641 437.356 71.1625ZM437.356 70.5445C436.336 70.5384 435.338 70.8612 434.487 71.4719C433.636 72.0827 432.972 72.954 432.578 73.9753C432.183 74.9966 432.077 76.122 432.273 77.2089C432.468 78.2957 432.957 79.2951 433.676 80.0803C434.395 80.8655 435.313 81.4012 436.313 81.6195C437.312 81.8378 438.35 81.7289 439.292 81.3065C440.235 80.8842 441.041 80.1674 441.608 79.2471C442.176 78.3268 442.479 77.2443 442.479 76.1369C442.482 75.404 442.353 74.6775 442.097 73.9991C441.841 73.3208 441.464 72.7041 440.988 72.1844C440.512 71.6646 439.946 71.2522 439.323 70.9708C438.7 70.6894 438.031 70.5445 437.356 70.5445Z" fill="white"/>
<path d="M375.326 186.935H330.018C328.666 186.935 327.57 188.125 327.57 189.592V258.382C327.57 259.85 328.666 261.039 330.018 261.039H375.326C376.678 261.039 377.774 259.85 377.774 258.382V189.592C377.774 188.125 376.678 186.935 375.326 186.935Z" fill="white" stroke="white" stroke-miterlimit="10"/>
<path opacity="0.5" d="M369.003 205.609H336.341C334.097 205.609 332.277 207.585 332.277 210.022V224.71C332.277 227.147 334.097 229.122 336.341 229.122H369.003C371.248 229.122 373.067 227.147 373.067 224.71V210.022C373.067 207.585 371.248 205.609 369.003 205.609Z" fill="#C86FC9"/>
<path d="M363.591 238.712H341.753C341.222 238.712 340.792 239.18 340.792 239.757V241.32C340.792 241.897 341.222 242.364 341.753 242.364H363.591C364.122 242.364 364.553 241.897 364.553 241.32V239.757C364.553 239.18 364.122 238.712 363.591 238.712Z" fill="#C86FC9"/>
<path d="M460.201 186.935H414.893C413.541 186.935 412.445 188.125 412.445 189.592V258.382C412.445 259.85 413.541 261.039 414.893 261.039H460.201C461.553 261.039 462.649 259.85 462.649 258.382V189.592C462.649 188.125 461.553 186.935 460.201 186.935Z" fill="white" stroke="white" stroke-miterlimit="10"/>
<path opacity="0.5" d="M448.876 198.509H426.48C426.021 198.509 425.649 198.913 425.649 199.411V211.473C425.649 211.972 426.021 212.375 426.48 212.375H448.876C449.335 212.375 449.707 211.972 449.707 211.473V199.411C449.707 198.913 449.335 198.509 448.876 198.509Z" fill="#C86FC9"/>
<path d="M451.881 225.371H423.094C422.563 225.371 422.132 225.839 422.132 226.415V227.979C422.132 228.556 422.563 229.023 423.094 229.023H451.881C452.412 229.023 452.842 228.556 452.842 227.979V226.415C452.842 225.839 452.412 225.371 451.881 225.371Z" fill="#C86FC9"/>
<path d="M451.881 232.181H423.094C422.563 232.181 422.132 232.648 422.132 233.225V234.788C422.132 235.365 422.563 235.833 423.094 235.833H451.881C452.412 235.833 452.842 235.365 452.842 234.788V233.225C452.842 232.648 452.412 232.181 451.881 232.181Z" fill="#C86FC9"/>
<path d="M544.695 134.292H499.386C498.035 134.292 496.939 135.482 496.939 136.949V205.739C496.939 207.206 498.035 208.396 499.386 208.396H544.695C546.047 208.396 547.142 207.206 547.142 205.739V136.949C547.142 135.482 546.047 134.292 544.695 134.292Z" fill="white" stroke="white" stroke-miterlimit="10"/>
<path opacity="0.5" d="M537.552 145.792H506.529C506.07 145.792 505.698 146.196 505.698 146.694V161.451C505.698 161.949 506.07 162.353 506.529 162.353H537.552C538.011 162.353 538.383 161.949 538.383 161.451V146.694C538.383 146.196 538.011 145.792 537.552 145.792Z" fill="#C86FC9"/>
<path opacity="0.5" d="M537.552 169.861H506.529C506.07 169.861 505.698 170.265 505.698 170.763V185.52C505.698 186.018 506.07 186.422 506.529 186.422H537.552C538.011 186.422 538.383 186.018 538.383 185.52V170.763C538.383 170.265 538.011 169.861 537.552 169.861Z" fill="#C86FC9"/>
<path d="M511.628 199.77H505.265C504.062 199.77 503.086 200.829 503.086 202.136V202.513C503.086 203.82 504.062 204.88 505.265 204.88H511.628C512.832 204.88 513.808 203.82 513.808 202.513V202.136C513.808 200.829 512.832 199.77 511.628 199.77Z" fill="#C86FC9"/>
<path d="M525.225 199.77H518.862C517.658 199.77 516.682 200.829 516.682 202.136V202.513C516.682 203.82 517.658 204.88 518.862 204.88H525.225C526.429 204.88 527.405 203.82 527.405 202.513V202.136C527.405 200.829 526.429 199.77 525.225 199.77Z" fill="#C86FC9"/>
<path d="M538.821 199.77H532.459C531.255 199.77 530.279 200.829 530.279 202.136V202.513C530.279 203.82 531.255 204.88 532.459 204.88H538.821C540.025 204.88 541.001 203.82 541.001 202.513V202.136C541.001 200.829 540.025 199.77 538.821 199.77Z" fill="#C86FC9"/>
<path d="M544.575 239.578H499.267C497.915 239.578 496.819 240.767 496.819 242.235V311.025C496.819 312.492 497.915 313.682 499.267 313.682H544.575C545.927 313.682 547.023 312.492 547.023 311.025V242.235C547.023 240.767 545.927 239.578 544.575 239.578Z" fill="white" stroke="white" stroke-miterlimit="10"/>
<path opacity="0.5" d="M514.867 248.241H501.526C501.067 248.241 500.695 248.645 500.695 249.143V263.9C500.695 264.398 501.067 264.802 501.526 264.802H514.867C515.326 264.802 515.698 264.398 515.698 263.9V249.143C515.698 248.645 515.326 248.241 514.867 248.241Z" fill="#C86FC9"/>
<path d="M536.317 274.887H507.531C506.999 274.887 506.569 275.355 506.569 275.932V277.495C506.569 278.072 506.999 278.539 507.531 278.539H536.317C536.849 278.539 537.279 278.072 537.279 277.495V275.932C537.279 275.355 536.849 274.887 536.317 274.887Z" fill="#C86FC9"/>
<path d="M536.317 282.271H507.531C506.999 282.271 506.569 282.739 506.569 283.316V284.879C506.569 285.456 506.999 285.924 507.531 285.924H536.317C536.849 285.924 537.279 285.456 537.279 284.879V283.316C537.279 282.739 536.849 282.271 536.317 282.271Z" fill="#C86FC9"/>
<path d="M536.317 289.656H507.531C506.999 289.656 506.569 290.124 506.569 290.701V292.264C506.569 292.841 506.999 293.308 507.531 293.308H536.317C536.849 293.308 537.279 292.841 537.279 292.264V290.701C537.279 290.124 536.849 289.656 536.317 289.656Z" fill="#C86FC9"/>
<path d="M406.657 222.22L405.889 222.621L399.663 225.872L399.093 226.162C399.056 226.182 399.014 226.192 398.973 226.193C398.931 226.195 398.889 226.187 398.85 226.17C398.811 226.153 398.776 226.128 398.746 226.096C398.717 226.064 398.694 226.025 398.678 225.983C398.672 225.942 398.672 225.9 398.678 225.86V223.938C398.678 223.851 398.646 223.768 398.59 223.706C398.533 223.645 398.456 223.61 398.376 223.61H383.243C383.163 223.61 383.085 223.576 383.028 223.515C382.97 223.453 382.937 223.37 382.936 223.283V220.57C382.937 220.482 382.97 220.399 383.028 220.338C383.085 220.277 383.163 220.242 383.243 220.242H398.393C398.474 220.241 398.551 220.205 398.607 220.142C398.664 220.08 398.695 219.996 398.695 219.909V217.944C398.689 217.903 398.689 217.861 398.695 217.82C398.711 217.778 398.735 217.741 398.765 217.709C398.794 217.678 398.83 217.653 398.869 217.637C398.908 217.621 398.949 217.613 398.991 217.615C399.032 217.617 399.073 217.628 399.111 217.647L399.68 217.937L405.889 221.219L406.657 221.627C406.709 221.653 406.753 221.695 406.784 221.747C406.815 221.8 406.831 221.861 406.831 221.923C406.831 221.985 406.815 222.046 406.784 222.099C406.753 222.151 406.709 222.193 406.657 222.22Z" fill="white" stroke="white" stroke-miterlimit="10"/>
<path d="M490.906 205.554L490.405 206.301L486.33 212.333L485.972 212.87C485.946 212.906 485.914 212.936 485.878 212.958C485.842 212.98 485.802 212.994 485.761 212.999C485.719 213.004 485.677 213.001 485.637 212.988C485.597 212.975 485.56 212.954 485.528 212.926C485.499 212.898 485.476 212.865 485.46 212.827L484.629 211.134C484.59 211.056 484.525 210.998 484.447 210.971C484.37 210.945 484.286 210.952 484.213 210.992L470.838 218.722C470.803 218.743 470.765 218.755 470.725 218.76C470.686 218.764 470.646 218.76 470.608 218.747C470.569 218.734 470.534 218.714 470.503 218.686C470.473 218.658 470.447 218.625 470.429 218.586L469.256 216.182C469.237 216.144 469.226 216.103 469.222 216.06C469.218 216.016 469.222 215.973 469.234 215.932C469.245 215.89 469.264 215.852 469.29 215.819C469.315 215.785 469.346 215.758 469.382 215.738L482.756 208.019C482.791 207.999 482.823 207.972 482.848 207.938C482.873 207.905 482.893 207.867 482.904 207.825C482.916 207.784 482.92 207.74 482.916 207.697C482.912 207.654 482.9 207.613 482.881 207.574L482.033 205.838C482.012 205.803 482 205.763 481.999 205.721C481.994 205.675 481.997 205.629 482.009 205.586C482.021 205.542 482.041 205.502 482.069 205.467C482.096 205.433 482.13 205.405 482.168 205.386C482.206 205.367 482.247 205.356 482.289 205.356H482.898L489.796 205.084L490.65 205.053C490.704 205.053 490.757 205.069 490.803 205.098C490.849 205.128 490.888 205.171 490.914 205.222C490.94 205.273 490.953 205.33 490.952 205.389C490.95 205.447 490.935 205.504 490.906 205.554Z" fill="white" stroke="white" stroke-miterlimit="10"/>
<path d="M490.861 237.229H490.013H483.12H482.511C482.47 237.23 482.429 237.22 482.39 237.202C482.352 237.184 482.318 237.158 482.29 237.125C482.261 237.092 482.24 237.053 482.226 237.01C482.212 236.967 482.207 236.922 482.21 236.877C482.211 236.836 482.221 236.796 482.238 236.76L483.001 235.023C483.018 234.984 483.028 234.942 483.031 234.899C483.033 234.856 483.027 234.813 483.014 234.772C483.001 234.731 482.98 234.693 482.953 234.661C482.927 234.629 482.895 234.603 482.859 234.585L469.199 227.466C469.126 227.427 469.07 227.359 469.044 227.275C469.017 227.192 469.022 227.1 469.057 227.021L470.138 224.58C470.155 224.54 470.179 224.505 470.208 224.475C470.238 224.446 470.272 224.423 470.31 224.409C470.348 224.394 470.388 224.388 470.428 224.391C470.468 224.394 470.507 224.406 470.542 224.426L484.202 231.55C484.275 231.587 484.359 231.592 484.435 231.563C484.512 231.534 484.575 231.474 484.611 231.396L485.397 229.622C485.418 229.572 485.451 229.527 485.492 229.494C485.534 229.461 485.583 229.441 485.634 229.435C485.685 229.428 485.737 229.437 485.784 229.459C485.831 229.481 485.872 229.516 485.903 229.561L486.285 230.074L490.57 235.956L491.1 236.686C491.139 236.734 491.164 236.793 491.172 236.857C491.18 236.921 491.171 236.985 491.146 237.043C491.12 237.101 491.08 237.15 491.029 237.183C490.978 237.216 490.92 237.232 490.861 237.229Z" fill="white" stroke="white" stroke-miterlimit="10"/>
<path d="M241.421 374.877L241.375 376.688L238.473 487.961H233.589L235.986 376.688L236.031 374.599L241.421 374.877Z" fill="#504F60"/>
<path opacity="0.1" d="M241.421 374.877L241.375 376.688L238.473 487.961H233.589L235.986 376.688L236.031 374.599L241.421 374.877Z" fill="black"/>
<path d="M269.678 469.138L266.024 469.126L211.701 469.002L208.809 468.996L210.346 463.836H269.291L269.678 469.138Z" fill="#504F60"/>
<path opacity="0.1" d="M241.421 374.877L241.375 376.688H235.986L236.031 374.599L241.421 374.877Z" fill="black"/>
<path d="M243.481 372.158H234.426V375.853H243.481V372.158Z" fill="#504F60"/>
<path opacity="0.1" d="M212.184 463.836L211.701 469.003L208.809 468.996L210.346 463.836H212.184Z" fill="black"/>
<path d="M219.981 372.09L219.828 373.69L207.779 502.736L202.259 502.458L214.956 373.69L215.098 372.226L219.981 372.09Z" fill="#504F60"/>
<path opacity="0.1" d="M269.678 469.138L266.024 469.126L265.529 463.836H269.291L269.678 469.138Z" fill="black"/>
<path d="M275.461 502.458L269.934 502.736L257.886 373.69L257.738 372.09L262.615 372.226L262.758 373.69L275.461 502.458Z" fill="#504F60"/>
<path d="M298.96 244.849H177.217V371.596H298.96V244.849Z" fill="white"/>
<path d="M323.456 244.849H152.864C151.565 244.849 150.513 245.991 150.513 247.401V369.043C150.513 370.453 151.565 371.596 152.864 371.596H323.456C324.754 371.596 325.806 370.453 325.806 369.043V247.401C325.806 245.991 324.754 244.849 323.456 244.849Z" fill="white"/>
<path d="M240.459 202.464V233.071H235.712V202.464C235.712 201.781 235.962 201.125 236.407 200.642C236.853 200.159 237.456 199.887 238.086 199.887C238.715 199.887 239.319 200.159 239.764 200.642C240.209 201.125 240.459 201.781 240.459 202.464Z" fill="#504F60"/>
<path opacity="0.1" d="M240.465 230.284H235.712V233.071H240.465V230.284Z" fill="black"/>
<path d="M242.326 232.373V242.482H233.851V232.373C233.851 232.045 233.971 231.731 234.185 231.499C234.398 231.267 234.688 231.137 234.99 231.137H241.153C241.306 231.132 241.457 231.16 241.599 231.22C241.741 231.28 241.871 231.37 241.98 231.485C242.09 231.601 242.177 231.739 242.236 231.891C242.295 232.043 242.326 232.207 242.326 232.373Z" fill="#504F60"/>
<path opacity="0.1" d="M238.086 239.485C239.079 239.485 239.884 238.611 239.884 237.532C239.884 236.454 239.079 235.58 238.086 235.58C237.092 235.58 236.287 236.454 236.287 237.532C236.287 238.611 237.092 239.485 238.086 239.485Z" fill="black"/>
<path d="M238.086 239.065C239.079 239.065 239.884 238.19 239.884 237.112C239.884 236.033 239.079 235.159 238.086 235.159C237.092 235.159 236.287 236.033 236.287 237.112C236.287 238.19 237.092 239.065 238.086 239.065Z" fill="#3F3D56"/>
<path opacity="0.1" d="M242.326 241.228H233.851V242.482H242.326V241.228Z" fill="black"/>
<path opacity="0.1" d="M245.792 242.902H230.38V245.689H245.792V242.902Z" fill="black"/>
<path d="M245.792 242.062H230.38V244.849H245.792V242.062Z" fill="#504F60"/>
<path opacity="0.1" d="M207.523 368.296H271.027C271.933 368.296 272.801 368.687 273.442 369.382C274.082 370.077 274.442 371.02 274.442 372.004H204.12C204.12 371.022 204.478 370.081 205.116 369.386C205.754 368.691 206.619 368.299 207.523 368.296Z" fill="black"/>
<path opacity="0.1" d="M215.098 372.226L219.981 372.09L219.828 373.69H214.956L215.098 372.226Z" fill="black"/>
<path opacity="0.1" d="M243.481 372.158H234.426V373.691H243.481V372.158Z" fill="black"/>
<path opacity="0.1" d="M262.758 373.69H257.886L257.738 372.09L262.615 372.226L262.758 373.69Z" fill="black"/>
<path d="M207.523 369.161H271.027C271.933 369.161 272.801 369.552 273.442 370.247C274.082 370.942 274.442 371.885 274.442 372.869H204.12C204.12 371.885 204.48 370.942 205.12 370.247C205.76 369.552 206.629 369.161 207.535 369.161H207.523Z" fill="#504F60"/>
<path d="M294.709 259.735C294.838 259.713 294.969 259.724 295.094 259.767C295.218 259.809 295.332 259.882 295.426 259.98C295.52 260.078 295.593 260.199 295.637 260.332C295.681 260.465 295.697 260.608 295.682 260.749C294.857 269.4 295.386 278.261 296.28 286.894C296.695 290.842 297.258 295.02 298.869 297.949C298.972 298.126 299.017 298.336 298.996 298.545C298.975 298.754 298.89 298.948 298.755 299.098C298.306 299.478 297.741 299.661 297.173 299.611L271.773 299.766C271.644 299.767 271.516 299.736 271.4 299.676C271.284 299.615 271.182 299.527 271.102 299.417C271.022 299.308 270.966 299.18 270.938 299.043C270.91 298.906 270.911 298.765 270.942 298.629C272.985 289.174 272.547 278.854 271.727 269.048C271.323 264.221 271.09 261.632 274.408 261.292C277.823 260.959 281.237 260.804 284.652 260.495C285.472 260.421 292.04 260.211 294.709 259.735Z" fill="white" stroke="#2F3061" stroke-width="3" stroke-miterlimit="10"/>
<path d="M275.273 316.395C275.144 316.373 275.012 316.384 274.888 316.426C274.763 316.469 274.649 316.542 274.555 316.64C274.461 316.738 274.389 316.858 274.345 316.992C274.3 317.125 274.285 317.267 274.3 317.408C275.125 326.059 274.596 334.921 273.696 343.554C273.287 347.502 272.723 351.68 271.112 354.615C271.009 354.791 270.964 355 270.985 355.208C271.006 355.416 271.091 355.61 271.226 355.758C271.676 356.138 272.241 356.321 272.808 356.271L298.209 356.432C298.338 356.43 298.465 356.398 298.58 356.337C298.696 356.275 298.797 356.186 298.877 356.076C298.957 355.967 299.013 355.839 299.041 355.702C299.069 355.566 299.069 355.425 299.04 355.288C296.997 345.834 297.435 335.514 298.254 325.707C298.659 320.881 298.892 318.292 295.574 317.952C292.256 317.612 288.744 317.464 285.329 317.155C284.51 317.081 277.942 316.871 275.273 316.395Z" fill="white" stroke="#2F3061" stroke-width="3" stroke-miterlimit="10"/>
<path d="M282.734 332.313C285.686 332.163 288.643 332.203 291.59 332.43C291.781 332.45 291.96 332.541 292.097 332.687C292.233 332.834 292.32 333.027 292.341 333.234L292.62 335.761C292.634 335.818 292.635 335.877 292.623 335.934C292.611 335.991 292.587 336.044 292.552 336.089C292.489 336.137 292.412 336.159 292.335 336.15C291.095 336.188 289.854 336.033 288.619 336.15C287.851 336.218 287.088 336.379 286.342 336.472C285.082 336.592 283.816 336.617 282.552 336.546C280.772 336.579 278.996 336.342 277.276 335.841C277.276 335.841 277.379 333.747 277.379 333.549C277.379 332.572 277.35 332.486 278.278 332.461L282.734 332.313Z" stroke="#2F3061" stroke-width="2" stroke-miterlimit="10" stroke-linecap="round"/>
<path d="M282.734 343.708C285.686 343.858 288.643 343.817 291.59 343.584C291.781 343.564 291.96 343.473 292.097 343.327C292.234 343.181 292.32 342.988 292.341 342.781L292.62 340.26C292.634 340.202 292.635 340.142 292.623 340.084C292.612 340.026 292.587 339.972 292.552 339.926C292.489 339.877 292.412 339.855 292.335 339.864C291.095 339.827 289.854 339.988 288.619 339.864C287.851 339.802 287.088 339.642 286.342 339.549C285.082 339.425 283.815 339.401 282.552 339.475C280.772 339.442 278.996 339.679 277.276 340.179C277.276 340.179 277.379 342.268 277.379 342.472C277.379 343.448 277.35 343.529 278.278 343.559L282.734 343.708Z" stroke="#2F3061" stroke-width="2" stroke-miterlimit="10" stroke-linecap="round"/>
<path d="M282.734 348.17C285.686 348.019 288.643 348.06 291.59 348.293C291.781 348.313 291.96 348.404 292.097 348.55C292.234 348.696 292.32 348.889 292.341 349.097L292.62 351.618C292.634 351.675 292.635 351.736 292.623 351.794C292.612 351.852 292.587 351.906 292.552 351.952C292.489 352 292.412 352.022 292.335 352.013C291.095 352.05 289.854 351.89 288.619 352.013C287.851 352.075 287.088 352.242 286.342 352.335C285.082 352.453 283.815 352.476 282.552 352.403C280.772 352.438 278.996 352.203 277.276 351.704C277.276 351.704 277.379 349.609 277.379 349.406C277.379 348.429 277.35 348.349 278.278 348.324L282.734 348.17Z" stroke="#2F3061" stroke-width="2" stroke-miterlimit="10" stroke-linecap="round"/>
<path d="M286.473 295.279C286.734 295.959 286.82 296.702 286.724 297.43C286.725 297.488 286.711 297.546 286.684 297.597C286.652 297.63 286.615 297.655 286.574 297.671C286.532 297.687 286.489 297.693 286.445 297.689L281.038 297.918C281.038 297.918 281.34 296.188 281.38 296.064C281.567 295.36 282.04 295.545 282.649 295.508L286.473 295.279Z" fill="white" stroke="#2F3061" stroke-width="2" stroke-miterlimit="10" stroke-linecap="round"/>
<path d="M294.64 295.279C294.899 295.959 294.983 296.702 294.885 297.43C294.888 297.488 294.876 297.545 294.851 297.597C294.819 297.629 294.781 297.654 294.74 297.67C294.699 297.686 294.656 297.692 294.612 297.689L289.199 297.918C289.199 297.918 289.507 296.188 289.547 296.064C289.729 295.36 290.201 295.545 290.816 295.508L294.64 295.279Z" fill="white" stroke="#2F3061" stroke-width="2" stroke-miterlimit="10" stroke-linecap="round"/>
<path d="M291.379 265.778L292.108 272.576C292.132 272.821 292.111 273.07 292.046 273.306C291.98 273.543 291.872 273.763 291.727 273.954C291.583 274.144 291.404 274.301 291.203 274.416C291.001 274.531 290.781 274.601 290.554 274.621C285.935 275.018 281.293 274.985 276.679 274.522C276.268 274.48 275.886 274.277 275.603 273.952C275.319 273.627 275.154 273.202 275.136 272.755C275.05 271.543 274.886 270.34 274.647 269.152C274.459 267.917 274.254 266.724 275.597 266.359C276.94 265.995 278.779 266.254 280.247 266.223C282.008 266.186 283.762 266.133 285.511 266.063C286.001 266.063 291.379 265.748 291.379 265.778Z" stroke="#2F3061" stroke-width="3" stroke-miterlimit="10"/>
<path d="M291.379 290.336L292.096 283.538C292.121 283.293 292.1 283.044 292.034 282.808C291.969 282.571 291.861 282.351 291.716 282.161C291.571 281.97 291.393 281.813 291.191 281.698C290.99 281.583 290.769 281.514 290.543 281.493C285.923 281.097 281.282 281.128 276.667 281.586C276.256 281.629 275.873 281.832 275.59 282.158C275.306 282.484 275.141 282.911 275.125 283.359C275.038 284.571 274.875 285.775 274.635 286.962C274.448 288.198 274.243 289.39 275.586 289.755C276.929 290.119 278.767 289.86 280.236 289.891C281.994 289.928 283.747 289.977 285.5 290.051C286.001 290.07 291.379 290.385 291.379 290.336Z" stroke="#2F3061" stroke-width="3" stroke-miterlimit="10"/>
<path d="M284.066 320.967C283.876 323.229 283.757 325.495 283.707 327.765C281.618 327.746 279.537 327.487 277.498 326.992C277.338 326.984 277.181 326.938 277.038 326.857C276.896 326.775 276.772 326.661 276.675 326.522C276.578 326.383 276.51 326.222 276.476 326.052C276.442 325.881 276.443 325.704 276.479 325.534C276.44 324.125 275.757 320.98 277.584 320.782C278.13 320.72 284.06 321.079 284.066 320.967Z" stroke="#2F3061" stroke-width="2" stroke-miterlimit="10" stroke-linecap="round"/>
<path d="M183.574 290.095C183.842 290.063 184.113 290.097 184.367 290.193C184.621 290.289 184.853 290.446 185.044 290.651C185.236 290.856 185.383 291.105 185.476 291.38C185.568 291.655 185.603 291.948 185.577 292.239C184.923 300.464 185.441 308.887 186.294 317.087C186.676 320.733 187.182 324.57 188.525 327.444C188.642 327.69 188.699 327.965 188.69 328.242C188.681 328.519 188.607 328.789 188.474 329.026C188.342 329.263 188.156 329.459 187.933 329.595C187.711 329.731 187.46 329.803 187.205 329.804L162.004 329.965C161.853 329.966 161.705 329.93 161.569 329.86C161.433 329.79 161.313 329.688 161.218 329.561C161.124 329.434 161.057 329.285 161.022 329.126C160.988 328.967 160.987 328.802 161.019 328.642C163.017 319.237 162.579 308.967 161.765 299.241C161.355 294.414 161.127 291.825 164.44 291.485C167.855 291.158 171.269 291.003 174.656 290.688C175.378 290.626 180.546 290.453 183.574 290.095Z" fill="white" stroke="#2F3061" stroke-width="3" stroke-miterlimit="10" stroke-linecap="round"/>
<path d="M218.633 289.94C218.495 289.917 218.354 289.929 218.221 289.975C218.088 290.021 217.967 290.1 217.866 290.205C217.766 290.31 217.69 290.439 217.643 290.582C217.596 290.725 217.58 290.877 217.597 291.028C218.411 299.636 217.881 308.485 216.988 317.086C216.578 321.035 216.015 325.194 214.41 328.129C214.297 328.337 214.259 328.582 214.303 328.818C214.348 329.055 214.471 329.265 214.649 329.408C215.079 329.704 215.586 329.843 216.094 329.804L241.426 329.964C241.565 329.965 241.703 329.93 241.827 329.864C241.952 329.797 242.062 329.701 242.147 329.581C242.232 329.462 242.291 329.323 242.319 329.175C242.347 329.028 242.343 328.875 242.309 328.729C240.288 319.293 240.721 308.985 241.54 299.222C241.944 294.395 242.178 291.806 238.865 291.466C235.451 291.139 232.036 290.984 228.621 290.669C227.784 290.614 221.353 290.41 218.633 289.94Z" fill="white" stroke="#2F3061" stroke-width="3" stroke-miterlimit="10"/>
<path d="M168.486 295.558L181.371 314.22" stroke="#2F3061" stroke-width="2" stroke-miterlimit="10" stroke-linecap="round"/>
<path d="M181.371 294.161L168.913 315.152" stroke="#2F3061" stroke-width="2" stroke-miterlimit="10" stroke-linecap="round"/>
<path d="M225.986 296.435L233.003 306.6" stroke="#2F3061" stroke-width="2" stroke-miterlimit="10" stroke-linecap="round"/>
<path d="M233.003 295.668L226.219 307.107" stroke="#2F3061" stroke-width="2" stroke-miterlimit="10" stroke-linecap="round"/>
<path d="M172.743 320.183C175.697 320.033 178.656 320.072 181.605 320.3C181.795 320.322 181.973 320.414 182.109 320.559C182.246 320.705 182.333 320.897 182.356 321.103L182.629 323.631C182.643 323.688 182.644 323.748 182.633 323.805C182.623 323.863 182.6 323.917 182.567 323.964C182.501 324.007 182.426 324.028 182.35 324.026C181.11 324.063 179.863 323.903 178.628 324.026C177.86 324.088 177.103 324.249 176.352 324.341C175.091 324.462 173.825 324.487 172.561 324.415C170.783 324.449 169.009 324.212 167.291 323.711C167.257 323.711 167.394 321.622 167.394 321.418C167.394 320.442 167.359 320.362 168.287 320.331L172.743 320.183Z" stroke="#2F3061" stroke-width="2" stroke-miterlimit="10" stroke-linecap="round"/>
<path d="M226.879 310.852C229.833 310.701 232.792 310.743 235.741 310.975C235.932 310.995 236.111 311.086 236.248 311.232C236.384 311.379 236.471 311.571 236.492 311.779L236.765 314.3C236.779 314.357 236.78 314.417 236.769 314.475C236.759 314.532 236.736 314.587 236.703 314.634C236.64 314.682 236.563 314.704 236.486 314.695C235.246 314.732 233.999 314.572 232.764 314.695C231.996 314.757 231.239 314.924 230.488 315.01C229.228 315.134 227.961 315.159 226.697 315.085C224.917 315.118 223.141 314.881 221.421 314.38C221.393 314.38 221.524 312.292 221.524 312.088C221.524 311.111 221.495 311.031 222.423 311L226.879 310.852Z" stroke="#2F3061" stroke-width="2" stroke-miterlimit="10" stroke-linecap="round"/>
<path d="M231.393 317.853C228.441 317.704 225.484 317.743 222.537 317.97C222.346 317.99 222.167 318.081 222.03 318.227C221.893 318.374 221.807 318.567 221.786 318.774L221.524 321.295C221.507 321.352 221.505 321.412 221.516 321.47C221.527 321.529 221.551 321.583 221.586 321.629C221.649 321.677 221.726 321.699 221.803 321.69C223.043 321.727 224.284 321.573 225.525 321.69C226.293 321.752 227.05 321.919 227.801 322.012C229.062 322.129 230.328 322.154 231.592 322.086C233.372 322.12 235.148 321.883 236.868 321.381C236.896 321.381 236.765 319.287 236.765 319.089C236.765 318.106 236.799 318.026 235.872 318.001L231.393 317.853Z" stroke="#2F3061" stroke-width="2" stroke-miterlimit="10" stroke-linecap="round"/>
<path d="M194.564 313.281C194.564 313.281 202.936 312.816 204.438 313.281" stroke="#2F3061" stroke-width="3" stroke-miterlimit="10"/>
<path d="M204.45 308.386C204.45 308.386 208.098 312.347 208.098 313.28C208.098 314.213 203.374 317.476 203.374 317.476" stroke="#2F3061" stroke-width="3" stroke-miterlimit="10"/>
<path d="M249.32 304.827C249.32 304.827 256.907 300.971 258.461 300.785" stroke="#2F3061" stroke-width="3" stroke-miterlimit="10"/>
<path d="M256.765 296.256C256.765 296.256 261.517 298.431 261.841 299.29C262.166 300.149 258.927 305.111 258.927 305.111" stroke="#2F3061" stroke-width="3" stroke-miterlimit="10"/>
<path d="M249.241 314.701C249.241 314.701 256.952 318.254 258.119 319.391" stroke="#2F3061" stroke-width="3" stroke-miterlimit="10"/>
<path d="M260.088 314.986C260.088 314.986 261.796 320.282 261.397 321.122C260.999 321.962 255.461 322.655 255.461 322.655" stroke="#2F3061" stroke-width="3" stroke-miterlimit="10"/>
<path d="M279.171 295.279C279.43 295.959 279.514 296.702 279.416 297.43C279.419 297.488 279.407 297.545 279.382 297.597C279.35 297.629 279.312 297.654 279.271 297.67C279.23 297.686 279.187 297.692 279.143 297.689L273.73 297.918C273.73 297.918 274.038 296.188 274.078 296.064C274.26 295.36 274.738 295.545 275.347 295.508L279.171 295.279Z" fill="white" stroke="#2F3061" stroke-width="2" stroke-miterlimit="10" stroke-linecap="round"/>
<path d="M176.927 348.534L178.839 346.6L177.131 346.525L176.238 348.015L176.927 348.534Z" fill="#2F3061"/>
<path d="M163.171 362.079L165.197 359.255L165.646 358.749L171.85 351.692L173.961 349.294L174.952 349.164L176.374 347.632L177.211 348.429L175.828 350.184L175.851 351.105L173.694 353.644L167.604 360.825L167.211 361.282L164.764 363.742L163.171 362.079Z" fill="#65617D"/>
<path d="M165.646 358.748L171.85 351.691L173.694 353.644L167.604 360.825L165.646 358.748Z" fill="#2F3061"/>
<path d="M175.009 361.468C173.205 359.645 171.637 357.567 170.347 355.288C167.616 350.666 163.051 348.169 159.921 346.927V345.426L160.114 345.383L160.029 343.986H160.114L159.892 340.278V340.247L158.766 321.851C158.766 321.851 154.753 309.585 161.884 298.27C169.016 286.956 162.328 276.105 155.624 271.859C155.624 271.859 152.505 253.939 155.18 249.694C151.551 247.426 147.812 245.373 143.979 243.545C143.917 243.323 143.866 243.1 143.814 242.865C143.74 241.197 143.644 239.528 143.558 237.86C143.647 236.993 143.794 236.134 143.996 235.289C144.082 234.937 144.179 234.585 144.281 234.22C147.468 232.898 150.214 230.562 152.158 227.518C154.103 224.474 155.156 220.863 155.18 217.159C155.181 214.997 154.823 212.854 154.121 210.831C154.481 210.188 154.755 209.493 154.935 208.767C155.362 206.858 154.878 204.818 153.877 202.884C152.09 198.694 147.633 194.771 144.401 193.318C139.768 191.279 132.796 191.761 127.97 192.391C125.261 192.744 122.17 193.726 121.191 196.42C120.833 197.409 120.827 198.503 120.577 199.51C119.564 203.626 115.187 205.541 112.484 208.693C110.093 211.474 109.069 215.237 108.272 218.901C106.053 229.404 105.523 240.244 106.707 250.942C106.98 253.414 107.344 255.854 107.731 258.302C106.104 260.773 104.635 265.142 105.307 272.731L99.9569 300.081L97.7316 316.117C97.7316 316.117 96.3942 322.716 101.716 328.377C105.13 331.985 109.257 338.085 111.801 342.033C110.693 345.529 110.144 349.206 110.179 352.903C110.235 354.584 110.321 356.209 110.429 357.754C110.654 361.036 111.227 364.279 112.136 367.418C112.762 374.006 113.997 382.428 116.416 387.811L117.304 416.576C117.304 416.576 115.967 442.987 113.32 448.172C110.674 453.356 119.108 497.218 119.108 497.218V503.348L117.685 507.884L117.327 507.593C110.645 516.554 117.327 519.853 117.327 519.853C117.327 519.853 119.148 519.946 122.056 520.07C121.81 521.327 121.955 522.637 122.471 523.794C122.986 524.951 123.841 525.889 124.902 526.459C124.902 526.459 162.767 528.344 169.454 526.459C176.141 524.574 174.354 517.969 170.786 518.426C169.425 518.611 167.416 518.222 165.453 517.672C167.53 515.046 165.868 511.493 163.216 511.826C159.653 512.296 151.634 508.872 151.634 508.872L151.594 508.928C151.338 508.822 151.076 508.735 150.809 508.669C147.83 507.941 144.888 507.048 141.993 505.993C140.286 502.019 136.302 491.341 139.147 483.061C140.434 479.316 140.855 474.335 140.855 469.503C140.923 454.925 142.898 440.431 146.723 426.457L152.067 406.683C152.067 406.683 159.642 382.626 160.086 376.026L160.057 366.424C166.318 370.749 171.298 369.451 174.474 367.431C174.937 367.134 175.329 366.723 175.618 366.23C175.907 365.738 176.085 365.178 176.137 364.597C176.189 364.016 176.114 363.429 175.918 362.885C175.722 362.342 175.41 361.856 175.009 361.468ZM115.551 311.414C115.705 310.722 115.83 309.968 115.938 309.171C116.985 309.171 118.038 309.171 119.086 309.134C120.388 312.007 120.936 315.214 120.668 318.403C118.255 317.593 114.646 315.61 115.551 311.445V311.414Z" fill="url(#paint0_linear)"/>
<path d="M119.786 501.056L118.078 506.617L123.65 512.667L142.084 517.32L155.373 515.923L154.514 510.801C154.259 509.701 153.729 508.7 152.985 507.905C152.24 507.111 151.308 506.554 150.291 506.296C144.827 504.899 134.412 501.723 132.221 497.305L119.786 501.056Z" fill="#DB8B8B"/>
<path opacity="0.1" d="M119.786 501.056L118.078 506.617L123.65 512.667L142.084 517.32L155.373 515.923L154.514 510.801C154.259 509.701 153.729 508.7 152.985 507.905C152.24 507.111 151.308 506.554 150.291 506.296C144.827 504.899 134.412 501.723 132.221 497.305L119.786 501.056Z" fill="black"/>
<path d="M151.082 514.526L148.51 510.819L151.082 506.493C151.082 506.493 158.794 509.873 162.226 509.41C165.658 508.946 167.348 515.46 160.94 517.32C154.531 519.18 118.072 517.32 118.072 517.32C118.072 517.32 111.641 514.063 118.072 505.22L123.644 509.873C123.644 509.873 133.075 515.435 137.793 514.526H151.082Z" fill="#2E3037"/>
<path d="M162.653 522.442L149.363 523.839L130.929 519.18L125.34 513.13L125.796 511.653L126.433 509.577L127.059 507.544L139.489 503.836C140.12 504.95 140.984 505.888 142.01 506.573C146.045 509.57 153.302 511.739 157.559 512.821C157.735 512.87 157.917 512.926 158.088 512.994C158.989 513.319 159.8 513.887 160.446 514.643C161.091 515.399 161.551 516.319 161.782 517.32L162.653 522.442Z" fill="#DB8B8B"/>
<path opacity="0.1" d="M162.653 522.443L149.363 523.839L130.929 519.18L125.34 513.13L125.796 511.653L130.918 515.923C130.918 515.923 140.354 521.485 145.066 520.576H158.35L155.778 516.869L158.088 512.994C158.989 513.32 159.8 513.887 160.446 514.643C161.091 515.399 161.551 516.32 161.782 517.32L162.653 522.443Z" fill="black"/>
<path d="M158.35 521.046L155.778 517.338L158.35 513.013C158.35 513.013 166.067 516.393 169.494 515.929C172.92 515.466 174.616 521.979 168.213 523.845C161.81 525.711 125.34 523.845 125.34 523.845C125.34 523.845 118.909 520.583 125.34 511.74L130.912 516.393C130.912 516.393 140.348 521.954 145.061 521.052L158.35 521.046Z" fill="#2E3037"/>
<path d="M147.65 251.084C147.65 251.084 127.076 253.407 130.075 244.101C130.916 241.462 131.133 238.636 130.707 235.882C130.174 232.468 128.933 229.231 127.076 226.416L146.364 229.672C145.208 231.77 144.329 234.033 143.752 236.395C141.452 246.276 147.65 251.084 147.65 251.084Z" fill="#DB8B8B"/>
<path d="M112.501 357.204C112.501 357.204 112.927 377.219 117.213 386.995L118.072 415.383C118.072 415.383 116.786 441.454 114.214 446.571C111.641 451.688 119.786 494.981 119.786 494.981V502.427C119.786 502.427 133.502 507.989 137.36 501.494L133.502 446.107L135.209 369.309L112.501 357.204Z" fill="#35323E"/>
<path opacity="0.1" d="M112.495 357.204C112.495 357.204 112.922 377.219 117.207 386.995L118.067 415.383C118.067 415.383 116.781 441.454 114.208 446.571C111.636 451.688 119.78 494.981 119.78 494.981V502.427C119.78 502.427 133.496 507.989 137.355 501.494L133.496 446.107L135.203 369.309L112.495 357.204Z" fill="black"/>
<path d="M103.924 292.975L101.351 300.421L99.2113 316.246C98.9216 318.451 99.1206 320.699 99.7917 322.803C100.463 324.908 101.587 326.808 103.07 328.346C108.192 333.907 115.073 345.568 115.073 345.568L123.217 319.04C123.217 319.04 115.073 317.643 116.388 311.593C117.703 305.544 117.242 294.371 117.242 294.371L103.924 292.975Z" fill="#C86FC9"/>
<path opacity="0.1" d="M142.027 506.561C136.524 515.96 127.97 510.633 126.45 509.577L127.076 507.544L139.506 503.836C140.139 504.946 141.002 505.879 142.027 506.561Z" fill="black"/>
<path d="M159.227 375.359C158.794 381.872 151.509 405.638 151.509 405.638L146.387 425.172C142.693 438.973 140.781 453.265 140.707 467.637C140.707 472.401 140.303 477.32 139.068 481.015C135.653 491.255 142.483 505.22 142.483 505.22C136.484 516.856 126.194 508.928 126.194 508.928V501.513C126.194 501.513 118.072 461 120.218 453.09C122.364 445.181 123.223 423.763 123.223 423.763V385.135C116.351 377.702 112.175 367.83 111.459 357.327C111.357 355.801 111.271 354.2 111.22 352.538C110.873 342.033 117.481 329.724 120.064 325.348C120.69 324.286 121.077 323.692 121.077 323.692L158.919 339.994L159.005 340.031V341.619V345.141L159.227 375.359Z" fill="#35323E"/>
<path opacity="0.1" d="M146.364 229.672C145.208 231.77 144.329 234.033 143.752 236.395C141.657 237.263 139.422 237.664 137.182 237.576C134.941 237.488 132.739 236.912 130.707 235.882C130.174 232.468 128.933 229.231 127.076 226.416L146.364 229.672Z" fill="black"/>
<path d="M137.793 236.655C147.028 236.655 154.514 228.526 154.514 218.5C154.514 208.473 147.028 200.344 137.793 200.344C128.558 200.344 121.072 208.473 121.072 218.5C121.072 228.526 128.558 236.655 137.793 236.655Z" fill="#DB8B8B"/>
<path opacity="0.1" d="M159.227 345.104L159.039 345.141C141.065 349.152 118.511 328.815 118.511 328.815C119.117 327.708 119.639 326.549 120.07 325.348C120.696 324.286 121.083 323.692 121.083 323.692L158.919 339.994L159.016 341.619L159.227 345.104Z" fill="black"/>
<path d="M154.508 250.62C154.508 250.62 130.502 234.795 122.785 241.308L112.068 256.2C112.068 256.2 105.21 258.53 106.496 273.422L101.374 300.421L116.803 304.61C116.803 304.61 125.807 313.916 118.511 327.419C118.511 327.419 141.23 347.897 159.238 343.708L157.94 321.851C157.94 321.851 154.082 309.745 160.94 298.579C167.798 287.413 161.366 276.704 154.941 272.514C154.935 272.496 151.936 254.804 154.508 250.62Z" fill="#C86FC9"/>
<path d="M155.795 345.568C155.795 345.568 164.798 347.422 169.084 354.88C170.321 357.12 171.832 359.167 173.574 360.967C173.961 361.356 174.26 361.837 174.448 362.372C174.635 362.908 174.705 363.483 174.653 364.053C174.602 364.623 174.429 365.172 174.149 365.657C173.869 366.142 173.489 366.551 173.039 366.85C169.625 369.075 164.093 370.44 157.104 364.187C145.078 353.484 155.795 345.568 155.795 345.568Z" fill="#DB8B8B"/>
<path opacity="0.1" d="M142.505 259.438C142.505 259.438 133.934 258.505 131.789 282.71C129.643 306.915 126.217 312.495 126.217 312.495C126.217 312.495 124.071 325.064 129.216 332.511C134.361 339.957 144.218 355.838 144.218 355.838C144.218 355.838 154.941 359.101 157.081 347.459L143.792 320.467C143.792 320.467 141.652 311.154 146.791 304.641C151.93 298.128 155.795 254.804 142.505 259.438Z" fill="black"/>
<path d="M143.365 258.067C143.365 258.067 134.788 257.134 132.648 281.339C130.508 305.544 127.076 311.124 127.076 311.124C127.076 311.124 124.93 323.705 130.075 331.12C135.22 338.536 145.078 354.392 145.078 354.392C145.078 354.392 155.795 357.655 157.94 346.019L144.651 319.021C144.651 319.021 142.505 309.709 147.65 303.195C152.795 296.682 156.643 253.408 143.365 258.067Z" fill="#C86FC9"/>
<path opacity="0.1" d="M150.439 275.505C150.439 275.505 151.293 289.934 147.434 297.85C143.575 305.766 143.575 315.999 147.434 321.585" fill="black"/>
<path opacity="0.1" d="M152.579 257.832C152.579 257.832 149.164 254.124 139.29 253.642C129.415 253.16 125.147 249.935 125.147 249.935" fill="black"/>
<path opacity="0.1" d="M128.755 195.042C126.148 195.388 123.172 196.358 122.233 199.022C121.886 199.998 121.88 201.073 121.635 202.111C120.662 206.178 116.45 208.068 113.849 211.177C111.573 213.92 110.543 217.634 109.797 221.249C107.657 231.615 107.139 242.298 108.266 252.851C109.103 260.569 110.81 268.164 111.294 275.919C111.778 283.674 110.896 291.831 106.991 298.344C105.284 301.15 103.099 303.609 101.909 306.693C104.368 308.855 107.76 309.164 110.924 309.282C114.612 309.418 118.3 309.418 121.988 309.282C123.923 309.208 125.944 309.072 127.611 308.009C128.846 307.152 129.862 305.97 130.565 304.573C132.671 300.686 133.206 296.015 133.115 291.504C133.024 286.993 132.369 282.512 132.289 278.001C132.25 275.53 132.426 272.934 133.729 270.92C134.668 269.468 136.097 268.491 137.321 267.311C141.913 262.899 143.484 255.817 143.638 249.162C143.792 242.507 142.784 235.839 143.302 229.208C143.501 226.607 144.395 223.492 146.751 222.986C147.491 222.825 148.282 222.986 148.988 222.677C150.877 221.892 150.695 219 151.23 216.887C151.839 214.507 153.706 212.672 154.23 210.275C155.465 204.645 148.863 197.916 144.554 195.963C140.087 193.936 133.376 194.424 128.755 195.042Z" fill="black"/>
<path d="M128.305 194.116C125.699 194.462 122.722 195.432 121.783 198.089C121.541 199.107 121.351 200.138 121.214 201.179C120.241 205.245 116.024 207.136 113.423 210.25C111.146 212.988 110.116 216.701 109.37 220.323C107.24 230.697 106.732 241.386 107.868 251.943C108.704 259.661 110.412 267.262 110.89 275.011C111.368 282.76 110.497 290.923 106.593 297.436C104.886 300.242 102.7 302.701 101.511 305.785C103.969 307.954 107.361 308.256 110.526 308.374C114.214 308.51 117.902 308.51 121.59 308.374C123.525 308.3 125.545 308.17 127.213 307.101C128.449 306.246 129.463 305.064 130.161 303.665C132.272 299.778 132.802 295.106 132.716 290.595C132.631 286.084 131.965 281.604 131.891 277.093C131.851 274.622 132.028 272.026 133.325 270.018C134.27 268.559 135.699 267.583 136.922 266.409C141.509 261.991 143.086 254.909 143.24 248.254C143.393 241.598 142.38 234.931 142.898 228.3C143.103 225.705 143.996 222.584 146.347 222.084C147.093 221.923 147.884 222.084 148.589 221.769C150.479 220.984 150.297 218.098 150.832 215.978C151.435 213.599 153.302 211.77 153.831 209.373C155.066 203.737 148.464 197.014 144.156 195.055C139.654 193.016 132.95 193.491 128.305 194.116Z" fill="#35323E"/>
</g>
<defs>
<linearGradient id="paint0_linear" x1="136.871" y1="527.324" x2="136.871" y2="191.872" gradientUnits="userSpaceOnUse">
<stop stop-color="#808080" stop-opacity="0.25"/>
<stop offset="0.54" stop-color="#808080" stop-opacity="0.12"/>
<stop offset="1" stop-color="#808080" stop-opacity="0.1"/>
</linearGradient>
<clipPath id="clip0">
<rect width="632" height="530" fill="white"/>
</clipPath>
</defs>
</svg>
