<svg width="525" height="393" viewBox="0 0 525 393" fill="none" xmlns="http://www.w3.org/2000/svg">
<g clip-path="url(#clip0)">
<path opacity="0.1" d="M296.956 53.5052C263.304 53.554 230.912 43.2102 199.93 31.7193C168.948 20.2284 138.204 7.36093 105.178 1.90836C83.9383 -1.59651 59.7855 -1.27434 43.1825 11.4516C27.2007 23.6942 22.5727 43.9571 20.3397 62.6774C18.6605 76.7604 17.8862 91.5414 24.1754 104.424C28.5422 113.366 36.0154 120.737 41.2827 129.26C59.6685 158.91 48.6118 196.785 30.7437 227.123C22.3656 241.358 12.5514 255.001 6.21723 270.051C-0.116969 285.1 -2.71457 302.166 3.74568 317.02C10.1474 331.742 24.6076 342.428 40.1257 349.726C71.6391 364.575 108.33 367.758 144.034 368.983C223.07 371.702 302.259 366.157 381.236 360.611C410.462 358.561 439.819 356.496 468.443 350.556C484.334 347.261 500.699 342.369 511.967 331.65C526.27 318.04 529.196 295.82 518.787 279.848C501.334 253.059 455.31 248.006 442.795 219.02C435.894 203.063 441.845 184.762 450.61 169.381C469.41 136.377 501.77 106.815 502.315 69.902C502.689 44.5526 485.86 19.8233 460.726 8.80584C434.381 -2.73389 398.46 0.234029 380.002 21.7417C361.022 43.8985 326.668 53.471 296.956 53.5052Z" fill="#C86FC9"/>
<path d="M446.829 315.029C446.829 315.029 441.296 311.07 435.812 313.886C435.812 313.886 437.501 317.411 444.443 317.079L446.829 315.029Z" fill="#C86FC9"/>
<path d="M447.531 315.239C447.531 315.239 449.215 322.19 444.992 326.92C444.992 326.92 442.453 324.054 444.992 317.035L447.531 315.239Z" fill="#C86FC9"/>
<path d="M454.41 308.566C454.41 308.566 454 302.654 441.688 304.617C441.688 304.617 441.629 308.429 445.951 310.235C450.273 312.041 452.254 310.518 454.41 308.566Z" fill="#C86FC9"/>
<path d="M455.184 308.527C455.184 308.527 460.388 310.338 455.747 322.859C455.747 322.859 452.312 322.029 451.695 317.045C451.079 312.061 452.906 310.343 455.184 308.527Z" fill="#C86FC9"/>
<path d="M462.135 300.14C462.135 300.14 462.842 290.412 450.259 291.407C450.259 291.407 449.359 300.194 459.916 302.479L462.135 300.14Z" fill="#C86FC9"/>
<path d="M470.45 289.157C470.45 289.157 468.726 278.13 456.148 281.415C456.148 281.415 456.103 290.948 468.397 291.783L470.45 289.157Z" fill="#C86FC9"/>
<path d="M476.528 277.803C476.528 277.803 473.638 267.064 461.176 270.276C461.176 270.276 464.143 279.936 475.699 279.785L476.528 277.803Z" fill="#C86FC9"/>
<path d="M482.299 266.712C482.299 266.712 479.477 255.568 467.443 258.902C467.443 258.902 471.459 269.49 481.502 268.596L482.299 266.712Z" fill="#C86FC9"/>
<path d="M486.018 256.178C486.018 256.178 483.848 242.549 472.629 245.566C472.629 245.566 475.889 257.965 485.194 258.165L486.018 256.178Z" fill="#C86FC9"/>
<path d="M489.507 243.452C489.507 243.452 486.9 229.716 475.551 233.689C475.551 233.689 479.999 246.674 488.701 245.331L489.507 243.452Z" fill="#C86FC9"/>
<path d="M491.65 231.61C491.65 231.61 487.513 217.869 478.738 218.24C478.738 218.24 482.966 232.752 490.916 234.348L491.65 231.61Z" fill="#C86FC9"/>
<path d="M493.036 220.051C493.036 220.051 488.534 203.512 481.394 204.786C481.394 204.786 484.51 217.429 492.784 222.628L493.036 220.051Z" fill="#C86FC9"/>
<path d="M493.82 206.26C493.82 206.26 489.597 192.48 482.565 191.928C482.565 191.928 485.437 205.489 493.68 209.843L493.82 206.26Z" fill="#C86FC9"/>
<path d="M494.671 193.393C494.671 193.393 489.408 179.598 484.766 179.286C484.766 179.286 487.053 192.871 494.22 195.658L494.671 193.393Z" fill="#C86FC9"/>
<path d="M495.251 181.424C495.251 181.424 492.014 166.443 487.364 165.198C487.364 165.198 487.999 177.455 494.783 182.546L495.251 181.424Z" fill="#C86FC9"/>
<path d="M497.007 165.744C497.007 165.744 493.604 153.8 489.835 151.979C489.835 151.979 490.578 166.062 496.138 168.664L497.007 165.744Z" fill="#C86FC9"/>
<path d="M498.461 155.493L499.146 134.435C499.146 134.435 492.1 150.309 497.953 159.189L498.461 155.493Z" fill="#C86FC9"/>
<path d="M503.899 134.547C503.899 134.547 508.973 119.171 510.202 118.312C510.202 118.312 500.253 128.289 501.225 141.122L503.899 134.547Z" fill="#C86FC9"/>
<path d="M462.477 300.067C462.477 300.067 471.4 298.803 471.135 312.476C471.135 312.476 463.072 313.901 460.438 302.591L462.477 300.067Z" fill="#C86FC9"/>
<path d="M470.873 288.786C470.873 288.786 481.183 288.752 480.327 302.747C480.327 302.747 471.67 304.426 468.816 291.432L470.873 288.786Z" fill="#C86FC9"/>
<path d="M476.627 278.706C476.627 278.706 485.986 273.946 491.974 286.233C491.974 286.233 483.33 290.197 475.799 280.693L476.627 278.706Z" fill="#C86FC9"/>
<path d="M482.506 266.815C482.506 266.815 492.091 261.753 497.718 273.751C497.718 273.751 487.733 277.481 481.714 268.714L482.506 266.815Z" fill="#C86FC9"/>
<path d="M485.896 256.476C485.896 256.476 495.121 246.923 502.481 256.583C502.481 256.583 493.059 264.447 485.473 258.604L485.896 256.476Z" fill="#C86FC9"/>
<path d="M488.985 243.125C488.985 243.125 498.263 233.362 505.565 243.574C505.565 243.574 495.152 251.594 488.651 245.175L488.985 243.125Z" fill="#C86FC9"/>
<path d="M490.718 231.219C490.718 231.219 497.867 219.016 506.285 221.739C506.285 221.739 498.866 234.661 490.799 234.085L490.718 231.219Z" fill="#C86FC9"/>
<path d="M492.825 219.972C492.825 219.972 500.028 204.606 506.844 207.281C506.844 207.281 501.648 219.094 492.64 222.564L492.825 219.972Z" fill="#C86FC9"/>
<path d="M493.325 205.46C493.325 205.46 500.73 193.364 507.668 194.843C507.668 194.843 501.613 207.11 492.604 208.96L493.325 205.46Z" fill="#C86FC9"/>
<path d="M493.901 193.125C493.901 193.125 499.641 179.549 504.305 179.457C504.305 179.457 501.549 192.934 494.288 195.429L493.901 193.125Z" fill="#C86FC9"/>
<path d="M495.026 181.131C495.026 181.131 501.406 167.385 506.2 167.355C506.2 167.355 502.936 179.11 495.238 182.336L495.026 181.131Z" fill="#C86FC9"/>
<path d="M495.985 166.604C495.985 166.604 500.757 155.23 504.71 153.941C504.71 153.941 502.324 167.804 496.512 169.62L495.985 166.604Z" fill="#C86FC9"/>
<path d="M499.028 155.079L509.693 137.461C509.693 137.461 506.961 154.839 497.471 158.452L499.028 155.079Z" fill="#C86FC9"/>
<path d="M506.348 135.968C506.348 135.968 518.742 126.693 519.192 125.194C519.192 125.194 512.89 138.184 501.185 140.478L506.348 135.968Z" fill="#C86FC9"/>
<path d="M507.091 131.794C507.091 131.794 521.322 116.959 524.955 116.974C524.955 116.974 513.219 117.555 506.749 131.003L507.091 131.794Z" fill="#C86FC9"/>
<path d="M496.125 168.805L496.642 168.878C499.317 146.185 503.215 132.756 507.618 131.111L507.447 130.574C502.779 132.331 498.853 145.555 496.125 168.805Z" fill="#444053"/>
<path d="M492.19 223.077L492.973 223.145C493.14 221.027 493.266 218.859 493.351 216.697C494.099 197.913 495.256 180.662 496.777 167.731L496.327 167.121C494.801 180.081 493.315 197.85 492.568 216.663C492.483 218.811 492.357 220.968 492.19 223.077Z" fill="#444053"/>
<path d="M432.224 325.856C432.36 325.792 446.149 319.114 460.46 303.191C468.845 293.865 475.812 283.155 481.102 271.462C487.72 256.852 491.753 238.898 493.104 221.456L492.289 221.871C489.25 261.02 472.814 287.771 459.745 302.342C445.573 318.123 431.936 324.733 431.801 324.796L432.224 325.856Z" fill="#444053"/>
<path d="M467.929 41.6045H35.349C34.327 41.6045 33.3468 42.0447 32.6241 42.8283C31.9014 43.612 31.4954 44.6748 31.4954 45.783V57.9573H471.783V45.783C471.783 44.6748 471.377 43.612 470.654 42.8283C469.931 42.0447 468.951 41.6045 467.929 41.6045V41.6045Z" fill="#3F3D56"/>
<path d="M31.4954 57.9573V331.923C31.4954 334.158 32.314 336.301 33.7712 337.881C35.2284 339.461 37.2049 340.349 39.2657 340.349H464.012C466.073 340.349 468.05 339.461 469.507 337.881C470.964 336.301 471.783 334.158 471.783 331.923V57.9573H31.4954Z" fill="white"/>
<path opacity="0.8" d="M38.4689 51.6115C39.4634 51.6115 40.2696 50.7373 40.2696 49.6589C40.2696 48.5805 39.4634 47.7063 38.4689 47.7063C37.4743 47.7063 36.6681 48.5805 36.6681 49.6589C36.6681 50.7373 37.4743 51.6115 38.4689 51.6115Z" fill="#FA5959"/>
<path opacity="0.8" d="M43.4209 51.6115C44.4154 51.6115 45.2217 50.7373 45.2217 49.6589C45.2217 48.5805 44.4154 47.7063 43.4209 47.7063C42.4263 47.7063 41.6201 48.5805 41.6201 49.6589C41.6201 50.7373 42.4263 51.6115 43.4209 51.6115Z" fill="#FED253"/>
<path opacity="0.8" d="M48.373 51.6115C49.3676 51.6115 50.1738 50.7373 50.1738 49.6589C50.1738 48.5805 49.3676 47.7063 48.373 47.7063C47.3785 47.7063 46.5723 48.5805 46.5723 49.6589C46.5723 50.7373 47.3785 51.6115 48.373 51.6115Z" fill="#8CCF4D"/>
<path opacity="0.05" d="M426.273 103.638H72.4224V272.35H426.273V103.638Z" fill="black"/>
<path d="M423.572 104.917H75.1235V269.909H423.572V104.917Z" fill="#3F3D56"/>
<path d="M170.114 147.38C163.258 147.38 156.556 149.585 150.855 153.715C145.155 157.845 140.712 163.715 138.088 170.584C135.464 177.452 134.778 185.009 136.115 192.3C137.453 199.592 140.754 206.289 145.602 211.546C150.45 216.802 156.627 220.382 163.351 221.832C170.076 223.283 177.045 222.538 183.38 219.693C189.714 216.849 195.128 212.031 198.937 205.85C202.746 199.669 204.779 192.401 204.779 184.967C204.779 180.031 203.882 175.144 202.14 170.584C200.398 166.023 197.845 161.88 194.626 158.389C191.407 154.899 187.585 152.13 183.38 150.242C179.174 148.353 174.666 147.38 170.114 147.38V147.38ZM176.331 185.871V203.668H164.077V185.871C162.381 184.479 161.131 182.544 160.504 180.341C159.877 178.137 159.903 175.776 160.58 173.59C161.257 171.404 162.551 169.503 164.277 168.157C166.004 166.81 168.077 166.086 170.204 166.086C172.331 166.086 174.404 166.81 176.131 168.157C177.858 169.503 179.151 171.404 179.828 173.59C180.505 175.776 180.531 178.137 179.904 180.341C179.277 182.544 178.027 184.479 176.331 185.871V185.871Z" fill="#C86FC9"/>
<path opacity="0.05" d="M170.114 147.38C163.258 147.38 156.556 149.585 150.855 153.715C145.155 157.845 140.712 163.715 138.088 170.584C135.464 177.452 134.778 185.009 136.115 192.3C137.453 199.592 140.754 206.289 145.602 211.546C150.45 216.802 156.627 220.382 163.351 221.832C170.076 223.283 177.045 222.538 183.38 219.693C189.714 216.849 195.128 212.031 198.937 205.85C202.746 199.669 204.779 192.401 204.779 184.967C204.779 180.031 203.882 175.144 202.14 170.584C200.398 166.023 197.845 161.88 194.626 158.389C191.407 154.899 187.585 152.13 183.38 150.242C179.174 148.353 174.666 147.38 170.114 147.38V147.38ZM176.331 185.871V203.668H164.077V185.871C162.381 184.479 161.131 182.544 160.504 180.341C159.877 178.137 159.903 175.776 160.58 173.59C161.257 171.404 162.551 169.503 164.277 168.157C166.004 166.81 168.077 166.086 170.204 166.086C172.331 166.086 174.404 166.81 176.131 168.157C177.858 169.503 179.151 171.404 179.828 173.59C180.505 175.776 180.531 178.137 179.904 180.341C179.277 182.544 178.027 184.479 176.331 185.871V185.871Z" fill="black"/>
<path d="M170.114 136.641C161.299 136.641 152.682 139.476 145.353 144.786C138.023 150.096 132.311 157.643 128.938 166.474C125.564 175.304 124.682 185.021 126.401 194.396C128.121 203.77 132.366 212.381 138.599 219.139C144.832 225.898 152.773 230.501 161.419 232.365C170.064 234.23 179.026 233.273 187.17 229.615C195.314 225.958 202.274 219.763 207.172 211.816C212.069 203.869 214.683 194.526 214.683 184.968C214.683 172.151 209.987 159.859 201.629 150.796C193.271 141.733 181.934 136.641 170.114 136.641V136.641ZM178.105 186.129V209.009H162.348V186.129C160.167 184.34 158.559 181.852 157.752 179.018C156.945 176.185 156.979 173.147 157.85 170.336C158.72 167.524 160.383 165.08 162.604 163.348C164.825 161.617 167.491 160.685 170.226 160.685C172.962 160.685 175.628 161.617 177.849 163.348C180.069 165.08 181.733 167.524 182.603 170.336C183.474 173.147 183.508 176.185 182.701 179.018C181.894 181.852 180.286 184.34 178.105 186.129V186.129Z" fill="#C86FC9"/>
<path d="M377.202 178.626H233.141V195.223H377.202V178.626Z" fill="white"/>
<path d="M377.202 208.892H346.139V225.488H377.202V208.892Z" fill="#C86FC9"/>
<path d="M247.322 186.676H244.715L247.034 184.167C247.075 184.121 247.098 184.058 247.098 183.994C247.098 183.929 247.075 183.867 247.034 183.82C247.013 183.798 246.988 183.779 246.96 183.767C246.933 183.755 246.904 183.748 246.874 183.748C246.844 183.748 246.815 183.755 246.787 183.767C246.76 183.779 246.735 183.798 246.714 183.82L244.395 186.334V183.503C244.395 183.438 244.372 183.376 244.33 183.331C244.287 183.285 244.23 183.259 244.17 183.259C244.111 183.26 244.054 183.286 244.012 183.332C243.971 183.377 243.946 183.439 243.945 183.503V186.334L241.631 183.806C241.61 183.783 241.585 183.765 241.558 183.752C241.531 183.74 241.501 183.734 241.471 183.734C241.442 183.734 241.412 183.74 241.385 183.752C241.357 183.765 241.333 183.783 241.312 183.806C241.27 183.852 241.247 183.914 241.247 183.979C241.247 184.044 241.27 184.106 241.312 184.152L243.63 186.661H241.019C240.96 186.663 240.903 186.689 240.861 186.734C240.819 186.78 240.795 186.841 240.794 186.905C240.794 186.97 240.818 187.032 240.86 187.078C240.902 187.124 240.959 187.15 241.019 187.15H243.63L241.312 189.663C241.27 189.71 241.247 189.772 241.247 189.837C241.247 189.901 241.27 189.964 241.312 190.01C241.355 190.054 241.412 190.078 241.471 190.078C241.531 190.078 241.588 190.054 241.631 190.01L243.945 187.496V190.322C243.945 190.387 243.969 190.449 244.011 190.495C244.053 190.541 244.111 190.567 244.17 190.567C244.23 190.567 244.287 190.541 244.33 190.495C244.372 190.449 244.395 190.387 244.395 190.322V187.496L246.714 190.01C246.757 190.054 246.814 190.078 246.874 190.078C246.933 190.078 246.99 190.054 247.034 190.01C247.075 189.964 247.098 189.901 247.098 189.837C247.098 189.772 247.075 189.71 247.034 189.663L244.715 187.15H247.322C247.381 187.15 247.439 187.124 247.481 187.078C247.523 187.032 247.547 186.97 247.547 186.905C247.543 186.843 247.518 186.785 247.476 186.742C247.434 186.7 247.379 186.676 247.322 186.676Z" fill="#C86FC9"/>
<path d="M256.776 186.676H254.169L256.488 184.167C256.529 184.121 256.552 184.058 256.552 183.994C256.552 183.929 256.529 183.867 256.488 183.82C256.467 183.798 256.442 183.779 256.414 183.767C256.387 183.755 256.358 183.748 256.328 183.748C256.298 183.748 256.269 183.755 256.241 183.767C256.214 183.779 256.189 183.798 256.168 183.82L253.85 186.334V183.503C253.85 183.438 253.826 183.376 253.784 183.331C253.741 183.285 253.684 183.259 253.624 183.259C253.565 183.26 253.509 183.286 253.467 183.332C253.425 183.377 253.401 183.439 253.399 183.503V186.334L251.085 183.806C251.064 183.783 251.04 183.765 251.012 183.752C250.985 183.74 250.955 183.734 250.926 183.734C250.896 183.734 250.866 183.74 250.839 183.752C250.812 183.765 250.787 183.783 250.766 183.806C250.724 183.852 250.701 183.914 250.701 183.979C250.701 184.044 250.724 184.106 250.766 184.152L253.084 186.661H250.473C250.414 186.663 250.357 186.689 250.315 186.734C250.273 186.78 250.249 186.841 250.248 186.905C250.248 186.97 250.272 187.032 250.314 187.078C250.356 187.124 250.413 187.15 250.473 187.15H253.084L250.766 189.663C250.724 189.71 250.701 189.772 250.701 189.837C250.701 189.901 250.724 189.964 250.766 190.01C250.809 190.054 250.866 190.078 250.926 190.078C250.985 190.078 251.042 190.054 251.085 190.01L253.399 187.496V190.322C253.399 190.387 253.423 190.449 253.465 190.495C253.508 190.541 253.565 190.567 253.624 190.567C253.684 190.567 253.741 190.541 253.784 190.495C253.826 190.449 253.85 190.387 253.85 190.322V187.496L256.168 190.01C256.211 190.054 256.269 190.078 256.328 190.078C256.387 190.078 256.444 190.054 256.488 190.01C256.529 189.964 256.552 189.901 256.552 189.837C256.552 189.772 256.529 189.71 256.488 189.663L254.169 187.15H256.776C256.836 187.15 256.893 187.124 256.935 187.078C256.977 187.032 257.001 186.97 257.001 186.905C256.998 186.843 256.972 186.785 256.93 186.742C256.889 186.7 256.833 186.676 256.776 186.676Z" fill="#C86FC9"/>
<path d="M266.23 186.676H263.623L265.942 184.167C265.983 184.121 266.007 184.058 266.007 183.994C266.007 183.929 265.983 183.867 265.942 183.82C265.921 183.798 265.896 183.779 265.869 183.767C265.841 183.755 265.812 183.748 265.782 183.748C265.752 183.748 265.723 183.755 265.695 183.767C265.668 183.779 265.643 183.798 265.622 183.82L263.304 186.334V183.503C263.304 183.438 263.28 183.376 263.238 183.331C263.196 183.285 263.138 183.259 263.079 183.259C263.019 183.26 262.963 183.286 262.921 183.332C262.879 183.377 262.855 183.439 262.854 183.503V186.334L260.54 183.806C260.519 183.783 260.494 183.765 260.466 183.752C260.439 183.74 260.409 183.734 260.38 183.734C260.35 183.734 260.321 183.74 260.293 183.752C260.266 183.765 260.241 183.783 260.22 183.806C260.178 183.852 260.155 183.914 260.155 183.979C260.155 184.044 260.178 184.106 260.22 184.152L262.538 186.661H259.927C259.868 186.663 259.811 186.689 259.769 186.734C259.727 186.78 259.703 186.841 259.702 186.905C259.702 186.97 259.726 187.032 259.768 187.078C259.81 187.124 259.868 187.15 259.927 187.15H262.538L260.22 189.663C260.178 189.71 260.155 189.772 260.155 189.837C260.155 189.901 260.178 189.964 260.22 190.01C260.263 190.054 260.32 190.078 260.38 190.078C260.439 190.078 260.496 190.054 260.54 190.01L262.854 187.496V190.322C262.854 190.387 262.877 190.449 262.919 190.495C262.962 190.541 263.019 190.567 263.079 190.567C263.138 190.567 263.196 190.541 263.238 190.495C263.28 190.449 263.304 190.387 263.304 190.322V187.496L265.622 190.01C265.666 190.054 265.723 190.078 265.782 190.078C265.841 190.078 265.898 190.054 265.942 190.01C265.983 189.964 266.007 189.901 266.007 189.837C266.007 189.772 265.983 189.71 265.942 189.663L263.623 187.15H266.23C266.29 187.15 266.347 187.124 266.389 187.078C266.431 187.032 266.455 186.97 266.455 186.905C266.452 186.843 266.426 186.785 266.385 186.742C266.343 186.7 266.287 186.676 266.23 186.676Z" fill="#C86FC9"/>
<path d="M275.684 186.676H273.077L275.396 184.167C275.437 184.121 275.46 184.058 275.46 183.994C275.46 183.929 275.437 183.867 275.396 183.82C275.375 183.798 275.35 183.779 275.322 183.767C275.295 183.755 275.266 183.748 275.236 183.748C275.206 183.748 275.177 183.755 275.149 183.767C275.122 183.779 275.097 183.798 275.076 183.82L272.758 186.334V183.503C272.758 183.438 272.734 183.376 272.692 183.331C272.649 183.285 272.592 183.259 272.532 183.259C272.473 183.26 272.417 183.286 272.375 183.332C272.333 183.377 272.309 183.439 272.307 183.503V186.334L269.993 183.806C269.972 183.783 269.948 183.765 269.92 183.752C269.893 183.74 269.863 183.734 269.834 183.734C269.804 183.734 269.774 183.74 269.747 183.752C269.72 183.765 269.695 183.783 269.674 183.806C269.632 183.852 269.609 183.914 269.609 183.979C269.609 184.044 269.632 184.106 269.674 184.152L271.992 186.661H269.381C269.322 186.663 269.265 186.689 269.223 186.734C269.181 186.78 269.157 186.841 269.156 186.905C269.156 186.97 269.18 187.032 269.222 187.078C269.264 187.124 269.321 187.15 269.381 187.15H271.992L269.674 189.663C269.632 189.71 269.609 189.772 269.609 189.837C269.609 189.901 269.632 189.964 269.674 190.01C269.717 190.054 269.774 190.078 269.834 190.078C269.893 190.078 269.95 190.054 269.993 190.01L272.307 187.496V190.322C272.307 190.387 272.331 190.449 272.373 190.495C272.415 190.541 272.473 190.567 272.532 190.567C272.592 190.567 272.649 190.541 272.692 190.495C272.734 190.449 272.758 190.387 272.758 190.322V187.496L275.076 190.01C275.119 190.054 275.177 190.078 275.236 190.078C275.295 190.078 275.352 190.054 275.396 190.01C275.437 189.964 275.46 189.901 275.46 189.837C275.46 189.772 275.437 189.71 275.396 189.663L273.077 187.15H275.684C275.744 187.15 275.801 187.124 275.843 187.078C275.885 187.032 275.909 186.97 275.909 186.905C275.905 186.843 275.88 186.785 275.838 186.742C275.797 186.7 275.741 186.676 275.684 186.676Z" fill="#C86FC9"/>
<path d="M285.138 186.676H282.531L284.85 184.167C284.891 184.121 284.914 184.058 284.914 183.994C284.914 183.929 284.891 183.867 284.85 183.82C284.829 183.798 284.804 183.779 284.776 183.767C284.749 183.755 284.72 183.748 284.69 183.748C284.66 183.748 284.631 183.755 284.603 183.767C284.576 183.779 284.551 183.798 284.53 183.82L282.212 186.334V183.503C282.212 183.438 282.188 183.376 282.146 183.331C282.103 183.285 282.046 183.259 281.987 183.259C281.927 183.26 281.871 183.286 281.829 183.332C281.787 183.377 281.763 183.439 281.761 183.503V186.334L279.447 183.806C279.427 183.783 279.402 183.765 279.374 183.752C279.347 183.74 279.317 183.734 279.288 183.734C279.258 183.734 279.228 183.74 279.201 183.752C279.174 183.765 279.149 183.783 279.128 183.806C279.086 183.852 279.063 183.914 279.063 183.979C279.063 184.044 279.086 184.106 279.128 184.152L281.446 186.661H278.835C278.776 186.663 278.719 186.689 278.677 186.734C278.635 186.78 278.611 186.841 278.61 186.905C278.61 186.97 278.634 187.032 278.676 187.078C278.718 187.124 278.776 187.15 278.835 187.15H281.446L279.128 189.663C279.086 189.71 279.063 189.772 279.063 189.837C279.063 189.901 279.086 189.964 279.128 190.01C279.171 190.054 279.228 190.078 279.288 190.078C279.347 190.078 279.404 190.054 279.447 190.01L281.761 187.496V190.322C281.761 190.387 281.785 190.449 281.827 190.495C281.87 190.541 281.927 190.567 281.987 190.567C282.046 190.567 282.103 190.541 282.146 190.495C282.188 190.449 282.212 190.387 282.212 190.322V187.496L284.53 190.01C284.573 190.054 284.631 190.078 284.69 190.078C284.749 190.078 284.806 190.054 284.85 190.01C284.891 189.964 284.914 189.901 284.914 189.837C284.914 189.772 284.891 189.71 284.85 189.663L282.531 187.15H285.138C285.198 187.15 285.255 187.124 285.297 187.078C285.339 187.032 285.363 186.97 285.363 186.905C285.36 186.843 285.334 186.785 285.292 186.742C285.251 186.7 285.195 186.676 285.138 186.676Z" fill="#C86FC9"/>
<path d="M294.592 186.676H291.985L294.304 184.167C294.345 184.121 294.369 184.058 294.369 183.994C294.369 183.929 294.345 183.867 294.304 183.82C294.283 183.798 294.258 183.779 294.231 183.767C294.203 183.755 294.174 183.748 294.144 183.748C294.114 183.748 294.085 183.755 294.057 183.767C294.03 183.779 294.005 183.798 293.984 183.82L291.666 186.334V183.503C291.666 183.438 291.642 183.376 291.6 183.331C291.558 183.285 291.5 183.259 291.441 183.259C291.381 183.26 291.325 183.286 291.283 183.332C291.241 183.377 291.217 183.439 291.216 183.503V186.334L288.902 183.806C288.881 183.783 288.856 183.765 288.828 183.752C288.801 183.74 288.771 183.734 288.742 183.734C288.712 183.734 288.683 183.74 288.655 183.752C288.628 183.765 288.603 183.783 288.582 183.806C288.54 183.852 288.517 183.914 288.517 183.979C288.517 184.044 288.54 184.106 288.582 184.152L290.9 186.661H288.289C288.23 186.663 288.173 186.689 288.131 186.734C288.089 186.78 288.065 186.841 288.064 186.905C288.064 186.97 288.088 187.032 288.13 187.078C288.172 187.124 288.23 187.15 288.289 187.15H290.9L288.582 189.663C288.54 189.71 288.517 189.772 288.517 189.837C288.517 189.901 288.54 189.964 288.582 190.01C288.625 190.054 288.682 190.078 288.742 190.078C288.801 190.078 288.858 190.054 288.902 190.01L291.216 187.496V190.322C291.216 190.387 291.239 190.449 291.281 190.495C291.324 190.541 291.381 190.567 291.441 190.567C291.5 190.567 291.558 190.541 291.6 190.495C291.642 190.449 291.666 190.387 291.666 190.322V187.496L293.984 190.01C294.028 190.054 294.085 190.078 294.144 190.078C294.203 190.078 294.26 190.054 294.304 190.01C294.345 189.964 294.369 189.901 294.369 189.837C294.369 189.772 294.345 189.71 294.304 189.663L291.985 187.15H294.592C294.652 187.15 294.709 187.124 294.751 187.078C294.793 187.032 294.817 186.97 294.817 186.905C294.814 186.843 294.788 186.785 294.747 186.742C294.705 186.7 294.649 186.676 294.592 186.676Z" fill="#C86FC9"/>
<path d="M304.046 186.676H301.439L303.758 184.167C303.799 184.121 303.822 184.058 303.822 183.994C303.822 183.929 303.799 183.867 303.758 183.82C303.737 183.798 303.712 183.779 303.684 183.767C303.657 183.755 303.628 183.748 303.598 183.748C303.568 183.748 303.539 183.755 303.511 183.767C303.484 183.779 303.459 183.798 303.438 183.82L301.12 186.334V183.503C301.12 183.438 301.096 183.376 301.054 183.331C301.011 183.285 300.954 183.259 300.895 183.259C300.835 183.26 300.779 183.286 300.737 183.332C300.695 183.377 300.671 183.439 300.669 183.503V186.334L298.355 183.806C298.334 183.783 298.31 183.765 298.282 183.752C298.255 183.74 298.225 183.734 298.196 183.734C298.166 183.734 298.136 183.74 298.109 183.752C298.082 183.765 298.057 183.783 298.036 183.806C297.994 183.852 297.971 183.914 297.971 183.979C297.971 184.044 297.994 184.106 298.036 184.152L300.354 186.661H297.743C297.684 186.663 297.627 186.689 297.585 186.734C297.543 186.78 297.519 186.841 297.518 186.905C297.518 186.97 297.542 187.032 297.584 187.078C297.626 187.124 297.683 187.15 297.743 187.15H300.354L298.036 189.663C297.994 189.71 297.971 189.772 297.971 189.837C297.971 189.901 297.994 189.964 298.036 190.01C298.079 190.054 298.136 190.078 298.196 190.078C298.255 190.078 298.312 190.054 298.355 190.01L300.669 187.496V190.322C300.669 190.387 300.693 190.449 300.735 190.495C300.778 190.541 300.835 190.567 300.895 190.567C300.954 190.567 301.011 190.541 301.054 190.495C301.096 190.449 301.12 190.387 301.12 190.322V187.496L303.438 190.01C303.481 190.054 303.539 190.078 303.598 190.078C303.657 190.078 303.714 190.054 303.758 190.01C303.799 189.964 303.822 189.901 303.822 189.837C303.822 189.772 303.799 189.71 303.758 189.663L301.439 187.15H304.046C304.106 187.15 304.163 187.124 304.205 187.078C304.247 187.032 304.271 186.97 304.271 186.905C304.267 186.843 304.242 186.785 304.2 186.742C304.159 186.7 304.103 186.676 304.046 186.676Z" fill="#C86FC9"/>
<path d="M313.5 186.676H310.893L313.212 184.167C313.253 184.121 313.277 184.058 313.277 183.994C313.277 183.929 313.253 183.867 313.212 183.82C313.191 183.798 313.166 183.779 313.139 183.767C313.111 183.755 313.082 183.748 313.052 183.748C313.022 183.748 312.993 183.755 312.965 183.767C312.938 183.779 312.913 183.798 312.892 183.82L310.574 186.334V183.503C310.574 183.438 310.55 183.376 310.508 183.331C310.466 183.285 310.408 183.259 310.349 183.259C310.289 183.26 310.233 183.286 310.191 183.332C310.149 183.377 310.125 183.439 310.124 183.503V186.334L307.81 183.806C307.789 183.783 307.764 183.765 307.736 183.752C307.709 183.74 307.679 183.734 307.65 183.734C307.62 183.734 307.591 183.74 307.563 183.752C307.536 183.765 307.511 183.783 307.49 183.806C307.448 183.852 307.425 183.914 307.425 183.979C307.425 184.044 307.448 184.106 307.49 184.152L309.808 186.661H307.197C307.138 186.663 307.081 186.689 307.039 186.734C306.997 186.78 306.973 186.841 306.972 186.905C306.972 186.97 306.996 187.032 307.038 187.078C307.08 187.124 307.138 187.15 307.197 187.15H309.808L307.49 189.663C307.448 189.71 307.425 189.772 307.425 189.837C307.425 189.901 307.448 189.964 307.49 190.01C307.533 190.054 307.59 190.078 307.65 190.078C307.709 190.078 307.766 190.054 307.81 190.01L310.124 187.496V190.322C310.124 190.387 310.147 190.449 310.189 190.495C310.232 190.541 310.289 190.567 310.349 190.567C310.408 190.567 310.466 190.541 310.508 190.495C310.55 190.449 310.574 190.387 310.574 190.322V187.496L312.892 190.01C312.936 190.054 312.993 190.078 313.052 190.078C313.111 190.078 313.168 190.054 313.212 190.01C313.253 189.964 313.277 189.901 313.277 189.837C313.277 189.772 313.253 189.71 313.212 189.663L310.893 187.15H313.5C313.56 187.15 313.617 187.124 313.659 187.078C313.701 187.032 313.725 186.97 313.725 186.905C313.722 186.843 313.696 186.785 313.655 186.742C313.613 186.7 313.557 186.676 313.5 186.676Z" fill="#C86FC9"/>
<path d="M322.954 186.676H320.347L322.666 184.167C322.707 184.121 322.731 184.058 322.731 183.994C322.731 183.929 322.707 183.867 322.666 183.82C322.645 183.798 322.62 183.779 322.593 183.767C322.565 183.755 322.536 183.748 322.506 183.748C322.476 183.748 322.447 183.755 322.419 183.767C322.392 183.779 322.367 183.798 322.346 183.82L320.028 186.334V183.503C320.028 183.438 320.004 183.376 319.962 183.331C319.92 183.285 319.862 183.259 319.803 183.259C319.743 183.26 319.687 183.286 319.645 183.332C319.603 183.377 319.579 183.439 319.578 183.503V186.334L317.264 183.806C317.243 183.783 317.218 183.765 317.19 183.752C317.163 183.74 317.133 183.734 317.104 183.734C317.074 183.734 317.045 183.74 317.017 183.752C316.99 183.765 316.965 183.783 316.944 183.806C316.902 183.852 316.879 183.914 316.879 183.979C316.879 184.044 316.902 184.106 316.944 184.152L319.262 186.661H316.651C316.592 186.663 316.535 186.689 316.493 186.734C316.451 186.78 316.427 186.841 316.426 186.905C316.426 186.97 316.45 187.032 316.492 187.078C316.534 187.124 316.592 187.15 316.651 187.15H319.262L316.944 189.663C316.902 189.71 316.879 189.772 316.879 189.837C316.879 189.901 316.902 189.964 316.944 190.01C316.987 190.054 317.044 190.078 317.104 190.078C317.163 190.078 317.22 190.054 317.264 190.01L319.578 187.496V190.322C319.578 190.387 319.601 190.449 319.644 190.495C319.686 190.541 319.743 190.567 319.803 190.567C319.862 190.567 319.92 190.541 319.962 190.495C320.004 190.449 320.028 190.387 320.028 190.322V187.496L322.346 190.01C322.39 190.054 322.447 190.078 322.506 190.078C322.565 190.078 322.623 190.054 322.666 190.01C322.707 189.964 322.731 189.901 322.731 189.837C322.731 189.772 322.707 189.71 322.666 189.663L320.347 187.15H322.954C323.014 187.15 323.071 187.124 323.113 187.078C323.155 187.032 323.179 186.97 323.179 186.905C323.176 186.843 323.15 186.785 323.109 186.742C323.067 186.7 323.011 186.676 322.954 186.676Z" fill="#C86FC9"/>
<path d="M332.408 186.676H329.801L332.12 184.167C332.161 184.121 332.185 184.058 332.185 183.994C332.185 183.929 332.161 183.867 332.12 183.82C332.099 183.798 332.074 183.779 332.047 183.767C332.019 183.755 331.99 183.748 331.96 183.748C331.93 183.748 331.901 183.755 331.873 183.767C331.846 183.779 331.821 183.798 331.8 183.82L329.482 186.334V183.503C329.482 183.438 329.458 183.376 329.416 183.331C329.374 183.285 329.316 183.259 329.257 183.259C329.197 183.26 329.141 183.286 329.099 183.332C329.057 183.377 329.033 183.439 329.031 183.503V186.334L326.717 183.806C326.697 183.783 326.672 183.765 326.644 183.752C326.617 183.74 326.587 183.734 326.558 183.734C326.528 183.734 326.499 183.74 326.471 183.752C326.444 183.765 326.419 183.783 326.398 183.806C326.356 183.852 326.333 183.914 326.333 183.979C326.333 184.044 326.356 184.106 326.398 184.152L328.716 186.661H326.105C326.046 186.663 325.989 186.689 325.947 186.734C325.905 186.78 325.881 186.841 325.88 186.905C325.88 186.97 325.904 187.032 325.946 187.078C325.988 187.124 326.046 187.15 326.105 187.15H328.716L326.398 189.663C326.356 189.71 326.333 189.772 326.333 189.837C326.333 189.901 326.356 189.964 326.398 190.01C326.441 190.054 326.498 190.078 326.558 190.078C326.617 190.078 326.674 190.054 326.717 190.01L329.031 187.496V190.322C329.031 190.387 329.055 190.449 329.097 190.495C329.14 190.541 329.197 190.567 329.257 190.567C329.316 190.567 329.374 190.541 329.416 190.495C329.458 190.449 329.482 190.387 329.482 190.322V187.496L331.8 190.01C331.844 190.054 331.901 190.078 331.96 190.078C332.019 190.078 332.076 190.054 332.12 190.01C332.161 189.964 332.185 189.901 332.185 189.837C332.185 189.772 332.161 189.71 332.12 189.663L329.801 187.15H332.408C332.468 187.15 332.525 187.124 332.567 187.078C332.609 187.032 332.633 186.97 332.633 186.905C332.63 186.843 332.604 186.785 332.562 186.742C332.521 186.7 332.465 186.676 332.408 186.676Z" fill="#C86FC9"/>
<path d="M341.862 186.676H339.255L341.574 184.167C341.615 184.121 341.639 184.058 341.639 183.994C341.639 183.929 341.615 183.867 341.574 183.82C341.553 183.798 341.528 183.779 341.501 183.767C341.473 183.755 341.444 183.748 341.414 183.748C341.384 183.748 341.355 183.755 341.327 183.767C341.3 183.779 341.275 183.798 341.254 183.82L338.936 186.334V183.503C338.936 183.438 338.912 183.376 338.87 183.331C338.828 183.285 338.77 183.259 338.711 183.259C338.651 183.26 338.595 183.286 338.553 183.332C338.511 183.377 338.487 183.439 338.486 183.503V186.334L336.172 183.806C336.151 183.783 336.126 183.765 336.098 183.752C336.071 183.74 336.041 183.734 336.012 183.734C335.982 183.734 335.953 183.74 335.925 183.752C335.898 183.765 335.873 183.783 335.852 183.806C335.81 183.852 335.787 183.914 335.787 183.979C335.787 184.044 335.81 184.106 335.852 184.152L338.17 186.661H335.559C335.5 186.663 335.443 186.689 335.401 186.734C335.359 186.78 335.335 186.841 335.334 186.905C335.334 186.97 335.358 187.032 335.4 187.078C335.442 187.124 335.5 187.15 335.559 187.15H338.17L335.852 189.663C335.81 189.71 335.787 189.772 335.787 189.837C335.787 189.901 335.81 189.964 335.852 190.01C335.895 190.054 335.952 190.078 336.012 190.078C336.071 190.078 336.128 190.054 336.172 190.01L338.486 187.496V190.322C338.486 190.387 338.509 190.449 338.551 190.495C338.594 190.541 338.651 190.567 338.711 190.567C338.77 190.567 338.828 190.541 338.87 190.495C338.912 190.449 338.936 190.387 338.936 190.322V187.496L341.254 190.01C341.298 190.054 341.355 190.078 341.414 190.078C341.473 190.078 341.53 190.054 341.574 190.01C341.615 189.964 341.639 189.901 341.639 189.837C341.639 189.772 341.615 189.71 341.574 189.663L339.255 187.15H341.862C341.922 187.15 341.979 187.124 342.021 187.078C342.063 187.032 342.087 186.97 342.087 186.905C342.084 186.843 342.058 186.785 342.017 186.742C341.975 186.7 341.919 186.676 341.862 186.676Z" fill="#C86FC9"/>
<path d="M414.338 246.059C414.326 245.469 414.258 244.882 414.136 244.306C413.731 242.656 412.817 240.66 411.313 240.162C409.761 239.647 408.261 238.96 406.838 238.112C406.568 232.879 407.675 227.524 406.469 222.452C406.019 220.597 405.276 218.82 405.078 216.921C404.83 214.559 405.424 212.04 404.556 209.863C403.871 208.145 402.368 206.934 400.752 206.299C399.135 205.665 397.393 205.494 395.678 205.323C393.517 205.133 386.521 204.235 384.081 206.329C383.913 206.47 383.761 206.634 383.631 206.817V206.817C383.577 206.897 383.529 206.982 383.487 207.071L383.464 207.11C383.415 207.211 383.375 207.318 383.343 207.427V207.427C383.309 207.547 383.283 207.669 383.266 207.793C383.266 207.832 383.266 207.871 383.266 207.91C383.266 207.949 383.266 208.081 383.266 208.169V208.301C383.266 208.389 383.266 208.477 383.266 208.569C383.266 208.662 383.266 208.638 383.266 208.672C383.298 209.111 383.356 209.55 383.356 209.985C383.361 210.201 383.343 210.417 383.302 210.629C383.152 211.205 382.898 211.743 382.555 212.211V212.211L382.474 212.338C382.424 212.416 382.375 212.489 382.33 212.567C382.285 212.645 382.249 212.704 382.213 212.772C382.177 212.841 382.141 212.884 382.109 212.948C382.066 213.028 382.027 213.112 381.992 213.197C381.992 213.246 381.943 213.29 381.925 213.338C381.868 213.47 381.823 213.608 381.789 213.749C381.684 214.173 381.675 214.618 381.762 215.047C381.884 215.595 382.093 216.115 382.379 216.585C382.492 216.785 382.613 216.98 382.739 217.175L383.054 217.639C382.996 218.092 382.964 218.548 382.96 219.006C382.96 220.534 383.28 222.043 383.896 223.418C384.512 224.793 385.408 225.998 386.516 226.943C386.695 229.005 386.675 231.081 386.458 233.138C386.417 233.567 386.368 234.002 386.314 234.431C386.26 234.861 386.219 235.144 386.165 235.5C385.507 235.603 384.835 235.548 384.198 235.339C383.904 235.197 383.604 235.072 383.298 234.963C381.988 234.607 380.65 236.023 379.354 235.593C379.354 235.661 379.318 235.725 379.295 235.788C379.025 235.606 378.714 235.506 378.395 235.5C377.625 235.461 376.999 234.856 376.441 234.285L374.726 232.532C374.614 232.425 374.514 232.304 374.429 232.171C374.337 231.981 374.267 231.779 374.222 231.571C373.934 230.56 373.236 229.755 372.561 228.988C372.433 228.814 372.263 228.68 372.07 228.603C371.995 228.591 371.919 228.591 371.845 228.603C371.799 228.535 371.749 228.469 371.696 228.407C371.58 228.262 371.455 228.126 371.322 227.997C370.503 227.177 370.422 226.474 369.711 225.557C369.09 224.681 368.528 223.76 368.027 222.799C367.969 222.286 367.888 221.759 367.788 221.227C367.562 220.009 367.231 218.816 366.803 217.663L365.902 215.501L365.799 215.613C365.146 214.559 364.448 213.983 363.822 214.119C362.773 214.354 362.256 216.56 362.422 219.445L362.782 222.374C362.782 222.447 362.814 222.52 362.832 222.594C362.767 222.941 362.734 223.294 362.733 223.648C362.733 224.058 363.084 224.361 363.269 224.727C363.564 225.223 363.72 225.801 363.719 226.391C363.696 226.601 363.638 226.801 363.629 227.006C363.653 227.465 363.8 227.906 364.052 228.276L366.303 232.376L366.753 233.235L366.78 233.274C366.922 233.574 367.129 233.832 367.383 234.026C367.472 235.053 367.723 236.055 368.126 236.989C368.203 237.175 368.288 237.35 368.378 237.526C368.983 238.605 369.696 239.608 370.503 240.518L371.575 241.822C372.633 243.101 373.691 244.384 374.838 245.566C375.249 246.04 375.746 246.417 376.297 246.674C376.567 246.791 376.861 246.829 377.149 246.783C377.436 246.738 377.708 246.611 377.936 246.415C377.936 247.02 377.936 247.626 377.936 248.231C378.103 248.242 378.264 248.301 378.403 248.403C378.542 248.504 378.654 248.644 378.726 248.808C378.799 248.971 378.83 249.153 378.816 249.334C378.802 249.515 378.744 249.689 378.647 249.837C377.702 252.468 376.747 255.124 375.316 257.481C376.326 258.13 377.263 258.905 378.107 259.79C378.654 260.448 379.142 261.163 379.561 261.923C379.602 262.285 379.633 262.641 379.651 262.997C379.984 268.816 377.909 274.591 376.049 280.136C375.514 281.708 374.929 283.353 374.974 284.988C374.621 285.224 374.284 285.487 373.965 285.774C374.334 286.819 374.19 287.751 374.15 288.869C374.136 289.539 374.01 290.201 373.776 290.822C373.58 291.252 373.364 291.671 373.128 292.076C371.962 294.307 371.705 296.958 371.471 299.506C371.331 301.043 371.881 302.923 371.237 304.299C370.125 306.662 369.139 309.181 368.986 311.807C368.981 312.398 368.911 312.986 368.779 313.559C368.639 314.047 368.392 314.462 368.266 314.941C368.136 315.582 368.105 316.242 368.176 316.893C368.261 319.233 367.941 321.57 367.23 323.781C366.668 325.524 366.046 327.388 366.487 329.18C365.401 330.417 364.731 332.014 364.583 333.715C364.571 334.15 364.523 334.583 364.439 335.008C364.301 335.443 364.12 335.861 363.899 336.253C362.993 338.043 362.568 340.072 362.674 342.111C361.324 344.098 360.648 346.548 360.248 348.984C359.847 351.42 359.672 353.9 359.158 356.306C358.474 359.489 357.236 362.706 356.993 365.967C355.534 366.977 354.904 368.934 354.625 370.784C354.346 372.635 354.301 374.577 353.585 376.286C353.216 377.174 352.685 377.97 352.333 378.878C352.087 379.601 351.906 380.348 351.793 381.109C351.577 382.3 351.388 383.628 351.654 384.77C351.272 385.208 350.826 385.576 350.335 385.858C350.407 385.556 350.465 385.253 350.515 384.946C349.353 386.088 347.246 385.688 346.319 387.059C346.04 387.501 345.932 388.044 346.016 388.571C346.1 389.099 346.37 389.57 346.769 389.886C347.059 390.077 347.373 390.224 347.701 390.32C349.952 391.101 352.266 391.887 354.58 391.472C354.853 391.44 355.118 391.349 355.359 391.204C355.66 390.963 355.907 390.653 356.083 390.296C356.43 389.7 356.777 389.105 357.119 388.509C357.948 388.777 358.792 388.991 359.645 389.148C359.73 389.929 359.793 390.711 359.825 391.492C360.275 391.589 360.878 391.618 361.09 391.165C361.154 390.993 361.18 390.807 361.166 390.623C361.166 390.276 361.211 389.817 361.238 389.349H361.328C362.702 389.409 364.068 389.109 365.312 388.475C364.831 384.15 366.42 379.923 367.797 375.832C369.252 371.526 370.499 367.143 371.755 362.759C372.655 359.674 373.65 356.687 374.532 353.597C375.643 349.692 376.758 345.787 377.877 341.881C378.363 340.163 378.854 338.464 379.412 336.756C380.588 333.299 381.982 329.934 383.586 326.686C384.036 325.763 384.486 324.85 384.855 323.893C385.305 322.727 385.625 321.506 385.985 320.301C386.77 317.827 387.715 315.416 388.812 313.086C388.844 313.022 388.866 312.964 388.898 312.905C389.263 314.521 389.627 316.161 389.87 317.787C390.199 319.78 390.225 321.818 389.947 323.82C389.731 325.182 389.321 326.529 389.371 327.911C389.438 329.819 390.379 331.552 390.843 333.393C391.142 334.77 391.311 336.176 391.347 337.591C391.473 339.787 392.572 342.252 391.797 344.288C389.389 350.736 390.555 358.02 389.182 364.79C388.475 368.266 386.309 371.531 386.48 375.085C386.6 377.607 386.805 380.123 387.093 382.632C387.162 383.423 387.352 384.197 387.655 384.921C387.835 385.302 388.041 385.668 388.272 386.015C388.074 386.098 387.908 386.317 387.763 386.781C387.394 388.001 387.763 389.515 388.763 390.198C389.17 390.434 389.609 390.599 390.064 390.686C390.676 390.875 391.309 390.97 391.946 390.969C392.144 390.958 392.341 390.932 392.536 390.891C393.231 391.208 393.942 391.485 394.665 391.721C394.665 391.921 394.701 392.121 394.723 392.321C394.725 392.426 394.746 392.529 394.786 392.624C394.827 392.719 394.885 392.804 394.958 392.873C395.07 392.93 395.194 392.953 395.318 392.941H397.762C397.762 392.722 397.762 392.497 397.762 392.277C398.042 392.309 398.325 392.277 398.592 392.183C398.86 392.088 399.106 391.935 399.315 391.731C399.532 391.432 399.686 391.085 399.766 390.715C400.432 388.265 401.094 385.813 401.751 383.359C402.539 380.647 402.867 377.802 402.719 374.963C401.85 365.966 403.759 356.941 403.138 347.92C402.764 342.498 403.021 337.046 403.903 331.694C404.105 330.483 404.353 329.253 404.443 328.047C404.641 325.773 404.398 323.474 404.547 321.213C404.596 320.423 404.695 319.637 404.785 318.851C405.402 313.973 405.725 309.057 405.753 304.133C405.739 302.502 405.646 300.873 405.474 299.252C405.943 299.122 406.369 298.852 406.703 298.471C407.104 297.905 407 297.109 406.996 296.386C406.996 294.658 407.666 293.028 408.207 291.398C408.9 289.149 409.468 286.857 409.908 284.534C410.374 282.663 410.628 280.737 410.665 278.799C410.665 278.603 410.656 278.408 410.638 278.213C410.807 278.085 410.949 277.919 411.052 277.725C411.169 277.439 411.242 277.133 411.268 276.822C411.43 275.577 411.597 274.327 411.759 273.078C411.879 272.183 411.997 271.289 412.114 270.398L413.546 259.566C413.668 258.624 413.794 257.686 413.915 256.749L414.289 253.947C414.329 253.615 414.374 253.283 414.406 252.971C415.504 250.979 414.455 248.324 414.338 246.059ZM402.395 286.614C401.863 285.247 401.368 283.846 401.494 282.372H401.445C401.563 281.918 401.543 281.435 401.386 280.995C401.247 280.639 401.004 280.336 400.855 279.98C400.695 279.545 400.613 279.081 400.612 278.613C400.5 275.644 400.716 272.671 401.256 269.758C401.314 269.416 401.377 269.07 401.436 268.728C401.625 268.61 401.797 268.464 401.949 268.294C402.186 268.001 402.382 267.672 402.53 267.317C403.038 266.209 403.502 265.082 403.93 263.935C404.069 263.564 404.272 263.134 404.619 263.041C404.547 265.897 404.817 268.811 403.745 271.389C403.542 271.804 403.39 272.247 403.295 272.707C403.196 273.434 403.475 274.171 403.376 274.893C403.327 275.269 403.178 275.616 403.12 275.987C403.075 276.169 403.076 276.361 403.122 276.542C403.168 276.724 403.257 276.89 403.381 277.022C403.44 277.067 403.505 277.103 403.574 277.129C403.547 277.324 403.525 277.525 403.507 277.715C403.471 278.115 403.453 278.491 403.43 278.725C403.327 279.919 403.286 281.119 403.309 282.318C403.309 283.612 403.354 284.905 403.336 286.223C403.352 286.602 403.294 286.98 403.165 287.331C403.075 287.513 402.96 287.678 402.822 287.82C402.692 287.38 402.548 286.995 402.395 286.614Z" fill="url(#paint0_linear)"/>
<path d="M366.858 229.974C368.231 229.669 368.699 226.002 367.902 221.785C367.105 217.567 365.345 214.395 363.971 214.7C362.598 215.005 362.13 218.672 362.927 222.89C363.724 227.108 365.484 230.279 366.858 229.974Z" fill="#FBBEBE"/>
<path d="M387.836 386.874C387.467 388.084 387.836 389.598 388.835 390.257C389.24 390.491 389.676 390.655 390.127 390.745C390.738 390.932 391.37 391.025 392.004 391.023C392.783 390.984 393.531 390.652 394.309 390.535C394.399 390.51 394.494 390.524 394.575 390.574C394.614 390.619 394.643 390.673 394.66 390.733C394.678 390.792 394.682 390.854 394.674 390.916C394.683 391.396 394.716 391.875 394.773 392.351C394.774 392.455 394.795 392.559 394.835 392.654C394.876 392.749 394.934 392.834 395.007 392.902C395.12 392.959 395.244 392.983 395.367 392.971H397.807C397.863 390.646 397.628 388.325 397.11 386.068C397.076 385.896 397.015 385.731 396.93 385.58C396.723 385.334 396.451 385.164 396.151 385.092C395.554 384.823 394.91 384.701 394.264 384.736C393.477 384.848 392.819 385.4 392.149 385.858C391.478 386.317 390.564 386.722 389.749 386.488C388.934 386.254 388.254 385.517 387.836 386.874Z" fill="#3F3D56"/>
<path d="M352.009 384.731C351.323 385.527 350.482 386.148 349.547 386.547L349.133 386.762C349.075 386.785 349.026 386.828 348.993 386.884C348.985 386.922 348.985 386.961 348.993 386.999C349.001 387.037 349.016 387.072 349.038 387.103C349.383 387.681 349.892 388.121 350.488 388.357C351.085 388.592 351.736 388.609 352.342 388.407C352.611 388.334 352.859 388.193 353.067 387.997C353.41 387.555 353.607 387.002 353.626 386.425C353.762 385.83 353.738 385.205 353.558 384.623C352.932 383.096 352.703 383.789 352.009 384.731Z" fill="#FBBEBE"/>
<path d="M361.364 390.745C361.378 390.929 361.352 391.115 361.288 391.287C361.076 391.736 360.486 391.711 360.027 391.614C359.958 389.958 359.773 388.309 359.474 386.683C358.6 386.64 357.97 387.538 357.502 388.343L356.295 390.418C356.121 390.775 355.875 391.085 355.575 391.326C355.334 391.469 355.069 391.56 354.796 391.594C352.491 392.009 350.164 391.223 347.94 390.442C347.612 390.347 347.298 390.202 347.008 390.013C346.611 389.697 346.342 389.226 346.258 388.7C346.174 388.174 346.282 387.633 346.558 387.191C347.489 385.824 349.583 386.215 350.744 385.082C350.623 385.879 350.424 386.66 350.15 387.411C351.703 387.157 352.748 385.614 353.999 384.584C354.314 384.295 354.692 384.1 355.098 384.018C355.401 383.991 355.707 384.025 355.998 384.121C357.441 384.515 358.791 385.235 359.96 386.234C360.432 386.64 361.171 387.211 361.378 387.836C361.598 388.582 361.364 389.949 361.364 390.745Z" fill="#3F3D56"/>
<path d="M392.333 229.687C397.47 229.687 401.634 225.171 401.634 219.601C401.634 214.032 397.47 209.516 392.333 209.516C387.196 209.516 383.032 214.032 383.032 219.601C383.032 225.171 387.196 229.687 392.333 229.687Z" fill="#FBBEBE"/>
<path d="M410.656 279.145C410.618 281.073 410.366 282.989 409.904 284.852C409.464 287.164 408.895 289.447 408.202 291.686C407.666 293.311 406.996 294.941 407 296.665C407 297.382 407.108 298.178 406.703 298.744C406.342 299.142 405.887 299.424 405.389 299.559C405.14 299.631 404.91 299.765 404.717 299.951C404.525 300.136 404.375 300.369 404.281 300.628C403.858 299.944 403.542 299.188 403.345 298.393C402.537 295.711 401.787 293.015 401.094 290.304C401.03 290.148 401.003 289.978 401.014 289.808C401.025 289.637 401.074 289.473 401.157 289.328C401.271 289.22 401.404 289.139 401.548 289.089C402.01 288.885 402.433 288.59 402.795 288.22C402.966 288.056 403.106 287.859 403.21 287.639C403.34 287.289 403.4 286.913 403.385 286.536C403.385 285.242 403.385 283.953 403.354 282.66C403.335 281.465 403.377 280.271 403.48 279.082C403.48 278.847 403.52 278.471 403.556 278.071C403.624 277.305 403.759 276.416 404.141 276.119C404.713 275.704 406.424 276.26 407.072 276.358C408.189 276.524 409.323 276.719 410.413 276.948C410.571 277.668 410.652 278.405 410.656 279.145Z" fill="#3F3D56"/>
<path d="M373.101 230.892C372.741 231.673 371.876 232.049 371.21 232.542L368.928 234.241C368.775 234.39 368.596 234.504 368.402 234.576C368.208 234.648 368.002 234.677 367.798 234.661C367.612 234.586 367.442 234.472 367.297 234.326C367.153 234.179 367.036 234.002 366.956 233.806C366.957 233.793 366.957 233.78 366.956 233.767L366.483 232.908L364.232 228.818C363.982 228.451 363.836 228.013 363.813 227.558C363.813 227.348 363.881 227.153 363.899 226.943C363.905 226.353 363.748 225.775 363.449 225.283C363.269 224.917 362.908 224.615 362.917 224.205C362.9 223.666 362.986 223.129 363.17 222.628C363.406 222.164 363.745 221.772 364.155 221.486C364.367 221.32 364.583 221.163 364.808 220.997C364.928 220.909 365.06 220.843 365.2 220.802C365.574 220.719 365.943 221.056 366.321 221.071C367.946 222.252 368.572 224.488 369.85 226.099C370.571 227.016 370.643 227.719 371.458 228.539C371.588 228.666 371.714 228.803 371.836 228.944C371.997 229.135 372.133 229.348 372.241 229.579C372.39 229.999 373.285 230.492 373.101 230.892Z" fill="#3F3D56"/>
<path d="M389.065 229.691C389.735 231.229 390.258 232.918 390.064 234.607C390.024 235.064 389.891 235.507 389.672 235.9C389.024 236.979 387.664 237.175 386.48 237.238C386.231 237.215 385.98 237.247 385.742 237.331C385.504 237.414 385.283 237.549 385.094 237.726C384.936 237.975 384.858 238.275 384.874 238.577C384.889 238.879 384.997 239.167 385.179 239.396C385.56 239.836 386.032 240.171 386.557 240.372C388.43 241.265 390.451 242.002 392.486 241.797C393.431 241.7 394.35 241.402 395.291 241.251C396.316 241.13 397.347 241.068 398.379 241.065C399.604 241.016 400.824 240.884 402.044 240.753L405.276 240.406C405.453 240.409 405.624 240.341 405.758 240.216C405.996 239.913 405.69 239.469 405.393 239.239C403.678 237.863 401.494 236.916 400.517 234.846C400.067 233.87 399.928 232.708 399.595 231.654C399.261 230.599 398.73 229.647 398.523 228.573C398.413 227.631 398.363 226.682 398.375 225.732C398.386 224.775 398.064 223.848 397.474 223.136C396.83 222.486 395.898 222.32 395.025 222.281C392.873 222.179 390.582 222.735 389.056 224.38C388.646 224.825 388.295 225.357 387.872 225.757C387.448 226.157 386.872 226.274 387.151 226.802C387.43 227.329 387.98 227.656 388.277 228.12C388.577 228.62 388.841 229.145 389.065 229.691V229.691Z" fill="#FBBEBE"/>
<path d="M407.401 243.891C406.833 247.65 405.91 251.336 404.646 254.889C404.01 256.494 403.469 258.141 403.025 259.82C402.678 261.333 402.746 262.954 402.426 264.472C402.03 266.361 401.634 268.255 401.314 270.159C400.778 273.066 400.564 276.032 400.675 278.994C400.676 279.46 400.759 279.923 400.918 280.356C401.067 280.707 401.305 281.01 401.445 281.371C401.549 281.688 401.592 282.026 401.57 282.362C401.549 282.698 401.463 283.025 401.319 283.324C401.088 283.883 400.775 284.397 400.391 284.847C396.196 286.204 391.707 285.76 387.336 286.048C383.307 286.311 379.232 287.209 375.262 286.463C374.812 284.51 375.563 282.465 376.207 280.561C378.075 275.03 380.142 269.27 379.809 263.476C379.774 262.8 379.703 262.127 379.597 261.46C378.944 257.355 379.656 253.103 380.795 249.124C381.501 246.645 381.47 244.004 381.308 241.421C381.228 240.583 381.217 239.738 381.276 238.898C381.341 238.039 381.636 237.22 382.123 236.54C382.123 236.506 382.163 236.472 382.186 236.438C382.208 236.403 382.384 236.408 382.523 236.438C382.559 236.454 382.597 236.462 382.636 236.462C382.675 236.462 382.713 236.454 382.748 236.438L382.798 236.403C382.817 236.389 382.84 236.381 382.863 236.381C382.887 236.381 382.909 236.389 382.929 236.403C383.032 236.472 383.091 236.706 383.316 236.75C383.648 236.804 383.983 236.839 384.32 236.852C384.724 236.865 385.126 236.928 385.517 237.038H385.571C386.157 237.145 386.758 237.09 387.318 236.877C387.691 236.776 388.051 236.625 388.389 236.428C388.488 236.311 389.11 236.203 389.236 236.12C389.645 235.852 389.555 234.592 389.641 234.075C389.688 233.556 389.802 233.047 389.979 232.562C390.184 232.204 390.466 231.906 390.802 231.694C391.138 231.482 391.517 231.363 391.905 231.346C392.681 231.326 393.455 231.401 394.215 231.571C395.894 231.829 397.614 231.786 399.262 232.205C400.09 232.415 400.995 232.733 401.756 232.322C401.963 232.376 401.994 232.571 401.994 232.811C401.975 233.038 401.933 233.262 401.868 233.479C401.58 234.827 402.557 236.067 403.457 237.043C403.838 237.503 404.287 237.891 404.785 238.19C405.236 238.414 405.686 238.507 406.136 238.751C406.501 238.962 406.81 239.27 407.036 239.645C407.296 240.075 407.471 240.558 407.55 241.065C407.646 242.01 407.596 242.965 407.401 243.891Z" fill="#3F3D56"/>
<path opacity="0.1" d="M407.401 243.891C406.833 247.65 405.91 251.336 404.646 254.889C404.01 256.494 403.469 258.141 403.025 259.82C402.678 261.333 402.746 262.953 402.426 264.472C402.03 266.361 401.634 268.255 401.314 270.159C401.22 270.217 401.121 270.271 401.022 270.32C400.462 270.61 399.868 270.816 399.257 270.935C398.159 271.079 397.048 271.039 395.962 270.817L389.537 269.885C386.971 269.509 384.239 269.055 382.334 267.171C381.276 266.136 380.583 264.769 379.822 263.451C379.787 262.776 379.717 262.102 379.611 261.435C378.958 257.33 379.669 253.078 380.808 249.1C381.515 246.62 381.483 243.979 381.321 241.397C381.241 240.559 381.231 239.714 381.29 238.873C381.355 238.015 381.649 237.196 382.136 236.516C382.268 236.474 382.401 236.441 382.537 236.418V236.418C382.627 236.398 382.719 236.385 382.811 236.379H382.942C383.094 236.38 383.245 236.399 383.392 236.437C383.699 236.543 384 236.669 384.293 236.813H384.347C384.733 236.951 385.138 237.014 385.544 236.999C386.138 236.999 386.751 236.896 387.345 236.852C388.079 236.728 388.83 236.874 389.479 237.267C389.897 237.632 390.294 238.025 390.667 238.444C391.118 238.827 391.625 239.126 392.166 239.327C396.042 240.931 400.341 240.833 404.151 239.054C404.516 238.828 404.932 238.714 405.353 238.722C405.663 238.788 405.958 238.924 406.217 239.122C406.487 239.293 406.753 239.459 407.027 239.61C407.287 240.041 407.462 240.524 407.54 241.031C407.644 241.986 407.596 242.953 407.401 243.891V243.891Z" fill="black"/>
<path d="M411.322 240.66C409.53 240.066 407.807 239.247 406.19 238.219C405.93 238.023 405.636 237.886 405.326 237.819C404.904 237.814 404.488 237.928 404.119 238.151C400.311 239.93 396.013 240.028 392.14 238.424C391.598 238.221 391.092 237.923 390.64 237.541C390.266 237.123 389.869 236.73 389.452 236.364C387.971 235.325 385.922 236.545 384.266 235.876C383.972 235.734 383.671 235.608 383.365 235.5C382.055 235.144 380.723 236.56 379.435 236.13C378.956 237.542 378.602 239 378.377 240.484C378.194 242.189 378.096 243.903 378.084 245.619C378.084 246.649 378.039 247.679 378.084 248.709C378.243 248.738 378.395 248.801 378.53 248.896C378.664 248.991 378.78 249.115 378.868 249.261C378.927 249.431 378.951 249.613 378.939 249.794C378.926 249.976 378.877 250.152 378.796 250.311C377.855 252.932 376.9 255.582 375.473 257.93C376.479 258.58 377.413 259.353 378.256 260.235C379.831 262.041 380.606 264.574 382.307 266.244C384.225 268.123 386.958 268.582 389.51 268.953L395.935 269.885C397.023 270.106 398.135 270.147 399.235 270.007C399.844 269.887 400.436 269.678 400.995 269.387C401.36 269.222 401.693 268.983 401.976 268.684C402.214 268.392 402.409 268.063 402.557 267.708C403.066 266.605 403.529 265.477 403.957 264.335C404.106 263.93 404.331 263.456 404.736 263.422C407.122 261.089 409.373 258.697 411.759 256.364C412.718 255.502 413.578 254.519 414.32 253.435C415.504 251.536 414.428 248.846 414.32 246.552C414.307 245.965 414.24 245.381 414.118 244.809C413.731 243.145 412.821 241.153 411.322 240.66Z" fill="#C86FC9"/>
<path opacity="0.1" d="M373.101 230.892C372.741 231.673 371.876 232.049 371.21 232.542L368.928 234.241C368.775 234.39 368.596 234.504 368.402 234.576C368.208 234.648 368.002 234.677 367.798 234.661C367.612 234.586 367.442 234.472 367.297 234.326C367.153 234.179 367.037 234.003 366.956 233.806C366.956 233.694 366.956 233.572 366.956 233.455C366.938 233.06 366.987 232.665 367.1 232.288C367.323 231.736 367.67 231.253 368.108 230.883C368.956 230.012 369.964 229.347 371.066 228.93C371.238 228.857 371.425 228.837 371.606 228.871C371.676 228.891 371.743 228.922 371.804 228.964C371.965 229.155 372.102 229.368 372.21 229.599C372.39 229.999 373.285 230.492 373.101 230.892Z" fill="black"/>
<path d="M378.476 236.037C377.711 235.998 377.085 235.398 376.527 234.827L374.82 233.108C374.706 233.004 374.606 232.882 374.523 232.747C374.431 232.557 374.362 232.356 374.316 232.147C373.955 231.161 373.388 230.279 372.66 229.569C372.533 229.395 372.362 229.262 372.169 229.189C371.986 229.152 371.797 229.172 371.624 229.247C370.522 229.663 369.513 230.329 368.666 231.2C368.228 231.571 367.882 232.054 367.658 232.606C367.545 232.982 367.496 233.377 367.514 233.772C367.524 235.062 367.792 236.334 368.297 237.502C368.374 237.682 368.459 237.863 368.549 238.039C369.15 239.115 369.86 240.116 370.665 241.021L371.737 242.32C372.79 243.599 373.844 244.878 374.987 246.054C375.397 246.528 375.894 246.904 376.446 247.157C376.723 247.28 377.026 247.317 377.321 247.266C377.616 247.214 377.893 247.075 378.12 246.864C378.336 246.594 378.498 246.278 378.598 245.937C379.291 243.984 379.948 241.954 379.989 239.85C379.998 239.007 379.965 238.165 379.89 237.326C379.822 236.438 379.241 236.091 378.476 236.037Z" fill="#C86FC9"/>
<path d="M405.758 304.377C405.732 309.288 405.41 314.191 404.794 319.056C404.704 319.842 404.605 320.628 404.556 321.414C404.407 323.693 404.65 325.983 404.452 328.248C404.349 329.473 404.115 330.688 403.917 331.884C403.037 337.222 402.78 342.659 403.151 348.066C403.772 357.063 401.868 366.064 402.733 375.036C402.837 376.781 402.748 378.533 402.467 380.254C402.306 381.323 402.073 382.377 401.769 383.408C401.112 385.852 400.452 388.293 399.788 390.73C399.71 391.101 399.556 391.448 399.338 391.745C399.108 391.961 398.839 392.12 398.548 392.214C398.257 392.307 397.951 392.332 397.65 392.287C395.052 392.199 392.608 390.984 390.249 389.798C389.977 389.682 389.726 389.517 389.506 389.31C389.015 388.758 389.056 387.889 388.84 387.162C388.624 386.434 388.038 385.751 387.705 385.004C387.431 384.298 387.265 383.547 387.214 382.783C386.914 380.284 386.71 377.775 386.602 375.256C386.431 371.712 388.592 368.451 389.303 365.005C390.654 358.229 389.51 350.966 391.91 344.537C392.666 342.506 391.568 340.046 391.46 337.859C391.421 336.448 391.252 335.045 390.956 333.671C390.505 331.835 389.555 330.107 389.488 328.204C389.438 326.827 389.848 325.485 390.06 324.128C390.34 322.131 390.314 320.097 389.983 318.109C389.744 316.469 389.38 314.829 389.015 313.227L388.934 313.408C387.837 315.733 386.894 318.139 386.111 320.608C385.751 321.804 385.436 323.024 384.986 324.186C384.617 325.163 384.162 326.056 383.716 326.974C382.118 330.21 380.726 333.562 379.552 337.005C378.994 338.694 378.503 340.422 378.017 342.116L374.681 353.831C373.781 356.911 372.795 359.889 371.912 362.964C370.665 367.358 369.418 371.712 367.969 376.008C366.618 380.084 365.011 384.306 365.493 388.611C364.251 389.244 362.888 389.544 361.517 389.485C359.197 389.263 356.921 388.664 354.765 387.708C353.905 387.362 353.013 386.971 352.433 386.205C351.433 384.882 351.681 382.944 351.982 381.26C352.096 380.501 352.277 379.756 352.523 379.034C352.865 378.136 353.423 377.34 353.774 376.452C354.481 374.748 354.526 372.82 354.805 370.97C355.084 369.12 355.705 367.167 357.164 366.162C357.412 362.911 358.645 359.704 359.325 356.526C359.838 354.119 360.009 351.644 360.414 349.204C360.82 346.763 361.472 344.322 362.832 342.345C362.725 340.307 363.149 338.277 364.057 336.487C364.276 336.095 364.455 335.677 364.592 335.243C364.676 334.819 364.724 334.387 364.736 333.954C364.885 332.258 365.554 330.665 366.636 329.429C366.186 327.647 366.812 325.787 367.374 324.059C368.083 321.854 368.404 319.525 368.32 317.191C368.25 316.54 368.279 315.88 368.405 315.239C368.531 314.75 368.779 314.335 368.923 313.867C369.052 313.293 369.119 312.705 369.126 312.114C369.301 309.474 370.287 306.984 371.377 304.626C372.025 303.25 371.476 301.38 371.611 299.847C371.845 297.299 372.101 294.663 373.267 292.442C373.484 292.022 373.718 291.622 373.911 291.188C374.146 290.567 374.272 289.905 374.285 289.235C374.325 288.117 374.469 287.19 374.1 286.15C376.509 283.978 379.795 283.368 382.929 283.221C386.062 283.075 389.231 283.382 392.297 282.66C393.197 282.44 394.098 282.138 395.048 281.991C397.204 281.649 399.392 282.181 401.521 282.709C401.373 284.173 401.868 285.579 402.422 286.941C404.584 292.457 405.718 298.383 405.758 304.377V304.377Z" fill="#33313F"/>
<path opacity="0.1" d="M395.156 305.495L389.983 318.109C389.744 316.469 389.38 314.828 389.015 313.227L388.934 313.408V313.144L391.752 306.423L395.156 305.495Z" fill="black"/>
<path opacity="0.1" d="M410.656 279.145C410.357 279.387 410.001 279.531 409.629 279.56C409.059 279.582 408.49 279.498 407.946 279.311L403.894 278.213C403.767 278.179 403.643 278.131 403.525 278.071C403.592 277.305 403.727 276.416 404.11 276.119C404.682 275.704 406.392 276.26 407.041 276.358C408.157 276.524 409.292 276.719 410.381 276.948C410.55 277.667 410.642 278.404 410.656 279.145V279.145Z" fill="black"/>
<path d="M414.082 250.101C414.167 250.506 414.289 250.906 414.361 251.316C414.482 252.322 414.45 253.343 414.266 254.338L413.897 257.13L413.528 259.937L412.101 270.739L411.75 273.414L411.255 277.149C411.231 277.459 411.158 277.763 411.039 278.047C410.891 278.312 410.685 278.534 410.439 278.691C410.193 278.849 409.915 278.938 409.629 278.95C409.059 278.969 408.49 278.885 407.946 278.701L403.894 277.598C403.716 277.564 403.548 277.489 403.399 277.378C403.275 277.247 403.186 277.082 403.14 276.901C403.094 276.72 403.093 276.529 403.138 276.348C403.196 275.977 403.345 275.631 403.394 275.26C403.493 274.537 403.214 273.795 403.313 273.078C403.41 272.621 403.562 272.179 403.763 271.764C405.114 268.528 404.331 264.75 404.79 261.235C405.203 258.469 406.281 255.87 407.914 253.698C408.922 252.328 410.08 251.095 411.363 250.027C411.867 249.603 412.668 248.729 413.303 248.563C414.118 248.377 413.947 249.486 414.082 250.101Z" fill="#C86FC9"/>
<path d="M383.419 208.052C383.122 209.077 383.586 210.205 383.374 211.249C383.145 212.401 382.145 213.202 381.862 214.359C381.411 216.121 382.789 217.727 383.797 219.191C387.534 224.629 387.043 232.157 385.765 238.79C384.736 244.113 383.313 249.337 381.51 254.411C380.948 255.988 380.326 257.589 379.219 258.77C381.29 258.126 383.491 257.477 385.567 258.101C388.196 258.892 390.465 261.66 393.13 261.03C394.733 260.645 395.858 259.102 397.299 258.248C400 256.671 403.255 257.662 406.266 258.17C406.915 258.336 407.595 258.298 408.225 258.062C408.707 257.781 409.115 257.374 409.413 256.876C410.757 255.006 411.562 252.748 411.727 250.384C411.799 249.207 411.638 248.027 411.257 246.922C410.876 245.817 410.283 244.812 409.517 243.974C408.878 243.32 408.112 242.793 407.622 242.022C407.144 241.121 406.889 240.103 406.879 239.064C406.523 233.694 407.73 228.212 406.487 223.018C406.037 221.168 405.303 219.396 405.105 217.502C404.857 215.145 405.447 212.621 404.583 210.463C403.903 208.75 402.404 207.535 400.788 206.91C399.171 206.285 397.443 206.109 395.727 205.933C393.26 205.709 384.45 204.562 383.419 208.052Z" fill="#33313F"/>
<g opacity="0.1">
<path opacity="0.1" d="M385.765 238.79C384.741 244.091 383.326 249.293 381.533 254.347C381.844 253.679 382.105 252.976 382.352 252.278C384.157 247.204 385.58 241.98 386.607 236.657C387.89 230.018 388.38 222.501 384.644 217.058C383.743 215.76 382.586 214.354 382.627 212.831C382.294 213.291 382.035 213.81 381.862 214.364C381.411 216.126 382.789 217.732 383.797 219.196C387.534 224.629 387.043 232.156 385.765 238.79Z" fill="black"/>
<path opacity="0.1" d="M383.428 210.756C383.789 210.27 384.059 209.711 384.22 209.111C384.29 208.386 384.272 207.654 384.166 206.934C383.82 207.217 383.559 207.607 383.419 208.052C383.153 208.916 383.46 209.853 383.428 210.756Z" fill="black"/>
<path opacity="0.1" d="M410.26 254.728C409.962 255.224 409.553 255.631 409.071 255.91C408.442 256.151 407.761 256.188 407.113 256.017C404.101 255.529 400.81 254.523 398.145 256.1C396.7 256.949 395.579 258.492 393.972 258.882C391.311 259.527 389.042 256.759 386.413 255.954C384.549 255.392 382.586 255.856 380.709 256.442C380.336 257.304 379.832 258.093 379.219 258.775C381.29 258.131 383.491 257.481 385.567 258.106C388.196 258.897 390.465 261.665 393.13 261.035C394.733 260.65 395.858 259.107 397.299 258.253C400 256.676 403.255 257.667 406.267 258.175C406.916 258.341 407.595 258.303 408.225 258.067C408.707 257.786 409.115 257.378 409.413 256.881C410.229 255.714 410.859 254.407 411.277 253.015C410.976 253.612 410.636 254.184 410.26 254.728Z" fill="black"/>
</g>
</g>
<defs>
<linearGradient id="paint0_linear" x1="346.017" y1="298.949" x2="414.897" y2="298.949" gradientUnits="userSpaceOnUse">
<stop stop-color="#808080" stop-opacity="0.25"/>
<stop offset="0.54" stop-color="#808080" stop-opacity="0.12"/>
<stop offset="1" stop-color="#808080" stop-opacity="0.1"/>
</linearGradient>
<clipPath id="clip0">
<rect width="525" height="393" fill="white"/>
</clipPath>
</defs>
</svg>
