<?xml version="1.0" encoding="UTF-8"?>
<svg xmlns="http://www.w3.org/2000/svg" xmlns:xlink="http://www.w3.org/1999/xlink" width="1125pt" height="1124.99995pt" viewBox="0 0 1125 1124.99995" version="1.2">
<defs>
<clipPath id="clip1">
  <path d="M 913 1059 L 978 1059 L 978 1083.84375 L 913 1083.84375 Z M 913 1059 "/>
</clipPath>
<clipPath id="clip2">
  <path d="M 913 1079 L 978 1079 L 978 1083.84375 L 913 1083.84375 Z M 913 1079 "/>
</clipPath>
<clipPath id="clip3">
  <path d="M 987 1059 L 1052 1059 L 1052 1083.84375 L 987 1083.84375 Z M 987 1059 "/>
</clipPath>
<clipPath id="clip4">
  <path d="M 987 1079 L 1052 1079 L 1052 1083.84375 L 987 1083.84375 Z M 987 1079 "/>
</clipPath>
<clipPath id="clip5">
  <path d="M 709 40.78125 L 811 40.78125 L 811 168 L 709 168 Z M 709 40.78125 "/>
</clipPath>
</defs>
<g id="surface1">
<path style=" stroke:none;fill-rule:nonzero;fill:rgb(65.489197%,64.709473%,65.098572%);fill-opacity:1;" d="M 157.632812 825.332031 L 815.882812 825.332031 L 815.882812 367.894531 L 157.632812 367.894531 Z M 157.632812 825.332031 "/>
<path style=" stroke:none;fill-rule:nonzero;fill:rgb(15.689087%,13.729858%,12.939453%);fill-opacity:1;" d="M 180.832031 803.222656 L 792.683594 803.222656 L 792.683594 390.003906 L 180.832031 390.003906 Z M 180.832031 803.222656 "/>
<path style=" stroke:none;fill-rule:nonzero;fill:rgb(53.329468%,52.549744%,52.938843%);fill-opacity:1;" d="M 949.171875 1016.316406 L 3.703125 1016.316406 L 158.574219 825.332031 L 816.824219 825.332031 L 949.171875 1016.316406 "/>
<path style=" stroke:none;fill-rule:nonzero;fill:rgb(15.689087%,13.729858%,12.939453%);fill-opacity:1;" d="M 851.898438 935.953125 L 785.148438 841.226562 L 179.089844 841.226562 L 100.964844 935.953125 L 851.898438 935.953125 "/>
<path style=" stroke:none;fill-rule:nonzero;fill:rgb(31.759644%,30.589294%,30.979919%);fill-opacity:1;" d="M 357.648438 945.496094 L 309.84375 1003.46875 L 643.019531 1003.46875 L 602.167969 945.496094 L 357.648438 945.496094 "/>
<path style=" stroke:none;fill-rule:nonzero;fill:rgb(38.819885%,37.649536%,37.649536%);fill-opacity:1;" d="M 949.171875 1042.832031 L 3.703125 1042.832031 L 3.703125 1016.316406 L 949.171875 1016.316406 L 949.171875 1042.832031 "/>
<g clip-path="url(#clip1)" clip-rule="nonzero">
<path style=" stroke:none;fill-rule:nonzero;fill:rgb(11.369324%,9.408569%,9.01947%);fill-opacity:1;" d="M 948.507812 1059.105469 L 940.707031 1064.546875 C 940.707031 1064.546875 933.972656 1064.546875 931.820312 1064.546875 C 920.113281 1064.546875 913.820312 1068.847656 913.820312 1080.960938 L 913.820312 1084.039062 L 947.972656 1084.039062 L 959.546875 1081.355469 L 959.546875 1084.039062 L 977.582031 1084.039062 L 977.582031 1059.105469 L 948.507812 1059.105469 "/>
</g>
<g clip-path="url(#clip2)" clip-rule="nonzero">
<path style=" stroke:none;fill-rule:nonzero;fill:rgb(7.058716%,5.879211%,5.099487%);fill-opacity:1;" d="M 913.890625 1079.34375 C 913.855469 1079.867188 913.820312 1080.390625 913.820312 1080.960938 L 913.820312 1084.039062 L 947.972656 1084.039062 L 959.546875 1081.355469 L 959.546875 1084.039062 L 977.582031 1084.039062 L 977.582031 1079.34375 L 913.890625 1079.34375 "/>
</g>
<g clip-path="url(#clip3)" clip-rule="nonzero">
<path style=" stroke:none;fill-rule:nonzero;fill:rgb(11.369324%,9.408569%,9.01947%);fill-opacity:1;" d="M 1016.515625 1059.105469 L 1024.328125 1064.546875 C 1024.328125 1064.546875 1031.050781 1064.546875 1033.203125 1064.546875 C 1044.914062 1064.546875 1051.203125 1068.847656 1051.203125 1080.960938 L 1051.203125 1084.039062 L 1017.0625 1084.039062 L 1005.480469 1081.355469 L 1005.480469 1084.039062 L 987.453125 1084.039062 L 987.453125 1059.105469 L 1016.515625 1059.105469 "/>
</g>
<g clip-path="url(#clip4)" clip-rule="nonzero">
<path style=" stroke:none;fill-rule:nonzero;fill:rgb(7.058716%,5.879211%,5.099487%);fill-opacity:1;" d="M 1051.132812 1079.34375 C 1051.167969 1079.867188 1051.203125 1080.390625 1051.203125 1080.960938 L 1051.203125 1084.039062 L 1017.0625 1084.039062 L 1005.480469 1081.355469 L 1005.480469 1084.039062 L 987.453125 1084.039062 L 987.453125 1079.34375 L 1051.132812 1079.34375 "/>
</g>
<path style=" stroke:none;fill-rule:nonzero;fill:rgb(18.03894%,15.689087%,14.509583%);fill-opacity:1;" d="M 940.507812 836.980469 L 943.449219 1059.105469 L 978.464844 1059.105469 L 978.464844 878.644531 L 986.699219 878.644531 L 986.699219 1059.105469 L 1021.679688 1059.105469 L 1024.65625 836.980469 L 940.507812 836.980469 "/>
<path style=" stroke:none;fill-rule:nonzero;fill:rgb(54.899597%,54.119873%,54.508972%);fill-opacity:1;" d="M 987.453125 1059.105469 L 986.699219 1059.105469 L 986.675781 878.644531 L 978.464844 878.644531 L 986.699219 878.644531 L 986.699219 1059.105469 L 987.453125 1059.105469 "/>
<path style=" stroke:none;fill-rule:nonzero;fill:rgb(11.369324%,9.01947%,8.239746%);fill-opacity:1;" d="M 991.140625 1059.105469 L 986.699219 1059.105469 L 986.699219 878.644531 L 978.453125 878.644531 L 978.453125 874.054688 L 987.839844 874.054688 L 995.421875 869.355469 L 991.140625 878.644531 L 991.140625 1059.105469 "/>
<path style=" stroke:none;fill-rule:nonzero;fill:rgb(96.859741%,57.649231%,52.938843%);fill-opacity:1;" d="M 1105.242188 593.957031 L 1112.8125 562.441406 L 1092.542969 557.570312 L 1083.8125 593.957031 L 1105.242188 593.957031 "/>
<path style=" stroke:none;fill-rule:nonzero;fill:rgb(96.859741%,57.649231%,52.938843%);fill-opacity:1;" d="M 1114.371094 544.308594 C 1113.917969 546.15625 1115.070312 548.039062 1116.917969 548.480469 C 1118.789062 548.921875 1120.652344 547.785156 1121.105469 545.925781 L 1124.476562 531.859375 C 1124.929688 530.011719 1123.789062 528.136719 1121.929688 527.683594 C 1120.070312 527.242188 1118.195312 528.382812 1117.753906 530.242188 L 1114.371094 544.308594 "/>
<path style=" stroke:none;fill-rule:nonzero;fill:rgb(96.859741%,57.649231%,52.938843%);fill-opacity:1;" d="M 1108.070312 540.902344 C 1107.613281 542.761719 1108.765625 544.632812 1110.625 545.074219 C 1112.476562 545.527344 1114.347656 544.378906 1114.800781 542.519531 L 1118.183594 528.464844 C 1118.628906 526.605469 1117.476562 524.742188 1115.617188 524.289062 C 1113.765625 523.847656 1111.894531 524.988281 1111.441406 526.847656 L 1108.070312 540.902344 "/>
<path style=" stroke:none;fill-rule:nonzero;fill:rgb(96.859741%,57.649231%,52.938843%);fill-opacity:1;" d="M 1101.335938 539.285156 C 1100.882812 541.144531 1102.03125 543.019531 1103.882812 543.460938 C 1105.742188 543.914062 1107.613281 542.761719 1108.070312 540.902344 L 1111.441406 526.847656 C 1111.894531 524.988281 1110.742188 523.117188 1108.882812 522.675781 C 1107.023438 522.222656 1105.160156 523.371094 1104.707031 525.230469 L 1101.335938 539.285156 "/>
<path style=" stroke:none;fill-rule:nonzero;fill:rgb(96.859741%,57.649231%,52.938843%);fill-opacity:1;" d="M 1094.171875 539.449219 C 1093.71875 541.308594 1094.871094 543.179688 1096.730469 543.621094 C 1098.589844 544.074219 1100.453125 542.925781 1100.894531 541.066406 L 1104.277344 527.011719 C 1104.730469 525.152344 1103.578125 523.277344 1101.71875 522.835938 C 1099.859375 522.382812 1097.984375 523.535156 1097.542969 525.394531 L 1094.171875 539.449219 "/>
<path style=" stroke:none;fill-rule:nonzero;fill:rgb(96.859741%,57.649231%,52.938843%);fill-opacity:1;" d="M 1086.660156 537.867188 C 1089.390625 534.019531 1090.136719 532.019531 1093.171875 529.289062 C 1094.113281 528.441406 1094.871094 527.953125 1096.824219 528.417969 C 1097.777344 528.648438 1123.753906 534.890625 1123.753906 534.890625 L 1118.046875 558.652344 C 1117.488281 560.964844 1114.464844 565.324219 1112.136719 564.769531 L 1092.695312 560.398438 C 1090.519531 559.875 1090.242188 558.445312 1089.160156 555.910156 C 1086.8125 550.46875 1086.195312 546.15625 1085.800781 544.332031 C 1085.148438 541.34375 1085.253906 539.855469 1086.660156 537.867188 "/>
<path style=" stroke:none;fill-rule:nonzero;fill:rgb(80.389404%,41.958618%,35.688782%);fill-opacity:1;" d="M 1121.929688 527.683594 C 1120.230469 527.605469 1118.800781 528.671875 1118.429688 530.023438 C 1118.347656 530.324219 1118.289062 530.753906 1118.195312 531.160156 L 1117.964844 532.382812 L 1117.417969 534.8125 C 1117.023438 536.414062 1116.605469 538.019531 1116.09375 539.613281 C 1115.605469 541.191406 1115.058594 542.761719 1114.371094 544.308594 C 1114.453125 542.621094 1114.683594 540.972656 1114.964844 539.332031 C 1115.230469 537.695312 1115.59375 536.078125 1115.964844 534.460938 L 1116.59375 532.042969 L 1116.929688 530.859375 C 1117.046875 530.464844 1117.140625 530.066406 1117.347656 529.589844 C 1117.730469 528.707031 1118.488281 528.011719 1119.335938 527.671875 C 1120.199219 527.324219 1121.164062 527.335938 1121.929688 527.683594 "/>
<path style=" stroke:none;fill-rule:nonzero;fill:rgb(80.389404%,41.958618%,35.688782%);fill-opacity:1;" d="M 1101.71875 522.835938 C 1100.019531 522.746094 1098.601562 523.824219 1098.230469 525.164062 C 1098.148438 525.464844 1098.089844 525.894531 1097.996094 526.300781 L 1097.753906 527.523438 L 1097.21875 529.953125 C 1096.824219 531.566406 1096.394531 533.171875 1095.894531 534.753906 C 1095.40625 536.34375 1094.859375 537.914062 1094.171875 539.449219 C 1094.253906 537.761719 1094.484375 536.113281 1094.765625 534.472656 C 1095.03125 532.835938 1095.382812 531.21875 1095.765625 529.601562 L 1096.382812 527.195312 L 1096.730469 526 C 1096.847656 525.605469 1096.941406 525.207031 1097.148438 524.742188 C 1097.53125 523.847656 1098.277344 523.164062 1099.136719 522.8125 C 1099.996094 522.476562 1100.953125 522.488281 1101.71875 522.835938 "/>
<path style=" stroke:none;fill-rule:nonzero;fill:rgb(80.389404%,41.958618%,35.688782%);fill-opacity:1;" d="M 1115.617188 524.289062 C 1113.742188 524.175781 1112.242188 525.511719 1112.035156 527.011719 C 1111.707031 528.789062 1111.3125 530.566406 1110.882812 532.335938 C 1110.453125 534.101562 1110 535.855469 1109.441406 537.589844 C 1108.917969 539.332031 1108.335938 541.066406 1107.613281 542.761719 C 1107.742188 540.925781 1108.023438 539.125 1108.335938 537.320312 C 1108.636719 535.53125 1109.035156 533.765625 1109.441406 531.984375 C 1109.859375 530.21875 1110.324219 528.464844 1110.835938 526.71875 C 1111.136719 525.683594 1111.871094 524.8125 1112.789062 524.371094 C 1113.695312 523.917969 1114.777344 523.894531 1115.617188 524.289062 "/>
<path style=" stroke:none;fill-rule:nonzero;fill:rgb(80.389404%,41.958618%,35.688782%);fill-opacity:1;" d="M 1108.882812 522.675781 C 1107.011719 522.558594 1105.511719 523.882812 1105.300781 525.382812 C 1104.964844 527.171875 1104.578125 528.953125 1104.160156 530.71875 C 1103.71875 532.484375 1103.253906 534.242188 1102.71875 535.972656 C 1102.183594 537.71875 1101.601562 539.449219 1100.882812 541.144531 C 1101.007812 539.308594 1101.277344 537.507812 1101.601562 535.707031 C 1101.90625 533.914062 1102.300781 532.136719 1102.707031 530.371094 C 1103.125 528.601562 1103.589844 526.847656 1104.101562 525.09375 C 1104.40625 524.082031 1105.136719 523.199219 1106.054688 522.757812 C 1106.964844 522.3125 1108.046875 522.28125 1108.882812 522.675781 "/>
<path style=" stroke:none;fill-rule:nonzero;fill:rgb(87.059021%,86.669922%,87.059021%);fill-opacity:1;" d="M 1088.984375 563.882812 L 1086.460938 574.484375 L 1110.207031 580.148438 L 1112.742188 569.535156 L 1088.984375 563.882812 "/>
<path style=" stroke:none;fill-rule:nonzero;fill:rgb(20.779419%,18.03894%,17.248535%);fill-opacity:1;" d="M 1085.589844 572.007812 L 1058.761719 665.566406 L 1014.445312 684.839844 L 1014.445312 731.199219 C 1031.25 721.957031 1079.878906 690.59375 1079.878906 690.59375 L 1081.414062 689.535156 C 1084.390625 687.464844 1086.636719 684.328125 1087.53125 680.527344 L 1112.082031 578.296875 L 1085.589844 572.007812 "/>
<path style=" stroke:none;fill-rule:nonzero;fill:rgb(29.40979%,8.628845%,8.239746%);fill-opacity:1;" d="M 951.742188 921.320312 C 948.695312 921.320312 946.21875 918.84375 946.21875 915.808594 L 946.21875 903.707031 C 946.21875 901.929688 944.777344 900.488281 942.996094 900.488281 L 935.277344 900.488281 C 933.496094 900.488281 932.054688 901.929688 932.054688 903.707031 L 932.054688 915.808594 C 932.054688 918.84375 929.589844 921.320312 926.542969 921.320312 C 923.496094 921.320312 921.019531 918.84375 921.019531 915.808594 L 921.019531 903.707031 C 921.019531 895.847656 927.414062 889.46875 935.277344 889.46875 L 942.996094 889.46875 C 950.859375 889.46875 957.253906 895.847656 957.253906 903.707031 L 957.253906 915.808594 C 957.253906 918.84375 954.789062 921.320312 951.742188 921.320312 "/>
<path style=" stroke:none;fill-rule:nonzero;fill:rgb(87.059021%,86.669922%,87.059021%);fill-opacity:1;" d="M 919.472656 869.460938 L 919.472656 880.363281 L 943.894531 880.363281 L 943.894531 869.460938 L 919.472656 869.460938 "/>
<path style=" stroke:none;fill-rule:nonzero;fill:rgb(16.079712%,13.328552%,12.159729%);fill-opacity:1;" d="M 944.394531 871.703125 L 944.394531 686.90625 C 940.324219 688.988281 918.972656 697.671875 918.972656 715.027344 L 918.972656 871.703125 L 944.394531 871.703125 "/>
<path style=" stroke:none;fill-rule:nonzero;fill:rgb(96.859741%,57.649231%,52.938843%);fill-opacity:1;" d="M 942.402344 880.363281 C 942.402344 880.363281 945.777344 887.957031 943.871094 893.964844 C 942.753906 897.476562 942.882812 900.207031 940.078125 903.800781 C 938.007812 906.472656 934.402344 906.730469 932.054688 903.964844 C 932.054688 903.964844 931.878906 903.324219 932.496094 902.089844 C 933.765625 899.59375 938.53125 893.09375 934.332031 890.082031 C 931.890625 888.328125 924.695312 892.734375 922.703125 897 C 921.53125 899.523438 921.136719 901.859375 921.136719 903.917969 C 921.136719 906.3125 921.019531 908.125 921.019531 908.125 C 921.019531 908.125 912.949219 905.648438 914.65625 900.476562 C 916.878906 893.734375 918.355469 890.746094 919.890625 887.074219 C 921.425781 883.398438 921.320312 880.363281 921.320312 880.363281 L 942.402344 880.363281 "/>
<path style=" stroke:none;fill-rule:nonzero;fill:rgb(42.749023%,12.939453%,12.939453%);fill-opacity:1;" d="M 960.089844 1001.085938 C 960.089844 1006.132812 955.988281 1010.234375 950.929688 1010.234375 L 927.34375 1010.234375 C 922.296875 1010.234375 918.191406 1006.132812 918.191406 1001.085938 L 918.191406 924.15625 C 918.191406 919.097656 922.296875 914.996094 927.34375 914.996094 L 950.929688 914.996094 C 955.988281 914.996094 960.089844 919.097656 960.089844 924.15625 L 960.089844 1001.085938 "/>
<path style=" stroke:none;fill-rule:nonzero;fill:rgb(92.158508%,50.588989%,46.669006%);fill-opacity:1;" d="M 996.445312 678.945312 C 988.1875 684.953125 976.988281 684.953125 968.71875 678.945312 C 968.71875 674.96875 968.71875 670.992188 968.71875 667.007812 C 977.964844 667.007812 987.210938 667.007812 996.445312 667.007812 C 996.445312 670.992188 996.445312 674.96875 996.445312 678.945312 "/>
<path style=" stroke:none;fill-rule:nonzero;fill:rgb(96.859741%,57.649231%,52.938843%);fill-opacity:1;" d="M 946.460938 616.984375 C 947.847656 622.773438 945.996094 628.191406 942.324219 629.0625 C 938.648438 629.945312 934.542969 625.960938 933.160156 620.171875 C 931.777344 614.371094 933.625 608.964844 937.300781 608.082031 C 940.972656 607.210938 945.078125 611.195312 946.460938 616.984375 "/>
<path style=" stroke:none;fill-rule:nonzero;fill:rgb(96.859741%,57.649231%,52.938843%);fill-opacity:1;" d="M 1018.699219 616.984375 C 1017.316406 622.773438 1019.175781 628.191406 1022.851562 629.0625 C 1026.527344 629.945312 1030.621094 625.960938 1032.015625 620.171875 C 1033.398438 614.371094 1031.539062 608.964844 1027.863281 608.082031 C 1024.191406 607.210938 1020.085938 611.195312 1018.699219 616.984375 "/>
<path style=" stroke:none;fill-rule:nonzero;fill:rgb(96.859741%,57.649231%,52.938843%);fill-opacity:1;" d="M 1023.816406 629.308594 C 1023.816406 648.09375 1006.675781 670.550781 982.546875 670.550781 C 961.035156 670.550781 941.300781 647.789062 941.300781 629.308594 L 941.300781 603.175781 C 941.300781 580.402344 959.765625 561.929688 982.546875 561.929688 C 1005.339844 561.929688 1023.816406 580.402344 1023.816406 603.175781 L 1023.816406 629.308594 "/>
<path style=" stroke:none;fill-rule:nonzero;fill:rgb(100%,100%,100%);fill-opacity:1;" d="M 1007.210938 619.507812 C 1007.210938 622.332031 1004.921875 624.609375 1002.105469 624.609375 C 999.292969 624.609375 997 622.332031 997 619.507812 C 997 616.695312 999.292969 614.40625 1002.105469 614.40625 C 1004.921875 614.40625 1007.210938 616.695312 1007.210938 619.507812 "/>
<path style=" stroke:none;fill-rule:nonzero;fill:rgb(0%,67.83905%,93.728638%);fill-opacity:1;" d="M 1004.933594 619.507812 C 1004.933594 621.078125 1003.664062 622.332031 1002.105469 622.332031 C 1000.546875 622.332031 999.28125 621.078125 999.28125 619.507812 C 999.28125 617.949219 1000.546875 616.683594 1002.105469 616.683594 C 1003.664062 616.683594 1004.933594 617.949219 1004.933594 619.507812 "/>
<path style=" stroke:none;fill-rule:nonzero;fill:rgb(100%,100%,100%);fill-opacity:1;" d="M 1002.234375 618.777344 C 1002.234375 619.402344 1001.722656 619.902344 1001.105469 619.902344 C 1000.480469 619.902344 999.96875 619.402344 999.96875 618.777344 C 999.96875 618.148438 1000.480469 617.648438 1001.105469 617.648438 C 1001.722656 617.648438 1002.234375 618.148438 1002.234375 618.777344 "/>
<path style=" stroke:none;fill-rule:nonzero;fill:rgb(63.919067%,25.878906%,11.759949%);fill-opacity:1;" d="M 997 619.507812 C 996.734375 618.171875 997.175781 616.660156 998.152344 615.566406 C 999.128906 614.453125 1000.59375 613.800781 1002.117188 613.800781 C 1003.582031 613.800781 1005.09375 614.453125 1006.058594 615.554688 C 1007.039062 616.648438 1007.480469 618.171875 1007.210938 619.507812 C 1006.96875 618.171875 1006.304688 617.03125 1005.375 616.242188 C 1004.445312 615.449219 1003.304688 615.007812 1002.09375 615.019531 C 1000.945312 614.996094 999.746094 615.449219 998.828125 616.242188 C 997.910156 617.03125 997.257812 618.171875 997 619.507812 "/>
<path style=" stroke:none;fill-rule:nonzero;fill:rgb(100%,100%,100%);fill-opacity:1;" d="M 968.011719 619.507812 C 968.011719 622.332031 965.730469 624.609375 962.917969 624.609375 C 960.089844 624.609375 957.800781 622.332031 957.800781 619.507812 C 957.800781 616.695312 960.089844 614.40625 962.917969 614.40625 C 965.730469 614.40625 968.011719 616.695312 968.011719 619.507812 "/>
<path style=" stroke:none;fill-rule:nonzero;fill:rgb(0%,67.83905%,93.728638%);fill-opacity:1;" d="M 965.730469 619.507812 C 965.730469 621.078125 964.464844 622.332031 962.917969 622.332031 C 961.347656 622.332031 960.078125 621.078125 960.078125 619.507812 C 960.078125 617.949219 961.347656 616.683594 962.917969 616.683594 C 964.464844 616.683594 965.730469 617.949219 965.730469 619.507812 "/>
<path style=" stroke:none;fill-rule:nonzero;fill:rgb(100%,100%,100%);fill-opacity:1;" d="M 963.035156 618.777344 C 963.035156 619.402344 962.535156 619.902344 961.90625 619.902344 C 961.277344 619.902344 960.777344 619.402344 960.777344 618.777344 C 960.777344 618.148438 961.277344 617.648438 961.90625 617.648438 C 962.535156 617.648438 963.035156 618.148438 963.035156 618.777344 "/>
<path style=" stroke:none;fill-rule:nonzero;fill:rgb(63.919067%,25.878906%,11.759949%);fill-opacity:1;" d="M 957.800781 619.507812 C 957.535156 618.171875 957.988281 616.660156 958.964844 615.566406 C 959.929688 614.453125 961.394531 613.800781 962.929688 613.800781 C 964.394531 613.800781 965.90625 614.453125 966.859375 615.554688 C 967.835938 616.648438 968.277344 618.171875 968.011719 619.507812 C 967.765625 618.171875 967.105469 617.03125 966.171875 616.242188 C 965.253906 615.449219 964.105469 615.007812 962.894531 615.019531 C 961.742188 614.996094 960.558594 615.449219 959.636719 616.242188 C 958.707031 617.03125 958.058594 618.171875 957.800781 619.507812 "/>
<path style=" stroke:none;fill-rule:nonzero;fill:rgb(46.669006%,5.879211%,9.799194%);fill-opacity:1;" d="M 968.152344 644.78125 C 970.394531 651.488281 976.222656 656.265625 983.082031 656.265625 C 989.941406 656.265625 995.769531 651.488281 998.011719 644.78125 L 968.152344 644.78125 "/>
<path style=" stroke:none;fill-rule:nonzero;fill:rgb(94.509888%,25.878906%,45.098877%);fill-opacity:1;" d="M 983.09375 656.265625 C 986.339844 656.265625 989.339844 655.171875 991.839844 653.335938 C 989.339844 652.625 986.328125 652.207031 983.09375 652.207031 C 979.847656 652.21875 976.835938 652.636719 974.324219 653.371094 C 976.847656 655.195312 979.847656 656.277344 983.09375 656.265625 "/>
<path style=" stroke:none;fill-rule:nonzero;fill:rgb(100%,100%,100%);fill-opacity:1;" d="M 968.289062 644.78125 C 970.164062 648.953125 977.5 648.953125 983.128906 648.953125 C 988.757812 648.953125 996.628906 647.90625 997.957031 644.78125 L 968.289062 644.78125 "/>
<path style=" stroke:none;fill-rule:nonzero;fill:rgb(79.998779%,44.309998%,42.749023%);fill-opacity:1;" d="M 985.535156 636.539062 L 979.570312 636.539062 L 982.640625 623.738281 L 985.535156 611.671875 L 985.535156 636.539062 "/>
<path style=" stroke:none;fill-rule:nonzero;fill:rgb(63.919067%,25.878906%,11.759949%);fill-opacity:1;" d="M 1012.597656 610.464844 C 1011.28125 609.71875 1009.898438 609.128906 1008.492188 608.765625 C 1007.09375 608.382812 1005.6875 608.195312 1004.316406 608.207031 C 1002.933594 608.230469 1001.710938 608.824219 1000.398438 608.871094 C 999.734375 608.929688 999.046875 608.988281 998.304688 609.011719 C 997.570312 609.070312 996.78125 609.105469 995.863281 609.058594 L 995.675781 608.730469 C 996.445312 607.070312 997.875 605.964844 999.488281 605.3125 C 1001.128906 604.605469 1002.980469 604.964844 1004.617188 605.28125 C 1006.292969 605.605469 1007.851562 606.246094 1009.234375 607.082031 C 1010.59375 607.964844 1011.851562 608.953125 1012.839844 610.195312 L 1012.597656 610.464844 "/>
<path style=" stroke:none;fill-rule:nonzero;fill:rgb(63.919067%,25.878906%,11.759949%);fill-opacity:1;" d="M 952.242188 610.195312 C 953.242188 608.953125 954.5 607.964844 955.871094 607.082031 C 957.253906 606.246094 958.8125 605.605469 960.476562 605.28125 C 962.113281 604.964844 963.976562 604.605469 965.605469 605.3125 C 967.21875 605.964844 968.652344 607.070312 969.417969 608.730469 L 969.230469 609.058594 C 968.3125 609.105469 967.535156 609.070312 966.789062 609.011719 C 966.046875 608.988281 965.359375 608.929688 964.695312 608.871094 C 963.382812 608.824219 962.160156 608.230469 960.765625 608.207031 C 959.40625 608.195312 958 608.382812 956.601562 608.765625 C 955.195312 609.128906 953.8125 609.71875 952.5 610.464844 L 952.242188 610.195312 "/>
<path style=" stroke:none;fill-rule:nonzero;fill:rgb(63.919067%,25.878906%,11.759949%);fill-opacity:1;" d="M 1012.210938 571.253906 C 1015.632812 570.5 1021.109375 571.5 1021.109375 571.5 C 1007.628906 559.046875 994.070312 562.40625 994.070312 562.40625 C 997.839844 558.140625 1010.210938 558.605469 1010.210938 558.605469 C 992.234375 551.351562 978.335938 561.222656 978.335938 561.222656 C 978.757812 557.582031 986.417969 554.421875 986.417969 554.421875 C 966.335938 555.769531 954.464844 569.09375 950.871094 573.800781 C 949.507812 572.101562 949.136719 570.136719 949.136719 570.136719 C 948.183594 571.730469 948.289062 573.578125 948.53125 574.835938 C 947.289062 574.777344 945.429688 574.960938 943.578125 576.21875 C 943.578125 576.21875 944.835938 576.3125 946.195312 576.625 C 943.171875 578.949219 939.195312 584.691406 937.878906 598.933594 L 937.890625 598.921875 C 937.078125 604.234375 937.277344 608.082031 937.277344 608.082031 L 937.3125 608.105469 L 937.390625 608.082031 C 938.589844 607.800781 939.8125 608.058594 940.996094 608.683594 L 940.996094 623.191406 L 941.066406 623.214844 C 941.066406 623.214844 947.40625 624.101562 947.40625 618.808594 C 947.40625 618.808594 945.042969 597.910156 954.171875 587.914062 C 958.753906 582.925781 970.800781 580.425781 982.859375 580.425781 C 994.910156 580.425781 1006.96875 582.925781 1011.539062 587.914062 C 1020.667969 597.910156 1018.304688 618.808594 1018.304688 618.808594 C 1018.304688 624.101562 1024.65625 623.214844 1024.65625 623.214844 L 1025.167969 622.984375 L 1025.167969 608.3125 C 1026.097656 607.976562 1027.039062 607.859375 1027.957031 608.082031 L 1027.992188 608.09375 L 1028.015625 608.082031 C 1028.015625 608.082031 1030.828125 580.972656 1012.210938 571.253906 "/>
<path style=" stroke:none;fill-rule:nonzero;fill:rgb(100%,100%,100%);fill-opacity:1;" d="M 1014.816406 685.082031 C 1009.945312 683.28125 996.445312 678.945312 996.445312 678.945312 L 983.152344 683.457031 L 968.71875 678.945312 C 968.71875 678.945312 955.21875 683.28125 950.359375 685.082031 C 945.542969 686.847656 937.414062 690.652344 937.414062 700.949219 C 937.414062 700.949219 937.414062 817.625 937.414062 839.492188 C 937.414062 842.644531 938.113281 846.78125 942.578125 846.78125 C 950.136719 846.78125 1015.316406 846.78125 1022.597656 846.78125 C 1027.050781 846.78125 1027.761719 842.644531 1027.761719 839.492188 C 1027.761719 817.625 1027.761719 700.949219 1027.761719 700.949219 C 1027.761719 690.652344 1019.621094 686.847656 1014.816406 685.082031 "/>
<path style=" stroke:none;fill-rule:nonzero;fill:rgb(25.878906%,66.268921%,89.408875%);fill-opacity:1;" d="M 978.824219 696.066406 L 974.789062 689.753906 L 978.824219 683.457031 L 986.894531 683.457031 L 990.929688 689.753906 L 986.894531 696.066406 L 978.824219 696.066406 "/>
<path style=" stroke:none;fill-rule:nonzero;fill:rgb(25.878906%,66.268921%,89.408875%);fill-opacity:1;" d="M 986.871094 696.066406 L 978.859375 696.066406 L 970.289062 821.230469 L 982.859375 834.726562 L 995.433594 821.230469 L 986.871094 696.066406 "/>
<path style=" stroke:none;fill-rule:nonzero;fill:rgb(58.81958%,58.039856%,58.039856%);fill-opacity:1;" d="M 987.175781 699.578125 L 987.105469 699.578125 L 986.871094 696.066406 L 987.175781 699.578125 M 978.617188 699.578125 L 978.546875 699.578125 L 978.859375 696.066406 L 978.617188 699.578125 "/>
<path style=" stroke:none;fill-rule:nonzero;fill:rgb(14.898682%,37.649536%,52.159119%);fill-opacity:1;" d="M 987.105469 699.578125 L 978.617188 699.578125 L 978.859375 696.066406 L 986.871094 696.066406 L 987.105469 699.578125 "/>
<path style=" stroke:none;fill-rule:nonzero;fill:rgb(87.059021%,86.669922%,87.059021%);fill-opacity:1;" d="M 996.523438 676.703125 L 1007.921875 682.675781 L 990.476562 694.523438 L 983.164062 683.457031 L 996.523438 676.703125 "/>
<path style=" stroke:none;fill-rule:nonzero;fill:rgb(87.059021%,86.669922%,87.059021%);fill-opacity:1;" d="M 968.800781 676.703125 L 958.078125 682.457031 L 975.835938 694.523438 L 983.164062 683.457031 L 968.800781 676.703125 "/>
<path style=" stroke:none;fill-rule:nonzero;fill:rgb(20.779419%,18.03894%,17.248535%);fill-opacity:1;" d="M 1017.992188 685.375 C 1011.328125 682.269531 999.851562 678.316406 996.511719 676.703125 C 996.511719 676.703125 996.511719 808.78125 996.511719 844.910156 C 996.511719 848.304688 999.292969 855.988281 1005.09375 855.988281 C 1010.585938 855.988281 1029.785156 855.988281 1029.785156 855.988281 L 1029.785156 702.878906 C 1029.785156 692.570312 1022.632812 687.546875 1017.992188 685.375 "/>
<path style=" stroke:none;fill-rule:nonzero;fill:rgb(34.899902%,29.798889%,29.798889%);fill-opacity:1;" d="M 996.511719 675.226562 L 1016.222656 684.664062 L 1010.328125 700.449219 L 1003.410156 698.695312 L 1008.480469 705.261719 L 996.511719 754.097656 L 996.511719 675.226562 "/>
<path style=" stroke:none;fill-rule:nonzero;fill:rgb(20.779419%,18.03894%,17.248535%);fill-opacity:1;" d="M 947.125 685.375 C 953.777344 682.269531 965.253906 678.316406 968.59375 676.703125 C 968.59375 676.703125 968.59375 808.78125 968.59375 844.910156 C 968.59375 848.304688 965.824219 855.988281 960.023438 855.988281 C 954.53125 855.988281 935.332031 855.988281 935.332031 855.988281 L 935.332031 702.878906 C 935.332031 692.570312 942.484375 687.546875 947.125 685.375 "/>
<path style=" stroke:none;fill-rule:nonzero;fill:rgb(34.899902%,29.798889%,29.798889%);fill-opacity:1;" d="M 968.59375 675.226562 L 948.894531 684.664062 L 954.789062 700.449219 L 961.707031 698.695312 L 956.625 705.261719 L 968.59375 754.097656 L 968.59375 675.226562 "/>
<path style=" stroke:none;fill-rule:nonzero;fill:rgb(10.198975%,18.03894%,29.798889%);fill-opacity:1;" d="M 510.523438 552.886719 C 502.871094 552.875 496.949219 547.867188 494.265625 539.136719 C 489.636719 524.105469 486.113281 497.136719 486.078125 496.867188 L 485.925781 495.660156 L 516.058594 490.054688 L 516.441406 491.042969 C 516.511719 491.230469 523.695312 509.875 528.011719 529.660156 C 531.546875 545.832031 523.253906 550.203125 514.695312 552.351562 C 513.3125 552.710938 511.90625 552.886719 510.523438 552.886719 "/>
<path style=" stroke:none;fill-rule:nonzero;fill:rgb(87.059021%,86.669922%,87.059021%);fill-opacity:1;" d="M 516.929688 489.519531 C 516.125 489.824219 515.058594 489.789062 514.253906 490.054688 C 515.871094 494.390625 523.058594 512.957031 526.765625 529.941406 C 529.847656 544.0625 523.917969 548.714844 514.382812 551.121094 C 513.125 551.433594 511.824219 551.597656 510.523438 551.597656 C 504.472656 551.597656 498.335938 547.980469 495.484375 538.75 C 491.277344 525.058594 488.160156 499.832031 487.589844 495.613281 C 486.742188 495.648438 485.414062 496.007812 484.542969 496.03125 C 485.03125 499.65625 488.648438 525.242188 493.042969 539.507812 C 495.871094 548.691406 502.394531 554.164062 510.523438 554.164062 C 512.011719 554.164062 513.523438 553.980469 515.011719 553.609375 C 523.640625 551.433594 533.058594 546.726562 529.265625 529.394531 C 525.558594 512.386719 518.582031 493.972656 516.929688 489.519531 "/>
<path style=" stroke:none;fill-rule:nonzero;fill:rgb(87.059021%,86.669922%,87.059021%);fill-opacity:1;" d="M 526.789062 525.765625 C 526.789062 525.765625 516.488281 525.628906 508.683594 527.488281 C 502.777344 528.882812 493.289062 534.300781 493.289062 534.300781 C 493.289062 534.300781 493.289062 534.300781 494.648438 538.738281 C 498.289062 550.574219 507.089844 553.65625 514.566406 551.78125 C 524.628906 549.25 530.882812 544.332031 527.628906 529.441406 C 527.1875 527.394531 527.289062 527.753906 526.789062 525.765625 "/>
<path style=" stroke:none;fill-rule:nonzero;fill:rgb(87.059021%,86.669922%,87.059021%);fill-opacity:1;" d="M 499.671875 522.359375 C 498.847656 522.5 498.277344 523.289062 498.414062 524.117188 C 498.554688 524.941406 499.347656 525.511719 500.171875 525.371094 L 516.464844 522.652344 C 517.289062 522.511719 517.847656 521.722656 517.707031 520.894531 C 517.570312 520.070312 516.789062 519.5 515.953125 519.640625 L 499.671875 522.359375 "/>
<path style=" stroke:none;fill-rule:nonzero;fill:rgb(87.059021%,86.669922%,87.059021%);fill-opacity:1;" d="M 498.507812 515.445312 C 497.683594 515.582031 497.125 516.375 497.265625 517.199219 C 497.390625 518.023438 498.183594 518.582031 499.019531 518.453125 L 515.300781 515.734375 C 516.125 515.59375 516.683594 514.804688 516.546875 513.980469 C 516.40625 513.152344 515.625 512.597656 514.800781 512.722656 L 498.507812 515.445312 "/>
<path style=" stroke:none;fill-rule:nonzero;fill:rgb(87.059021%,86.669922%,87.059021%);fill-opacity:1;" d="M 497.347656 508.527344 C 496.519531 508.667969 495.960938 509.457031 496.101562 510.28125 C 496.242188 511.109375 497.019531 511.667969 497.859375 511.539062 L 514.136719 508.816406 C 514.976562 508.679688 515.523438 507.898438 515.382812 507.0625 C 515.253906 506.238281 514.464844 505.679688 513.636719 505.820312 L 497.347656 508.527344 "/>
<path style=" stroke:none;fill-rule:nonzero;fill:rgb(87.059021%,86.669922%,87.059021%);fill-opacity:1;" d="M 496.195312 501.609375 C 495.371094 501.75 494.800781 502.539062 494.9375 503.367188 C 495.078125 504.191406 495.871094 504.761719 496.695312 504.621094 L 512.976562 501.902344 C 513.800781 501.761719 514.371094 500.972656 514.230469 500.144531 C 514.089844 499.320312 513.300781 498.761719 512.476562 498.902344 L 496.195312 501.609375 "/>
<path style=" stroke:none;fill-rule:nonzero;fill:rgb(10.198975%,18.03894%,29.798889%);fill-opacity:1;" d="M 605.238281 552.886719 C 612.878906 552.875 618.796875 547.867188 621.484375 539.136719 C 626.113281 524.105469 629.636719 497.136719 629.671875 496.867188 L 629.832031 495.660156 L 599.703125 490.054688 L 599.308594 491.042969 C 599.238281 491.230469 592.0625 509.875 587.738281 529.660156 C 584.214844 545.832031 592.492188 550.203125 601.0625 552.351562 C 602.449219 552.710938 603.84375 552.886719 605.238281 552.886719 "/>
<path style=" stroke:none;fill-rule:nonzero;fill:rgb(87.059021%,86.669922%,87.059021%);fill-opacity:1;" d="M 598.832031 489.519531 C 599.621094 489.824219 600.691406 489.789062 601.503906 490.054688 C 599.890625 494.390625 592.703125 512.957031 588.992188 529.941406 C 585.898438 544.0625 591.84375 548.714844 601.378906 551.121094 C 602.632812 551.433594 603.9375 551.597656 605.238281 551.597656 C 611.273438 551.597656 617.425781 547.980469 620.261719 538.75 C 624.472656 525.058594 627.589844 499.832031 628.160156 495.613281 C 629.019531 495.648438 630.34375 496.007812 631.207031 496.03125 C 630.730469 499.65625 627.113281 525.242188 622.714844 539.507812 C 619.890625 548.691406 613.355469 554.164062 605.238281 554.164062 C 603.738281 554.164062 602.238281 553.980469 600.75 553.609375 C 592.121094 551.433594 582.703125 546.726562 586.492188 529.394531 C 590.203125 512.386719 597.179688 493.972656 598.832031 489.519531 "/>
<path style=" stroke:none;fill-rule:nonzero;fill:rgb(87.059021%,86.669922%,87.059021%);fill-opacity:1;" d="M 588.96875 525.765625 C 588.96875 525.765625 599.261719 525.628906 607.0625 527.488281 C 612.984375 528.882812 622.472656 534.300781 622.472656 534.300781 C 622.472656 534.300781 622.472656 534.300781 621.101562 538.738281 C 617.460938 550.574219 608.65625 553.65625 601.179688 551.78125 C 591.132812 549.25 584.863281 544.332031 588.121094 529.441406 C 588.574219 527.394531 588.46875 527.753906 588.96875 525.765625 "/>
<path style=" stroke:none;fill-rule:nonzero;fill:rgb(87.059021%,86.669922%,87.059021%);fill-opacity:1;" d="M 616.089844 522.359375 C 616.914062 522.5 617.472656 523.289062 617.332031 524.117188 C 617.191406 524.941406 616.414062 525.511719 615.585938 525.371094 L 599.296875 522.652344 C 598.46875 522.511719 597.910156 521.722656 598.039062 520.894531 C 598.179688 520.070312 598.96875 519.5 599.796875 519.640625 L 616.089844 522.359375 "/>
<path style=" stroke:none;fill-rule:nonzero;fill:rgb(87.059021%,86.669922%,87.059021%);fill-opacity:1;" d="M 617.238281 515.445312 C 618.078125 515.582031 618.632812 516.375 618.496094 517.199219 C 618.355469 518.023438 617.578125 518.582031 616.738281 518.453125 L 600.457031 515.734375 C 599.621094 515.59375 599.074219 514.804688 599.203125 513.980469 C 599.34375 513.152344 600.132812 512.597656 600.957031 512.722656 L 617.238281 515.445312 "/>
<path style=" stroke:none;fill-rule:nonzero;fill:rgb(87.059021%,86.669922%,87.059021%);fill-opacity:1;" d="M 618.402344 508.527344 C 619.226562 508.667969 619.785156 509.457031 619.644531 510.28125 C 619.519531 511.109375 618.726562 511.667969 617.902344 511.539062 L 601.621094 508.816406 C 600.785156 508.679688 600.226562 507.898438 600.367188 507.0625 C 600.503906 506.238281 601.285156 505.679688 602.121094 505.820312 L 618.402344 508.527344 "/>
<path style=" stroke:none;fill-rule:nonzero;fill:rgb(87.059021%,86.669922%,87.059021%);fill-opacity:1;" d="M 619.566406 501.609375 C 620.390625 501.75 620.949219 502.539062 620.820312 503.367188 C 620.679688 504.191406 619.890625 504.761719 619.066406 504.621094 L 602.773438 501.902344 C 601.949219 501.761719 601.390625 500.972656 601.515625 500.144531 C 601.667969 499.320312 602.449219 498.761719 603.285156 498.902344 L 619.566406 501.609375 "/>
<path style=" stroke:none;fill-rule:nonzero;fill:rgb(88.238525%,14.509583%,36.859131%);fill-opacity:1;" d="M 592.945312 194.683594 C 587.851562 192.8125 573.722656 188.28125 573.722656 188.28125 L 559.828125 192.988281 L 544.722656 188.28125 C 544.722656 188.28125 530.59375 192.8125 525.5 194.683594 C 520.476562 196.535156 511.964844 200.507812 511.964844 211.296875 C 511.964844 211.296875 511.964844 304.121094 511.964844 326.996094 C 511.964844 330.296875 512.695312 334.621094 517.371094 334.621094 C 525.277344 334.621094 593.480469 334.621094 601.085938 334.621094 C 605.75 334.621094 606.484375 330.296875 606.484375 326.996094 C 606.484375 304.121094 606.484375 211.296875 606.484375 211.296875 C 606.484375 200.507812 597.980469 196.535156 592.945312 194.683594 "/>
<path style=" stroke:none;fill-rule:nonzero;fill:rgb(83.918762%,83.529663%,83.529663%);fill-opacity:1;" d="M 592.945312 194.683594 C 591.644531 194.207031 589.75 193.558594 587.65625 192.847656 C 589.75 193.546875 591.644531 194.207031 592.945312 194.683594 "/>
<path style=" stroke:none;fill-rule:nonzero;fill:rgb(73.728943%,11.759949%,29.798889%);fill-opacity:1;" d="M 601.085938 334.621094 C 593.480469 334.621094 525.277344 334.621094 517.371094 334.621094 C 512.695312 334.621094 511.964844 330.296875 511.964844 326.996094 L 511.964844 322.089844 C 518.789062 325.101562 526.230469 326.789062 533.90625 326.789062 C 538.246094 326.789062 542.441406 326.265625 546.476562 325.324219 C 574.828125 323.089844 597.890625 298.808594 597.832031 269.933594 C 597.773438 244.089844 595.714844 217.539062 587.65625 192.847656 C 589.75 193.558594 591.644531 194.207031 592.945312 194.683594 C 597.980469 196.535156 606.484375 200.507812 606.484375 211.296875 C 606.484375 211.296875 606.484375 304.121094 606.484375 326.996094 C 606.484375 330.296875 605.75 334.621094 601.085938 334.621094 "/>
<path style=" stroke:none;fill-rule:nonzero;fill:rgb(92.158508%,50.588989%,46.669006%);fill-opacity:1;" d="M 573.792969 188.28125 C 565.140625 194.558594 553.433594 194.558594 544.78125 188.28125 C 544.78125 184.105469 544.78125 179.945312 544.78125 175.785156 C 554.457031 175.785156 564.117188 175.785156 573.792969 175.785156 C 573.792969 179.945312 573.792969 184.105469 573.792969 188.28125 "/>
<path style=" stroke:none;fill-rule:nonzero;fill:rgb(96.859741%,57.649231%,52.938843%);fill-opacity:1;" d="M 521.429688 124.066406 C 522.882812 130.132812 520.941406 135.796875 517.101562 136.714844 C 513.253906 137.632812 508.964844 133.457031 507.507812 127.390625 C 506.066406 121.335938 508 115.671875 511.847656 114.753906 C 515.683594 113.835938 519.988281 117.996094 521.429688 124.066406 "/>
<path style=" stroke:none;fill-rule:nonzero;fill:rgb(96.859741%,57.649231%,52.938843%);fill-opacity:1;" d="M 597.015625 124.066406 C 595.5625 130.132812 597.503906 135.796875 601.355469 136.714844 C 605.191406 137.632812 609.496094 133.457031 610.9375 127.390625 C 612.390625 121.335938 610.449219 115.671875 606.597656 114.753906 C 602.761719 113.835938 598.46875 117.996094 597.015625 124.066406 "/>
<path style=" stroke:none;fill-rule:nonzero;fill:rgb(96.859741%,57.649231%,52.938843%);fill-opacity:1;" d="M 602.367188 136.957031 C 602.367188 156.613281 584.433594 180.121094 559.1875 180.121094 C 536.675781 180.121094 516.023438 156.289062 516.023438 136.957031 L 516.023438 109.617188 C 516.023438 85.785156 535.359375 66.464844 559.1875 66.464844 C 583.039062 66.464844 602.367188 85.785156 602.367188 109.617188 L 602.367188 136.957031 "/>
<path style=" stroke:none;fill-rule:nonzero;fill:rgb(100%,100%,100%);fill-opacity:1;" d="M 585.039062 126.703125 C 585.039062 129.65625 582.644531 132.050781 579.703125 132.050781 C 576.746094 132.050781 574.351562 129.65625 574.351562 126.703125 C 574.351562 123.761719 576.746094 121.367188 579.703125 121.367188 C 582.644531 121.367188 585.039062 123.761719 585.039062 126.703125 "/>
<path style=" stroke:none;fill-rule:nonzero;fill:rgb(44.709778%,8.239746%,9.799194%);fill-opacity:1;" d="M 582.65625 126.703125 C 582.65625 128.34375 581.328125 129.65625 579.703125 129.65625 C 578.074219 129.65625 576.746094 128.34375 576.746094 126.703125 C 576.746094 125.078125 578.074219 123.75 579.703125 123.75 C 581.328125 123.75 582.65625 125.078125 582.65625 126.703125 "/>
<path style=" stroke:none;fill-rule:nonzero;fill:rgb(100%,100%,100%);fill-opacity:1;" d="M 579.839844 125.9375 C 579.839844 126.601562 579.304688 127.125 578.65625 127.125 C 577.992188 127.125 577.46875 126.601562 577.46875 125.9375 C 577.46875 125.285156 577.992188 124.75 578.65625 124.75 C 579.304688 124.75 579.839844 125.285156 579.839844 125.9375 "/>
<path style=" stroke:none;fill-rule:nonzero;fill:rgb(44.709778%,8.239746%,9.799194%);fill-opacity:1;" d="M 574.351562 126.703125 C 574.074219 125.308594 574.550781 123.71875 575.574219 122.578125 C 576.585938 121.414062 578.121094 120.730469 579.726562 120.730469 C 581.246094 120.730469 582.828125 121.414062 583.828125 122.578125 C 584.851562 123.71875 585.328125 125.308594 585.039062 126.703125 C 584.78125 125.308594 584.085938 124.125 583.132812 123.285156 C 582.15625 122.460938 580.957031 121.996094 579.679688 122.007812 C 578.480469 121.996094 577.234375 122.460938 576.269531 123.285156 C 575.304688 124.125 574.621094 125.308594 574.351562 126.703125 "/>
<path style=" stroke:none;fill-rule:nonzero;fill:rgb(100%,100%,100%);fill-opacity:1;" d="M 544.035156 126.703125 C 544.035156 129.65625 541.640625 132.050781 538.6875 132.050781 C 535.746094 132.050781 533.347656 129.65625 533.347656 126.703125 C 533.347656 123.761719 535.746094 121.367188 538.6875 121.367188 C 541.640625 121.367188 544.035156 123.761719 544.035156 126.703125 "/>
<path style=" stroke:none;fill-rule:nonzero;fill:rgb(44.709778%,8.239746%,9.799194%);fill-opacity:1;" d="M 541.640625 126.703125 C 541.640625 128.34375 540.324219 129.65625 538.6875 129.65625 C 537.058594 129.65625 535.734375 128.34375 535.734375 126.703125 C 535.734375 125.078125 537.058594 123.75 538.6875 123.75 C 540.324219 123.75 541.640625 125.078125 541.640625 126.703125 "/>
<path style=" stroke:none;fill-rule:nonzero;fill:rgb(100%,100%,100%);fill-opacity:1;" d="M 538.824219 125.9375 C 538.824219 126.601562 538.292969 127.125 537.640625 127.125 C 536.988281 127.125 536.453125 126.601562 536.453125 125.9375 C 536.453125 125.285156 536.988281 124.75 537.640625 124.75 C 538.292969 124.75 538.824219 125.285156 538.824219 125.9375 "/>
<path style=" stroke:none;fill-rule:nonzero;fill:rgb(44.709778%,8.239746%,9.799194%);fill-opacity:1;" d="M 533.347656 126.703125 C 533.070312 125.308594 533.535156 123.71875 534.558594 122.578125 C 535.570312 121.414062 537.105469 120.730469 538.710938 120.730469 C 540.234375 120.730469 541.828125 121.414062 542.816406 122.578125 C 543.851562 123.71875 544.316406 125.308594 544.035156 126.703125 C 543.769531 125.308594 543.082031 124.125 542.105469 123.285156 C 541.140625 122.460938 539.941406 121.996094 538.675781 122.007812 C 537.464844 121.996094 536.222656 122.460938 535.257812 123.285156 C 534.289062 124.125 533.605469 125.308594 533.347656 126.703125 "/>
<path style=" stroke:none;fill-rule:nonzero;fill:rgb(44.709778%,8.239746%,9.799194%);fill-opacity:1;" d="M 587.457031 74.195312 C 580.921875 69.3125 568.433594 65.453125 559.503906 65.453125 C 548.675781 65.453125 537.117188 69.847656 529.324219 75.429688 C 511.230469 88.402344 511.8125 114.753906 511.8125 114.753906 L 511.859375 114.777344 L 511.941406 114.753906 C 513.183594 114.453125 514.476562 114.71875 515.707031 115.394531 L 515.707031 130.5625 L 515.777344 130.585938 C 515.777344 130.585938 522.417969 131.503906 522.417969 125.984375 C 522.417969 125.984375 519.941406 104.105469 529.511719 93.65625 C 534.289062 88.425781 546.894531 85.808594 559.503906 85.808594 C 572.121094 85.808594 584.738281 88.425781 589.503906 93.65625 C 599.074219 104.105469 596.597656 125.984375 596.597656 125.984375 C 596.597656 131.503906 603.238281 130.585938 603.238281 130.585938 L 603.785156 130.34375 L 603.785156 114.988281 C 604.75 114.636719 605.738281 114.523438 606.691406 114.753906 L 606.738281 114.765625 L 606.75 114.753906 C 606.75 114.753906 606.820312 88.691406 587.457031 74.195312 "/>
<path style=" stroke:none;fill-rule:nonzero;fill:rgb(46.669006%,5.879211%,9.799194%);fill-opacity:1;" d="M 544.117188 153.152344 C 546.476562 160.160156 552.570312 165.171875 559.746094 165.171875 C 566.921875 165.171875 573.015625 160.160156 575.363281 153.152344 L 544.117188 153.152344 "/>
<path style=" stroke:none;fill-rule:nonzero;fill:rgb(94.509888%,25.878906%,45.098877%);fill-opacity:1;" d="M 559.746094 165.171875 C 563.140625 165.160156 566.292969 164.03125 568.910156 162.101562 C 566.28125 161.359375 563.140625 160.914062 559.746094 160.925781 C 556.363281 160.925781 553.210938 161.382812 550.59375 162.136719 C 553.222656 164.054688 556.363281 165.171875 559.746094 165.171875 "/>
<path style=" stroke:none;fill-rule:nonzero;fill:rgb(100%,100%,100%);fill-opacity:1;" d="M 544.28125 153.152344 C 546.234375 157.523438 553.898438 157.523438 559.792969 157.523438 C 565.675781 157.523438 573.921875 156.429688 575.304688 153.152344 L 544.28125 153.152344 "/>
<path style=" stroke:none;fill-rule:nonzero;fill:rgb(79.998779%,44.309998%,42.749023%);fill-opacity:1;" d="M 562.316406 144.523438 L 556.070312 144.523438 L 559.292969 131.132812 L 562.316406 118.507812 L 562.316406 144.523438 "/>
<path style=" stroke:none;fill-rule:nonzero;fill:rgb(44.709778%,8.239746%,9.799194%);fill-opacity:1;" d="M 590.632812 117.242188 C 589.25 116.464844 587.804688 115.835938 586.328125 115.464844 C 584.863281 115.066406 583.398438 114.871094 581.96875 114.882812 C 580.515625 114.90625 579.234375 115.523438 577.863281 115.578125 C 577.167969 115.636719 576.445312 115.695312 575.679688 115.730469 C 574.898438 115.777344 574.085938 115.824219 573.121094 115.765625 L 572.921875 115.441406 C 573.734375 113.695312 575.222656 112.535156 576.910156 111.847656 C 578.632812 111.117188 580.5625 111.488281 582.269531 111.824219 C 584.027344 112.164062 585.65625 112.824219 587.109375 113.707031 C 588.539062 114.625 589.851562 115.660156 590.886719 116.964844 L 590.632812 117.242188 "/>
<path style=" stroke:none;fill-rule:nonzero;fill:rgb(44.709778%,8.239746%,9.799194%);fill-opacity:1;" d="M 527.488281 116.964844 C 528.523438 115.660156 529.835938 114.625 531.265625 113.707031 C 532.722656 112.824219 534.347656 112.164062 536.09375 111.824219 C 537.8125 111.488281 539.746094 111.117188 541.464844 111.847656 C 543.152344 112.535156 544.640625 113.695312 545.453125 115.441406 L 545.257812 115.765625 C 544.292969 115.824219 543.464844 115.777344 542.699219 115.730469 C 541.917969 115.695312 541.199219 115.636719 540.511719 115.578125 C 539.140625 115.523438 537.847656 114.90625 536.394531 114.882812 C 534.976562 114.871094 533.5 115.066406 532.035156 115.464844 C 530.558594 115.835938 529.117188 116.464844 527.742188 117.242188 L 527.488281 116.964844 "/>
<path style=" stroke:none;fill-rule:nonzero;fill:rgb(18.429565%,32.548523%,53.329468%);fill-opacity:1;" d="M 646.03125 361.394531 C 633.390625 354.746094 603.132812 334.621094 603.132812 334.621094 L 515.3125 334.621094 C 515.3125 334.621094 481.207031 354.746094 468.578125 361.394531 C 461.085938 365.335938 443.863281 381.585938 453.378906 401.628906 L 482.996094 498.226562 L 518.789062 490.859375 L 496.4375 394.082031 C 496.4375 394.082031 513.929688 370.042969 546.199219 370.042969 C 553.046875 370.042969 564.28125 370.042969 570.550781 370.042969 C 603.050781 370.042969 624.566406 392.804688 624.566406 392.804688 L 596.855469 490.054688 L 633.613281 499.820312 L 661.230469 401.628906 C 670.730469 381.585938 653.507812 365.335938 646.03125 361.394531 "/>
<path style=" stroke:none;fill-rule:nonzero;fill:rgb(96.859741%,57.649231%,52.938843%);fill-opacity:1;" d="M 656.519531 278.464844 L 656.195312 277.988281 L 604.039062 202.636719 C 604.039062 202.636719 606.425781 204.832031 606.425781 219.898438 C 606.425781 228.105469 606.425781 252.738281 606.425781 252.738281 L 630.449219 282.953125 L 583.585938 313.953125 L 590.308594 330.285156 L 653.871094 294.144531 C 658.8125 290.507812 660.023438 283.566406 656.519531 278.464844 "/>
<path style=" stroke:none;fill-rule:nonzero;fill:rgb(88.238525%,14.509583%,36.859131%);fill-opacity:1;" d="M 606.425781 252.738281 L 616.042969 266.46875 L 632.578125 241.972656 C 632.578125 241.972656 616.589844 217.667969 611.972656 210.226562 C 608.449219 204.542969 600.261719 198.566406 600.261719 198.566406 C 604.449219 203.414062 606.414062 205.695312 606.414062 218.875 C 606.414062 227.96875 606.425781 252.738281 606.425781 252.738281 "/>
<path style=" stroke:none;fill-rule:nonzero;fill:rgb(96.859741%,57.649231%,52.938843%);fill-opacity:1;" d="M 461.925781 278.464844 L 462.261719 277.988281 L 514.40625 202.636719 C 514.40625 202.636719 512.023438 204.832031 512.023438 219.898438 C 512.023438 228.105469 512.023438 252.738281 512.023438 252.738281 L 487.996094 282.953125 L 535.757812 311.152344 L 528.140625 330.285156 L 464.574219 294.144531 C 459.632812 290.507812 458.425781 283.566406 461.925781 278.464844 "/>
<path style=" stroke:none;fill-rule:nonzero;fill:rgb(88.238525%,14.509583%,36.859131%);fill-opacity:1;" d="M 512 252.738281 L 502.382812 266.46875 L 485.84375 241.972656 C 485.84375 241.972656 501.835938 217.667969 506.453125 210.226562 C 509.976562 204.542969 518.148438 198.566406 518.148438 198.566406 C 513.976562 203.414062 512 205.695312 512 218.875 C 512 227.96875 512 252.738281 512 252.738281 "/>
<path style=" stroke:none;fill-rule:nonzero;fill:rgb(45.489502%,44.709778%,44.709778%);fill-opacity:1;" d="M 629.925781 326.660156 L 484.683594 326.660156 L 499.40625 354.292969 L 615.203125 354.292969 L 629.925781 326.660156 "/>
<path style=" stroke:none;fill-rule:nonzero;fill:rgb(56.858826%,56.079102%,56.079102%);fill-opacity:1;" d="M 615.203125 354.292969 L 499.40625 354.292969 L 484.683594 266.46875 L 629.925781 266.46875 L 615.203125 354.292969 "/>
<path style=" stroke:none;fill-rule:nonzero;fill:rgb(23.139954%,59.21936%,74.119568%);fill-opacity:1;" d="M 84.476562 937.394531 L 84.871094 960.226562 L 174.25 960.226562 L 174.65625 937.394531 L 84.476562 937.394531 "/>
<path style=" stroke:none;fill-rule:nonzero;fill:rgb(10.198975%,18.03894%,29.798889%);fill-opacity:1;" d="M 128.863281 987.519531 C 128.863281 987.519531 154.527344 1002.285156 170.238281 1006.28125 C 181.9375 1009.257812 188.949219 1003.503906 191.183594 996.34375 C 194.183594 986.707031 193.265625 979.023438 179.238281 974.164062 C 159.449219 967.328125 138.003906 964.851562 138.003906 964.851562 L 128.863281 987.519531 "/>
<path style=" stroke:none;fill-rule:nonzero;fill:rgb(81.959534%,81.568909%,81.568909%);fill-opacity:1;" d="M 170.472656 1002.238281 C 182.160156 1005.214844 189.183594 999.460938 191.414062 992.296875 C 191.914062 990.671875 192.308594 989.113281 192.542969 987.601562 C 192.71875 990.289062 192.160156 993.21875 191.183594 996.34375 C 188.949219 1003.503906 181.9375 1009.257812 170.238281 1006.28125 C 154.527344 1002.285156 128.863281 987.519531 128.863281 987.519531 L 130.234375 984.125 C 135.375 987.007812 156.726562 998.726562 170.472656 1002.238281 "/>
<path style=" stroke:none;fill-rule:nonzero;fill:rgb(81.959534%,81.568909%,81.568909%);fill-opacity:1;" d="M 179.238281 974.175781 C 193.265625 979.035156 194.183594 986.71875 191.183594 996.355469 C 188.960938 1003.480469 181.984375 1009.210938 170.378906 1006.316406 C 170.378906 1006.316406 176.9375 973.386719 179.238281 974.175781 "/>
<path style=" stroke:none;fill-rule:nonzero;fill:rgb(87.059021%,86.669922%,87.059021%);fill-opacity:1;" d="M 160.574219 991.589844 C 160.332031 992.425781 160.796875 993.285156 161.632812 993.542969 C 162.460938 993.785156 163.332031 993.308594 163.574219 992.484375 L 168.390625 976.234375 C 168.632812 975.40625 168.15625 974.546875 167.332031 974.292969 C 166.507812 974.046875 165.632812 974.523438 165.390625 975.351562 L 160.574219 991.589844 "/>
<path style=" stroke:none;fill-rule:nonzero;fill:rgb(87.059021%,86.669922%,87.059021%);fill-opacity:1;" d="M 153.667969 989.554688 C 153.421875 990.378906 153.890625 991.253906 154.726562 991.496094 C 155.550781 991.742188 156.425781 991.277344 156.667969 990.4375 L 161.484375 974.199219 C 161.726562 973.375 161.25 972.5 160.425781 972.257812 C 159.597656 972.011719 158.726562 972.480469 158.480469 973.304688 L 153.667969 989.554688 "/>
<path style=" stroke:none;fill-rule:nonzero;fill:rgb(87.059021%,86.669922%,87.059021%);fill-opacity:1;" d="M 146.761719 987.519531 C 146.515625 988.347656 146.992188 989.21875 147.820312 989.460938 C 148.644531 989.707031 149.515625 989.230469 149.761719 988.40625 L 154.574219 972.164062 C 154.820312 971.328125 154.355469 970.46875 153.515625 970.210938 C 152.691406 969.96875 151.820312 970.445312 151.574219 971.269531 L 146.761719 987.519531 "/>
<path style=" stroke:none;fill-rule:nonzero;fill:rgb(87.059021%,86.669922%,87.059021%);fill-opacity:1;" d="M 139.851562 985.476562 C 139.609375 986.300781 140.085938 987.171875 140.910156 987.417969 C 141.738281 987.660156 142.609375 987.195312 142.851562 986.371094 L 147.667969 970.117188 C 147.910156 969.292969 147.445312 968.421875 146.609375 968.175781 C 145.785156 967.933594 144.910156 968.398438 144.667969 969.234375 L 139.851562 985.476562 "/>
<path style=" stroke:none;fill-rule:nonzero;fill:rgb(27.449036%,70.588684%,87.449646%);fill-opacity:1;" d="M 41.785156 916.109375 C 70.230469 926.492188 140.527344 962.851562 140.527344 962.851562 L 129.304688 990.625 C 129.304688 990.625 48.777344 969.445312 23.53125 958.261719 C 11.097656 952.761719 -0.0429688 944.71875 7.179688 927.027344 C 14.425781 909.285156 32.367188 912.667969 41.785156 916.109375 "/>
<path style=" stroke:none;fill-rule:nonzero;fill:rgb(10.198975%,18.03894%,29.798889%);fill-opacity:1;" d="M 130.269531 987.519531 C 130.269531 987.519531 104.605469 1002.285156 88.894531 1006.28125 C 77.195312 1009.257812 70.183594 1003.503906 67.953125 996.34375 C 64.953125 986.707031 65.871094 979.023438 79.90625 974.164062 C 99.699219 967.328125 121.128906 964.851562 121.128906 964.851562 L 130.269531 987.519531 "/>
<path style=" stroke:none;fill-rule:nonzero;fill:rgb(81.959534%,81.568909%,81.568909%);fill-opacity:1;" d="M 88.664062 1002.238281 C 76.976562 1005.214844 69.953125 999.460938 67.71875 992.296875 C 67.21875 990.671875 66.824219 989.113281 66.589844 987.601562 C 66.417969 990.289062 66.976562 993.21875 67.953125 996.34375 C 70.183594 1003.503906 77.195312 1009.257812 88.894531 1006.28125 C 104.605469 1002.285156 130.269531 987.519531 130.269531 987.519531 L 128.898438 984.125 C 123.757812 987.007812 102.394531 998.726562 88.664062 1002.238281 "/>
<path style=" stroke:none;fill-rule:nonzero;fill:rgb(81.959534%,81.568909%,81.568909%);fill-opacity:1;" d="M 79.90625 974.175781 C 65.871094 979.035156 64.953125 986.71875 67.953125 996.355469 C 70.171875 1003.480469 77.148438 1009.210938 88.753906 1006.316406 C 88.753906 1006.316406 82.183594 973.386719 79.90625 974.175781 "/>
<path style=" stroke:none;fill-rule:nonzero;fill:rgb(87.059021%,86.669922%,87.059021%);fill-opacity:1;" d="M 98.558594 991.589844 C 98.804688 992.425781 98.328125 993.285156 97.5 993.542969 C 96.675781 993.785156 95.804688 993.308594 95.558594 992.484375 L 90.757812 976.234375 C 90.5 975.40625 90.976562 974.546875 91.800781 974.292969 C 92.628906 974.046875 93.5 974.523438 93.746094 975.351562 L 98.558594 991.589844 "/>
<path style=" stroke:none;fill-rule:nonzero;fill:rgb(87.059021%,86.669922%,87.059021%);fill-opacity:1;" d="M 105.464844 989.554688 C 105.710938 990.378906 105.234375 991.253906 104.410156 991.496094 C 103.582031 991.742188 102.710938 991.277344 102.464844 990.4375 L 97.652344 974.199219 C 97.40625 973.375 97.882812 972.5 98.710938 972.257812 C 99.535156 972.011719 100.40625 972.480469 100.652344 973.304688 L 105.464844 989.554688 "/>
<path style=" stroke:none;fill-rule:nonzero;fill:rgb(87.059021%,86.669922%,87.059021%);fill-opacity:1;" d="M 112.375 987.519531 C 112.617188 988.347656 112.140625 989.21875 111.316406 989.460938 C 110.488281 989.707031 109.617188 989.230469 109.375 988.40625 L 104.558594 972.164062 C 104.316406 971.328125 104.792969 970.46875 105.617188 970.210938 C 106.441406 969.96875 107.316406 970.445312 107.558594 971.269531 L 112.375 987.519531 "/>
<path style=" stroke:none;fill-rule:nonzero;fill:rgb(87.059021%,86.669922%,87.059021%);fill-opacity:1;" d="M 119.28125 985.476562 C 119.527344 986.300781 119.050781 987.171875 118.222656 987.417969 C 117.398438 987.660156 116.527344 987.195312 116.28125 986.371094 L 111.46875 970.117188 C 111.222656 969.292969 111.6875 968.421875 112.511719 968.175781 C 113.351562 967.933594 114.222656 968.398438 114.46875 969.234375 L 119.28125 985.476562 "/>
<path style=" stroke:none;fill-rule:nonzero;fill:rgb(30.198669%,77.648926%,95.689392%);fill-opacity:1;" d="M 217.335938 916.109375 C 188.902344 926.492188 118.605469 962.851562 118.605469 962.851562 L 129.828125 990.625 C 129.828125 990.625 210.359375 969.445312 235.605469 958.261719 C 248.035156 952.761719 259.175781 944.71875 251.953125 927.027344 C 244.710938 909.285156 226.765625 912.667969 217.335938 916.109375 "/>
<path style=" stroke:none;fill-rule:nonzero;fill:rgb(17.248535%,48.629761%,39.608765%);fill-opacity:1;" d="M 164.132812 793.796875 C 158.902344 791.867188 144.398438 787.203125 144.398438 787.203125 L 130.121094 792.039062 L 114.617188 787.203125 C 114.617188 787.203125 100.117188 791.867188 94.882812 793.796875 C 89.722656 795.691406 80.988281 799.769531 80.988281 810.851562 C 80.988281 810.851562 80.988281 906.136719 80.988281 929.628906 C 80.988281 933.023438 81.730469 937.453125 86.535156 937.453125 C 94.652344 937.453125 164.667969 937.453125 172.484375 937.453125 C 177.273438 937.453125 178.03125 933.023438 178.03125 929.628906 C 178.03125 906.136719 178.03125 810.851562 178.03125 810.851562 C 178.03125 799.769531 169.285156 795.691406 164.132812 793.796875 "/>
<path style=" stroke:none;fill-rule:nonzero;fill:rgb(22.349548%,56.858826%,71.369934%);fill-opacity:1;" d="M 89.6875 937.453125 L 86.535156 937.453125 C 83.5 937.453125 82.082031 935.6875 81.453125 933.511719 C 82.082031 935.6875 83.5 937.453125 86.535156 937.453125 C 87.199219 937.453125 88.265625 937.453125 89.6875 937.453125 "/>
<path style=" stroke:none;fill-rule:nonzero;fill:rgb(13.729858%,39.219666%,31.759644%);fill-opacity:1;" d="M 172.484375 937.453125 C 165.308594 937.453125 105.652344 937.453125 89.6875 937.453125 C 88.265625 937.453125 87.199219 937.453125 86.535156 937.453125 C 83.5 937.453125 82.082031 935.6875 81.453125 933.511719 C 81.09375 932.257812 80.988281 930.875 80.988281 929.628906 L 80.988281 924.597656 C 88 927.675781 95.640625 929.410156 103.511719 929.410156 C 107.964844 929.410156 112.28125 928.886719 116.421875 927.910156 C 145.527344 925.621094 169.191406 900.683594 169.132812 871.054688 C 169.085938 844.515625 166.960938 817.253906 158.691406 791.902344 C 160.84375 792.621094 162.796875 793.296875 164.132812 793.796875 C 169.285156 795.691406 178.03125 799.769531 178.03125 810.851562 C 178.03125 810.851562 178.03125 816.476562 178.03125 825.332031 C 178.03125 852.917969 178.03125 911.855469 178.03125 929.628906 C 178.03125 933.023438 177.273438 937.453125 172.484375 937.453125 "/>
<path style=" stroke:none;fill-rule:nonzero;fill:rgb(19.60907%,55.688477%,45.489502%);fill-opacity:1;" d="M 229.464844 879.808594 L 229.117188 879.320312 L 175.578125 801.957031 C 175.578125 801.957031 178.03125 804.210938 178.03125 819.671875 C 178.03125 828.101562 178.03125 853.394531 178.03125 853.394531 L 202.695312 884.410156 L 154.574219 916.226562 L 161.484375 933.011719 L 226.742188 895.90625 C 231.8125 892.164062 233.046875 885.039062 229.464844 879.808594 "/>
<path style=" stroke:none;fill-rule:nonzero;fill:rgb(19.60907%,55.688477%,45.489502%);fill-opacity:1;" d="M 29.679688 879.808594 L 30.019531 879.320312 L 83.546875 801.957031 C 83.546875 801.957031 81.117188 804.210938 81.117188 819.671875 C 81.117188 828.101562 81.117188 853.394531 81.117188 853.394531 L 56.4375 884.410156 L 105.464844 913.367188 L 97.652344 933.011719 L 32.390625 895.90625 C 27.320312 892.164062 26.089844 885.039062 29.679688 879.808594 "/>
<path style=" stroke:none;fill-rule:nonzero;fill:rgb(92.158508%,50.588989%,46.669006%);fill-opacity:1;" d="M 144.457031 787.203125 C 135.574219 793.65625 123.550781 793.65625 114.675781 787.203125 C 114.675781 782.9375 114.675781 778.660156 114.675781 774.382812 C 124.609375 774.382812 134.527344 774.382812 144.457031 774.382812 C 144.457031 778.660156 144.457031 782.9375 144.457031 787.203125 "/>
<path style=" stroke:none;fill-rule:nonzero;fill:rgb(96.859741%,57.649231%,52.938843%);fill-opacity:1;" d="M 90.769531 720.722656 C 92.257812 726.941406 90.257812 732.753906 86.3125 733.707031 C 82.371094 734.648438 77.964844 730.359375 76.476562 724.140625 C 74.988281 717.910156 76.988281 712.097656 80.929688 711.15625 C 84.871094 710.214844 89.277344 714.503906 90.769531 720.722656 "/>
<path style=" stroke:none;fill-rule:nonzero;fill:rgb(96.859741%,57.649231%,52.938843%);fill-opacity:1;" d="M 168.367188 720.722656 C 166.878906 726.941406 168.878906 732.753906 172.820312 733.707031 C 176.761719 734.648438 181.171875 730.359375 182.660156 724.140625 C 184.148438 717.910156 182.160156 712.097656 178.203125 711.15625 C 174.261719 710.214844 169.855469 714.503906 168.367188 720.722656 "/>
<path style=" stroke:none;fill-rule:nonzero;fill:rgb(96.859741%,57.649231%,52.938843%);fill-opacity:1;" d="M 173.855469 733.964844 C 173.855469 754.144531 155.445312 778.265625 129.539062 778.265625 C 106.421875 778.265625 85.21875 753.820312 85.21875 733.964844 L 85.21875 705.890625 C 85.21875 681.421875 105.058594 661.589844 129.539062 661.589844 C 154.015625 661.589844 173.855469 681.421875 173.855469 705.890625 L 173.855469 733.964844 "/>
<path style=" stroke:none;fill-rule:nonzero;fill:rgb(46.669006%,5.879211%,9.799194%);fill-opacity:1;" d="M 114.058594 750.585938 C 116.480469 757.78125 122.734375 762.921875 130.097656 762.921875 C 137.46875 762.921875 143.726562 757.78125 146.144531 750.585938 L 114.058594 750.585938 "/>
<path style=" stroke:none;fill-rule:nonzero;fill:rgb(94.509888%,25.878906%,45.098877%);fill-opacity:1;" d="M 130.121094 762.921875 C 133.597656 762.921875 136.816406 761.746094 139.515625 759.769531 C 136.816406 759.003906 133.585938 758.550781 130.109375 758.5625 C 126.621094 758.5625 123.398438 759.027344 120.699219 759.804688 C 123.398438 761.769531 126.632812 762.933594 130.121094 762.921875 "/>
<path style=" stroke:none;fill-rule:nonzero;fill:rgb(100%,100%,100%);fill-opacity:1;" d="M 114.222656 750.585938 C 116.222656 755.0625 124.097656 755.0625 130.15625 755.0625 C 136.203125 755.0625 144.65625 753.945312 146.085938 750.585938 L 114.222656 750.585938 "/>
<path style=" stroke:none;fill-rule:nonzero;fill:rgb(79.998779%,44.309998%,42.749023%);fill-opacity:1;" d="M 132.746094 741.730469 L 126.328125 741.730469 L 129.632812 727.976562 L 132.746094 715.015625 L 132.746094 741.730469 "/>
<path style=" stroke:none;fill-rule:nonzero;fill:rgb(9.799194%,8.239746%,7.839966%);fill-opacity:1;" d="M 161.808594 713.726562 C 160.402344 712.921875 158.914062 712.273438 157.402344 711.902344 C 155.902344 711.492188 154.390625 711.285156 152.921875 711.296875 C 151.433594 711.320312 150.109375 711.945312 148.703125 712.003906 C 147.992188 712.074219 147.25 712.132812 146.457031 712.167969 C 145.65625 712.214844 144.820312 712.261719 143.839844 712.203125 L 143.632812 711.867188 C 144.457031 710.074219 145.992188 708.890625 147.726562 708.179688 C 149.492188 707.425781 151.46875 707.808594 153.238281 708.15625 C 155.027344 708.507812 156.703125 709.179688 158.191406 710.085938 C 159.65625 711.027344 161.003906 712.097656 162.074219 713.433594 L 161.808594 713.726562 "/>
<path style=" stroke:none;fill-rule:nonzero;fill:rgb(9.799194%,8.239746%,7.839966%);fill-opacity:1;" d="M 96.976562 713.433594 C 98.046875 712.097656 99.394531 711.027344 100.863281 710.085938 C 102.351562 709.179688 104.023438 708.507812 105.828125 708.15625 C 107.582031 707.808594 109.570312 707.425781 111.328125 708.179688 C 113.058594 708.890625 114.59375 710.074219 115.421875 711.867188 L 115.210938 712.203125 C 114.234375 712.261719 113.398438 712.214844 112.605469 712.167969 C 111.804688 712.132812 111.058594 712.074219 110.351562 712.003906 C 108.945312 711.945312 107.628906 711.320312 106.140625 711.296875 C 104.675781 711.285156 103.164062 711.492188 101.652344 711.902344 C 100.140625 712.273438 98.652344 712.921875 97.246094 713.726562 L 96.976562 713.433594 "/>
<path style=" stroke:none;fill-rule:nonzero;fill:rgb(9.799194%,8.239746%,7.839966%);fill-opacity:1;" d="M 133.039062 659.867188 C 76.824219 659.867188 80.894531 711.15625 80.894531 711.15625 L 80.941406 711.179688 L 81.023438 711.15625 C 82.300781 710.855469 83.628906 711.132812 84.882812 711.820312 L 84.882812 727.394531 L 84.964844 727.417969 C 84.964844 727.417969 91.78125 728.359375 91.78125 722.6875 C 91.78125 722.6875 90.988281 715.679688 92 707.621094 C 95.09375 706.84375 111.945312 702.277344 126.328125 691.628906 C 137.457031 683.398438 151.714844 688.257812 163.472656 693.441406 C 169.9375 704.925781 167.9375 722.6875 167.9375 722.6875 C 167.9375 728.359375 174.75 727.417969 174.75 727.417969 L 175.308594 727.164062 L 175.308594 711.402344 C 176.296875 711.039062 177.308594 710.925781 178.296875 711.15625 L 178.34375 711.167969 L 178.367188 711.15625 C 178.367188 711.15625 177.191406 659.867188 133.039062 659.867188 "/>
<path style=" stroke:none;fill-rule:nonzero;fill:rgb(100%,100%,100%);fill-opacity:1;" d="M 156.132812 723.433594 C 156.132812 726.464844 153.679688 728.917969 150.644531 728.917969 C 147.621094 728.917969 145.167969 726.464844 145.167969 723.433594 C 145.167969 720.410156 147.621094 717.957031 150.644531 717.957031 C 153.679688 717.957031 156.132812 720.410156 156.132812 723.433594 "/>
<path style=" stroke:none;fill-rule:nonzero;fill:rgb(9.799194%,8.239746%,7.839966%);fill-opacity:1;" d="M 153.679688 723.433594 C 153.679688 725.105469 152.332031 726.476562 150.644531 726.476562 C 148.96875 726.476562 147.609375 725.105469 147.609375 723.433594 C 147.609375 721.757812 148.96875 720.398438 150.644531 720.398438 C 152.332031 720.398438 153.679688 721.757812 153.679688 723.433594 "/>
<path style=" stroke:none;fill-rule:nonzero;fill:rgb(100%,100%,100%);fill-opacity:1;" d="M 150.796875 722.640625 C 150.796875 723.316406 150.25 723.863281 149.574219 723.863281 C 148.898438 723.863281 148.355469 723.316406 148.355469 722.640625 C 148.355469 721.980469 148.898438 721.433594 149.574219 721.433594 C 150.25 721.433594 150.796875 721.980469 150.796875 722.640625 "/>
<path style=" stroke:none;fill-rule:nonzero;fill:rgb(9.799194%,8.239746%,7.839966%);fill-opacity:1;" d="M 145.167969 723.433594 C 144.886719 721.992188 145.363281 720.363281 146.410156 719.199219 C 147.445312 718.003906 149.027344 717.292969 150.667969 717.292969 C 152.25 717.292969 153.867188 718.003906 154.890625 719.199219 C 155.945312 720.363281 156.425781 721.992188 156.132812 723.433594 C 155.855469 722.003906 155.15625 720.769531 154.167969 719.921875 C 153.167969 719.074219 151.933594 718.597656 150.632812 718.609375 C 149.398438 718.597656 148.109375 719.074219 147.132812 719.921875 C 146.144531 720.769531 145.433594 722.003906 145.167969 723.433594 "/>
<path style=" stroke:none;fill-rule:nonzero;fill:rgb(100%,100%,100%);fill-opacity:1;" d="M 114.023438 723.433594 C 114.023438 726.464844 111.582031 728.917969 108.546875 728.917969 C 105.511719 728.917969 103.058594 726.464844 103.058594 723.433594 C 103.058594 720.410156 105.511719 717.957031 108.546875 717.957031 C 111.582031 717.957031 114.023438 720.410156 114.023438 723.433594 "/>
<path style=" stroke:none;fill-rule:nonzero;fill:rgb(9.799194%,8.239746%,7.839966%);fill-opacity:1;" d="M 111.582031 723.433594 C 111.582031 725.105469 110.222656 726.476562 108.546875 726.476562 C 106.863281 726.476562 105.511719 725.105469 105.511719 723.433594 C 105.511719 721.757812 106.863281 720.398438 108.546875 720.398438 C 110.222656 720.398438 111.582031 721.757812 111.582031 723.433594 "/>
<path style=" stroke:none;fill-rule:nonzero;fill:rgb(100%,100%,100%);fill-opacity:1;" d="M 108.6875 722.640625 C 108.6875 723.316406 108.140625 723.863281 107.464844 723.863281 C 106.792969 723.863281 106.246094 723.316406 106.246094 722.640625 C 106.246094 721.980469 106.792969 721.433594 107.464844 721.433594 C 108.140625 721.433594 108.6875 721.980469 108.6875 722.640625 "/>
<path style=" stroke:none;fill-rule:nonzero;fill:rgb(9.799194%,8.239746%,7.839966%);fill-opacity:1;" d="M 103.058594 723.433594 C 102.769531 721.992188 103.257812 720.363281 104.304688 719.199219 C 105.339844 718.003906 106.921875 717.292969 108.558594 717.292969 C 110.128906 717.292969 111.757812 718.003906 112.78125 719.199219 C 113.839844 720.363281 114.316406 721.992188 114.023438 723.433594 C 113.757812 722.003906 113.046875 720.769531 112.058594 719.921875 C 111.058594 719.074219 109.828125 718.597656 108.523438 718.609375 C 107.292969 718.597656 106.011719 719.074219 105.023438 719.921875 C 104.035156 720.769531 103.328125 722.003906 103.058594 723.433594 "/>
<path style=" stroke:none;fill-rule:nonzero;fill:rgb(45.489502%,44.709778%,44.709778%);fill-opacity:1;" d="M 204.125 921.421875 L 55.007812 921.421875 L 70.125 949.800781 L 189.007812 949.800781 L 204.125 921.421875 "/>
<path style=" stroke:none;fill-rule:nonzero;fill:rgb(56.858826%,56.079102%,56.079102%);fill-opacity:1;" d="M 189.007812 949.800781 L 70.125 949.800781 L 55.007812 859.625 L 204.125 859.625 L 189.007812 949.800781 "/>
<path style=" stroke:none;fill-rule:nonzero;fill:rgb(96.469116%,52.159119%,48.629761%);fill-opacity:1;" d="M 809.535156 201.382812 C 808.964844 211.402344 808.429688 221.410156 807.953125 231.429688 L 806.613281 261.46875 L 805.488281 291.496094 L 805.007812 306.527344 L 804.636719 321.546875 C 804.53125 325.417969 801.3125 328.484375 797.425781 328.378906 C 793.671875 328.300781 790.683594 325.253906 790.578125 321.546875 L 790.207031 306.527344 L 789.730469 291.496094 L 788.589844 261.46875 L 787.253906 231.429688 C 786.789062 221.410156 786.253906 211.402344 785.683594 201.382812 C 785.308594 194.800781 790.347656 189.164062 796.925781 188.792969 C 803.507812 188.40625 809.160156 193.441406 809.535156 200.019531 C 809.554688 200.484375 809.554688 200.941406 809.535156 201.382812 "/>
<path style=" stroke:none;fill-rule:nonzero;fill:rgb(28.239441%,69.40918%,67.059326%);fill-opacity:1;" d="M 791.890625 223.375 L 809.535156 223.375 C 809.953125 214.980469 810.882812 211.621094 810.882812 203.207031 C 810.882812 188.769531 796.417969 183.96875 783.984375 180.375 C 783.984375 180.375 792.160156 185.480469 792.578125 192.800781 C 793.054688 201.195312 791.460938 214.980469 791.890625 223.375 "/>
<path style=" stroke:none;fill-rule:nonzero;fill:rgb(30.979919%,76.858521%,74.119568%);fill-opacity:1;" d="M 722.257812 320.382812 L 796.183594 320.382812 C 796.371094 311.59375 789.113281 267.175781 789.113281 267.175781 L 795.847656 194.929688 C 795.847656 185.480469 788.390625 182.003906 783.984375 180.375 C 779.519531 178.726562 770.378906 174.761719 770.378906 174.761719 C 770.378906 174.761719 765.632812 178.886719 760.484375 178.886719 C 754.539062 178.886719 749.539062 174.761719 749.539062 174.761719 C 749.539062 174.761719 739.296875 178.726562 734.828125 180.375 C 730.421875 182.003906 722.96875 185.480469 722.96875 194.929688 L 730.328125 268.375 C 730.328125 268.375 721.375 314.558594 722.257812 320.382812 "/>
<path style=" stroke:none;fill-rule:nonzero;fill:rgb(81.568909%,81.568909%,81.568909%);fill-opacity:1;" d="M 726.828125 287.230469 L 726.851562 287.136719 C 726.851562 287.171875 726.839844 287.195312 726.839844 287.230469 C 726.839844 287.230469 726.839844 287.230469 726.828125 287.230469 "/>
<path style=" stroke:none;fill-rule:nonzero;fill:rgb(25.489807%,62.348938%,60.389709%);fill-opacity:1;" d="M 726.839844 287.230469 C 726.839844 287.195312 726.851562 287.171875 726.851562 287.136719 L 730.328125 268.375 L 724.398438 207.125 C 725.304688 214.632812 728.851562 233.710938 741.421875 236.871094 C 742.945312 237.253906 744.46875 237.40625 745.945312 237.40625 C 752.332031 237.40625 757.984375 234.488281 760.890625 234.488281 C 762.9375 234.488281 769.214844 236.058594 774.449219 236.058594 C 775.578125 236.058594 776.671875 235.988281 777.648438 235.8125 C 788.242188 233.871094 790.472656 230.546875 793.148438 223.804688 L 791.378906 242.8125 C 791.378906 242.8125 785.695312 241.453125 778.785156 241.453125 C 773.472656 241.453125 767.4375 242.253906 762.726562 245.136719 C 751.902344 251.738281 730.292969 276.058594 726.839844 287.230469 M 724.398438 207.125 C 724.167969 205.242188 724.109375 204.089844 724.109375 204.089844 L 724.398438 207.125 "/>
<g clip-path="url(#clip5)" clip-rule="nonzero">
<path style=" stroke:none;fill-rule:nonzero;fill:rgb(14.898682%,12.548828%,12.159729%);fill-opacity:1;" d="M 759.855469 40.890625 L 759.855469 40.878906 L 759.609375 40.878906 L 759.609375 40.890625 C 728.875 41.078125 709.351562 61.015625 709.351562 109.652344 C 709.351562 139.257812 732.773438 167.367188 759.738281 167.390625 C 786.695312 167.367188 810.113281 139.257812 810.113281 109.652344 C 810.113281 61.015625 790.589844 41.078125 759.855469 40.890625 "/>
</g>
<path style=" stroke:none;fill-rule:nonzero;fill:rgb(92.158508%,50.588989%,46.669006%);fill-opacity:1;" d="M 770.34375 175.15625 C 764.132812 182.097656 755.714844 182.097656 749.503906 175.15625 C 749.503906 170.554688 749.503906 165.949219 749.503906 161.359375 C 756.449219 161.359375 763.402344 161.359375 770.34375 161.359375 C 770.34375 165.949219 770.34375 170.554688 770.34375 175.15625 "/>
<path style=" stroke:none;fill-rule:nonzero;fill:rgb(96.859741%,57.649231%,52.938843%);fill-opacity:1;" d="M 716.574219 111.175781 C 717.640625 115.671875 716.199219 119.882812 713.351562 120.554688 C 710.492188 121.242188 707.316406 118.148438 706.234375 113.636719 C 705.152344 109.140625 706.605469 104.941406 709.457031 104.257812 C 712.304688 103.570312 715.492188 106.675781 716.574219 111.175781 "/>
<path style=" stroke:none;fill-rule:nonzero;fill:rgb(96.859741%,57.649231%,52.938843%);fill-opacity:1;" d="M 803.289062 111.175781 C 802.21875 115.671875 803.648438 119.882812 806.511719 120.554688 C 809.359375 121.242188 812.546875 118.148438 813.625 113.636719 C 814.695312 109.140625 813.253906 104.941406 810.40625 104.257812 C 807.554688 103.570312 804.359375 106.675781 803.289062 111.175781 "/>
<path style=" stroke:none;fill-rule:nonzero;fill:rgb(96.859741%,57.649231%,52.938843%);fill-opacity:1;" d="M 805.71875 118.136719 C 805.71875 138.980469 784.425781 165.554688 759.925781 165.554688 C 738.5625 165.554688 714.128906 138.644531 714.128906 118.136719 L 714.128906 89.109375 C 714.128906 63.839844 734.632812 43.332031 759.925781 43.332031 C 785.21875 43.332031 805.71875 63.839844 805.71875 89.109375 L 805.71875 118.136719 "/>
<path style=" stroke:none;fill-rule:nonzero;fill:rgb(46.669006%,5.879211%,9.799194%);fill-opacity:1;" d="M 745.726562 143.328125 C 748.390625 151.300781 755.320312 156.988281 763.472656 156.988281 C 771.625 156.988281 778.554688 151.300781 781.230469 143.328125 L 745.726562 143.328125 "/>
<path style=" stroke:none;fill-rule:nonzero;fill:rgb(94.509888%,25.878906%,45.098877%);fill-opacity:1;" d="M 763.484375 156.988281 C 767.332031 156.976562 770.902344 155.683594 773.890625 153.511719 C 770.902344 152.652344 767.332031 152.164062 763.484375 152.164062 C 759.621094 152.175781 756.050781 152.675781 753.074219 153.546875 C 756.050781 155.71875 759.632812 157 763.484375 156.988281 "/>
<path style=" stroke:none;fill-rule:nonzero;fill:rgb(100%,100%,100%);fill-opacity:1;" d="M 745.890625 143.328125 C 748.109375 148.292969 756.832031 148.292969 763.53125 148.292969 C 770.226562 148.292969 779.578125 147.058594 781.160156 143.328125 L 745.890625 143.328125 "/>
<path style=" stroke:none;fill-rule:nonzero;fill:rgb(79.998779%,44.309998%,42.749023%);fill-opacity:1;" d="M 767.078125 136.875 L 759.984375 136.875 L 763.632812 121.660156 L 767.078125 107.304688 L 767.078125 136.875 "/>
<path style=" stroke:none;fill-rule:nonzero;fill:rgb(100%,100%,100%);fill-opacity:1;" d="M 810.847656 119.8125 C 810.847656 121.066406 809.824219 122.089844 808.566406 122.089844 C 807.300781 122.089844 806.277344 121.066406 806.277344 119.8125 C 806.277344 118.554688 807.300781 117.53125 808.566406 117.53125 C 809.824219 117.53125 810.847656 118.554688 810.847656 119.8125 "/>
<path style=" stroke:none;fill-rule:nonzero;fill:rgb(100%,100%,100%);fill-opacity:1;" d="M 713.574219 119.8125 C 713.574219 121.066406 712.550781 122.089844 711.292969 122.089844 C 710.039062 122.089844 709.015625 121.066406 709.015625 119.8125 C 709.015625 118.554688 710.039062 117.53125 711.292969 117.53125 C 712.550781 117.53125 713.574219 118.554688 713.574219 119.8125 "/>
<path style=" stroke:none;fill-rule:nonzero;fill:rgb(9.799194%,8.239746%,7.839966%);fill-opacity:1;" d="M 779.785156 108.453125 C 781.332031 107.328125 783.125 106.664062 784.960938 106.257812 C 786.8125 105.851562 788.765625 105.769531 790.671875 106.035156 C 794.496094 106.546875 798.265625 108.722656 800.066406 112.070312 L 799.972656 112.382812 L 799.753906 112.382812 C 798.125 111.5 796.613281 110.742188 795.042969 110.1875 C 793.472656 109.640625 791.890625 109.269531 790.265625 109.046875 C 786.996094 108.59375 783.613281 108.769531 780.007812 109.011719 L 779.984375 109.011719 L 779.660156 108.722656 L 779.785156 108.453125 "/>
<path style=" stroke:none;fill-rule:nonzero;fill:rgb(9.799194%,8.239746%,7.839966%);fill-opacity:1;" d="M 750.34375 109.011719 C 746.726562 108.769531 743.355469 108.59375 740.085938 109.046875 C 738.457031 109.269531 736.863281 109.640625 735.304688 110.1875 C 733.726562 110.742188 732.214844 111.5 730.597656 112.382812 L 730.28125 112.289062 L 730.269531 112.070312 C 732.074219 108.722656 735.851562 106.546875 739.667969 106.035156 C 741.585938 105.769531 743.527344 105.851562 745.378906 106.257812 C 747.226562 106.664062 749.003906 107.328125 750.5625 108.453125 L 750.621094 108.882812 L 750.355469 109.011719 L 750.34375 109.011719 "/>
<path style=" stroke:none;fill-rule:nonzero;fill:rgb(96.078491%,45.489502%,50.19989%);fill-opacity:1;" d="M 800.101562 134.886719 C 800.101562 138.292969 795.730469 141.0625 790.347656 141.0625 C 784.972656 141.0625 780.601562 138.292969 780.601562 134.886719 C 780.601562 131.480469 784.972656 128.726562 790.347656 128.726562 C 795.730469 128.726562 800.101562 131.480469 800.101562 134.886719 "/>
<path style=" stroke:none;fill-rule:nonzero;fill:rgb(96.078491%,45.489502%,50.19989%);fill-opacity:1;" d="M 747.84375 134.886719 C 747.84375 138.292969 743.480469 141.0625 738.097656 141.0625 C 732.714844 141.0625 728.351562 138.292969 728.351562 134.886719 C 728.351562 131.480469 732.714844 128.726562 738.097656 128.726562 C 743.480469 128.726562 747.84375 131.480469 747.84375 134.886719 "/>
<path style=" stroke:none;fill-rule:nonzero;fill:rgb(100%,100%,100%);fill-opacity:1;" d="M 795.3125 120.089844 C 795.3125 123.308594 792.695312 125.925781 789.472656 125.925781 C 786.253906 125.925781 783.636719 123.308594 783.636719 120.089844 C 783.636719 116.871094 786.253906 114.253906 789.472656 114.253906 C 792.695312 114.253906 795.3125 116.871094 795.3125 120.089844 "/>
<path style=" stroke:none;fill-rule:nonzero;fill:rgb(9.799194%,8.239746%,7.839966%);fill-opacity:1;" d="M 792.707031 120.089844 C 792.707031 121.867188 791.253906 123.320312 789.472656 123.320312 C 787.695312 123.320312 786.242188 121.867188 786.242188 120.089844 C 786.242188 118.3125 787.695312 116.859375 789.472656 116.859375 C 791.253906 116.859375 792.707031 118.3125 792.707031 120.089844 "/>
<path style=" stroke:none;fill-rule:nonzero;fill:rgb(100%,100%,100%);fill-opacity:1;" d="M 791.648438 119.253906 C 791.648438 119.960938 791.066406 120.542969 790.347656 120.542969 C 789.636719 120.542969 789.054688 119.960938 789.054688 119.253906 C 789.054688 118.542969 789.636719 117.960938 790.347656 117.960938 C 791.066406 117.960938 791.648438 118.542969 791.648438 119.253906 "/>
<path style=" stroke:none;fill-rule:nonzero;fill:rgb(9.799194%,8.239746%,7.839966%);fill-opacity:1;" d="M 797.601562 118.441406 C 796.859375 118.136719 796.253906 117.871094 795.800781 117.496094 L 795.695312 117.40625 C 796.265625 117.253906 796.800781 116.953125 797.125 116.511719 C 796.519531 116.5 796.03125 116.464844 795.578125 116.371094 L 794.972656 116.171875 L 794.507812 115.917969 L 793.113281 114.941406 L 792.800781 114.71875 L 792.636719 114.589844 L 792.660156 114.625 C 791.71875 114.035156 790.601562 113.683594 789.472656 113.683594 C 787.800781 113.695312 786.125 114.417969 785.03125 115.660156 C 783.914062 116.859375 783.402344 118.566406 783.636719 120.089844 C 784.054688 117.007812 786.683594 114.777344 789.472656 114.835938 C 792.265625 114.777344 794.882812 117.007812 795.3125 120.089844 C 795.382812 119.625 795.359375 119.148438 795.300781 118.660156 C 796.101562 118.917969 796.949219 118.847656 797.601562 118.441406 "/>
<path style=" stroke:none;fill-rule:nonzero;fill:rgb(100%,100%,100%);fill-opacity:1;" d="M 738.832031 120.089844 C 738.832031 123.308594 741.445312 125.925781 744.667969 125.925781 C 747.890625 125.925781 750.503906 123.308594 750.503906 120.089844 C 750.503906 116.871094 747.890625 114.253906 744.667969 114.253906 C 741.445312 114.253906 738.832031 116.871094 738.832031 120.089844 "/>
<path style=" stroke:none;fill-rule:nonzero;fill:rgb(9.799194%,8.239746%,7.839966%);fill-opacity:1;" d="M 741.445312 120.089844 C 741.445312 121.867188 742.886719 123.320312 744.667969 123.320312 C 746.457031 123.320312 747.902344 121.867188 747.902344 120.089844 C 747.902344 118.3125 746.457031 116.859375 744.667969 116.859375 C 742.886719 116.859375 741.445312 118.3125 741.445312 120.089844 "/>
<path style=" stroke:none;fill-rule:nonzero;fill:rgb(100%,100%,100%);fill-opacity:1;" d="M 744.527344 119.253906 C 744.527344 119.960938 745.109375 120.542969 745.820312 120.542969 C 746.527344 120.542969 747.109375 119.960938 747.109375 119.253906 C 747.109375 118.542969 746.527344 117.960938 745.820312 117.960938 C 745.109375 117.960938 744.527344 118.542969 744.527344 119.253906 "/>
<path style=" stroke:none;fill-rule:nonzero;fill:rgb(9.799194%,8.239746%,7.839966%);fill-opacity:1;" d="M 736.539062 118.441406 C 737.285156 118.136719 737.886719 117.871094 738.339844 117.496094 L 738.457031 117.40625 C 737.875 117.253906 737.339844 116.953125 737.015625 116.511719 C 737.621094 116.5 738.109375 116.464844 738.5625 116.371094 L 739.179688 116.171875 L 739.632812 115.917969 L 741.027344 114.941406 L 741.34375 114.71875 L 741.515625 114.589844 L 741.480469 114.625 C 742.433594 114.035156 743.539062 113.683594 744.667969 113.683594 C 746.355469 113.695312 748.015625 114.417969 749.109375 115.660156 C 750.238281 116.859375 750.738281 118.566406 750.503906 120.089844 C 750.085938 117.007812 747.46875 114.777344 744.667969 114.835938 C 741.875 114.777344 739.261719 117.007812 738.832031 120.089844 C 738.761719 119.625 738.785156 119.148438 738.839844 118.660156 C 738.039062 118.917969 737.191406 118.847656 736.539062 118.441406 "/>
<path style=" stroke:none;fill-rule:nonzero;fill:rgb(14.898682%,12.548828%,12.159729%);fill-opacity:1;" d="M 763.703125 42.902344 L 760.273438 42.738281 L 759.867188 42.761719 L 759.449219 42.738281 L 756.015625 42.902344 C 732.28125 45.066406 712.070312 64.535156 712.875 94.738281 C 713.050781 100.980469 713.605469 113.082031 713.605469 113.082031 L 714.003906 114.253906 L 714.003906 118.136719 C 714.003906 129.902344 722.0625 143.769531 732.96875 153.453125 C 732.144531 152.640625 717.328125 135.703125 722.199219 117.53125 C 725.121094 106.664062 734.585938 101.316406 745.890625 96.667969 C 757.296875 91.980469 771.320312 82.484375 771.960938 76.277344 C 773.648438 92.714844 801.019531 101.46875 801.019531 101.46875 L 801.542969 108.835938 C 801.542969 115.523438 805.71875 116.859375 805.71875 116.859375 C 805.742188 116.859375 806.671875 100.980469 806.847656 94.738281 C 807.648438 64.535156 787.4375 45.066406 763.703125 42.902344 "/>
<path style=" stroke:none;fill-rule:nonzero;fill:rgb(15.689087%,13.328552%,12.548828%);fill-opacity:1;" d="M 825.929688 523 C 825.929688 523 823.277344 524.453125 823.277344 527.953125 C 823.277344 531.441406 823.277344 555.78125 823.277344 555.78125 L 828.222656 555.78125 L 828.105469 545.902344 C 828.105469 545.902344 830.035156 551.65625 837.140625 557.59375 C 840.863281 560.710938 843.523438 563.964844 855.46875 563.964844 C 864.140625 563.964844 861.074219 549.503906 851.398438 537.160156 L 825.929688 523 "/>
<path style=" stroke:none;fill-rule:nonzero;fill:rgb(96.859741%,57.649231%,52.938843%);fill-opacity:1;" d="M 842.617188 524.335938 C 842.582031 516.582031 843.316406 506.027344 844.386719 494.402344 L 822.253906 494.402344 C 823.105469 504.46875 825.511719 512.839844 825.929688 523 C 826.1875 529.441406 832.382812 535.636719 836.175781 540.113281 C 844.316406 549.726562 849.351562 550.621094 853.164062 547.097656 C 856.175781 544.332031 851.570312 536.125 847.023438 531.566406 C 842.511719 527.035156 842.617188 524.335938 842.617188 524.335938 "/>
<path style=" stroke:none;fill-rule:nonzero;fill:rgb(96.859741%,57.649231%,52.938843%);fill-opacity:1;" d="M 882.910156 488.441406 C 882.910156 488.441406 899.539062 508.386719 906.332031 515.105469 C 907.460938 516.222656 909.832031 516.46875 912.4375 516.46875 C 914.4375 516.46875 916.808594 516.46875 918.84375 516.46875 L 889.027344 467.933594 L 872.257812 477.488281 C 872.257812 477.488281 882.609375 488.441406 882.910156 488.441406 "/>
<path style=" stroke:none;fill-rule:nonzero;fill:rgb(15.689087%,13.328552%,12.548828%);fill-opacity:1;" d="M 927.101562 517.886719 C 927.054688 517.421875 926.785156 516.46875 924.902344 516.46875 C 924.613281 516.46875 924.238281 516.46875 923.796875 516.46875 C 923.796875 516.46875 909.460938 517.1875 901.4375 509.804688 C 901.4375 509.804688 900.726562 509.132812 900.390625 508.761719 C 892.761719 500.25 882.910156 488.441406 882.910156 488.441406 C 879.015625 488.441406 878.433594 492.042969 878.433594 494.472656 C 878.433594 499.007812 880.898438 528.148438 880.898438 528.148438 L 882.375 528.148438 C 882.375 528.148438 884.65625 517.6875 885.738281 513.5625 C 886.097656 512.175781 886.738281 511.492188 887.820312 513.539062 C 890.597656 518.804688 894.945312 528.148438 901.902344 528.148438 C 906.460938 528.148438 918.996094 528.148438 922.984375 528.148438 C 927.296875 528.148438 927.601562 523.664062 927.101562 517.886719 "/>
<path style=" stroke:none;fill-rule:nonzero;fill:rgb(5.879211%,43.528748%,70.199585%);fill-opacity:1;" d="M 834.210938 365.660156 C 833.117188 360.140625 826.023438 354.351562 822.070312 353.128906 C 821.753906 353.046875 821.429688 352.976562 821.105469 352.910156 C 809.882812 350.96875 802.929688 354.746094 791.566406 359.464844 C 784.019531 362.613281 766.890625 367.171875 751.949219 367.171875 C 737.945312 367.171875 727.433594 360.742188 723.109375 354.675781 C 725.246094 359.011719 736.039062 371.566406 758.085938 371.566406 C 764.226562 371.566406 778.878906 370.578125 786.21875 370.066406 C 792.4375 369.636719 795.160156 374.679688 795.160156 374.679688 L 822.707031 510.097656 L 846.105469 510.097656 C 845.582031 498.613281 843.375 451.878906 840.199219 413.4375 C 838.152344 391.457031 835.699219 373.273438 834.210938 365.660156 "/>
<path style=" stroke:none;fill-rule:nonzero;fill:rgb(6.669617%,49.798584%,80.389404%);fill-opacity:1;" d="M 722.257812 320.382812 C 722.257812 320.382812 719.875 334.019531 718.875 341.457031 C 717.492188 351.886719 729.003906 367.171875 751.949219 367.171875 C 766.890625 367.171875 784.019531 362.613281 791.566406 359.464844 C 803.007812 354.710938 809.988281 350.898438 821.359375 352.945312 C 825.117188 353.617188 833.046875 359.789062 834.210938 365.660156 C 835.699219 373.285156 838.164062 391.46875 840.199219 413.460938 C 842.152344 434.523438 874.839844 487.800781 874.839844 487.800781 L 897.667969 479.453125 C 897.667969 479.453125 864.597656 379.550781 849.445312 341.050781 C 844.199219 327.730469 841.035156 320.382812 807.3125 320.382812 L 722.257812 320.382812 "/>
<path style=" stroke:none;fill-rule:nonzero;fill:rgb(81.17981%,80.778503%,80.778503%);fill-opacity:1;" d="M 840.894531 422.214844 C 840.675781 419.332031 840.441406 416.472656 840.222656 413.648438 C 840.222656 413.648438 840.222656 413.648438 840.222656 413.660156 C 840.441406 416.472656 840.675781 419.332031 840.894531 422.214844 M 791.566406 359.464844 C 800.835938 355.617188 807.171875 352.386719 815.289062 352.386719 C 807.171875 352.386719 800.835938 355.617188 791.566406 359.464844 "/>
<path style=" stroke:none;fill-rule:nonzero;fill:rgb(4.309082%,34.509277%,56.858826%);fill-opacity:1;" d="M 841.535156 430.886719 C 839.605469 425.609375 838.28125 420.84375 837.941406 417.113281 C 835.894531 395.117188 833.441406 376.925781 831.941406 369.3125 C 830.789062 363.441406 822.847656 357.269531 819.09375 356.59375 C 816.941406 356.199219 814.941406 356.023438 813.035156 356.023438 C 804.917969 356.023438 798.578125 359.253906 789.3125 363.113281 C 781.753906 366.265625 764.632812 370.820312 749.679688 370.820312 L 749.15625 370.808594 C 733.421875 368.113281 725.269531 358.765625 723.222656 354.90625 C 728.421875 361.605469 738.109375 367.171875 751.949219 367.171875 C 766.890625 367.171875 784.019531 362.613281 791.566406 359.464844 C 800.835938 355.617188 807.171875 352.386719 815.289062 352.386719 C 817.117188 352.386719 819.046875 352.546875 821.105469 352.910156 C 821.429688 352.976562 821.753906 353.046875 822.070312 353.128906 C 826.023438 354.351562 833.117188 360.140625 834.199219 365.660156 C 835.324219 371.355469 836.976562 382.957031 838.59375 397.640625 C 839.140625 402.605469 839.6875 407.90625 840.199219 413.460938 C 840.199219 413.53125 840.210938 413.589844 840.222656 413.648438 C 840.441406 416.472656 840.675781 419.332031 840.894531 422.214844 C 841.117188 425.085938 841.328125 427.980469 841.535156 430.886719 "/>
<path style=" stroke:none;fill-rule:nonzero;fill:rgb(5.099487%,39.608765%,64.709473%);fill-opacity:1;" d="M 840.222656 413.660156 C 840.222656 413.648438 840.222656 413.648438 840.222656 413.648438 C 840.210938 413.589844 840.199219 413.53125 840.199219 413.460938 C 839.6875 407.90625 839.140625 402.605469 838.59375 397.640625 C 839.140625 402.59375 839.6875 407.894531 840.199219 413.4375 C 840.210938 413.507812 840.210938 413.578125 840.222656 413.660156 M 751.949219 367.171875 C 738.109375 367.171875 728.421875 361.605469 723.222656 354.90625 C 723.1875 354.828125 723.144531 354.746094 723.109375 354.675781 C 727.433594 360.742188 737.945312 367.171875 751.949219 367.171875 "/>
<path style=" stroke:none;fill-rule:nonzero;fill:rgb(96.859741%,57.649231%,52.938843%);fill-opacity:1;" d="M 817.953125 308.039062 C 817.953125 308.039062 813.089844 301.433594 809.265625 298.320312 C 805.441406 295.191406 792.265625 291.402344 792.230469 291.390625 L 744.855469 274.046875 L 742.796875 195.765625 C 742.796875 195.488281 742.773438 195.171875 742.75 194.882812 C 742.074219 188.222656 736.144531 183.363281 729.492188 184.027344 C 722.828125 184.6875 717.96875 190.628906 718.628906 197.277344 L 726.96875 281.171875 L 727.027344 281.742188 C 727.375 285.195312 729.792969 288.253906 733.339844 289.253906 L 785.902344 304.457031 L 793.148438 310.988281 L 818.882812 310.988281 L 817.953125 308.039062 "/>
<path style=" stroke:none;fill-rule:nonzero;fill:rgb(38.42926%,79.219055%,78.819275%);fill-opacity:1;" d="M 720.328125 224.015625 L 744.515625 221.585938 L 743.75 195.164062 C 743.75 194.859375 743.726562 194.511719 743.691406 194.207031 C 742.980469 187.011719 736.5625 181.757812 729.363281 182.46875 C 722.164062 183.1875 716.898438 189.59375 717.621094 196.800781 L 720.328125 224.015625 "/>
<path style=" stroke:none;fill-rule:nonzero;fill:rgb(14.898682%,12.548828%,12.159729%);fill-opacity:1;" d="M 737.773438 158.53125 C 737.773438 158.53125 709.015625 164.089844 721.886719 194.652344 C 730.375 214.785156 731.097656 230.488281 729.191406 237.417969 C 727.003906 245.402344 728.132812 264.363281 742.167969 272.523438 C 742.167969 272.523438 736.96875 256.308594 741.609375 248.71875 C 748.332031 237.695312 756.597656 224.152344 748.238281 198.066406 C 742.367188 179.746094 750.609375 173.878906 744.003906 162.996094 L 737.773438 158.53125 "/>
<path style=" stroke:none;fill-rule:nonzero;fill:rgb(65.489197%,64.709473%,65.098572%);fill-opacity:1;" d="M 843.875 310.988281 L 798.765625 310.988281 L 834.40625 226.492188 L 879.515625 226.492188 L 843.875 310.988281 "/>
<path style=" stroke:none;fill-rule:nonzero;fill:rgb(56.858826%,56.079102%,56.079102%);fill-opacity:1;" d="M 736.921875 320.382812 L 843.875 320.382812 L 843.875 310.988281 L 736.921875 310.988281 L 736.921875 320.382812 "/>
<path style=" stroke:none;fill-rule:nonzero;fill:rgb(12.548828%,21.569824%,36.079407%);fill-opacity:1;" d="M 110.898438 363.023438 L 354.113281 263.050781 L 397.199219 367.789062 C 397.199219 367.789062 335.066406 405.136719 278.132812 428.539062 C 232.710938 447.207031 153.96875 467.75 153.96875 467.75 L 110.898438 363.023438 "/>
<path style=" stroke:none;fill-rule:nonzero;fill:rgb(63.139343%,59.609985%,58.039856%);fill-opacity:1;" d="M 124.246094 395.488281 L 109.210938 358.917969 L 185.066406 327.742188 L 174.738281 336.773438 L 110.898438 363.023438 L 124.246094 395.488281 M 195.648438 328.183594 L 205.972656 319.152344 L 352.425781 258.957031 L 354.113281 263.050781 L 195.648438 328.183594 "/>
<path style=" stroke:none;fill-rule:nonzero;fill:rgb(9.408569%,15.289307%,23.529053%);fill-opacity:1;" d="M 124.246094 395.488281 L 110.898438 363.023438 L 174.738281 336.773438 L 145.203125 362.613281 C 143.503906 363.71875 142.773438 365.894531 143.550781 367.835938 C 143.5625 367.847656 143.5625 367.859375 143.5625 367.871094 L 154.039062 393.339844 L 124.246094 395.488281 M 163.109375 392.6875 L 152.203125 366.183594 L 195.648438 328.183594 L 354.113281 263.050781 L 367.078125 294.5625 L 261.980469 385.585938 L 163.109375 392.6875 "/>
<path style=" stroke:none;fill-rule:nonzero;fill:rgb(12.548828%,21.569824%,36.079407%);fill-opacity:1;" d="M 255.804688 370.589844 L 432.257812 217.773438 L 200.542969 234.429688 L 24.089844 387.246094 L 255.804688 370.589844 "/>
<path style=" stroke:none;fill-rule:nonzero;fill:rgb(15.689087%,13.729858%,12.939453%);fill-opacity:1;" d="M 209.429688 305.816406 C 210.507812 308.445312 218.988281 307.164062 228.488281 303.269531 C 237.988281 299.367188 244.90625 294.308594 243.824219 291.679688 C 241.769531 286.683594 232.40625 285.789062 222.90625 289.695312 C 213.40625 293.597656 207.382812 300.820312 209.429688 305.816406 "/>
<path style=" stroke:none;fill-rule:nonzero;fill:rgb(86.268616%,47.059631%,12.939453%);fill-opacity:1;" d="M 145.203125 362.613281 L 224.894531 292.902344 C 226.429688 291.589844 228.730469 291.761719 230.046875 293.285156 C 231.359375 294.808594 231.195312 297.109375 229.675781 298.421875 L 152.203125 366.183594 L 216.464844 522.441406 C 217.371094 524.652344 216.324219 527.160156 214.125 528.070312 C 211.917969 528.976562 209.40625 527.929688 208.496094 525.71875 L 143.5625 367.871094 C 142.773438 365.917969 143.492188 363.730469 145.203125 362.613281 "/>
<path style=" stroke:none;fill-rule:nonzero;fill:rgb(98.039246%,72.158813%,12.939453%);fill-opacity:1;" d="M 144.015625 363.894531 C 144.203125 363.578125 144.421875 363.300781 144.714844 363.046875 L 224.894531 292.902344 C 226.429688 291.589844 228.730469 291.761719 230.046875 293.285156 L 146.898438 365.953125 L 213.613281 528.160156 C 211.542969 528.742188 209.324219 527.765625 208.496094 525.71875 L 143.5625 367.871094 C 143.003906 366.484375 143.238281 365.019531 144.015625 363.894531 "/>
<path style=" stroke:none;fill-rule:nonzero;fill:rgb(96.469116%,50.979614%,14.898682%);fill-opacity:1;" d="M 209.453125 547.714844 L 197.648438 519.011719 C 194.960938 512.46875 198.089844 504.992188 204.625 502.296875 C 211.171875 499.613281 218.648438 502.738281 221.335938 509.273438 L 233.152344 537.972656 L 209.453125 547.714844 "/>
<path style=" stroke:none;fill-rule:nonzero;fill:rgb(15.289307%,8.628845%,6.269836%);fill-opacity:1;" d="M 209.453125 547.714844 L 197.648438 519.011719 C 197.648438 519 197.636719 518.988281 197.636719 518.976562 C 197.636719 518.988281 197.648438 519 197.648438 519.011719 L 209.453125 547.714844 L 233.152344 537.972656 L 209.453125 547.714844 M 197.625 518.953125 C 197.625 518.941406 197.625 518.941406 197.613281 518.941406 C 197.625 518.941406 197.625 518.941406 197.625 518.953125 M 197.589844 518.875 C 197.589844 518.875 197.589844 518.863281 197.589844 518.863281 C 197.589844 518.863281 197.589844 518.875 197.589844 518.875 "/>
<path style=" stroke:none;fill-rule:nonzero;fill:rgb(85.488892%,27.059937%,10.198975%);fill-opacity:1;" d="M 209.453125 547.714844 L 197.648438 519.011719 C 197.648438 519 197.636719 518.988281 197.636719 518.976562 C 197.625 518.964844 197.625 518.953125 197.625 518.953125 C 197.625 518.941406 197.625 518.941406 197.613281 518.941406 C 197.613281 518.929688 197.613281 518.921875 197.601562 518.910156 C 197.601562 518.898438 197.589844 518.886719 197.589844 518.875 C 197.589844 518.875 197.589844 518.863281 197.589844 518.863281 C 197.589844 518.851562 197.578125 518.839844 197.578125 518.828125 C 195.207031 512.816406 197.753906 506.097656 203.289062 503.015625 C 198.472656 517.488281 209.078125 536.21875 225.628906 536.21875 C 227.683594 536.21875 229.824219 535.925781 232.046875 535.3125 L 233.152344 537.972656 L 209.453125 547.714844 "/>
</g>
</svg>
