<svg width="585" height="447" viewBox="0 0 585 447" fill="none" xmlns="http://www.w3.org/2000/svg">
<path d="M134.701 309.35L179.994 238.519L78.5596 174.376L26.1763 256.296L110.075 309.35H134.701Z" fill="#F0F0F0"/>
<path d="M198.885 331.446H86.6936V308.988H198.885V331.446ZM88.1506 329.998H197.428V310.437H88.1506V329.998Z" fill="#3F3D56"/>
<path d="M185.043 327.462C189.067 327.462 192.329 324.218 192.329 320.217C192.329 316.216 189.067 312.972 185.043 312.972C181.02 312.972 177.758 316.216 177.758 320.217C177.758 324.218 181.02 327.462 185.043 327.462Z" fill="#C86FC9"/>
<path d="M164.645 327.462C168.669 327.462 171.93 324.218 171.93 320.217C171.93 316.216 168.669 312.972 164.645 312.972C160.622 312.972 157.36 316.216 157.36 320.217C157.36 324.218 160.622 327.462 164.645 327.462Z" fill="#C86FC9"/>
<path d="M144.247 327.462C148.27 327.462 151.532 324.218 151.532 320.217C151.532 316.216 148.27 312.972 144.247 312.972C140.223 312.972 136.961 316.216 136.961 320.217C136.961 324.218 140.223 327.462 144.247 327.462Z" fill="#C86FC9"/>
<path d="M123.848 327.462C127.872 327.462 131.133 324.218 131.133 320.217C131.133 316.216 127.872 312.972 123.848 312.972C119.825 312.972 116.563 316.216 116.563 320.217C116.563 324.218 119.825 327.462 123.848 327.462Z" fill="#C86FC9"/>
<path d="M103.449 327.462C107.473 327.462 110.735 324.218 110.735 320.217C110.735 316.216 107.473 312.972 103.449 312.972C99.426 312.972 96.1643 316.216 96.1643 320.217C96.1643 324.218 99.426 327.462 103.449 327.462Z" fill="#C86FC9"/>
<path d="M332.204 81.8655V26.8055H359.888V0H224.384V134.752H340.218V121.577C340.218 119.121 340.704 116.689 341.649 114.42C342.595 112.151 343.98 110.089 345.726 108.353C347.472 106.616 349.546 105.239 351.827 104.299C354.109 103.359 356.555 102.875 359.024 102.875H359.888V81.8655H332.204Z" fill="#F0F0F0"/>
<path d="M482.279 347.747H391.943V366.583H482.279V347.747Z" fill="#C86FC9"/>
<path d="M501.949 255.015H369.359V272.402H501.949V255.015Z" fill="#F0F0F0"/>
<path d="M566.787 445.551H0V447H566.787V445.551Z" fill="#3F3D56"/>
<path d="M524.668 447H359.024C353.845 446.994 348.88 444.945 345.218 441.304C341.555 437.662 339.495 432.724 339.49 427.574V121.577C339.495 116.427 341.555 111.489 345.218 107.847C348.88 104.205 353.845 102.156 359.024 102.151H524.668C529.847 102.156 534.813 104.205 538.475 107.847C542.137 111.489 544.197 116.427 544.203 121.577V427.574C544.197 432.724 542.137 437.662 538.475 441.304C534.813 444.945 529.847 446.994 524.668 447V447ZM359.024 103.6C354.231 103.605 349.636 105.501 346.247 108.871C342.858 112.241 340.952 116.811 340.947 121.577V427.574C340.952 432.34 342.858 436.909 346.247 440.28C349.636 443.65 354.231 445.546 359.024 445.551H524.668C529.461 445.546 534.056 443.65 537.445 440.28C540.834 436.909 542.741 432.34 542.746 427.574V121.577C542.741 116.811 540.834 112.241 537.445 108.871C534.056 105.501 529.461 103.605 524.668 103.6H359.024Z" fill="#3F3D56"/>
<path d="M422.176 116.64C421.312 116.64 420.467 116.385 419.748 115.908C419.029 115.43 418.469 114.751 418.138 113.957C417.807 113.163 417.721 112.289 417.889 111.445C418.058 110.602 418.474 109.828 419.085 109.22C419.697 108.612 420.476 108.198 421.324 108.03C422.171 107.862 423.05 107.948 423.849 108.277C424.648 108.606 425.33 109.164 425.811 109.878C426.291 110.593 426.547 111.434 426.547 112.293C426.546 113.446 426.085 114.551 425.266 115.366C424.446 116.181 423.335 116.639 422.176 116.64V116.64ZM422.176 109.395C421.6 109.395 421.037 109.565 420.557 109.884C420.078 110.202 419.705 110.655 419.484 111.184C419.263 111.714 419.206 112.297 419.318 112.859C419.431 113.421 419.708 113.937 420.116 114.343C420.523 114.748 421.043 115.024 421.608 115.136C422.173 115.247 422.759 115.19 423.291 114.971C423.824 114.751 424.279 114.38 424.599 113.903C424.919 113.427 425.09 112.867 425.09 112.293C425.09 111.525 424.782 110.788 424.236 110.245C423.69 109.702 422.949 109.396 422.176 109.395V109.395Z" fill="#3F3D56"/>
<path d="M465.159 111.569H433.104V113.018H465.159V111.569Z" fill="#3F3D56"/>
<path d="M531.09 123.16V181.118C515.633 181.118 500.809 175.011 489.879 164.142C478.949 153.273 472.809 138.532 472.808 123.16H531.09Z" fill="#C86FC9"/>
<path d="M531.818 427.439H351.874V122.436H531.818V427.439ZM353.331 425.99H530.361V123.885H353.331V425.99Z" fill="#3F3D56"/>
<path opacity="0.1" d="M488.836 177.496C499.699 177.496 508.506 168.738 508.506 157.935C508.506 147.132 499.699 138.375 488.836 138.375C477.972 138.375 469.166 147.132 469.166 157.935C469.166 168.738 477.972 177.496 488.836 177.496Z" fill="black"/>
<path d="M485.921 179.669C496.785 179.669 505.591 170.912 505.591 160.109C505.591 149.306 496.785 140.548 485.921 140.548C475.058 140.548 466.251 149.306 466.251 160.109C466.251 170.912 475.058 179.669 485.921 179.669Z" fill="#C86FC9"/>
<path d="M387.572 134.752H359.888V144.895H387.572V134.752Z" fill="#3F3D56"/>
<path d="M402.87 231.107H375.187V241.25H402.87V231.107Z" fill="#3F3D56"/>
<path d="M509.234 268.78H375.187V249.943H509.234V268.78ZM376.644 267.331H507.777V251.392H376.644V267.331Z" fill="#3F3D56"/>
<path d="M501.949 310.074H369.359V327.462H501.949V310.074Z" fill="#F0F0F0"/>
<path d="M402.87 286.167H375.187V296.31H402.87V286.167Z" fill="#3F3D56"/>
<path d="M509.234 323.839H375.187V305.003H509.234V323.839ZM376.644 322.391H507.777V306.452H376.644V322.391Z" fill="#3F3D56"/>
<path d="M488.107 362.237H396.314V341.951H488.107V362.237ZM397.771 360.788H486.65V343.4H397.771V360.788Z" fill="#3F3D56"/>
<path d="M505.591 261.535C505.591 263.026 505.128 264.481 504.266 265.701C503.403 266.921 502.183 267.847 500.772 268.352C499.36 268.857 497.827 268.916 496.38 268.522C494.934 268.128 493.645 267.299 492.689 266.15L492.682 266.142C491.986 265.302 491.489 264.317 491.228 263.26C490.967 262.202 490.949 261.1 491.176 260.035C491.403 258.97 491.868 257.969 492.537 257.107C493.206 256.245 494.062 255.545 495.041 255.057C496.02 254.569 497.096 254.308 498.191 254.291C499.286 254.274 500.37 254.503 501.364 254.96C502.357 255.418 503.234 256.092 503.93 256.933C504.625 257.774 505.121 258.76 505.38 259.818C505.38 259.819 505.38 259.82 505.381 259.821C505.381 259.821 505.382 259.822 505.382 259.823C505.383 259.824 505.384 259.824 505.385 259.824C505.386 259.825 505.387 259.825 505.387 259.825C505.522 260.385 505.591 260.959 505.591 261.535V261.535Z" fill="#C86FC9"/>
<path opacity="0.1" d="M505.592 261.535C505.591 263.026 505.128 264.481 504.266 265.701C503.403 266.922 502.183 267.847 500.772 268.352C499.36 268.857 497.827 268.916 496.38 268.522C494.934 268.128 493.645 267.299 492.69 266.15L492.682 266.142C492.548 265.582 492.479 265.009 492.478 264.433C492.478 262.941 492.941 261.486 493.804 260.266C494.667 259.046 495.887 258.12 497.298 257.616C498.709 257.111 500.243 257.051 501.69 257.446C503.136 257.84 504.425 258.668 505.38 259.818C505.38 259.819 505.38 259.82 505.381 259.821C505.381 259.821 505.382 259.822 505.382 259.823C505.383 259.824 505.384 259.824 505.385 259.825C505.386 259.825 505.387 259.825 505.388 259.825C505.522 260.385 505.591 260.959 505.592 261.535V261.535Z" fill="black"/>
<path d="M501.22 273.126C505.244 273.126 508.506 269.883 508.506 265.882C508.506 261.881 505.244 258.637 501.22 258.637C497.197 258.637 493.935 261.881 493.935 265.882C493.935 269.883 497.197 273.126 501.22 273.126Z" fill="#C86FC9"/>
<path d="M505.591 316.595C505.591 318.086 505.128 319.541 504.266 320.761C503.403 321.981 502.183 322.907 500.772 323.412C499.36 323.917 497.827 323.976 496.38 323.582C494.934 323.188 493.645 322.359 492.689 321.21L492.682 321.202C491.986 320.362 491.489 319.377 491.228 318.32C490.967 317.262 490.949 316.16 491.176 315.095C491.403 314.03 491.868 313.029 492.537 312.167C493.206 311.305 494.062 310.605 495.041 310.117C496.02 309.63 497.096 309.368 498.191 309.351C499.286 309.334 500.37 309.563 501.364 310.021C502.357 310.478 503.234 311.152 503.93 311.993C504.625 312.834 505.121 313.82 505.38 314.878C505.38 314.879 505.38 314.88 505.381 314.881C505.381 314.881 505.382 314.882 505.382 314.883C505.383 314.884 505.384 314.884 505.385 314.885C505.386 314.885 505.387 314.885 505.387 314.885C505.522 315.445 505.591 316.019 505.591 316.595V316.595Z" fill="#C86FC9"/>
<path opacity="0.1" d="M505.592 316.595C505.591 318.086 505.128 319.541 504.266 320.761C503.403 321.982 502.183 322.907 500.772 323.412C499.36 323.917 497.827 323.976 496.38 323.582C494.934 323.188 493.645 322.359 492.69 321.21L492.682 321.203C492.548 320.642 492.479 320.069 492.478 319.493C492.478 318.001 492.941 316.546 493.804 315.326C494.667 314.106 495.887 313.18 497.298 312.676C498.709 312.171 500.243 312.111 501.69 312.506C503.136 312.9 504.425 313.728 505.38 314.878C505.38 314.879 505.38 314.88 505.381 314.881C505.381 314.882 505.382 314.882 505.382 314.883C505.383 314.884 505.384 314.884 505.385 314.885C505.386 314.885 505.387 314.885 505.388 314.885C505.522 315.445 505.591 316.019 505.592 316.595V316.595Z" fill="black"/>
<path d="M501.22 328.186C505.244 328.186 508.506 324.943 508.506 320.942C508.506 316.941 505.244 313.697 501.22 313.697C497.197 313.697 493.935 316.941 493.935 320.942C493.935 324.943 497.197 328.186 501.22 328.186Z" fill="#C86FC9"/>
<path d="M378.829 34.7747H340.947V72.4473H378.829V34.7747Z" fill="#F0F0F0"/>
<path d="M488.835 62.3046C487.106 62.3046 485.416 61.7947 483.979 60.8394C482.541 59.8842 481.42 58.5264 480.759 56.9378C480.097 55.3493 479.924 53.6013 480.261 51.9149C480.599 50.2285 481.431 48.6794 482.654 47.4636C483.876 46.2477 485.434 45.4197 487.13 45.0843C488.826 44.7488 490.584 44.921 492.181 45.579C493.778 46.237 495.144 47.3513 496.104 48.781C497.065 50.2106 497.578 51.8915 497.578 53.6109C497.575 55.9158 496.653 58.1256 495.014 59.7554C493.375 61.3853 491.153 62.302 488.835 62.3046V62.3046ZM488.835 46.3662C487.395 46.3662 485.986 46.7911 484.788 47.5871C483.59 48.3832 482.656 49.5147 482.105 50.8385C481.553 52.1623 481.409 53.619 481.69 55.0243C481.971 56.4296 482.665 57.7205 483.684 58.7337C484.703 59.7469 486.001 60.4369 487.414 60.7164C488.827 60.996 490.292 60.8525 491.623 60.3042C492.955 59.7558 494.092 58.8273 494.893 57.6359C495.693 56.4445 496.121 55.0438 496.121 53.6109C496.118 51.6902 495.35 49.8487 493.984 48.4905C492.619 47.1324 490.767 46.3684 488.835 46.3662V46.3662Z" fill="#3F3D56"/>
<path d="M296.507 183.292H277.565V164.455H296.507V183.292ZM279.022 181.843H295.05V165.904H279.022V181.843Z" fill="#3F3D56"/>
<path d="M585 323.839H566.059V305.003H585V323.839ZM567.516 322.391H583.543V306.452H567.516V322.391Z" fill="#3F3D56"/>
<path d="M211.272 197.539L214.523 199.28L225.583 205.208L243.439 214.776L253.845 195.576C254.825 193.772 255.438 191.794 255.648 189.754C255.858 187.714 255.662 185.653 255.07 183.689C254.479 181.725 253.503 179.896 252.2 178.307C250.897 176.718 249.291 175.401 247.475 174.429C243.594 172.345 239.149 171.54 234.778 172.13C230.408 172.72 226.338 174.674 223.156 177.711L223.151 177.716C221.585 179.211 220.264 180.941 219.235 182.841L211.272 197.539Z" fill="#2F2E41"/>
<path d="M260.008 393.343L257.827 417.207L249.646 418.291L244.192 391.174L260.008 393.343Z" fill="#FFB8B8"/>
<path d="M247.464 418.292C247.464 418.292 257.827 412.868 260.008 417.207C260.008 417.207 258.372 430.223 264.917 431.851C271.461 433.478 274.188 444.867 264.917 445.952C255.645 447.037 249.646 443.783 246.374 443.783C243.101 443.783 246.374 432.393 246.374 432.393L247.464 418.292Z" fill="#2F2E41"/>
<path d="M194.016 393.343L196.198 417.207L204.379 418.291L209.832 391.174L194.016 393.343Z" fill="#FFB8B8"/>
<path d="M206.56 418.292C206.56 418.292 196.197 412.868 194.016 417.207C194.016 417.207 195.652 430.223 189.107 431.851C182.563 433.478 179.836 444.867 189.107 445.952C198.379 447.037 204.378 443.783 207.651 443.783C210.923 443.783 207.651 432.393 207.651 432.393L206.56 418.292Z" fill="#2F2E41"/>
<path d="M238.738 201.889C246.569 201.889 252.918 195.576 252.918 187.788C252.918 180 246.569 173.687 238.738 173.687C230.907 173.687 224.558 180 224.558 187.788C224.558 195.576 230.907 201.889 238.738 201.889Z" fill="#FFB8B8"/>
<path d="M193.471 215.448L204.924 233.346L218.559 232.262L240.92 233.889C240.92 233.889 243.03 229.691 244.754 225.607C245.697 223.567 246.423 221.435 246.919 219.245C247.464 215.448 239.829 211.652 239.829 211.652C239.829 211.652 239.529 211.598 239.027 211.478C238.362 211.321 237.336 211.061 236.213 210.681C233.677 209.824 230.628 208.37 230.012 206.228C228.921 202.432 237.102 197.008 237.102 197.008L227.285 187.788C227.285 187.788 218.564 199.834 207.973 202.578C207.359 202.739 206.736 202.866 206.107 202.958C206.075 202.963 206.047 202.969 206.015 202.974C194.561 204.601 193.471 215.448 193.471 215.448Z" fill="#FFB8B8"/>
<path d="M199.47 210.567L193.471 215.448C193.471 215.448 188.562 238.77 190.198 245.278C191.835 251.787 189.653 257.753 189.653 258.837C189.653 259.922 184.744 300.599 184.744 300.599C184.744 300.599 174.927 322.294 185.29 320.124C195.652 317.955 191.835 296.26 191.835 296.26L204.379 258.295V226.296L199.47 210.567Z" fill="#FFB8B8"/>
<path d="M242.556 214.906L246.919 218.16L249.1 263.719L265.462 302.769C265.462 302.769 277.46 321.751 269.825 322.294C262.19 322.836 257.281 302.769 257.281 302.769L242.556 265.346L240.374 229.007L242.556 214.906Z" fill="#FFB8B8"/>
<path d="M215.286 218.16C215.286 218.16 226.194 225.753 243.646 223.041C243.646 223.041 248.555 232.804 245.828 238.228C243.101 243.651 249.1 256.668 250.191 258.295C251.282 259.922 263.826 293.548 268.189 329.887C272.552 366.225 284.551 391.173 274.188 394.428C263.826 397.682 242.556 401.478 240.374 398.224C238.193 394.97 234.92 314.158 234.92 314.158L228.921 345.073C228.921 345.073 237.102 397.682 231.102 398.767C225.103 399.851 187.471 396.597 188.562 390.089C189.653 383.58 200.561 349.412 200.561 349.412C200.561 349.412 200.015 281.074 210.923 268.057C210.923 268.057 215.286 261.007 209.287 251.787C203.288 242.566 203.833 227.923 203.833 227.923C203.833 227.923 208.196 227.923 215.286 218.16Z" fill="#2F2E41"/>
<path d="M206.107 202.957L215.287 223.041L217.468 221.957L207.972 202.578L206.107 202.957Z" fill="#2F2E41"/>
<path d="M236.213 210.681L243.101 225.753L244.754 225.607L244.192 223.041L239.027 211.478C238.362 211.321 237.336 211.061 236.213 210.681Z" fill="#2F2E41"/>
<path d="M214.523 199.281C215.047 200.958 216.058 202.445 217.428 203.554C218.798 204.664 220.467 205.346 222.226 205.516C223.984 205.686 225.754 205.337 227.314 204.511C228.873 203.686 230.153 202.421 230.993 200.875C224.094 191.905 230.012 186.269 241.219 182.006C242.064 180.448 242.423 178.676 242.251 176.914C242.079 175.152 241.384 173.481 240.254 172.114C237.165 171.721 234.026 172.019 231.068 172.988C228.11 173.956 225.407 175.57 223.156 177.711L223.151 177.716L215.188 192.404C214.621 193.448 214.27 194.594 214.156 195.775C214.041 196.956 214.166 198.148 214.523 199.281V199.281Z" fill="#2F2E41"/>
<path d="M230.284 192.669C231.339 192.669 232.193 191.212 232.193 189.415C232.193 187.618 231.339 186.161 230.284 186.161C229.23 186.161 228.375 187.618 228.375 189.415C228.375 191.212 229.23 192.669 230.284 192.669Z" fill="#FFB8B8"/>
<path d="M235.973 184.105L252.367 191.492L255.372 184.897C254.855 182.487 253.771 180.232 252.209 178.318L240.925 173.236L235.973 184.105Z" fill="#2F2E41"/>
<path d="M275.38 329.635C279.403 329.635 282.665 326.392 282.665 322.391C282.665 318.39 279.403 315.146 275.38 315.146C271.356 315.146 268.095 318.39 268.095 322.391C268.095 326.392 271.356 329.635 275.38 329.635Z" fill="#C86FC9"/>
<path d="M41.4938 372.703C44.1233 372.703 46.2549 370.583 46.2549 367.968C46.2549 365.353 44.1233 363.233 41.4938 363.233C38.8643 363.233 36.7327 365.353 36.7327 367.968C36.7327 370.583 38.8643 372.703 41.4938 372.703Z" fill="#FF6584"/>
<path d="M65.5486 392.645H64.0916V446.554H65.5486V392.645Z" fill="#3F3D56"/>
<path d="M64.8201 400.268C69.054 400.268 72.4862 396.855 72.4862 392.644C72.4862 388.434 69.054 385.021 64.8201 385.021C60.5863 385.021 57.1541 388.434 57.1541 392.644C57.1541 396.855 60.5863 400.268 64.8201 400.268Z" fill="#3F3D56"/>
<path d="M64.8202 425.87C64.8202 425.87 63.725 402.446 41.2744 405.169Z" fill="#3F3D56"/>
</svg>
