<svg width="405" height="356" viewBox="0 0 405 356" fill="none" xmlns="http://www.w3.org/2000/svg">
<path d="M11.5299 232.74C11.5299 232.74 28.1899 300.25 94.2999 332.74C160.41 365.23 239.35 350.68 303.62 340.59C367.89 330.5 408.86 283.39 404.62 227.23C400.38 171.07 348.52 166.07 309.06 110C269.6 53.9302 267.59 33.0002 203.91 7.52016C140.23 -17.9598 58.2799 25.1902 26.6099 100.9C-5.06009 176.61 11.5299 232.74 11.5299 232.74Z" fill="#C86FC9"/>
<path opacity="0.7" d="M11.5299 232.74C11.5299 232.74 28.1899 300.25 94.2999 332.74C160.41 365.23 239.35 350.68 303.62 340.59C367.89 330.5 408.86 283.39 404.62 227.23C400.38 171.07 348.52 166.07 309.06 110C269.6 53.9302 267.59 33.0002 203.91 7.52016C140.23 -17.9598 58.2799 25.1902 26.6099 100.9C-5.06009 176.61 11.5299 232.74 11.5299 232.74Z" fill="white"/>
<path d="M300.26 112.5C300.26 111.885 300.139 111.275 299.903 110.707C299.667 110.138 299.321 109.622 298.886 109.187C298.45 108.753 297.933 108.408 297.364 108.174C296.795 107.939 296.185 107.819 295.57 107.82H290.65C290.327 105.72 289.777 103.662 289.01 101.68L293.27 99.2201C293.803 98.9126 294.27 98.503 294.644 98.0147C295.019 97.5265 295.293 96.9692 295.452 96.3747C295.611 95.7803 295.651 95.1604 295.57 94.5504C295.489 93.9405 295.289 93.3525 294.98 92.8201C294.673 92.2872 294.263 91.8202 293.775 91.4457C293.286 91.0713 292.729 90.7968 292.135 90.638C291.54 90.4791 290.92 90.4391 290.31 90.5201C289.7 90.6011 289.112 90.8016 288.58 91.1101L284.33 93.5601C282.995 91.9101 281.49 90.4051 279.84 89.0701L282.29 84.8201C282.599 84.2878 282.799 83.6998 282.88 83.0898C282.961 82.4799 282.921 81.86 282.762 81.2655C282.603 80.6711 282.329 80.1138 281.954 79.6255C281.58 79.1373 281.113 78.7277 280.58 78.4201C280.048 78.1116 279.46 77.9111 278.85 77.8301C278.24 77.7491 277.62 77.7891 277.025 77.948C276.431 78.1068 275.874 78.3813 275.385 78.7557C274.897 79.1302 274.488 79.5972 274.18 80.1301L271.72 84.3901C269.739 83.6232 267.68 83.0733 265.58 82.7501V77.8301C265.58 76.588 265.087 75.3966 264.21 74.5173C263.333 73.6381 262.142 73.1428 260.9 73.1401C259.656 73.1401 258.463 73.6343 257.584 74.5138C256.704 75.3934 256.21 76.5863 256.21 77.8301V82.7501C254.11 83.0733 252.051 83.6232 250.07 84.3901L247.62 80.1301C247.312 79.5972 246.903 79.1302 246.415 78.7557C245.926 78.3813 245.369 78.1068 244.775 77.948C244.18 77.7891 243.56 77.7491 242.95 77.8301C242.34 77.9111 241.752 78.1116 241.22 78.4201C240.144 79.0415 239.359 80.0644 239.036 81.2643C238.714 82.4643 238.88 83.7431 239.5 84.8201L241.96 89.0701C240.304 90.4024 238.796 91.9076 237.46 93.5601L233.21 91.1101C232.678 90.8016 232.09 90.6011 231.48 90.5201C230.87 90.4391 230.25 90.4791 229.655 90.638C229.061 90.7968 228.504 91.0713 228.015 91.4457C227.527 91.8202 227.118 92.2872 226.81 92.8201C226.19 93.896 226.021 95.1739 226.342 96.3737C226.662 97.5735 227.446 98.5971 228.52 99.2201L232.78 101.68C232.018 103.663 231.468 105.721 231.14 107.82H226.22C225.605 107.819 224.996 107.939 224.428 108.174C223.859 108.408 223.343 108.753 222.908 109.188C222.473 109.623 222.128 110.139 221.894 110.708C221.659 111.276 221.539 111.885 221.54 112.5V112.5C221.539 113.116 221.659 113.725 221.893 114.294C222.128 114.863 222.473 115.38 222.907 115.816C223.342 116.251 223.858 116.597 224.427 116.833C224.995 117.069 225.605 117.19 226.22 117.19H231.14C231.462 119.287 232.012 121.343 232.78 123.32L228.52 125.78C227.446 126.403 226.662 127.427 226.342 128.627C226.021 129.826 226.19 131.104 226.81 132.18V132.18C227.431 133.256 228.454 134.042 229.654 134.364C230.854 134.687 232.133 134.52 233.21 133.9L237.46 131.44C238.796 133.096 240.304 134.604 241.96 135.94L239.5 140.19C238.88 141.267 238.714 142.546 239.036 143.746C239.359 144.946 240.144 145.969 241.22 146.59V146.59C241.753 146.898 242.342 147.098 242.952 147.178C243.562 147.259 244.182 147.218 244.777 147.058C245.371 146.898 245.929 146.623 246.416 146.247C246.904 145.872 247.313 145.404 247.62 144.87L250.07 140.62C252.053 141.383 254.111 141.932 256.21 142.26V147.18C256.213 148.422 256.708 149.613 257.587 150.49C258.466 151.367 259.658 151.86 260.9 151.86V151.86C262.14 151.857 263.329 151.364 264.206 150.486C265.083 149.609 265.577 148.421 265.58 147.18V142.26C267.678 141.927 269.736 141.378 271.72 140.62L274.18 144.87C274.487 145.404 274.896 145.872 275.384 146.247C275.872 146.623 276.429 146.898 277.023 147.058C277.618 147.218 278.238 147.259 278.848 147.178C279.459 147.098 280.047 146.898 280.58 146.59V146.59C281.113 146.283 281.58 145.873 281.954 145.385C282.329 144.896 282.603 144.339 282.762 143.745C282.921 143.15 282.961 142.53 282.88 141.92C282.799 141.31 282.599 140.723 282.29 140.19L279.84 135.94C281.49 134.602 282.995 133.093 284.33 131.44L288.58 133.9C289.657 134.52 290.936 134.687 292.136 134.364C293.336 134.042 294.359 133.256 294.98 132.18V132.18C295.289 131.648 295.489 131.06 295.57 130.45C295.651 129.84 295.611 129.22 295.452 128.626C295.293 128.031 295.019 127.474 294.644 126.986C294.27 126.497 293.803 126.088 293.27 125.78L289 123.32C289.768 121.343 290.318 119.287 290.64 117.19H295.56C296.177 117.191 296.788 117.071 297.358 116.836C297.928 116.601 298.446 116.256 298.883 115.82C299.319 115.384 299.666 114.867 299.902 114.297C300.138 113.728 300.26 113.117 300.26 112.5V112.5ZM281.35 112.5C281.35 116.545 280.151 120.499 277.904 123.862C275.657 127.225 272.463 129.846 268.726 131.393C264.989 132.941 260.877 133.346 256.91 132.557C252.944 131.768 249.3 129.82 246.44 126.96C243.58 124.1 241.632 120.457 240.843 116.49C240.054 112.523 240.459 108.411 242.007 104.674C243.555 100.938 246.176 97.7437 249.539 95.4966C252.902 93.2495 256.855 92.0501 260.9 92.0501C266.322 92.0554 271.521 94.2117 275.355 98.0457C279.189 101.88 281.345 107.078 281.35 112.5V112.5Z" stroke="black" stroke-miterlimit="10"/>
<path d="M336.79 43.9999C336.79 43.2856 336.507 42.6003 336.003 42.0943C335.499 41.5882 334.814 41.3026 334.1 41.2999H331.27C331.077 40.0933 330.759 38.9102 330.32 37.7699L332.77 36.3599C333.39 36.0039 333.843 35.4165 334.031 34.7266C334.218 34.0368 334.124 33.3007 333.77 32.6799V32.6799C333.414 32.06 332.827 31.6066 332.137 31.4192C331.447 31.2317 330.711 31.3255 330.09 31.6799L327.64 33.0899C326.872 32.1423 326.008 31.2776 325.06 30.5099L326.47 28.0599C326.824 27.4391 326.918 26.703 326.731 26.0132C326.543 25.3233 326.09 24.736 325.47 24.3799V24.3799C324.849 24.0255 324.113 23.9317 323.423 24.1192C322.733 24.3066 322.146 24.76 321.79 25.3799L320.38 27.8299C319.243 27.3692 318.06 27.0339 316.85 26.8299V24.0899C316.85 23.7358 316.78 23.3852 316.644 23.0582C316.508 22.7312 316.309 22.4342 316.059 22.1843C315.808 21.9343 315.51 21.7364 315.182 21.6018C314.855 21.4672 314.504 21.3986 314.15 21.3999V21.3999C313.796 21.3986 313.445 21.4672 313.118 21.6018C312.79 21.7364 312.492 21.9343 312.241 22.1843C311.991 22.4342 311.792 22.7312 311.656 23.0582C311.52 23.3852 311.45 23.7358 311.45 24.0899V26.9199C310.24 27.1239 309.057 27.4592 307.92 27.9199L306.51 25.4699C306.154 24.85 305.567 24.3966 304.877 24.2092C304.187 24.0217 303.451 24.1155 302.83 24.4699V24.4699C302.21 24.826 301.757 25.4133 301.569 26.1032C301.382 26.7931 301.476 27.5291 301.83 28.1499L303.24 30.5999C302.292 31.3676 301.428 32.2323 300.66 33.1799L298.21 31.7699C297.589 31.4155 296.853 31.3217 296.163 31.5092C295.473 31.6966 294.886 32.15 294.53 32.7699V32.7699C294.176 33.3907 294.082 34.1268 294.269 34.8166C294.457 35.5065 294.91 36.0939 295.53 36.4499L297.98 37.8599C297.524 38.9983 297.189 40.1815 296.98 41.3899H294.2C293.486 41.3926 292.801 41.6782 292.297 42.1843C291.793 42.6903 291.51 43.3756 291.51 44.0899V44.0899C291.51 44.8033 291.793 45.4876 292.298 45.992C292.802 46.4965 293.487 46.7799 294.2 46.7799H297C297.206 47.9889 297.541 49.1724 298 50.3099L295.55 51.7299C294.93 52.086 294.477 52.6733 294.289 53.3632C294.102 54.0531 294.196 54.7891 294.55 55.4099C294.906 56.0298 295.493 56.4832 296.183 56.6707C296.873 56.8581 297.609 56.7644 298.23 56.4099L300.68 54.9899C301.447 55.9407 302.312 56.8088 303.26 57.5799L301.84 59.9999C301.486 60.6207 301.392 61.3568 301.579 62.0466C301.767 62.7365 302.22 63.3239 302.84 63.6799C303.461 64.0344 304.197 64.1281 304.887 63.9407C305.577 63.7532 306.164 63.2998 306.52 62.6799L307.93 60.2299C309.07 60.6689 310.253 60.9873 311.46 61.1799V63.9999C311.46 64.716 311.744 65.4028 312.251 65.9091C312.757 66.4155 313.444 66.6999 314.16 66.6999C314.876 66.6999 315.563 66.4155 316.069 65.9091C316.576 65.4028 316.86 64.716 316.86 63.9999V61.1799C318.067 60.9873 319.25 60.6689 320.39 60.2299L321.8 62.6799C322.156 63.2998 322.743 63.7532 323.433 63.9407C324.123 64.1281 324.859 64.0344 325.48 63.6799C326.1 63.3239 326.553 62.7365 326.741 62.0466C326.928 61.3568 326.834 60.6207 326.48 59.9999L325.07 57.5499C326.018 56.7788 326.883 55.9107 327.65 54.9599L330.1 56.3799C330.721 56.7344 331.457 56.8281 332.147 56.6407C332.837 56.4532 333.424 55.9998 333.78 55.3799V55.3799C334.134 54.7591 334.228 54.023 334.041 53.3332C333.853 52.6433 333.4 52.056 332.78 51.6999L330.33 50.2799C330.771 49.1404 331.09 47.9571 331.28 46.7499H334.11C334.468 46.7487 334.821 46.6762 335.15 46.5367C335.48 46.3972 335.778 46.1934 336.027 45.9374C336.277 45.6813 336.473 45.3781 336.604 45.0455C336.735 44.7128 336.798 44.3574 336.79 43.9999V43.9999ZM325.91 43.9999C325.91 46.3258 325.22 48.5995 323.928 50.5334C322.636 52.4674 320.799 53.9747 318.65 54.8647C316.502 55.7548 314.137 55.9877 311.856 55.534C309.575 55.0802 307.479 53.9602 305.834 52.3155C304.19 50.6708 303.07 48.5754 302.616 46.2942C302.162 44.013 302.395 41.6484 303.285 39.4996C304.175 37.3507 305.683 35.514 307.616 34.2218C309.55 32.9296 311.824 32.2399 314.15 32.2399C317.268 32.2426 320.258 33.4824 322.463 35.6873C324.668 37.8921 325.907 40.8818 325.91 43.9999V43.9999Z" stroke="black" stroke-miterlimit="10"/>
<path d="M70.8201 177C70.8201 176.469 70.6094 175.961 70.2343 175.586C69.8592 175.21 69.3505 175 68.8201 175H66.7301C66.5902 174.107 66.3555 173.232 66.0301 172.39L67.8401 171.39C68.2959 171.124 68.6283 170.689 68.765 170.18C68.9017 169.671 68.8317 169.128 68.5701 168.67C68.3046 168.214 67.8698 167.882 67.3604 167.745C66.8509 167.608 66.3081 167.678 65.8501 167.94L64.0401 168.94C63.4701 168.24 62.8301 167.6 62.1301 167.03L63.1301 165.23C63.3925 164.773 63.4641 164.231 63.3293 163.722C63.1945 163.212 62.8642 162.777 62.4101 162.51V162.51C61.9521 162.248 61.4093 162.178 60.8998 162.315C60.3904 162.452 59.9556 162.784 59.6901 163.24L58.6901 165.04C57.8475 164.716 56.9724 164.485 56.0801 164.35V162.26C56.0801 161.729 55.8694 161.221 55.4943 160.846C55.1193 160.47 54.6105 160.26 54.0801 160.26C53.5497 160.26 53.041 160.47 52.6659 160.846C52.2908 161.221 52.0801 161.729 52.0801 162.26V164.35C51.1883 164.488 50.3135 164.719 49.4701 165.04L48.4701 163.24C48.2046 162.784 47.7698 162.452 47.2604 162.315C46.7509 162.178 46.2081 162.248 45.7501 162.51V162.51C45.2943 162.775 44.9619 163.21 44.8252 163.719C44.6885 164.229 44.7585 164.772 45.0201 165.23L46.0201 167.03C45.3154 167.595 44.6748 168.235 44.1101 168.94L42.3001 167.94C41.8421 167.678 41.2993 167.608 40.7898 167.745C40.2804 167.882 39.8456 168.214 39.5801 168.67C39.3185 169.128 39.2485 169.671 39.3852 170.18C39.5219 170.689 39.8543 171.124 40.3101 171.39L42.1201 172.39C41.7947 173.232 41.56 174.107 41.4201 175H39.3601C38.8297 175 38.321 175.21 37.9459 175.586C37.5708 175.961 37.3601 176.469 37.3601 177C37.3601 177.53 37.5708 178.039 37.9459 178.414C38.321 178.789 38.8297 179 39.3601 179H41.4501C41.5887 179.892 41.8234 180.768 42.1501 181.61L40.3401 182.61C39.8843 182.875 39.5519 183.31 39.4152 183.82C39.2785 184.329 39.3485 184.872 39.6101 185.33C39.8756 185.786 40.3104 186.118 40.8198 186.255C41.3293 186.391 41.8721 186.321 42.3301 186.06L44.1401 185.06C44.6898 185.77 45.3133 186.421 46.0001 187L45.0001 188.81C44.7385 189.268 44.6685 189.811 44.8052 190.32C44.9419 190.829 45.2743 191.264 45.7301 191.53C46.1881 191.791 46.7309 191.861 47.2404 191.725C47.7498 191.588 48.1846 191.256 48.4501 190.8L49.4501 188.99C50.2947 189.309 51.169 189.544 52.0601 189.69V191.78C52.0601 192.31 52.2708 192.819 52.6459 193.194C53.021 193.569 53.5297 193.78 54.0601 193.78C54.5905 193.78 55.0992 193.569 55.4743 193.194C55.8494 192.819 56.0601 192.31 56.0601 191.78V189.69C56.9518 189.546 57.8263 189.312 58.6701 188.99L59.6701 190.8C59.9356 191.256 60.3704 191.588 60.8798 191.725C61.3893 191.861 61.9321 191.791 62.3901 191.53C62.8442 191.263 63.1745 190.827 63.3093 190.318C63.4441 189.809 63.3725 189.267 63.1101 188.81L62.1101 187C62.8101 186.43 63.4501 185.79 64.0201 185.09L65.8301 186.09C66.2881 186.351 66.8309 186.421 67.3404 186.285C67.8498 186.148 68.2846 185.816 68.5501 185.36C68.8117 184.902 68.8817 184.359 68.745 183.85C68.6083 183.34 68.2759 182.905 67.8201 182.64L66.0101 181.64C66.3368 180.798 66.5715 179.922 66.7101 179.03H68.8001C69.067 179.032 69.3317 178.982 69.5786 178.881C69.8256 178.779 70.0498 178.63 70.238 178.441C70.4263 178.251 70.5748 178.026 70.6747 177.779C70.7747 177.532 70.8241 177.267 70.8201 177V177ZM62.8201 177C62.8201 178.718 62.3104 180.399 61.3556 181.828C60.4007 183.257 59.0435 184.371 57.4556 185.028C55.8677 185.686 54.1205 185.858 52.4348 185.523C50.7491 185.187 49.2007 184.36 47.9854 183.145C46.77 181.929 45.9424 180.381 45.6071 178.695C45.2718 177.009 45.4439 175.262 46.1016 173.674C46.7593 172.086 47.8731 170.729 49.3022 169.774C50.7313 168.819 52.4114 168.31 54.1301 168.31C56.4271 168.323 58.6256 169.244 60.2461 170.872C61.8666 172.5 62.7775 174.703 62.7801 177H62.8201Z" stroke="black" stroke-miterlimit="10"/>
<path d="M356.57 75.6501C356.57 75.1197 356.359 74.611 355.984 74.2359C355.609 73.8609 355.101 73.6501 354.57 73.6501H352.48C352.345 72.7578 352.113 71.8828 351.79 71.0401L353.6 70.0401C354.054 69.773 354.384 69.3375 354.519 68.8282C354.654 68.3189 354.583 67.777 354.32 67.3202C354.055 66.8644 353.62 66.532 353.11 66.3952C352.601 66.2585 352.058 66.3286 351.6 66.5901L349.8 67.5901C349.23 66.8901 348.59 66.2501 347.89 65.6801L348.89 63.8701C349.152 63.4121 349.222 62.8693 349.085 62.3599C348.948 61.8504 348.616 61.4157 348.16 61.1501V61.1501C347.702 60.8886 347.159 60.8185 346.65 60.9552C346.14 61.092 345.706 61.4244 345.44 61.8802L344.44 63.6902C343.597 63.368 342.722 63.1367 341.83 63.0002V60.9102C341.83 60.3797 341.619 59.871 341.244 59.4959C340.869 59.1209 340.361 58.9102 339.83 58.9102C339.3 58.9102 338.791 59.1209 338.416 59.4959C338.041 59.871 337.83 60.3797 337.83 60.9102V63.0002C336.938 63.1355 336.063 63.3668 335.22 63.6902L334.22 61.8802C333.955 61.4244 333.52 61.092 333.01 60.9552C332.501 60.8185 331.958 60.8886 331.5 61.1501V61.1501C331.044 61.4157 330.712 61.8504 330.575 62.3599C330.438 62.8693 330.509 63.4121 330.77 63.8701L331.77 65.6801C331.07 66.2501 330.43 66.8901 329.86 67.5901L328.06 66.5901C327.602 66.3286 327.059 66.2585 326.55 66.3952C326.04 66.532 325.606 66.8644 325.34 67.3202C325.078 67.777 325.006 68.3189 325.141 68.8282C325.276 69.3375 325.606 69.773 326.06 70.0401L327.87 71.0401C327.547 71.8828 327.315 72.7578 327.18 73.6501H325.09C324.56 73.6501 324.051 73.8609 323.676 74.2359C323.301 74.611 323.09 75.1197 323.09 75.6501C323.09 76.1806 323.301 76.6893 323.676 77.0644C324.051 77.4394 324.56 77.6501 325.09 77.6501H327.18C327.317 78.5422 327.548 79.4172 327.87 80.2601L326.06 81.2601C325.606 81.5273 325.276 81.9628 325.141 82.4721C325.006 82.9814 325.078 83.5233 325.34 83.9801C325.606 84.4359 326.04 84.7683 326.55 84.9051C327.059 85.0418 327.602 84.9717 328.06 84.7102L329.86 83.7102C330.43 84.4102 331.07 85.0502 331.77 85.6201L330.77 87.4202C330.509 87.8782 330.438 88.421 330.575 88.9304C330.712 89.4398 331.044 89.8746 331.5 90.1402C331.958 90.4017 332.501 90.4718 333.01 90.3351C333.52 90.1983 333.955 89.8659 334.22 89.4102L335.22 87.6102C336.063 87.9335 336.938 88.1648 337.83 88.3002V90.3902C337.83 90.9206 338.041 91.4293 338.416 91.8044C338.791 92.1794 339.3 92.3902 339.83 92.3902C340.361 92.3902 340.869 92.1794 341.244 91.8044C341.619 91.4293 341.83 90.9206 341.83 90.3902V88.3002C342.722 88.1636 343.597 87.9323 344.44 87.6102L345.44 89.4102C345.706 89.8659 346.14 90.1983 346.65 90.3351C347.159 90.4718 347.702 90.4017 348.16 90.1402V90.1402C348.616 89.8746 348.948 89.4398 349.085 88.9304C349.222 88.421 349.152 87.8782 348.89 87.4202L347.89 85.6201C348.59 85.0502 349.23 84.4102 349.8 83.7102L351.6 84.7102C352.058 84.9717 352.601 85.0418 353.11 84.9051C353.62 84.7683 354.055 84.4359 354.32 83.9801C354.583 83.5233 354.654 82.9814 354.519 82.4721C354.384 81.9628 354.054 81.5273 353.6 81.2601L351.79 80.2601C352.112 79.4172 352.344 78.5422 352.48 77.6501H354.57C355.101 77.6501 355.609 77.4394 355.984 77.0644C356.359 76.6893 356.57 76.1806 356.57 75.6501ZM348.57 75.6501C348.57 77.3689 348.06 79.049 347.106 80.4781C346.151 81.9071 344.793 83.0209 343.206 83.6787C341.618 84.3364 339.87 84.5085 338.185 84.1732C336.499 83.8379 334.951 83.0102 333.735 81.7949C332.52 80.5796 331.692 79.0312 331.357 77.3455C331.022 75.6598 331.194 73.9125 331.852 72.3246C332.509 70.7367 333.623 69.3796 335.052 68.4247C336.481 67.4698 338.161 66.9602 339.88 66.9602C342.179 66.9707 344.38 67.8906 346.003 69.5189C347.625 71.1471 348.537 73.3514 348.54 75.6501H348.57Z" stroke="black" stroke-miterlimit="10"/>
<path d="M21.2099 219.9C14.7599 215.82 13.7099 208.78 13.2999 200.14C12.9999 193 17.8099 180.23 26.1799 176.38C27.5799 175.74 27.6499 175.87 27.9199 177.04C29.5699 184.16 31.1499 195.15 29.9199 201.84C28.3399 209.9 24.9999 213.41 21.2099 219.9Z" stroke="#263238" stroke-linecap="round" stroke-linejoin="round"/>
<path d="M66.8699 286.91C64.6099 283.55 64.5899 279.31 64.8099 275.51C65.0299 271.71 72.1199 255 77.1299 259C82.1399 263 77.2999 277.53 75.4099 281.91C73.5199 286.29 70.4999 286.37 66.8699 286.91Z" stroke="#263238" stroke-linecap="round" stroke-linejoin="round"/>
<path d="M80.9999 315.9C78.8499 312.45 78.81 308.04 79.07 304.24C79.33 300.44 86.5399 284.09 91.4999 288.07C96.4599 292.05 91.6099 306.69 89.6399 311.07C87.6699 315.45 84.6499 315.49 80.9999 315.9Z" stroke="#263238" stroke-linecap="round" stroke-linejoin="round"/>
<path d="M87 335.19C86.88 331.07 89.11 327.27 91.27 324.08C93.43 320.89 107.87 310.51 110.14 316.47C112.41 322.43 100.85 332.47 96.95 335.31C93.05 338.15 90.39 336.68 87 335.19Z" stroke="#263238" stroke-linecap="round" stroke-linejoin="round"/>
<path d="M66.0499 304.16C62.5299 306.26 58.2399 306.02 54.4199 305.65C50.5999 305.28 34.8299 297.28 38.9799 292.65C43.1299 288.02 57.3399 293.49 61.5999 295.48C65.8599 297.47 65.7899 300.57 66.0499 304.16Z" stroke="#263238" stroke-linecap="round" stroke-linejoin="round"/>
<path d="M76.0799 334.22C72.4999 336.17 68.1899 335.88 64.3999 335.32C60.6099 334.76 44.9699 326.32 49.2999 321.66C53.6299 317 67.7199 322.99 71.9199 325.26C76.1199 327.53 75.9999 330.55 76.0799 334.22Z" stroke="#263238" stroke-linecap="round" stroke-linejoin="round"/>
<path d="M49 255.23C45.26 255.07 45.54 246.61 45.39 243.93C45.24 241.25 50.71 223.04 55.39 227.38C60.07 231.72 57.73 245 56.23 249.18C54.73 253.36 52.74 255.39 49 255.23Z" stroke="#263238" stroke-linecap="round" stroke-linejoin="round"/>
<path d="M26.2399 247.28C26.9099 242.91 24.5599 238.83 21.3399 236.04C18.1199 233.25 4.28994 228.04 1.72994 232.52C-0.830058 237 9.78994 243.42 13.0699 245.4C16.3499 247.38 22.4199 249.76 26.2399 247.28Z" stroke="#263238" stroke-linecap="round" stroke-linejoin="round"/>
<path d="M47.8098 279C48.2098 275.26 43.2198 271.74 41.2698 269.54C39.3198 267.34 26.0798 260.54 25.0998 265.18C24.1198 269.82 34.7298 275.18 37.6498 277.53C40.5698 279.88 44.7098 280.91 47.8098 279Z" stroke="#263238" stroke-linecap="round" stroke-linejoin="round"/>
<path d="M30.09 231.55C28.09 227.99 28.35 223.67 28.88 219.87C29.41 216.07 37.74 200.39 42.41 204.67C47.08 208.95 41.24 223.05 39.01 227.25C36.78 231.45 33.76 231.35 30.09 231.55Z" stroke="#263238" stroke-linecap="round" stroke-linejoin="round"/>
<path d="M80.6999 355C83.1199 333.41 84.0799 332.8 72.5099 307.31C60.9399 281.82 15.5999 240.44 20.9999 203.81" stroke="#263238" stroke-linecap="round" stroke-linejoin="round"/>
<path d="M34.8699 251.26C27.4799 247.52 20.3399 243.37 13.1799 239.21" stroke="#263238" stroke-linecap="round" stroke-linejoin="round"/>
<path d="M46.23 269C47.62 260.11 49.32 251.26 50.8 242.38" stroke="#263238" stroke-linecap="round" stroke-linejoin="round"/>
<path d="M59.2499 285.65C51.6199 281.02 43.7299 276.88 36.1099 272.21" stroke="#263238" stroke-linecap="round" stroke-linejoin="round"/>
<path d="M27.71 237.52L35.2 218.3" stroke="#263238" stroke-linecap="round" stroke-linejoin="round"/>
<path d="M65 293C67 286.45 69.06 279.91 71 273.35" stroke="#263238" stroke-linecap="round" stroke-linejoin="round"/>
<path d="M78.9299 322C81.1399 315.43 83.1999 308.82 85.2599 302.2" stroke="#263238" stroke-linecap="round" stroke-linejoin="round"/>
<path d="M82.1499 339.47C87.3166 334.836 92.4699 330.17 97.6099 325.47" stroke="#263238" stroke-linecap="round" stroke-linejoin="round"/>
<path d="M72.06 306.42C65.64 304.027 59.1933 301.713 52.72 299.48" stroke="#263238" stroke-linecap="round" stroke-linejoin="round"/>
<path d="M81.9999 336.67C75.6399 334.076 69.2732 331.516 62.8999 328.99" stroke="#263238" stroke-linecap="round" stroke-linejoin="round"/>
<path d="M364 171.27C371.64 165.27 372 156.18 371.42 145.16C370.9 136.1 363.05 120.51 351.93 116.74C350.06 116.1 350 116.28 349.81 117.8C348.66 127.06 348.11 141.21 350.62 149.52C353.65 159.53 358.32 163.55 364 171.27Z" stroke="#263238" stroke-linecap="round" stroke-linejoin="round"/>
<path d="M315 262.32C317.41 257.76 316.88 252.38 316.09 247.59C315.3 242.8 304.09 222.59 298.28 228.22C292.47 233.85 300.52 251.74 303.49 257.05C306.46 262.36 310.31 262.11 315 262.32Z" stroke="#263238" stroke-linecap="round" stroke-linejoin="round"/>
<path d="M300.93 301C303.2 296.34 302.66 290.75 301.83 286C301 281.25 289.68 261.44 283.93 267.14C278.18 272.84 286.25 290.77 289.32 296.05C292.39 301.33 296.23 300.93 300.93 301Z" stroke="#263238" stroke-linecap="round" stroke-linejoin="round"/>
<path d="M295.86 326.22C295.47 320.99 292.14 316.46 288.98 312.7C285.82 308.94 266.12 297.7 263.98 305.56C261.84 313.42 277.89 324.68 283.2 327.7C288.51 330.72 291.77 328.57 295.86 326.22Z" stroke="#263238" stroke-linecap="round" stroke-linejoin="round"/>
<path d="M318.32 284.09C323.07 286.29 328.47 285.42 333.27 284.44C338.07 283.46 357.01 271.23 351.12 265.86C345.23 260.49 327.95 269.35 322.81 272.44C317.67 275.53 318.17 279.51 318.32 284.09Z" stroke="#263238" stroke-linecap="round" stroke-linejoin="round"/>
<path d="M309.59 323.56C314.39 325.56 319.82 324.56 324.59 323.4C329.36 322.24 348.04 309.4 341.93 304.07C335.82 298.74 318.75 308.2 313.73 311.63C308.71 315.06 309.26 318.88 309.59 323.56Z" stroke="#263238" stroke-linecap="round" stroke-linejoin="round"/>
<path d="M333.46 219.77C338.18 219.07 336.7 208.38 336.54 204.96C336.38 201.54 327.02 179.17 321.71 185.29C316.4 191.41 321.08 207.95 323.54 213.06C326 218.17 328.74 220.47 333.46 219.77Z" stroke="#263238" stroke-linecap="round" stroke-linejoin="round"/>
<path d="M361.27 206.67C359.84 201.22 362.27 195.72 366 191.76C369.73 187.8 386.56 179.33 390.4 184.69C394.24 190.05 381.63 199.6 377.72 202.53C373.81 205.46 366.44 209.31 361.27 206.67Z" stroke="#263238" stroke-linecap="round" stroke-linejoin="round"/>
<path d="M338.12 249.82C337.12 245.12 342.98 240 345.17 236.94C347.36 233.88 363.23 223.48 365.1 229.27C366.97 235.06 354.21 243.21 350.82 246.61C347.43 250.01 342.31 251.77 338.12 249.82Z" stroke="#263238" stroke-linecap="round" stroke-linejoin="round"/>
<path d="M354.31 187.23C356.31 182.44 355.47 177.01 354.31 172.23C353.15 167.45 340.48 148.7 335.12 154.74C329.76 160.78 339 177.93 342.42 183C345.84 188.07 349.63 187.47 354.31 187.23Z" stroke="#263238" stroke-linecap="round" stroke-linejoin="round"/>
<path d="M306.48 350.56C300.55 323.49 299.26 322.85 310.55 288.98C321.84 255.11 373.86 196.58 362.12 150.84" stroke="#263238" stroke-linecap="round" stroke-linejoin="round"/>
<path d="M350.86 212.86C359.73 207.14 368.24 200.93 376.76 194.7" stroke="#263238" stroke-linecap="round" stroke-linejoin="round"/>
<path d="M338.8 236.89C335.86 225.8 332.53 214.8 329.47 203.74" stroke="#263238" stroke-linecap="round" stroke-linejoin="round"/>
<path d="M324.5 259.72C333.55 252.83 343.02 246.53 352.06 239.6" stroke="#263238" stroke-linecap="round" stroke-linejoin="round"/>
<path d="M358.11 194.48L346.11 171.1" stroke="#263238" stroke-linecap="round" stroke-linejoin="round"/>
<path d="M318.24 269.75C314.83 261.75 311.35 253.69 307.98 245.63" stroke="#263238" stroke-linecap="round" stroke-linejoin="round"/>
<path d="M304.36 308.47C300.69 300.47 297.19 292.32 293.71 284.19" stroke="#263238" stroke-linecap="round" stroke-linejoin="round"/>
<path d="M302.58 331C295.413 325.813 288.26 320.593 281.12 315.34" stroke="#263238" stroke-linecap="round" stroke-linejoin="round"/>
<path d="M311 287.75C318.82 283.87 326.687 280.083 334.6 276.39" stroke="#263238" stroke-linecap="round" stroke-linejoin="round"/>
<path d="M302.4 327.44C310.12 323.31 317.87 319.24 325.61 315.16" stroke="#263238" stroke-linecap="round" stroke-linejoin="round"/>
<path opacity="0.2" d="M237.38 24.21H94.2999C89.7877 24.21 86.1299 27.8678 86.1299 32.38V316.27C86.1299 320.782 89.7877 324.44 94.2999 324.44H237.38C241.892 324.44 245.55 320.782 245.55 316.27V32.38C245.55 27.8678 241.892 24.21 237.38 24.21Z" fill="#263238"/>
<path d="M227.88 16H84.7999C80.5639 16 77.1299 19.434 77.1299 23.67V307.56C77.1299 311.796 80.5639 315.23 84.7999 315.23H227.88C232.116 315.23 235.55 311.796 235.55 307.56V23.67C235.55 19.434 232.116 16 227.88 16Z" fill="#263238"/>
<path opacity="0.2" d="M178.33 16H84.7999C82.7665 16.0026 80.8171 16.8116 79.3793 18.2494C77.9415 19.6872 77.1325 21.6366 77.1299 23.67V117.2L178.33 16Z" fill="white"/>
<path d="M227.88 16H84.7999C80.5639 16 77.1299 19.434 77.1299 23.67V307.56C77.1299 311.796 80.5639 315.23 84.7999 315.23H227.88C232.116 315.23 235.55 311.796 235.55 307.56V23.67C235.55 19.434 232.116 16 227.88 16Z" stroke="#263238" stroke-linecap="round" stroke-linejoin="round"/>
<path d="M214.71 25.6602L196.03 44.3302" stroke="white" stroke-linecap="round" stroke-linejoin="round"/>
<path d="M218.53 21.8301L216.83 23.5401" stroke="white" stroke-linecap="round" stroke-linejoin="round"/>
<path d="M222.33 21.8301L199.84 44.3301" stroke="white" stroke-linecap="round" stroke-linejoin="round"/>
<path d="M124.04 289.66L105.37 308.33" stroke="white" stroke-linecap="round" stroke-linejoin="round"/>
<path d="M127.87 285.83L126.16 287.54" stroke="white" stroke-linecap="round" stroke-linejoin="round"/>
<path d="M172 32.51H140.65C140.082 32.51 139.538 32.2845 139.137 31.8832C138.735 31.4819 138.51 30.9375 138.51 30.37V30.37C138.51 29.8024 138.735 29.2581 139.137 28.8568C139.538 28.4554 140.082 28.23 140.65 28.23H172C172.567 28.23 173.112 28.4554 173.513 28.8568C173.914 29.2581 174.14 29.8024 174.14 30.37V30.37C174.14 30.9375 173.914 31.4819 173.513 31.8832C173.112 32.2845 172.567 32.51 172 32.51V32.51Z" fill="white"/>
<path d="M164.9 295.56C164.9 293.867 164.398 292.212 163.457 290.804C162.517 289.397 161.18 288.299 159.616 287.652C158.051 287.004 156.33 286.834 154.67 287.164C153.009 287.495 151.484 288.31 150.287 289.507C149.09 290.704 148.275 292.23 147.944 293.89C147.614 295.55 147.784 297.272 148.431 298.836C149.079 300.4 150.176 301.737 151.584 302.677C152.992 303.618 154.647 304.12 156.34 304.12C158.61 304.12 160.787 303.218 162.393 301.613C163.998 300.008 164.9 297.83 164.9 295.56V295.56Z" fill="white"/>
<path d="M160.68 291.22H152V299.9H160.68V291.22Z" fill="#263238"/>
<path d="M228.51 48.8599H84.1699V282.38H228.51V48.8599Z" fill="white" stroke="#263238" stroke-linecap="round" stroke-linejoin="round"/>
<path d="M220 60.77V59.12H218.31C218.245 58.737 218.141 58.3617 218 58L219.46 57.16L218.64 55.72L217.17 56.57C216.935 56.2799 216.67 56.0151 216.38 55.78L217.22 54.31L215.79 53.48L214.94 54.95C214.591 54.8172 214.229 54.72 213.86 54.66V53H212.2V54.69C211.831 54.7513 211.47 54.8484 211.12 54.98L210.27 53.51L208.84 54.34L209.69 55.81C209.397 56.0449 209.128 56.3097 208.89 56.6L207.43 55.75L206.6 57.19L208.07 58.03C207.932 58.3812 207.835 58.7469 207.78 59.12H206.08V60.77H207.78C207.834 61.1401 207.931 61.5026 208.07 61.85L206.6 62.7L207.43 64.14L208.89 63.29C209.128 63.5803 209.397 63.8451 209.69 64.08L208.84 65.55L210.27 66.38L211.12 64.91C211.47 65.0416 211.831 65.1387 212.2 65.2V66.89H213.86V65.2C214.229 65.14 214.591 65.0428 214.94 64.91L215.79 66.38L217.22 65.55L216.38 64.08C216.67 63.8449 216.935 63.5801 217.17 63.29L218.64 64.14L219.46 62.7L218 61.85C218.134 61.5011 218.231 61.1391 218.29 60.77H220ZM216.66 59.94C216.66 60.654 216.448 61.3519 216.051 61.9456C215.655 62.5393 215.091 63.002 214.431 63.2752C213.772 63.5484 213.046 63.6199 212.346 63.4806C211.645 63.3413 211.002 62.9975 210.497 62.4927C209.992 61.9878 209.649 61.3445 209.509 60.6443C209.37 59.944 209.441 59.2182 209.715 58.5585C209.988 57.8989 210.451 57.3351 211.044 56.9384C211.638 56.5417 212.336 56.33 213.05 56.33C214.004 56.3353 214.917 56.718 215.59 57.3944C216.262 58.0708 216.64 58.986 216.64 59.94H216.66Z" fill="#CCCCCC"/>
<path d="M106.2 59.1702C106.2 60.7202 105.09 61.6402 103.2 61.6402H101.11V64.0002H100.57V56.7002H103.2C105.09 56.7002 106.2 57.6202 106.2 59.1702ZM105.65 59.1702C105.65 57.9102 104.82 57.1702 103.24 57.1702H101.15V61.1702H103.24C104.82 61.1602 105.65 60.4302 105.65 59.1702V59.1702Z" fill="#263238"/>
<path d="M110.25 58.52V59H110.13C109.853 58.9898 109.577 59.0406 109.322 59.1488C109.067 59.2569 108.839 59.4198 108.654 59.6258C108.469 59.8319 108.332 60.0762 108.251 60.3413C108.171 60.6064 108.15 60.8859 108.19 61.16V64H107.66V58.53H108.17V59.72C108.35 59.3295 108.647 59.0045 109.019 58.7896C109.392 58.5747 109.822 58.4805 110.25 58.52V58.52Z" fill="#263238"/>
<path d="M116.27 61.4298H111.56C111.591 61.888 111.757 62.3268 112.036 62.6915C112.315 63.0563 112.695 63.331 113.128 63.4813C113.562 63.6316 114.031 63.6509 114.476 63.5369C114.92 63.4228 115.322 63.1804 115.63 62.8398L115.93 63.1898C115.675 63.4832 115.358 63.7155 115.001 63.8695C114.645 64.0236 114.258 64.0955 113.87 64.0798C113.498 64.0996 113.126 64.0415 112.777 63.9093C112.429 63.7771 112.112 63.5738 111.846 63.3121C111.581 63.0505 111.373 62.7365 111.236 62.39C111.099 62.0435 111.035 61.6722 111.05 61.2999C111.028 60.9428 111.079 60.5851 111.201 60.2486C111.322 59.9122 111.511 59.6042 111.756 59.3436C112.001 59.0829 112.297 58.8752 112.625 58.7333C112.953 58.5913 113.307 58.5181 113.665 58.5181C114.023 58.5181 114.377 58.5913 114.705 58.7333C115.033 58.8752 115.329 59.0829 115.574 59.3436C115.819 59.6042 116.008 59.9122 116.129 60.2486C116.251 60.5851 116.302 60.9428 116.28 61.2999C116.28 61.2999 116.27 61.3798 116.27 61.4298ZM111.57 61.0199H115.76C115.723 60.4892 115.487 59.9923 115.098 59.6294C114.709 59.2665 114.197 59.0647 113.665 59.0647C113.133 59.0647 112.621 59.2665 112.232 59.6294C111.843 59.9923 111.607 60.4892 111.57 61.0199V61.0199Z" fill="#263238"/>
<path d="M118.52 57.7699V58.5699H120.27V58.9999H118.53V63.9999H118V58.9999H117V58.5499H118V57.7099C117.983 57.5065 118.011 57.3018 118.082 57.1103C118.152 56.9188 118.264 56.745 118.409 56.6011C118.553 56.4573 118.728 56.3468 118.92 56.2775C119.112 56.2082 119.317 56.1817 119.52 56.1999C119.912 56.1825 120.297 56.3107 120.6 56.5599L120.39 56.9499C120.157 56.7492 119.858 56.6423 119.55 56.6499C118.86 56.6699 118.52 57.0499 118.52 57.7699Z" fill="#263238"/>
<path d="M125.86 61.4301H121.16C121.191 61.8882 121.357 62.327 121.635 62.6917C121.914 63.0565 122.294 63.3312 122.728 63.4815C123.162 63.6318 123.631 63.6511 124.076 63.5371C124.52 63.423 124.922 63.1806 125.23 62.8401L125.53 63.1901C125.273 63.4836 124.954 63.7159 124.596 63.8699C124.238 64.024 123.849 64.0958 123.46 64.0801C123.088 64.0983 122.717 64.0391 122.369 63.9064C122.021 63.7737 121.705 63.5702 121.44 63.3089C121.175 63.0477 120.967 62.7342 120.829 62.3884C120.691 62.0426 120.627 61.672 120.64 61.3001C120.619 60.9423 120.672 60.5841 120.795 60.2475C120.918 59.9109 121.109 59.6029 121.355 59.3426C121.601 59.0823 121.898 58.875 122.227 58.7336C122.557 58.5921 122.911 58.5195 123.27 58.5201C123.626 58.518 123.979 58.5892 124.306 58.7291C124.634 58.8691 124.929 59.0748 125.174 59.3336C125.419 59.5924 125.607 59.8987 125.729 60.2335C125.85 60.5683 125.902 60.9246 125.88 61.2801C125.88 61.2801 125.86 61.3801 125.86 61.4301ZM121.17 61.0201H125.36C125.323 60.4894 125.086 59.9925 124.698 59.6296C124.309 59.2667 123.797 59.0649 123.265 59.0649C122.733 59.0649 122.221 59.2667 121.832 59.6296C121.443 59.9925 121.206 60.4894 121.17 61.0201Z" fill="#263238"/>
<path d="M130.09 58.52V59H130C129.723 58.9898 129.447 59.0406 129.192 59.1487C128.937 59.2569 128.709 59.4197 128.524 59.6258C128.339 59.8319 128.201 60.0761 128.121 60.3413C128.041 60.6064 128.02 60.8859 128.06 61.16V64H127.54V58.53H128.04V59.72C128.22 59.3364 128.513 59.0165 128.879 58.8023C129.245 58.5881 129.667 58.4897 130.09 58.52V58.52Z" fill="#263238"/>
<path d="M136.1 61.4298H131.39C131.421 61.888 131.587 62.3268 131.866 62.6915C132.145 63.0563 132.525 63.331 132.959 63.4813C133.392 63.6316 133.861 63.6509 134.306 63.5369C134.751 63.4228 135.152 63.1804 135.46 62.8398L135.77 63.1898C135.512 63.4823 135.193 63.7138 134.835 63.8678C134.477 64.0217 134.089 64.0941 133.7 64.0798C133.328 64.0996 132.956 64.0415 132.607 63.9093C132.259 63.7771 131.942 63.5738 131.677 63.3121C131.411 63.0505 131.203 62.7365 131.066 62.39C130.929 62.0435 130.866 61.6722 130.88 61.2999C130.858 60.9428 130.909 60.5851 131.031 60.2486C131.152 59.9122 131.341 59.6042 131.586 59.3436C131.831 59.0829 132.127 58.8752 132.455 58.7333C132.783 58.5913 133.137 58.5181 133.495 58.5181C133.853 58.5181 134.207 58.5913 134.535 58.7333C134.863 58.8752 135.159 59.0829 135.404 59.3436C135.649 59.6042 135.838 59.9122 135.959 60.2486C136.081 60.5851 136.132 60.9428 136.11 61.2999C136.11 61.2999 136.1 61.3798 136.1 61.4298ZM131.4 61.0199H135.6C135.6 60.4629 135.379 59.9288 134.985 59.5349C134.591 59.1411 134.057 58.9198 133.5 58.9198C132.943 58.9198 132.409 59.1411 132.015 59.5349C131.621 59.9288 131.4 60.4629 131.4 61.0199V61.0199Z" fill="#263238"/>
<path d="M142.63 60.8398V63.9998H142.1V60.8398C142.135 60.5942 142.115 60.3437 142.04 60.1071C141.966 59.8704 141.838 59.6537 141.668 59.473C141.498 59.2924 141.289 59.1524 141.058 59.0635C140.826 58.9746 140.577 58.9392 140.33 58.9598C140.05 58.9494 139.771 58.9978 139.511 59.102C139.252 59.2062 139.017 59.3637 138.821 59.5645C138.626 59.7653 138.475 60.0048 138.379 60.2676C138.282 60.5303 138.242 60.8104 138.26 61.0898V63.9998H137.73V58.5298H138.24V59.7098C138.441 59.3145 138.754 58.987 139.14 58.7683C139.526 58.5496 139.967 58.4492 140.41 58.4798C140.72 58.4559 141.031 58.5018 141.321 58.614C141.611 58.7263 141.872 58.9021 142.085 59.1285C142.298 59.3549 142.457 59.6261 142.552 59.9223C142.646 60.2184 142.673 60.5319 142.63 60.8398V60.8398Z" fill="#263238"/>
<path d="M144.2 61.2998C144.184 60.9323 144.245 60.5656 144.378 60.2227C144.511 59.8798 144.714 59.568 144.973 59.307C145.232 59.046 145.542 58.8413 145.884 58.7059C146.226 58.5704 146.592 58.507 146.96 58.5198C147.363 58.4991 147.764 58.5799 148.127 58.7546C148.491 58.9293 148.804 59.1924 149.04 59.5198L148.65 59.7998C148.459 59.5445 148.209 59.3387 147.922 59.1995C147.635 59.0603 147.319 58.9919 147 58.9998C146.415 59.0383 145.866 59.2979 145.465 59.7259C145.065 60.154 144.842 60.7184 144.842 61.3047C144.842 61.8911 145.065 62.4555 145.465 62.8836C145.866 63.3116 146.415 63.5712 147 63.6098C147.327 63.6219 147.652 63.5535 147.947 63.4105C148.242 63.2675 148.497 63.0544 148.69 62.7897L149.08 63.0698C148.843 63.3951 148.528 63.6567 148.166 63.8312C147.803 64.0057 147.402 64.0877 147 64.0698C146.63 64.0881 146.26 64.0292 145.914 63.8969C145.568 63.7645 145.253 63.5617 144.99 63.3011C144.727 63.0406 144.52 62.7281 144.384 62.3836C144.248 62.039 144.186 61.6699 144.2 61.2998Z" fill="#263238"/>
<path d="M155.14 61.4298H150.43C150.461 61.888 150.627 62.3268 150.905 62.6915C151.184 63.0563 151.564 63.331 151.998 63.4813C152.432 63.6316 152.901 63.6509 153.346 63.5369C153.79 63.4228 154.192 63.1804 154.5 62.8398L154.8 63.1898C154.545 63.4832 154.228 63.7155 153.871 63.8695C153.515 64.0236 153.128 64.0955 152.74 64.0798C152.368 64.0996 151.996 64.0415 151.647 63.9093C151.299 63.7771 150.982 63.5738 150.716 63.3121C150.451 63.0505 150.243 62.7365 150.106 62.39C149.969 62.0435 149.905 61.6722 149.92 61.2999C149.898 60.9428 149.949 60.5851 150.07 60.2486C150.192 59.9122 150.381 59.6042 150.626 59.3436C150.871 59.0829 151.167 58.8752 151.495 58.7333C151.823 58.5913 152.177 58.5181 152.535 58.5181C152.892 58.5181 153.246 58.5913 153.575 58.7333C153.903 58.8752 154.199 59.0829 154.444 59.3436C154.689 59.6042 154.878 59.9122 154.999 60.2486C155.121 60.5851 155.172 60.9428 155.15 61.2999C155.15 61.2999 155.14 61.3798 155.14 61.4298ZM150.44 61.0199H154.63C154.593 60.4892 154.356 59.9923 153.968 59.6294C153.579 59.2665 153.067 59.0647 152.535 59.0647C152.003 59.0647 151.491 59.2665 151.102 59.6294C150.713 59.9923 150.476 60.4892 150.44 61.0199V61.0199Z" fill="#263238"/>
<path d="M156 63.3798L156.24 62.9598C156.812 63.4006 157.518 63.6334 158.24 63.6198C159.4 63.6198 159.86 63.2098 159.86 62.6198C159.86 61.0298 156.23 62.1998 156.23 60.0498C156.23 59.2298 156.92 58.5498 158.31 58.5498C158.973 58.5383 159.625 58.7265 160.18 59.0898L159.94 59.5098C159.458 59.1781 158.885 59.0066 158.3 59.0198C157.23 59.0198 156.76 59.4598 156.76 60.0198C156.76 61.6698 160.38 60.5098 160.38 62.5898C160.38 63.4798 159.62 64.0898 158.22 64.0898C157.42 64.1204 156.634 63.8691 156 63.3798V63.3798Z" fill="#263238"/>
<path d="M95.6499 100.09H91.3999L90.4599 102.16H89.8899L93.2599 94.8198H93.7999L97.1699 102.16H96.5899L95.6499 100.09ZM95.4499 99.6398L93.5199 95.4098L91.5999 99.6398H95.4499Z" fill="#263238"/>
<path d="M103 96.6899V102.16H102.49V101C102.305 101.383 102.01 101.702 101.643 101.917C101.277 102.133 100.854 102.235 100.43 102.21C100.119 102.242 99.8042 102.204 99.5098 102.098C99.2153 101.992 98.9483 101.822 98.7285 101.599C98.5088 101.376 98.3418 101.107 98.2399 100.811C98.138 100.516 98.1038 100.201 98.1399 99.8899V96.6999H98.6699V99.8499C98.6359 100.098 98.6583 100.351 98.7354 100.59C98.8125 100.828 98.9423 101.046 99.1152 101.228C99.2881 101.41 99.4996 101.55 99.7342 101.638C99.9687 101.727 100.22 101.762 100.47 101.74C100.747 101.753 101.024 101.706 101.282 101.602C101.539 101.498 101.771 101.339 101.961 101.136C102.152 100.934 102.295 100.693 102.383 100.429C102.471 100.165 102.501 99.886 102.47 99.6099V96.6999L103 96.6899Z" fill="#263238"/>
<path d="M108 101.81C107.69 102.078 107.289 102.217 106.88 102.2C106.679 102.222 106.475 102.199 106.284 102.132C106.094 102.065 105.92 101.956 105.777 101.813C105.634 101.67 105.525 101.497 105.458 101.306C105.391 101.115 105.368 100.911 105.39 100.71V97.1402H104.39V96.6902H105.39V95.4902H105.91V96.6902H107.65V97.1402H105.91V100.66C105.91 101.36 106.26 101.75 106.91 101.75C107.221 101.76 107.524 101.653 107.76 101.45L108 101.81Z" fill="#263238"/>
<path d="M108.61 99.4202C108.618 98.8796 108.785 98.3535 109.092 97.908C109.398 97.4625 109.829 97.1175 110.331 96.9166C110.833 96.7156 111.383 96.6676 111.912 96.7786C112.441 96.8896 112.926 97.1547 113.305 97.5404C113.683 97.9261 113.94 98.4153 114.041 98.9464C114.142 99.4774 114.084 100.027 113.874 100.525C113.664 101.023 113.312 101.448 112.861 101.746C112.41 102.044 111.881 102.202 111.34 102.2C110.974 102.21 110.611 102.145 110.272 102.008C109.933 101.871 109.625 101.666 109.369 101.405C109.113 101.144 108.913 100.833 108.783 100.492C108.652 100.15 108.593 99.7855 108.61 99.4202V99.4202ZM113.55 99.4202C113.53 98.9879 113.384 98.5709 113.13 98.2208C112.875 97.8708 112.524 97.6031 112.119 97.4511C111.714 97.2991 111.273 97.2693 110.851 97.3655C110.429 97.4618 110.044 97.6798 109.745 97.9925C109.446 98.3051 109.245 98.6988 109.168 99.1245C109.09 99.5503 109.14 99.9894 109.309 100.387C109.479 100.785 109.762 101.125 110.123 101.364C110.484 101.602 110.907 101.73 111.34 101.73C111.64 101.736 111.939 101.68 112.216 101.565C112.494 101.45 112.745 101.278 112.952 101.061C113.16 100.844 113.321 100.586 113.423 100.303C113.526 100.021 113.569 99.7201 113.55 99.4202Z" fill="#263238"/>
<path d="M115.35 99.1099H118V99.5799H115.31L115.35 99.1099Z" fill="#263238"/>
<path d="M123.75 98.69V102.16H123.25V101.16C123.044 101.497 122.747 101.77 122.393 101.947C122.04 102.123 121.644 102.197 121.25 102.16C120.02 102.16 119.25 101.53 119.25 100.6C119.25 99.67 119.77 99.07 121.25 99.07H123.13V98.63C123.152 98.4135 123.124 98.1949 123.049 97.9907C122.974 97.7865 122.853 97.6022 122.696 97.4518C122.539 97.3013 122.349 97.1887 122.142 97.1226C121.935 97.0564 121.715 97.0384 121.5 97.07C120.807 97.0644 120.136 97.3094 119.61 97.76L119.35 97.38C119.965 96.8705 120.742 96.5974 121.54 96.61C121.831 96.5512 122.133 96.5631 122.418 96.6447C122.704 96.7262 122.966 96.8751 123.183 97.0788C123.399 97.2825 123.563 97.5351 123.662 97.8154C123.761 98.0957 123.791 98.3956 123.75 98.69V98.69ZM123.23 100.55V99.55H121.36C120.23 99.55 119.83 100.02 119.83 100.65C119.83 101.28 120.39 101.8 121.35 101.8C121.756 101.822 122.158 101.712 122.497 101.487C122.836 101.261 123.093 100.933 123.23 100.55V100.55Z" fill="#263238"/>
<path d="M125.91 94.3799H126.43V102.16H125.91V94.3799Z" fill="#263238"/>
<path d="M128.47 94.9398C128.47 94.8257 128.515 94.7164 128.596 94.6357C128.677 94.5551 128.786 94.5098 128.9 94.5098C128.985 94.5098 129.068 94.535 129.139 94.5822C129.21 94.6295 129.265 94.6967 129.297 94.7752C129.33 94.8538 129.338 94.9403 129.322 95.0237C129.305 95.1071 129.264 95.1837 129.204 95.2438C129.144 95.304 129.067 95.3449 128.984 95.3615C128.9 95.3781 128.814 95.3696 128.735 95.337C128.657 95.3045 128.59 95.2494 128.542 95.1787C128.495 95.108 128.47 95.0248 128.47 94.9398ZM128.64 96.6898H129.16V102.16H128.64V96.6898Z" fill="#263238"/>
<path d="M136.3 96.6901V101.57C136.3 103.41 135.41 104.24 133.65 104.24C132.734 104.276 131.837 103.965 131.14 103.37L131.43 102.97C132.042 103.5 132.83 103.782 133.64 103.76C135.1 103.76 135.78 103.09 135.78 101.64V100.71C135.554 101.113 135.223 101.447 134.821 101.675C134.418 101.902 133.962 102.015 133.5 102C133.137 102.022 132.774 101.97 132.433 101.847C132.091 101.723 131.779 101.531 131.514 101.283C131.25 101.034 131.039 100.734 130.895 100.401C130.751 100.067 130.677 99.7081 130.677 99.3451C130.677 98.982 130.751 98.6228 130.895 98.2896C131.039 97.9563 131.25 97.6561 131.514 97.4074C131.779 97.1587 132.091 96.9667 132.433 96.8433C132.774 96.72 133.137 96.6678 133.5 96.6901C133.963 96.6697 134.423 96.7775 134.828 97.0016C135.234 97.2257 135.57 97.5573 135.8 97.9601V96.7301L136.3 96.6901ZM135.79 99.3001C135.8 98.855 135.677 98.4171 135.437 98.0422C135.197 97.6674 134.851 97.3725 134.442 97.1953C134.034 97.018 133.582 96.9665 133.144 97.0472C132.706 97.1279 132.303 97.3372 131.984 97.6484C131.666 97.9595 131.448 98.3585 131.357 98.7943C131.267 99.2302 131.308 99.6831 131.476 100.095C131.644 100.508 131.931 100.86 132.3 101.109C132.67 101.357 133.105 101.49 133.55 101.49C133.844 101.507 134.139 101.462 134.415 101.359C134.691 101.255 134.942 101.096 135.153 100.889C135.364 100.683 135.529 100.436 135.639 100.162C135.749 99.8882 135.8 99.5947 135.79 99.3001V99.3001Z" fill="#263238"/>
<path d="M143.42 98.9999V102.2H142.89V98.9999C142.925 98.7543 142.905 98.5039 142.83 98.2673C142.755 98.0306 142.628 97.8139 142.458 97.6332C142.288 97.4525 142.079 97.3125 141.848 97.2237C141.616 97.1348 141.367 97.0993 141.12 97.1199C140.839 97.1081 140.559 97.1555 140.298 97.259C140.037 97.3626 139.801 97.5199 139.605 97.7208C139.408 97.9218 139.257 98.1618 139.159 98.4253C139.062 98.6887 139.021 98.9697 139.04 99.2499V102.16H138.52V96.6899H139.02V97.8699C139.223 97.4773 139.537 97.1527 139.923 96.936C140.308 96.7192 140.749 96.6198 141.19 96.6499C141.5 96.6228 141.812 96.6661 142.103 96.7764C142.395 96.8868 142.657 97.0614 142.871 97.2872C143.086 97.5131 143.246 97.7844 143.341 98.0809C143.436 98.3775 143.463 98.6916 143.42 98.9999V98.9999Z" fill="#263238"/>
<path d="M90.3699 133.07L90.6099 132.67C91.2671 133.278 92.1345 133.608 93.0299 133.59C94.4999 133.59 95.1499 132.96 95.1499 132.16C95.1499 129.96 90.5699 131.28 90.5699 128.57C90.5699 127.57 91.3599 126.62 93.1699 126.62C93.9554 126.618 94.724 126.848 95.3799 127.28L95.1799 127.71C94.588 127.314 93.8921 127.102 93.1799 127.1C91.7499 127.1 91.1099 127.76 91.1099 128.56C91.1099 130.76 95.6899 129.46 95.6899 132.13C95.6899 133.13 94.8599 134.07 93.0499 134.07C92.0593 134.105 91.0954 133.745 90.3699 133.07Z" fill="#263238"/>
<path d="M102.22 130.82V134H101.7V130.85C101.735 130.603 101.715 130.351 101.639 130.113C101.564 129.876 101.436 129.658 101.265 129.476C101.094 129.295 100.884 129.154 100.651 129.065C100.418 128.975 100.168 128.939 99.9198 128.96C99.6401 128.95 99.3612 128.998 99.1013 129.102C98.8415 129.206 98.6064 129.364 98.4112 129.565C98.2161 129.766 98.0653 130.005 97.9686 130.268C97.8719 130.531 97.8314 130.811 97.8498 131.09V134H97.3298V126.23H97.8498V129.67C98.059 129.29 98.3726 128.978 98.7536 128.77C99.1347 128.563 99.5671 128.469 99.9998 128.5C100.306 128.477 100.613 128.522 100.9 128.632C101.186 128.742 101.445 128.914 101.657 129.136C101.869 129.358 102.03 129.624 102.127 129.915C102.224 130.206 102.256 130.515 102.22 130.82V130.82Z" fill="#263238"/>
<path d="M108.33 130.54V134H107.83V133C107.623 133.337 107.326 133.609 106.972 133.785C106.619 133.962 106.223 134.036 105.83 134C104.61 134 103.83 133.37 103.83 132.43C103.83 131.49 104.36 130.9 105.88 130.9H107.75V130.46C107.774 130.244 107.748 130.026 107.674 129.822C107.6 129.617 107.48 129.433 107.323 129.282C107.167 129.131 106.978 129.019 106.771 128.952C106.564 128.886 106.345 128.868 106.13 128.9C105.437 128.891 104.764 129.136 104.24 129.59L103.98 129.22C104.592 128.704 105.37 128.427 106.17 128.44C106.459 128.39 106.757 128.409 107.038 128.495C107.319 128.582 107.575 128.734 107.786 128.939C107.997 129.144 108.156 129.396 108.25 129.674C108.345 129.953 108.372 130.249 108.33 130.54ZM107.8 132.4V131.4H105.94C104.81 131.4 104.41 131.87 104.41 132.5C104.41 133.13 104.96 133.66 105.93 133.66C106.336 133.684 106.74 133.574 107.078 133.346C107.415 133.118 107.669 132.786 107.8 132.4V132.4Z" fill="#263238"/>
<path d="M112.43 131.09L111.01 132.39V134H110.48V126.23H111V131.73L114.5 128.53H115.17L112.81 130.74L115.4 134H114.75L112.43 131.09Z" fill="#263238"/>
<path d="M121.05 131.4H116.34C116.374 131.856 116.541 132.293 116.819 132.656C117.098 133.02 117.477 133.294 117.909 133.444C118.342 133.595 118.809 133.616 119.253 133.505C119.697 133.395 120.099 133.156 120.41 132.82L120.71 133.16C120.456 133.454 120.139 133.688 119.782 133.844C119.426 134 119.039 134.074 118.65 134.06C118.278 134.078 117.907 134.019 117.559 133.886C117.211 133.753 116.895 133.55 116.63 133.289C116.365 133.027 116.157 132.714 116.019 132.368C115.881 132.022 115.817 131.652 115.83 131.28C115.808 130.923 115.859 130.565 115.981 130.229C116.102 129.892 116.291 129.584 116.536 129.324C116.781 129.063 117.077 128.855 117.405 128.713C117.733 128.571 118.087 128.498 118.445 128.498C118.803 128.498 119.157 128.571 119.485 128.713C119.813 128.855 120.109 129.063 120.354 129.324C120.599 129.584 120.788 129.892 120.909 130.229C121.031 130.565 121.082 130.923 121.06 131.28C121.06 131.28 121.05 131.35 121.05 131.4ZM116.35 130.99H120.54C120.503 130.459 120.267 129.962 119.878 129.599C119.489 129.236 118.977 129.035 118.445 129.035C117.913 129.035 117.401 129.236 117.012 129.599C116.623 129.962 116.387 130.459 116.35 130.99V130.99Z" fill="#263238"/>
<path d="M95.6499 163.8H91.3999L90.4599 165.87H89.8899L93.2599 158.53H93.7999L97.1699 165.87H96.5899L95.6499 163.8ZM95.4499 163.35L93.5199 159.12L91.5999 163.35H95.4499Z" fill="#263238"/>
<path d="M103.78 163.13C103.799 163.493 103.743 163.857 103.616 164.197C103.488 164.538 103.291 164.849 103.037 165.11C102.784 165.371 102.479 165.577 102.142 165.714C101.805 165.852 101.444 165.919 101.08 165.91C100.625 165.922 100.176 165.808 99.7825 165.58C99.3888 165.352 99.066 165.02 98.8498 164.62V167.9H98.3298V160.4H98.8298V161.69C99.0406 161.277 99.3636 160.933 99.7617 160.696C100.16 160.458 100.617 160.339 101.08 160.35C101.443 160.343 101.804 160.41 102.14 160.548C102.477 160.686 102.781 160.892 103.034 161.153C103.287 161.414 103.484 161.724 103.612 162.064C103.741 162.404 103.798 162.767 103.78 163.13V163.13ZM103.26 163.13C103.24 162.698 103.094 162.28 102.84 161.93C102.585 161.58 102.234 161.313 101.829 161.161C101.423 161.009 100.983 160.979 100.561 161.075C100.139 161.171 99.7544 161.389 99.4552 161.702C99.156 162.015 98.9553 162.408 98.8778 162.834C98.8003 163.26 98.8496 163.699 99.0194 164.097C99.1892 164.495 99.4721 164.835 99.8331 165.073C100.194 165.312 100.617 165.439 101.05 165.44C101.35 165.445 101.648 165.387 101.925 165.271C102.201 165.156 102.451 164.984 102.659 164.767C102.866 164.55 103.027 164.293 103.13 164.011C103.234 163.729 103.278 163.429 103.26 163.13Z" fill="#263238"/>
<path d="M110.85 163.13C110.869 163.493 110.813 163.857 110.686 164.198C110.558 164.538 110.361 164.849 110.107 165.11C109.854 165.371 109.549 165.577 109.212 165.715C108.875 165.852 108.514 165.919 108.15 165.91C107.697 165.921 107.249 165.807 106.857 165.579C106.465 165.351 106.144 165.019 105.93 164.62V167.9H105.4V160.4H105.91V161.69C106.118 161.277 106.439 160.932 106.836 160.695C107.232 160.458 107.688 160.338 108.15 160.35C108.513 160.343 108.874 160.41 109.211 160.548C109.547 160.686 109.851 160.892 110.104 161.153C110.357 161.414 110.554 161.724 110.683 162.064C110.811 162.404 110.868 162.767 110.85 163.13V163.13ZM110.33 163.13C110.31 162.698 110.164 162.281 109.91 161.931C109.655 161.58 109.304 161.313 108.899 161.161C108.493 161.009 108.053 160.979 107.631 161.075C107.209 161.171 106.824 161.389 106.525 161.702C106.226 162.015 106.025 162.408 105.948 162.834C105.87 163.26 105.92 163.699 106.089 164.097C106.259 164.495 106.542 164.835 106.903 165.073C107.264 165.312 107.687 165.439 108.12 165.44C108.42 165.446 108.719 165.39 108.996 165.275C109.274 165.159 109.525 164.988 109.732 164.77C109.94 164.553 110.101 164.295 110.203 164.013C110.306 163.731 110.349 163.43 110.33 163.13V163.13Z" fill="#263238"/>
<path d="M114.36 165.21L114.6 164.79C115.174 165.228 115.878 165.46 116.6 165.45C117.76 165.45 118.22 165.04 118.22 164.45C118.22 162.86 114.59 164.03 114.59 161.88C114.59 161.05 115.28 160.38 116.66 160.38C117.327 160.367 117.982 160.555 118.54 160.92L118.3 161.34C117.816 161.004 117.239 160.829 116.65 160.84C115.59 160.84 115.11 161.29 115.11 161.84C115.11 163.49 118.74 162.32 118.74 164.41C118.74 165.3 117.98 165.91 116.58 165.91C115.781 165.943 114.995 165.696 114.36 165.21V165.21Z" fill="#263238"/>
<path d="M125 160.4V165.87H124.49V164.69C124.307 165.075 124.013 165.398 123.646 165.615C123.279 165.832 122.856 165.935 122.43 165.91C122.119 165.94 121.805 165.9 121.512 165.794C121.218 165.688 120.952 165.517 120.733 165.295C120.513 165.073 120.346 164.804 120.244 164.509C120.141 164.214 120.106 163.9 120.14 163.59V160.4H120.67V163.55C120.636 163.798 120.658 164.051 120.735 164.29C120.812 164.528 120.942 164.746 121.115 164.928C121.288 165.11 121.5 165.25 121.734 165.338C121.969 165.427 122.22 165.462 122.47 165.44C122.747 165.453 123.024 165.406 123.282 165.302C123.539 165.198 123.771 165.039 123.961 164.836C124.151 164.634 124.295 164.393 124.383 164.129C124.471 163.865 124.501 163.586 124.47 163.31V160.4H125Z" fill="#263238"/>
<path d="M132.11 160.4V165.28C132.168 165.642 132.14 166.012 132.027 166.36C131.915 166.709 131.721 167.026 131.463 167.285C131.204 167.545 130.888 167.74 130.54 167.853C130.192 167.967 129.822 167.997 129.46 167.94C128.543 167.98 127.646 167.669 126.95 167.07L127.24 166.67C127.848 167.207 128.638 167.493 129.45 167.47C129.741 167.518 130.039 167.496 130.32 167.407C130.601 167.317 130.857 167.161 131.066 166.953C131.275 166.745 131.431 166.49 131.522 166.21C131.614 165.929 131.637 165.631 131.59 165.34V164.42C131.359 164.816 131.025 165.142 130.624 165.362C130.222 165.582 129.768 165.689 129.31 165.67C128.604 165.67 127.928 165.39 127.429 164.891C126.93 164.392 126.65 163.716 126.65 163.01C126.65 162.305 126.93 161.628 127.429 161.129C127.928 160.63 128.604 160.35 129.31 160.35C129.774 160.33 130.235 160.438 130.641 160.664C131.047 160.89 131.383 161.225 131.61 161.63V160.4H132.11ZM131.6 163C131.61 162.555 131.487 162.118 131.248 161.743C131.008 161.369 130.662 161.074 130.255 160.896C129.847 160.719 129.396 160.667 128.958 160.747C128.521 160.826 128.117 161.035 127.798 161.345C127.479 161.655 127.26 162.053 127.169 162.488C127.077 162.923 127.117 163.376 127.283 163.788C127.45 164.201 127.735 164.554 128.103 164.804C128.471 165.054 128.905 165.188 129.35 165.19C129.645 165.207 129.94 165.162 130.216 165.059C130.493 164.956 130.745 164.796 130.956 164.59C131.168 164.384 131.335 164.136 131.445 163.863C131.556 163.589 131.609 163.295 131.6 163V163Z" fill="#263238"/>
<path d="M139.26 160.4V165.28C139.316 165.642 139.286 166.012 139.172 166.361C139.059 166.709 138.864 167.026 138.605 167.285C138.346 167.544 138.029 167.739 137.681 167.852C137.332 167.966 136.962 167.996 136.6 167.94C135.686 167.98 134.791 167.669 134.1 167.07L134.38 166.67C134.989 167.206 135.779 167.491 136.59 167.47C136.881 167.518 137.179 167.496 137.46 167.406C137.741 167.317 137.996 167.161 138.205 166.953C138.415 166.745 138.571 166.49 138.662 166.21C138.753 165.929 138.777 165.631 138.73 165.34V164.42C138.5 164.814 138.168 165.139 137.768 165.359C137.368 165.579 136.916 165.687 136.46 165.67C135.754 165.67 135.078 165.39 134.579 164.891C134.08 164.392 133.8 163.715 133.8 163.01C133.8 162.304 134.08 161.628 134.579 161.129C135.078 160.63 135.754 160.35 136.46 160.35C136.923 160.33 137.382 160.439 137.786 160.665C138.191 160.891 138.524 161.225 138.75 161.63V160.4H139.26ZM138.74 163.01C138.75 162.565 138.627 162.127 138.387 161.752C138.147 161.377 137.801 161.082 137.392 160.905C136.984 160.728 136.532 160.676 136.094 160.757C135.656 160.838 135.253 161.047 134.934 161.358C134.616 161.669 134.398 162.068 134.307 162.504C134.217 162.94 134.258 163.393 134.426 163.805C134.594 164.217 134.881 164.57 135.25 164.819C135.62 165.067 136.055 165.2 136.5 165.2C136.795 165.217 137.09 165.172 137.367 165.068C137.644 164.964 137.896 164.803 138.107 164.596C138.318 164.389 138.483 164.14 138.592 163.865C138.701 163.59 138.751 163.295 138.74 163V163.01Z" fill="#263238"/>
<path d="M146.1 163.26H141.39C141.421 163.718 141.587 164.157 141.866 164.522C142.145 164.886 142.525 165.161 142.959 165.311C143.392 165.462 143.861 165.481 144.306 165.367C144.751 165.253 145.152 165.01 145.46 164.67L145.76 165.02C145.505 165.313 145.188 165.546 144.831 165.7C144.475 165.854 144.088 165.926 143.7 165.91C143.328 165.93 142.956 165.872 142.607 165.739C142.259 165.607 141.942 165.404 141.677 165.142C141.411 164.881 141.203 164.567 141.066 164.22C140.929 163.874 140.866 163.502 140.88 163.13C140.858 162.773 140.909 162.415 141.031 162.079C141.152 161.742 141.341 161.434 141.586 161.174C141.831 160.913 142.127 160.705 142.455 160.563C142.783 160.421 143.137 160.348 143.495 160.348C143.853 160.348 144.207 160.421 144.535 160.563C144.863 160.705 145.159 160.913 145.404 161.174C145.649 161.434 145.838 161.742 145.959 162.079C146.081 162.415 146.132 162.773 146.11 163.13C146.11 163.13 146.1 163.21 146.1 163.26ZM141.4 162.85H145.6C145.6 162.293 145.379 161.759 144.985 161.365C144.591 160.971 144.057 160.75 143.5 160.75C142.943 160.75 142.409 160.971 142.015 161.365C141.621 161.759 141.4 162.293 141.4 162.85V162.85Z" fill="#263238"/>
<path d="M146.92 165.21L147.16 164.79C147.734 165.226 148.438 165.459 149.16 165.45C150.32 165.45 150.78 165.04 150.78 164.45C150.78 162.86 147.15 164.03 147.15 161.88C147.15 161.05 147.84 160.38 149.23 160.38C149.893 160.368 150.545 160.557 151.1 160.92L150.86 161.34C150.379 161.005 149.806 160.83 149.22 160.84C148.15 160.84 147.68 161.29 147.68 161.84C147.68 163.49 151.3 162.32 151.3 164.41C151.3 165.3 150.54 165.91 149.14 165.91C148.341 165.943 147.555 165.696 146.92 165.21Z" fill="#263238"/>
<path d="M155.45 165.52C155.137 165.784 154.738 165.923 154.33 165.91C154.129 165.931 153.926 165.906 153.736 165.838C153.546 165.771 153.374 165.661 153.231 165.519C153.089 165.376 152.98 165.204 152.912 165.014C152.844 164.824 152.82 164.621 152.84 164.42V160.85H151.84V160.4H152.84V159.2H153.37V160.4H155.11V160.85H153.37V164.37C153.37 165.07 153.71 165.46 154.37 165.46C154.682 165.467 154.985 165.356 155.22 165.15L155.45 165.52Z" fill="#263238"/>
<path d="M156.74 158.65C156.74 158.593 156.751 158.537 156.773 158.485C156.794 158.433 156.826 158.386 156.866 158.346C156.906 158.306 156.953 158.274 157.005 158.253C157.058 158.231 157.114 158.22 157.17 158.22C157.225 158.219 157.28 158.228 157.331 158.248C157.383 158.268 157.43 158.298 157.47 158.336C157.51 158.374 157.542 158.419 157.564 158.47C157.587 158.52 157.599 158.575 157.6 158.63C157.601 158.687 157.591 158.743 157.57 158.796C157.549 158.849 157.517 158.897 157.477 158.937C157.437 158.977 157.389 159.009 157.336 159.03C157.283 159.051 157.227 159.061 157.17 159.06C157.115 159.061 157.06 159.052 157.008 159.032C156.957 159.012 156.91 158.982 156.87 158.944C156.83 158.906 156.798 158.86 156.776 158.81C156.753 158.759 156.741 158.705 156.74 158.65V158.65ZM156.91 160.4H157.43V165.87H156.91V160.4Z" fill="#263238"/>
<path d="M159 163.13C159.008 162.59 159.175 162.064 159.481 161.619C159.787 161.174 160.217 160.829 160.719 160.627C161.22 160.426 161.77 160.378 162.299 160.488C162.827 160.598 163.312 160.862 163.691 161.247C164.07 161.632 164.327 162.12 164.43 162.65C164.532 163.181 164.476 163.729 164.267 164.228C164.059 164.726 163.708 165.152 163.258 165.451C162.808 165.75 162.28 165.91 161.74 165.91C161.374 165.92 161.01 165.855 160.67 165.718C160.331 165.581 160.023 165.376 159.766 165.115C159.509 164.855 159.308 164.544 159.177 164.202C159.045 163.861 158.985 163.496 159 163.13V163.13ZM163.94 163.13C163.918 162.7 163.771 162.286 163.517 161.939C163.262 161.592 162.912 161.328 162.508 161.178C162.105 161.028 161.666 161 161.247 161.097C160.828 161.194 160.446 161.411 160.15 161.723C159.853 162.035 159.654 162.426 159.578 162.85C159.501 163.273 159.551 163.71 159.72 164.106C159.889 164.501 160.171 164.838 160.53 165.076C160.889 165.313 161.31 165.44 161.74 165.44C162.044 165.453 162.348 165.402 162.632 165.29C162.916 165.178 163.172 165.008 163.386 164.79C163.599 164.572 163.764 164.311 163.87 164.025C163.975 163.739 164.02 163.434 164 163.13H163.94Z" fill="#263238"/>
<path d="M171 162.67V165.87H170.48V162.71C170.515 162.464 170.495 162.214 170.42 161.977C170.345 161.741 170.218 161.524 170.048 161.343C169.878 161.163 169.669 161.023 169.438 160.934C169.206 160.845 168.957 160.809 168.71 160.83C168.43 160.818 168.151 160.865 167.891 160.968C167.63 161.071 167.395 161.228 167.199 161.428C167.002 161.627 166.851 161.866 166.753 162.128C166.655 162.391 166.613 162.671 166.63 162.95V165.87H166.11V160.4H166.61V161.58C166.81 161.184 167.123 160.856 167.509 160.637C167.895 160.418 168.337 160.318 168.78 160.35C169.086 160.327 169.393 160.372 169.68 160.482C169.966 160.592 170.225 160.764 170.437 160.986C170.649 161.208 170.81 161.474 170.907 161.765C171.004 162.056 171.036 162.365 171 162.67V162.67Z" fill="#263238"/>
<path d="M172.38 165.21L172.62 164.79C173.194 165.226 173.898 165.459 174.62 165.45C175.78 165.45 176.24 165.04 176.24 164.45C176.24 162.86 172.61 164.03 172.61 161.88C172.61 161.05 173.3 160.38 174.69 160.38C175.353 160.368 176.005 160.557 176.56 160.92L176.32 161.34C175.839 161.005 175.265 160.83 174.68 160.84C173.61 160.84 173.14 161.29 173.14 161.84C173.14 163.49 176.76 162.32 176.76 164.41C176.76 165.3 176 165.91 174.6 165.91C173.801 165.943 173.015 165.696 172.38 165.21V165.21Z" fill="#263238"/>
<path d="M97.0899 190.38V197.72H96.5499V194.23H91.6499V197.72H91.1099V190.38H91.6499V193.76H96.5499V190.38H97.0899Z" fill="#263238"/>
<path d="M98.88 195C98.8859 194.459 99.0519 193.932 99.357 193.485C99.6621 193.038 100.093 192.692 100.594 192.489C101.096 192.287 101.647 192.237 102.176 192.347C102.706 192.457 103.192 192.721 103.571 193.107C103.951 193.492 104.208 193.981 104.311 194.513C104.413 195.044 104.355 195.594 104.146 196.092C103.936 196.591 103.583 197.017 103.132 197.315C102.681 197.614 102.151 197.772 101.61 197.77C101.245 197.78 100.883 197.715 100.544 197.579C100.206 197.442 99.8992 197.238 99.6432 196.978C99.3871 196.718 99.1872 196.409 99.056 196.068C98.9247 195.728 98.8648 195.364 98.88 195ZM103.81 195C103.79 194.57 103.645 194.155 103.392 193.806C103.138 193.458 102.788 193.191 102.385 193.04C101.982 192.889 101.543 192.859 101.123 192.955C100.703 193.051 100.32 193.268 100.022 193.579C99.7247 193.891 99.5249 194.282 99.4478 194.706C99.3707 195.13 99.4197 195.567 99.5888 195.963C99.7578 196.36 100.039 196.697 100.399 196.935C100.758 197.173 101.179 197.3 101.61 197.3C101.909 197.305 102.205 197.248 102.481 197.132C102.757 197.017 103.006 196.846 103.212 196.63C103.419 196.414 103.578 196.158 103.681 195.878C103.784 195.597 103.828 195.298 103.81 195V195Z" fill="#263238"/>
<path d="M115 194.52V197.72H114.48V194.57C114.48 193.33 113.84 192.68 112.77 192.68C112.493 192.667 112.216 192.714 111.958 192.818C111.701 192.922 111.469 193.081 111.279 193.283C111.088 193.486 110.944 193.727 110.857 193.991C110.769 194.254 110.739 194.534 110.77 194.81V197.72H110.24V194.57C110.24 193.33 109.6 192.68 108.54 192.68C108.263 192.668 107.987 192.717 107.73 192.821C107.473 192.926 107.242 193.085 107.052 193.287C106.863 193.489 106.719 193.73 106.63 193.993C106.542 194.255 106.511 194.534 106.54 194.81V197.72H106V192.25H106.5V193.42C106.691 193.033 106.993 192.712 107.366 192.496C107.74 192.281 108.17 192.181 108.6 192.21C109.033 192.174 109.466 192.285 109.828 192.524C110.191 192.764 110.463 193.118 110.6 193.53C110.795 193.115 111.109 192.767 111.503 192.532C111.897 192.297 112.352 192.185 112.81 192.21C113.116 192.177 113.426 192.215 113.715 192.321C114.005 192.427 114.265 192.599 114.477 192.822C114.689 193.046 114.847 193.315 114.938 193.61C115.028 193.904 115.05 194.216 115 194.52Z" fill="#263238"/>
<path d="M121.75 195.11H117C117.034 195.567 117.201 196.003 117.479 196.367C117.758 196.73 118.137 197.004 118.569 197.155C119.002 197.305 119.469 197.327 119.913 197.216C120.357 197.105 120.759 196.866 121.07 196.53L121.37 196.87C121.115 197.163 120.798 197.396 120.441 197.55C120.085 197.704 119.698 197.776 119.31 197.76C118.939 197.78 118.567 197.722 118.22 197.59C117.872 197.459 117.555 197.256 117.29 196.996C117.025 196.735 116.817 196.422 116.679 196.077C116.541 195.732 116.477 195.362 116.49 194.99C116.467 194.632 116.517 194.274 116.638 193.937C116.76 193.599 116.949 193.291 117.195 193.03C117.441 192.769 117.738 192.562 118.067 192.421C118.397 192.28 118.752 192.208 119.11 192.21C119.466 192.207 119.818 192.277 120.146 192.415C120.473 192.554 120.769 192.759 121.013 193.017C121.258 193.275 121.447 193.581 121.569 193.915C121.691 194.249 121.742 194.605 121.72 194.96C121.76 195 121.75 195.06 121.75 195.11ZM117.05 194.7H121.25C121.25 194.143 121.029 193.609 120.635 193.215C120.241 192.821 119.707 192.6 119.15 192.6C118.593 192.6 118.059 192.821 117.665 193.215C117.271 193.609 117.05 194.143 117.05 194.7V194.7Z" fill="#263238"/>
<path d="M125.27 197.06L125.51 196.64C126.081 197.082 126.787 197.315 127.51 197.3C128.66 197.3 129.12 196.89 129.12 196.3C129.12 194.71 125.5 195.89 125.5 193.74C125.5 192.91 126.19 192.24 127.57 192.24C128.235 192.23 128.888 192.414 129.45 192.77L129.21 193.19C128.723 192.861 128.147 192.69 127.56 192.7C126.49 192.7 126.02 193.14 126.02 193.7C126.02 195.34 129.65 194.18 129.65 196.26C129.65 197.16 128.88 197.76 127.49 197.76C126.691 197.794 125.905 197.546 125.27 197.06V197.06Z" fill="#263238"/>
<path d="M130.48 195C130.464 194.632 130.525 194.264 130.659 193.92C130.793 193.577 130.996 193.265 131.256 193.003C131.516 192.742 131.828 192.538 132.171 192.403C132.514 192.268 132.881 192.206 133.25 192.22C133.653 192.199 134.054 192.28 134.417 192.455C134.781 192.629 135.095 192.893 135.33 193.22L134.94 193.51C134.747 193.245 134.492 193.032 134.197 192.889C133.902 192.746 133.577 192.678 133.25 192.69C132.665 192.729 132.116 192.988 131.716 193.416C131.315 193.844 131.092 194.409 131.092 194.995C131.092 195.581 131.315 196.146 131.716 196.574C132.116 197.002 132.665 197.261 133.25 197.3C133.577 197.312 133.902 197.244 134.197 197.101C134.492 196.958 134.747 196.745 134.94 196.48L135.33 196.77C135.093 197.096 134.779 197.358 134.416 197.533C134.053 197.707 133.652 197.789 133.25 197.77C132.882 197.784 132.516 197.722 132.173 197.588C131.831 197.453 131.52 197.25 131.26 196.99C131 196.73 130.796 196.419 130.662 196.076C130.528 195.734 130.466 195.367 130.48 195V195Z" fill="#263238"/>
<path d="M139.49 192.21V192.72H139.36C139.083 192.71 138.807 192.761 138.552 192.869C138.297 192.977 138.069 193.14 137.884 193.346C137.699 193.552 137.562 193.796 137.481 194.061C137.401 194.327 137.38 194.606 137.42 194.88V197.73H136.9V192.26H137.4V193.45C137.576 193.051 137.871 192.718 138.246 192.495C138.621 192.273 139.056 192.173 139.49 192.21Z" fill="#263238"/>
<path d="M145.5 195.11H140.79C140.824 195.567 140.991 196.003 141.269 196.367C141.548 196.73 141.927 197.004 142.359 197.155C142.792 197.305 143.259 197.327 143.703 197.216C144.147 197.105 144.549 196.866 144.86 196.53L145.17 196.87C144.912 197.163 144.593 197.394 144.235 197.548C143.877 197.702 143.489 197.774 143.1 197.76C142.729 197.78 142.357 197.722 142.01 197.59C141.662 197.459 141.346 197.256 141.08 196.996C140.815 196.735 140.607 196.422 140.469 196.077C140.331 195.732 140.267 195.362 140.28 194.99C140.257 194.632 140.307 194.274 140.428 193.937C140.55 193.599 140.739 193.291 140.985 193.03C141.231 192.769 141.528 192.562 141.857 192.421C142.187 192.28 142.542 192.208 142.9 192.21C143.256 192.207 143.608 192.277 143.936 192.415C144.263 192.554 144.559 192.759 144.804 193.017C145.048 193.275 145.237 193.581 145.359 193.915C145.481 194.249 145.532 194.605 145.51 194.96C145.51 195 145.5 195.06 145.5 195.11ZM140.8 194.7H145C145 194.143 144.779 193.609 144.385 193.215C143.991 192.821 143.457 192.6 142.9 192.6C142.343 192.6 141.809 192.821 141.415 193.215C141.021 193.609 140.8 194.143 140.8 194.7V194.7Z" fill="#263238"/>
<path d="M151.76 195.11H147.05C147.084 195.567 147.251 196.003 147.529 196.367C147.808 196.73 148.187 197.004 148.619 197.155C149.052 197.305 149.519 197.327 149.963 197.216C150.407 197.105 150.809 196.866 151.12 196.53L151.42 196.87C151.164 197.162 150.847 197.394 150.491 197.548C150.134 197.702 149.748 197.774 149.36 197.76C148.989 197.78 148.617 197.722 148.27 197.59C147.922 197.459 147.606 197.256 147.34 196.996C147.075 196.735 146.867 196.422 146.729 196.077C146.591 195.732 146.527 195.362 146.54 194.99C146.517 194.632 146.567 194.274 146.688 193.937C146.81 193.599 146.999 193.291 147.245 193.03C147.491 192.769 147.788 192.562 148.117 192.421C148.447 192.28 148.802 192.208 149.16 192.21C149.516 192.207 149.868 192.277 150.196 192.415C150.523 192.554 150.819 192.759 151.064 193.017C151.308 193.275 151.498 193.581 151.619 193.915C151.741 194.249 151.792 194.605 151.77 194.96C151.77 195 151.76 195.06 151.76 195.11ZM147.06 194.7H151.25C151.213 194.169 150.977 193.673 150.588 193.31C150.199 192.947 149.687 192.745 149.155 192.745C148.623 192.745 148.111 192.947 147.722 193.31C147.333 193.673 147.097 194.169 147.06 194.7Z" fill="#263238"/>
<path d="M158.28 194.52V197.72H157.76V194.57C157.795 194.324 157.775 194.073 157.7 193.836C157.625 193.599 157.498 193.382 157.328 193.201C157.158 193.019 156.95 192.878 156.718 192.788C156.487 192.698 156.238 192.661 155.99 192.68C155.709 192.668 155.429 192.716 155.168 192.819C154.907 192.923 154.671 193.08 154.475 193.281C154.278 193.482 154.127 193.722 154.029 193.985C153.932 194.249 153.891 194.53 153.91 194.81V197.72H153.39V192.25H153.89V193.43C154.092 193.037 154.406 192.711 154.792 192.494C155.178 192.278 155.618 192.179 156.06 192.21C156.365 192.186 156.673 192.23 156.959 192.338C157.246 192.447 157.505 192.618 157.717 192.839C157.93 193.06 158.09 193.326 158.188 193.616C158.285 193.907 158.316 194.216 158.28 194.52V194.52Z" fill="#263238"/>
<path d="M163.13 189.94H163.66V197.72H163.13V189.94Z" fill="#263238"/>
<path d="M165.27 195C165.276 194.459 165.442 193.932 165.747 193.485C166.052 193.038 166.483 192.692 166.984 192.489C167.486 192.287 168.036 192.237 168.566 192.347C169.096 192.457 169.581 192.721 169.961 193.107C170.341 193.492 170.598 193.981 170.7 194.513C170.803 195.044 170.745 195.594 170.535 196.092C170.326 196.591 169.973 197.017 169.522 197.315C169.07 197.614 168.541 197.772 168 197.77C167.635 197.78 167.273 197.715 166.934 197.579C166.596 197.442 166.289 197.238 166.033 196.978C165.777 196.718 165.577 196.409 165.446 196.068C165.315 195.728 165.255 195.364 165.27 195ZM170.21 195C170.192 194.567 170.048 194.149 169.794 193.798C169.541 193.446 169.19 193.177 168.785 193.024C168.38 192.87 167.939 192.839 167.516 192.934C167.094 193.029 166.708 193.246 166.408 193.559C166.108 193.871 165.906 194.265 165.828 194.691C165.75 195.117 165.799 195.557 165.968 195.955C166.138 196.354 166.421 196.694 166.782 196.933C167.143 197.172 167.567 197.3 168 197.3C168.299 197.305 168.596 197.248 168.872 197.132C169.148 197.017 169.398 196.846 169.605 196.631C169.812 196.415 169.973 196.159 170.077 195.878C170.181 195.598 170.226 195.299 170.21 195Z" fill="#263238"/>
<path d="M171.76 195C171.766 194.459 171.932 193.933 172.236 193.486C172.541 193.039 172.971 192.693 173.472 192.49C173.973 192.287 174.523 192.237 175.053 192.346C175.582 192.455 176.068 192.719 176.448 193.103C176.828 193.488 177.086 193.976 177.189 194.506C177.293 195.037 177.237 195.586 177.028 196.085C176.82 196.584 176.469 197.011 176.019 197.31C175.569 197.61 175.041 197.77 174.5 197.77C174.135 197.78 173.772 197.715 173.433 197.579C173.094 197.442 172.787 197.238 172.53 196.979C172.273 196.719 172.072 196.41 171.94 196.069C171.807 195.729 171.746 195.365 171.76 195V195ZM176.7 195C176.68 194.57 176.535 194.155 176.282 193.806C176.028 193.458 175.678 193.191 175.275 193.04C174.872 192.889 174.433 192.859 174.013 192.955C173.593 193.051 173.21 193.268 172.912 193.579C172.615 193.891 172.415 194.283 172.338 194.706C172.261 195.13 172.31 195.567 172.479 195.963C172.648 196.36 172.929 196.698 173.289 196.935C173.648 197.173 174.069 197.3 174.5 197.3C174.799 197.305 175.095 197.248 175.371 197.132C175.647 197.017 175.895 196.846 176.102 196.63C176.309 196.414 176.468 196.158 176.571 195.878C176.674 195.597 176.718 195.298 176.7 195V195Z" fill="#263238"/>
<path d="M184.31 195C184.326 195.363 184.268 195.726 184.139 196.065C184.009 196.405 183.811 196.714 183.557 196.974C183.303 197.234 182.998 197.439 182.661 197.576C182.324 197.713 181.963 197.779 181.6 197.77C181.147 197.782 180.699 197.667 180.307 197.439C179.915 197.212 179.594 196.88 179.38 196.48V199.77H178.86V192.26H179.36V193.55C179.569 193.139 179.891 192.797 180.288 192.561C180.684 192.326 181.139 192.208 181.6 192.22C181.964 192.213 182.325 192.28 182.662 192.419C182.999 192.557 183.303 192.762 183.557 193.023C183.811 193.283 184.009 193.593 184.139 193.933C184.268 194.274 184.326 194.637 184.31 195V195ZM183.78 195C183.762 194.567 183.618 194.149 183.364 193.798C183.111 193.446 182.76 193.177 182.355 193.024C181.95 192.87 181.509 192.839 181.086 192.934C180.664 193.029 180.278 193.247 179.978 193.559C179.678 193.871 179.476 194.265 179.398 194.691C179.32 195.117 179.369 195.557 179.538 195.955C179.708 196.354 179.991 196.694 180.352 196.933C180.713 197.172 181.137 197.3 181.57 197.3C181.869 197.305 182.166 197.248 182.442 197.133C182.718 197.017 182.968 196.847 183.175 196.631C183.382 196.415 183.543 196.159 183.647 195.878C183.751 195.598 183.796 195.299 183.78 195V195Z" fill="#263238"/>
<path d="M96.33 60.3398H88.22" stroke="#263238" stroke-linecap="round" stroke-linejoin="round"/>
<path d="M93.09 56.21L88.22 60.34L92.85 64.11" stroke="#263238" stroke-linecap="round" stroke-linejoin="round"/>
<path d="M87.48 69.9199H225.82" stroke="#D4D6D7" stroke-linecap="round" stroke-linejoin="round"/>
<path d="M87.48 114.85H225.82" stroke="#D4D6D7" stroke-linecap="round" stroke-linejoin="round"/>
<path d="M87.48 148.21H225.82" stroke="#D4D6D7" stroke-linecap="round" stroke-linejoin="round"/>
<path d="M87.48 181.57H225.82" stroke="#D4D6D7" stroke-linecap="round" stroke-linejoin="round"/>
<path d="M87.48 218.24H225.82" stroke="#D4D6D7" stroke-linecap="round" stroke-linejoin="round"/>
<path d="M87.48 258.24H225.82" stroke="#D4D6D7" stroke-linecap="round" stroke-linejoin="round"/>
<path d="M213.59 103.41H196.24C194.529 103.41 192.889 102.73 191.679 101.521C190.469 100.311 189.79 98.6704 189.79 96.9598C189.79 95.2491 190.469 93.6085 191.679 92.3989C192.889 91.1893 194.529 90.5098 196.24 90.5098H213.59C214.437 90.515 215.275 90.687 216.055 91.016C216.836 91.345 217.544 91.8245 218.139 92.4272C218.734 93.0298 219.205 93.7438 219.524 94.5284C219.843 95.313 220.005 96.1527 220 96.9998C219.989 98.6966 219.311 100.321 218.111 101.521C216.911 102.721 215.287 103.399 213.59 103.41V103.41Z" fill="#C86FC9"/>
<path d="M218.61 96.9999C218.61 95.9912 218.311 95.0052 217.75 94.1665C217.19 93.3278 216.394 92.6741 215.462 92.2881C214.53 91.9021 213.504 91.8011 212.515 91.9979C211.526 92.1947 210.617 92.6804 209.904 93.3937C209.19 94.1069 208.705 95.0156 208.508 96.0049C208.311 96.9942 208.412 98.0197 208.798 98.9516C209.184 99.8835 209.838 100.68 210.677 101.24C211.515 101.801 212.501 102.1 213.51 102.1C214.863 102.1 216.16 101.563 217.116 100.606C218.073 99.6497 218.61 98.3525 218.61 96.9999V96.9999Z" fill="white"/>
<path d="M213.59 137.74H196.24C194.529 137.74 192.889 137.06 191.679 135.851C190.469 134.641 189.79 133 189.79 131.29C189.79 129.579 190.469 127.939 191.679 126.729C192.889 125.519 194.529 124.84 196.24 124.84H213.59C215.3 124.84 216.941 125.519 218.151 126.729C219.36 127.939 220.04 129.579 220.04 131.29C220.04 133 219.36 134.641 218.151 135.851C216.941 137.06 215.3 137.74 213.59 137.74Z" fill="#CCCCCC"/>
<path d="M201.61 131.29C201.61 130.281 201.311 129.295 200.75 128.457C200.19 127.618 199.394 126.964 198.462 126.578C197.53 126.192 196.504 126.091 195.515 126.288C194.526 126.485 193.617 126.97 192.904 127.684C192.19 128.397 191.705 129.306 191.508 130.295C191.311 131.284 191.412 132.31 191.798 133.242C192.184 134.174 192.838 134.97 193.677 135.53C194.515 136.091 195.501 136.39 196.51 136.39C197.862 136.387 199.157 135.849 200.113 134.893C201.069 133.937 201.607 132.642 201.61 131.29V131.29Z" fill="white" stroke="#D4D6D7" stroke-linecap="round" stroke-linejoin="round"/>
<path d="M213.59 171.12H196.24C194.529 171.12 192.889 170.441 191.679 169.231C190.469 168.021 189.79 166.381 189.79 164.67C189.79 162.96 190.469 161.319 191.679 160.109C192.889 158.9 194.529 158.22 196.24 158.22H213.59C215.3 158.22 216.941 158.9 218.151 160.109C219.36 161.319 220.04 162.96 220.04 164.67C220.04 166.381 219.36 168.021 218.151 169.231C216.941 170.441 215.3 171.12 213.59 171.12Z" fill="#C86FC9"/>
<path d="M218.61 164.67C218.612 163.661 218.314 162.674 217.755 161.834C217.196 160.994 216.4 160.339 215.469 159.951C214.537 159.564 213.511 159.461 212.521 159.657C211.531 159.852 210.621 160.337 209.907 161.05C209.193 161.763 208.706 162.672 208.509 163.661C208.311 164.651 208.411 165.677 208.797 166.609C209.183 167.542 209.837 168.339 210.675 168.9C211.514 169.461 212.501 169.76 213.51 169.76C214.861 169.76 216.156 169.224 217.113 168.27C218.069 167.316 218.607 166.021 218.61 164.67V164.67Z" fill="white"/>
<path d="M213.59 201.78H196.24C194.529 201.78 192.889 201.1 191.679 199.891C190.469 198.681 189.79 197.041 189.79 195.33C189.79 193.619 190.469 191.979 191.679 190.769C192.889 189.559 194.529 188.88 196.24 188.88H213.59C215.3 188.88 216.941 189.559 218.151 190.769C219.36 191.979 220.04 193.619 220.04 195.33C220.04 197.041 219.36 198.681 218.151 199.891C216.941 201.1 215.3 201.78 213.59 201.78Z" fill="#C86FC9"/>
<path d="M218.61 195.33C218.61 194.321 218.311 193.335 217.75 192.497C217.19 191.658 216.394 191.004 215.462 190.618C214.53 190.232 213.504 190.131 212.515 190.328C211.526 190.525 210.617 191.01 209.904 191.724C209.19 192.437 208.705 193.346 208.508 194.335C208.311 195.324 208.412 196.35 208.798 197.282C209.184 198.214 209.838 199.01 210.677 199.57C211.515 200.131 212.501 200.43 213.51 200.43C214.18 200.431 214.844 200.3 215.463 200.044C216.083 199.789 216.645 199.413 217.119 198.939C217.593 198.465 217.969 197.903 218.224 197.283C218.48 196.664 218.611 196 218.61 195.33V195.33Z" fill="white"/>
<path d="M159.1 270.53C159.1 269.739 158.865 268.965 158.426 268.307C157.986 267.65 157.361 267.137 156.631 266.834C155.9 266.532 155.095 266.452 154.319 266.607C153.544 266.761 152.831 267.142 152.271 267.701C151.712 268.261 151.331 268.973 151.177 269.749C151.022 270.525 151.102 271.33 151.404 272.061C151.707 272.791 152.22 273.416 152.878 273.856C153.535 274.295 154.309 274.53 155.1 274.53C156.161 274.53 157.178 274.108 157.928 273.358C158.678 272.608 159.1 271.591 159.1 270.53Z" fill="white" stroke="#D4D6D7" stroke-linecap="round" stroke-linejoin="round"/>
<path d="M124.72 271.26L130.04 274.33C130.192 274.418 130.365 274.464 130.541 274.464C130.717 274.464 130.89 274.417 131.042 274.329C131.194 274.241 131.32 274.114 131.407 273.962C131.495 273.809 131.541 273.636 131.54 273.46V267.33C131.541 267.154 131.495 266.981 131.407 266.829C131.32 266.676 131.194 266.549 131.042 266.461C130.89 266.373 130.717 266.326 130.541 266.326C130.365 266.326 130.192 266.372 130.04 266.46L124.72 269.53C124.568 269.618 124.443 269.744 124.355 269.896C124.268 270.048 124.222 270.22 124.222 270.395C124.222 270.57 124.268 270.742 124.355 270.894C124.443 271.046 124.568 271.172 124.72 271.26Z" fill="white" stroke="#D4D6D7" stroke-linecap="round" stroke-linejoin="round"/>
<path d="M184.01 266.53H175.56V274.98H184.01V266.53Z" fill="white" stroke="#D4D6D7" stroke-linecap="round" stroke-linejoin="round"/>
<path d="M325.13 336.7H235V355.03H325.13V336.7Z" fill="#263238" stroke="#263238" stroke-linecap="round" stroke-linejoin="round"/>
<path d="M275.51 199.05C275.51 199.05 262.56 201.58 260.03 202.14C257.5 202.7 256.09 237.87 257.5 250.81C258.91 263.75 260.31 342.81 260.31 342.81H301.67C301.67 342.81 303.08 238.99 304.49 228.58C305.9 218.17 308.71 203.82 308.71 203.82C308.71 203.82 284.51 197.64 275.51 199.05Z" fill="white"/>
<path opacity="0.3" d="M270.51 293.91C270.51 268.04 273.92 207.52 273.92 207.52L267.57 200.61C264.37 201.25 261.16 201.89 260.03 202.14C257.5 202.7 256.09 237.87 257.5 250.81C258.91 263.75 260.31 342.81 260.31 342.81H269C269.67 329 270.51 309.09 270.51 293.91Z" fill="black"/>
<path d="M275.51 199.05C275.51 199.05 262.56 201.58 260.03 202.14C257.5 202.7 256.09 237.87 257.5 250.81C258.91 263.75 260.31 342.81 260.31 342.81H301.67C301.67 342.81 303.08 238.99 304.49 228.58C305.9 218.17 308.71 203.82 308.71 203.82C308.71 203.82 284.51 197.64 275.51 199.05Z" stroke="#263238" stroke-linecap="round" stroke-linejoin="round"/>
<path d="M291.26 298.08C291 304.77 291 343.49 291 355H332L322.81 275.26C326.569 277.076 330.148 279.242 333.5 281.73C340.26 286.52 343.07 292.99 352.64 293.27C362.21 293.55 363.89 287.08 364.17 283.42C364.45 279.76 361.08 269.07 357.98 262.32C354.88 255.57 348.98 234.47 348.98 229.96C348.98 225.45 346.22 222.91 344.53 222.63C342.84 222.35 319.72 207.46 319.72 207.46L308.72 203.8L305.9 207.46C305.9 207.46 297.18 228.56 296.05 239.81C294.92 251.06 291 280.92 291 280.92C291 280.92 291.54 290.2 291.26 298.08Z" fill="#C86FC9"/>
<g opacity="0.3">
<path opacity="0.3" d="M293.39 262.25C294.018 258.925 294.853 255.641 295.89 252.42C299.79 240.71 308.58 231.92 316.89 223.14C322.3 217.41 324.59 213.36 325.54 211.22L319.7 207.49L308.7 203.83L305.88 207.49C305.88 207.49 297.16 228.59 296.03 239.84C295.53 245 294.43 254 293.39 262.25Z" fill="black"/>
<path opacity="0.3" d="M322.77 275.29C326.28 276.981 329.627 278.989 332.77 281.29C332.31 280.09 331.741 278.935 331.07 277.84L322.77 258.84C322.77 258.84 310.08 279.84 308.62 291.54C307.41 301.18 311.16 341.23 312.53 355.1H332L322.77 275.29Z" fill="black"/>
<path opacity="0.3" d="M352.6 293.3C362.16 293.58 363.85 287.11 364.13 283.45C364.41 279.79 361.04 269.1 357.94 262.35C354.84 255.6 348.94 234.5 348.94 229.99C348.94 225.48 346.18 222.94 344.49 222.66C342.035 221.497 339.665 220.161 337.4 218.66C341.3 222.93 345.18 228.52 345.18 233.88C345.18 244.61 355.92 280.73 355.92 280.73C353.93 284.718 352.346 288.896 351.19 293.2C351.65 293.24 352.11 293.28 352.6 293.3Z" fill="black"/>
</g>
<path d="M291.26 298.08C291 304.77 291 343.49 291 355H332L322.81 275.26C326.569 277.076 330.148 279.242 333.5 281.73C340.26 286.52 343.07 292.99 352.64 293.27C362.21 293.55 363.89 287.08 364.17 283.42C364.45 279.76 361.08 269.07 357.98 262.32C354.88 255.57 348.98 234.47 348.98 229.96C348.98 225.45 346.22 222.91 344.53 222.63C342.84 222.35 319.72 207.46 319.72 207.46L308.72 203.8L305.9 207.46C305.9 207.46 297.18 228.56 296.05 239.81C294.92 251.06 291 280.92 291 280.92C291 280.92 291.54 290.2 291.26 298.08Z" stroke="#263238" stroke-linecap="round" stroke-linejoin="round"/>
<path d="M324.74 260.94C324.74 260.94 326.99 245.75 332.06 236.47" stroke="#263238" stroke-linecap="round" stroke-linejoin="round"/>
<path d="M205.83 284.7C208.08 281.61 230.21 240.4 230.21 240.4L229.11 355H267.48L264.25 283.14V238.72C264.25 222.96 265.1 197.64 265.1 197.64C265.1 197.64 261.44 196.23 258.63 197.92C258.63 197.92 228.24 205.8 224.3 206.92C220.36 208.04 216.7 209.74 216.42 211.43C216.14 213.12 187.87 260.72 184.49 266.35C181.11 271.98 178 277.6 178.58 281C179.16 284.4 188.95 291.19 194.58 290.91C196.814 290.842 198.999 290.243 200.955 289.163C202.911 288.084 204.582 286.554 205.83 284.7V284.7Z" fill="#C86FC9"/>
<path opacity="0.3" d="M264.25 238.72C264.25 235.84 264.25 232.64 264.33 229.33C262.898 230.432 261.539 231.624 260.26 232.9C258.11 235.04 239.77 247.12 230.08 253.44L229.61 303.38L264.25 257.18V238.72Z" fill="black"/>
<path d="M205.83 284.7C208.08 281.61 230.21 240.4 230.21 240.4L229.11 355H267.48L264.25 283.14V238.72C264.25 222.96 265.1 197.64 265.1 197.64C265.1 197.64 261.44 196.23 258.63 197.92C258.63 197.92 228.24 205.8 224.3 206.92C220.36 208.04 216.7 209.74 216.42 211.43C216.14 213.12 187.87 260.72 184.49 266.35C181.11 271.98 178 277.6 178.58 281C179.16 284.4 188.95 291.19 194.58 290.91C196.814 290.842 198.999 290.243 200.955 289.163C202.911 288.084 204.582 286.554 205.83 284.7V284.7Z" stroke="#263238" stroke-linecap="round" stroke-linejoin="round"/>
<path d="M299.7 201C299.7 201 300.83 212.53 296.61 230.54C292.39 248.55 291.26 257.27 290.7 264.3C290.14 271.33 291.26 285.4 291.26 285.4C291.26 285.4 296.04 244.6 298.26 238.4C300.48 232.2 301.63 226.86 309.79 221.51C317.95 216.16 323.01 209.7 323.3 208.57C323.59 207.44 322.73 202.66 319.92 199.85C317.11 197.04 312.04 197.85 310.07 196.19C308.1 194.53 305.01 189.72 303.32 189.72C301.63 189.72 299.66 193.66 299.66 193.66L299.7 201Z" fill="white"/>
<path opacity="0.3" d="M303.36 189.76C301.67 189.76 299.7 193.7 299.7 193.7V201C299.7 201 300.83 212.53 296.61 230.54C296.61 230.65 296.56 230.75 296.53 230.86C297.942 227.869 299.517 224.958 301.25 222.14C305.65 215.31 309.55 214.33 311.5 206.04C312.129 202.92 311.911 199.688 310.87 196.68C310.596 196.559 310.34 196.401 310.11 196.21C308.14 194.54 305.05 189.76 303.36 189.76Z" fill="black"/>
<path d="M299.7 201C299.7 201 300.83 212.53 296.61 230.54C292.39 248.55 291.26 257.27 290.7 264.3C290.14 271.33 291.26 285.4 291.26 285.4C291.26 285.4 296.04 244.6 298.26 238.4C300.48 232.2 301.63 226.86 309.79 221.51C317.95 216.16 323.01 209.7 323.3 208.57C323.59 207.44 322.73 202.66 319.92 199.85C317.11 197.04 312.04 197.85 310.07 196.19C308.1 194.53 305.01 189.72 303.32 189.72C301.63 189.72 299.66 193.66 299.66 193.66L299.7 201Z" stroke="#263238" stroke-linecap="round" stroke-linejoin="round"/>
<path d="M267.35 191.73C267.35 191.73 260.03 194.54 259.19 195.39C258.35 196.24 248.78 196.51 247.93 200.73C247.08 204.95 243.71 205.52 245.93 210.3C248.15 215.08 257.47 227.46 259.72 229.71C261.97 231.96 258.03 248.56 257.72 257.57C257.41 266.58 264.19 285.7 264.19 285.7L268.13 203.55L267.35 191.73Z" fill="white"/>
<path opacity="0.3" d="M266.73 234V226.38L260.39 232.76C260.49 238.49 257.96 250.45 257.73 257.61C257.722 259.913 257.94 262.21 258.38 264.47L265.7 254.6L266.73 234Z" fill="black"/>
<path d="M267.35 191.73C267.35 191.73 260.03 194.54 259.19 195.39C258.35 196.24 248.78 196.51 247.93 200.73C247.08 204.95 243.71 205.52 245.93 210.3C248.15 215.08 257.47 227.46 259.72 229.71C261.97 231.96 258.03 248.56 257.72 257.57C257.41 266.58 264.19 285.7 264.19 285.7L268.13 203.55L267.35 191.73Z" stroke="#263238" stroke-linecap="round" stroke-linejoin="round"/>
<path d="M265.38 183.29C265.38 183.29 267.91 202.14 267.91 205.8C267.91 209.46 279.16 227.18 281.7 228.31C284.24 229.44 293.79 217.9 296.61 213.4C298.449 210.484 299.69 207.23 300.26 203.83C300.83 201.58 301.11 185.83 301.11 185.83C295.635 188.314 289.681 189.563 283.67 189.49C277.087 189.317 270.711 187.156 265.38 183.29V183.29Z" fill="white" stroke="#263238" stroke-linecap="round" stroke-linejoin="round"/>
<path d="M259.47 161.06L256.09 160.78C256.09 160.78 254.41 164.16 256.37 169.5C257.508 172.658 259.567 175.403 262.28 177.38C262.28 177.38 264.28 186.1 267.07 188.92C269.86 191.74 276.35 200.45 279.45 201.02C282.55 201.59 289.29 202.42 293.51 201.02C297.73 199.62 302.23 190.61 304.51 186.67C306.79 182.73 306.76 175.41 306.76 175.41C306.76 175.41 311.54 172.04 313.23 167.54C314.92 163.04 314.63 159.38 313.51 157.97C312.39 156.56 309.01 157.69 309.01 157.69C309.01 157.69 309.01 151.5 308.73 145.59C308.45 139.68 302.82 136.87 290.73 138.84C278.64 140.81 264.82 147 262 151.5C260.288 154.391 259.412 157.701 259.47 161.06Z" fill="white"/>
<path opacity="0.3" d="M313.49 158C312.36 156.59 308.99 157.72 308.99 157.72C308.99 157.72 308.99 151.53 308.71 145.62C308.695 144.353 308.32 143.117 307.63 142.055C306.939 140.993 305.962 140.148 304.81 139.62L301.74 143.14C301.74 143.14 302.74 166.56 299.3 180.23C296.66 190.79 291.98 198.12 287.07 201.82C289.243 201.911 291.417 201.654 293.51 201.06C297.73 199.65 302.23 190.65 304.51 186.71C306.79 182.77 306.76 175.45 306.76 175.45C306.76 175.45 311.54 172.08 313.23 167.58C314.92 163.08 314.61 159.38 313.49 158Z" fill="black"/>
<path d="M259.47 161.06L256.09 160.78C256.09 160.78 254.41 164.16 256.37 169.5C257.508 172.658 259.567 175.403 262.28 177.38C262.28 177.38 264.28 186.1 267.07 188.92C269.86 191.74 276.35 200.45 279.45 201.02C282.55 201.59 289.29 202.42 293.51 201.02C297.73 199.62 302.23 190.61 304.51 186.67C306.79 182.73 306.76 175.41 306.76 175.41C306.76 175.41 311.54 172.04 313.23 167.54C314.92 163.04 314.63 159.38 313.51 157.97C312.39 156.56 309.01 157.69 309.01 157.69C309.01 157.69 309.01 151.5 308.73 145.59C308.45 139.68 302.82 136.87 290.73 138.84C278.64 140.81 264.82 147 262 151.5C260.288 154.391 259.412 157.701 259.47 161.06Z" stroke="#263238" stroke-linecap="round" stroke-linejoin="round"/>
<path d="M281.13 178.51C282.5 179.67 284.153 180.446 285.92 180.76C288.45 181 291 178 291 178" stroke="#263238" stroke-linecap="round" stroke-linejoin="round"/>
<path d="M278 185C280.562 186.059 283.328 186.531 286.096 186.384C288.864 186.237 291.565 185.474 294 184.15" stroke="#263238" stroke-linecap="round" stroke-linejoin="round"/>
<path d="M276.35 168.24C276.35 169.56 275.72 170.63 274.94 170.63C274.16 170.63 273.54 169.56 273.54 168.24C273.54 166.92 274.17 165.85 274.94 165.85C275.71 165.85 276.35 166.92 276.35 168.24Z" fill="#263238"/>
<path d="M296.33 168.24C296.33 169.56 295.7 170.63 294.92 170.63C294.14 170.63 293.51 169.56 293.51 168.24C293.51 166.92 294.14 165.85 294.92 165.85C295.7 165.85 296.33 166.92 296.33 168.24Z" fill="#263238"/>
<path d="M291 161.35C293.03 159.441 295.575 158.168 298.32 157.69C302.54 157.13 302.82 158.53 302.82 158.53" stroke="#263238" stroke-width="2" stroke-linecap="round" stroke-linejoin="round"/>
<path d="M279.45 161.35C279.45 161.35 272.97 156.84 268.19 160.22" stroke="#263238" stroke-width="2" stroke-linecap="round" stroke-linejoin="round"/>
<path d="M264.82 162.47H282.55V169.74C282.55 170.424 282.278 171.081 281.794 171.565C281.311 172.048 280.654 172.32 279.97 172.32H267.39C266.706 172.32 266.05 172.048 265.566 171.565C265.082 171.081 264.81 170.424 264.81 169.74V162.47H264.82Z" stroke="#263238" stroke-linecap="round" stroke-linejoin="round"/>
<path d="M288.45 162.47H306.17V169.74C306.17 170.424 305.898 171.081 305.414 171.565C304.931 172.048 304.274 172.32 303.59 172.32H291C290.316 172.32 289.66 172.048 289.176 171.565C288.692 171.081 288.42 170.424 288.42 169.74V162.47H288.45Z" stroke="#263238" stroke-linecap="round" stroke-linejoin="round"/>
<path d="M272.69 166.69C272.69 166.69 274.38 165.28 276.91 166.97" stroke="#263238" stroke-linecap="round" stroke-linejoin="round"/>
<path d="M293.09 166.69C293.09 166.69 294.78 165.28 297.31 166.97" stroke="#263238" stroke-linecap="round" stroke-linejoin="round"/>
<path d="M282.54 162.47H288.45" stroke="#263238" stroke-linecap="round" stroke-linejoin="round"/>
<path d="M264.82 162.47H260.64" stroke="#263238" stroke-linecap="round" stroke-linejoin="round"/>
<path d="M306.17 162.47H308.71" stroke="#263238" stroke-linecap="round" stroke-linejoin="round"/>
<path d="M258.34 160.5C258.34 160.5 262 171.19 262.85 171.19C263.7 171.19 262.56 159.09 262.56 159.09C262.56 159.09 280.56 151.22 287.89 149.81C295.22 148.4 298.3 146.15 298.3 146.15L286.2 153.75C286.2 153.75 292.95 154.87 297.45 152.62C300.226 151.213 302.785 149.415 305.05 147.28C305.05 147.28 305.89 168.94 307.3 168.66C308.71 168.38 308.71 163.32 308.71 162.19C308.71 161.06 308.42 156.84 312.08 150.09C315.74 143.34 316.58 138.84 314.61 132.37C312.64 125.9 305.61 119.99 303.61 119.99H300.23C300.23 119.99 298.55 115.49 289.54 116.05C280.53 116.61 261.13 120.83 256.34 128.71C251.55 136.59 251 140 251.31 142.78C251.62 145.56 258.34 160.5 258.34 160.5Z" fill="#263238" stroke="#263238" stroke-linecap="round" stroke-linejoin="round"/>
<path d="M257.73 153.65C257.73 153.65 258.64 156.08 274.43 146.65C290.22 137.22 305.7 133.65 306 141.19" stroke="white" stroke-linecap="round" stroke-linejoin="round"/>
<path d="M305.09 135.13C305.09 135.13 305.09 123.9 296.59 123.6C288.09 123.3 279.89 127.85 269.27 135.13C258.65 142.41 256.52 144.85 253.78 142.42" stroke="white" stroke-linecap="round" stroke-linejoin="round"/>
<path d="M307.52 142.42C307.52 142.42 312.73 141.12 310.86 149.42" stroke="white" stroke-linecap="round" stroke-linejoin="round"/>
<path d="M304.79 129.06C304.79 129.06 308.43 123.9 312.68 134.22" stroke="white" stroke-linecap="round" stroke-linejoin="round"/>
<path d="M220.08 231.4L227.4 219.58C227.4 219.58 229.93 202.99 231.05 201.58C232.17 200.17 249.05 194.58 250.75 193.98C252.45 193.38 257.75 185.82 259.19 185.82C260.63 185.82 262.85 187.51 263.41 190.04C263.97 192.57 268.19 197.36 268.19 199.61C268.19 201.86 267.63 202.42 266.19 201.86C264.318 200.877 262.831 199.292 261.97 197.36C261.41 195.67 259.16 195.36 259.16 195.36L253.53 200.14C254.113 202.365 254.584 204.618 254.94 206.89C254.94 208.02 257.19 207.74 258.6 205.77C260.01 203.8 265.6 202.96 266.47 203.24C267.34 203.52 268.47 204.92 265.07 207.18C261.67 209.44 257.19 212.52 254.94 217.3C252.69 222.08 251.56 225.46 247.34 226.59C244.942 227.242 242.499 227.714 240.03 228L229.62 239L220.08 231.4Z" fill="white" stroke="#263238" stroke-linecap="round" stroke-linejoin="round"/>
<path d="M233 205.24L238.63 210.86C238.63 210.86 236.38 217.05 236.38 219.86C236.38 222.67 238.91 221.86 240.04 219.86C241.17 217.86 243.13 213.1 242.85 210.29C242.52 208.222 241.844 206.224 240.85 204.38" stroke="#263238" stroke-linecap="round" stroke-linejoin="round"/>
<path d="M242.87 213.68C242.87 213.68 241.74 220.99 243.43 220.99C245.12 220.99 245.68 219.87 247.09 216.77C248.5 213.67 249.09 208.05 249.09 206.64C249.09 205.23 245.4 201 245.4 201" stroke="#263238" stroke-linecap="round" stroke-linejoin="round"/>
<path d="M251.31 197.08C251.31 197.08 255.81 205.52 256.09 207.77C256.37 210.02 251.59 217.62 250.75 218.18C249.91 218.74 248.5 219.3 248.5 217.33V213.68" stroke="#263238" stroke-linecap="round" stroke-linejoin="round"/>
<path d="M218.11 227.74L233.87 239.28C233.87 239.28 210.61 288.36 207.24 293.14C203.87 297.92 196.55 299.05 189.24 298.49C181.93 297.93 174.93 286.04 176.34 281.82C177.75 277.6 218.11 227.74 218.11 227.74Z" fill="#C86FC9" stroke="#263238" stroke-linecap="round" stroke-linejoin="round"/>
<path d="M292.34 193.14H271.62C270.195 193.14 269.04 194.295 269.04 195.72V237.26C269.04 238.685 270.195 239.84 271.62 239.84H292.34C293.765 239.84 294.92 238.685 294.92 237.26V195.72C294.92 194.295 293.765 193.14 292.34 193.14Z" fill="#263238" stroke="#263238" stroke-linecap="round" stroke-linejoin="round"/>
<path d="M274.94 197.08H271.85V201.86H274.94V197.08Z" fill="white"/>
<path d="M316.3 253.63C316.3 253.63 307.86 244.06 305.3 240.12C302.74 236.18 300.23 224.12 298.83 221.55C297.43 218.98 285.89 212.83 282.83 211.99C279.77 211.15 269.33 212.27 267.92 212.83C266.51 213.39 265.11 213.96 266.51 215.36C267.199 216.092 267.952 216.761 268.76 217.36C268.76 217.36 265.39 217.93 266.23 220.18C266.483 220.834 266.902 221.411 267.446 221.855C267.989 222.298 268.638 222.593 269.33 222.71C269.33 222.71 265.67 224.71 266.79 226.37C267.91 228.03 277.49 229.74 277.49 229.74L281.14 232.56C281.14 232.56 269.33 232.28 267.64 232.56C265.95 232.84 265.39 234.81 267.08 235.09C268.77 235.37 280.58 235.93 280.58 235.93C280.58 235.93 288.18 245.22 289.86 246.93C291.54 248.64 295.77 249.18 295.77 249.18L309.56 265.18L316.3 253.63Z" fill="white" stroke="#263238" stroke-linecap="round" stroke-linejoin="round"/>
<path d="M269.32 222.68C269.32 222.68 278.23 223.59 280.23 223.99C282.23 224.39 287.23 227.99 287.23 227.99" stroke="#263238" stroke-linecap="round" stroke-linejoin="round"/>
<path d="M268.75 217.33C268.75 217.33 279.63 216.79 282.63 217.79C285.321 218.853 287.926 220.123 290.42 221.59" stroke="#263238" stroke-linecap="round" stroke-linejoin="round"/>
<path d="M312.93 243.78L301.93 263.78C301.93 263.78 341.32 294.44 346.67 296.98C352.02 299.52 357.92 296.41 362.14 292.76C366.36 289.11 365.8 280.38 364.39 277C362.98 273.62 356.51 267.43 348.64 263.5C340.77 259.57 312.93 243.78 312.93 243.78Z" fill="#C86FC9" stroke="#263238" stroke-linecap="round" stroke-linejoin="round"/>
<path d="M380.69 355.03H9.71997" stroke="#263238" stroke-linecap="round" stroke-linejoin="round"/>
<rect x="99" y="56" width="67" height="11" fill="white"/>
<rect x="89" y="93" width="67" height="15" fill="white"/>
<rect x="90" y="123" width="67" height="15" fill="white"/>
<rect x="91" y="153" width="87" height="15" fill="white"/>
<rect x="90" y="187" width="94" height="15" fill="white"/>
</svg>
