<?xml version="1.0" encoding="UTF-8"?>
<svg xmlns="http://www.w3.org/2000/svg" xmlns:xlink="http://www.w3.org/1999/xlink" width="1125pt" height="1124.99995pt" viewBox="0 0 1125 1124.99995" version="1.2">
<defs>
<clipPath id="clip1">
  <path d="M 422 338.464844 L 442 338.464844 L 442 1067.855469 L 422 1067.855469 Z M 422 338.464844 "/>
</clipPath>
<clipPath id="clip2">
  <path d="M 281 338.464844 L 299.953125 338.464844 L 299.953125 1067.855469 L 281 1067.855469 Z M 281 338.464844 "/>
</clipPath>
<clipPath id="clip3">
  <path d="M 848 713 L 1124.570312 713 L 1124.570312 827 L 848 827 Z M 848 713 "/>
</clipPath>
<clipPath id="clip4">
  <path d="M 809 56.953125 L 996 56.953125 L 996 107 L 809 107 Z M 809 56.953125 "/>
</clipPath>
</defs>
<g id="surface1">
<path style=" stroke:none;fill-rule:nonzero;fill:rgb(93.728638%,23.919678%,35.688782%);fill-opacity:1;" d="M 429.613281 526.921875 L 293.113281 526.921875 L 293.113281 510.707031 L 429.613281 510.707031 L 429.613281 526.921875 "/>
<path style=" stroke:none;fill-rule:nonzero;fill:rgb(93.728638%,23.919678%,35.688782%);fill-opacity:1;" d="M 429.613281 454.339844 L 293.113281 454.339844 L 293.113281 438.125 L 429.613281 438.125 L 429.613281 454.339844 "/>
<path style=" stroke:none;fill-rule:nonzero;fill:rgb(93.728638%,23.919678%,35.688782%);fill-opacity:1;" d="M 429.613281 381.769531 L 293.113281 381.769531 L 293.113281 365.554688 L 429.613281 365.554688 L 429.613281 381.769531 "/>
<path style=" stroke:none;fill-rule:nonzero;fill:rgb(93.728638%,23.919678%,35.688782%);fill-opacity:1;" d="M 429.613281 599.492188 L 293.113281 599.492188 L 293.113281 583.289062 L 429.613281 583.289062 L 429.613281 599.492188 "/>
<path style=" stroke:none;fill-rule:nonzero;fill:rgb(93.728638%,23.919678%,35.688782%);fill-opacity:1;" d="M 429.613281 672.0625 L 293.113281 672.0625 L 293.113281 655.859375 L 429.613281 655.859375 L 429.613281 672.0625 "/>
<path style=" stroke:none;fill-rule:nonzero;fill:rgb(93.728638%,23.919678%,35.688782%);fill-opacity:1;" d="M 429.613281 744.644531 L 293.113281 744.644531 L 293.113281 728.429688 L 429.613281 728.429688 L 429.613281 744.644531 "/>
<path style=" stroke:none;fill-rule:nonzero;fill:rgb(93.728638%,23.919678%,35.688782%);fill-opacity:1;" d="M 429.613281 817.214844 L 293.113281 817.214844 L 293.113281 801 L 429.613281 801 L 429.613281 817.214844 "/>
<path style=" stroke:none;fill-rule:nonzero;fill:rgb(93.728638%,23.919678%,35.688782%);fill-opacity:1;" d="M 429.613281 889.789062 L 293.113281 889.789062 L 293.113281 873.582031 L 429.613281 873.582031 L 429.613281 889.789062 "/>
<path style=" stroke:none;fill-rule:nonzero;fill:rgb(93.728638%,23.919678%,35.688782%);fill-opacity:1;" d="M 429.613281 962.367188 L 293.113281 962.367188 L 293.113281 946.152344 L 429.613281 946.152344 L 429.613281 962.367188 "/>
<path style=" stroke:none;fill-rule:nonzero;fill:rgb(93.728638%,23.919678%,35.688782%);fill-opacity:1;" d="M 429.613281 1034.941406 L 293.113281 1034.941406 L 293.113281 1018.734375 L 429.613281 1018.734375 L 429.613281 1034.941406 "/>
<g clip-path="url(#clip1)" clip-rule="nonzero">
<path style=" stroke:none;fill-rule:nonzero;fill:rgb(93.728638%,23.919678%,35.688782%);fill-opacity:1;" d="M 422.402344 338.621094 L 422.402344 1067.855469 L 441.121094 1067.855469 L 441.121094 338.621094 L 422.402344 338.621094 "/>
</g>
<g clip-path="url(#clip2)" clip-rule="nonzero">
<path style=" stroke:none;fill-rule:nonzero;fill:rgb(93.728638%,23.919678%,35.688782%);fill-opacity:1;" d="M 281.074219 338.621094 L 281.074219 1067.855469 L 299.789062 1067.855469 L 299.789062 338.621094 L 281.074219 338.621094 "/>
</g>
<path style=" stroke:none;fill-rule:nonzero;fill:rgb(79.60968%,79.998779%,92.158508%);fill-opacity:1;" d="M 361.589844 639.105469 L 362.820312 765.523438 L 381.773438 765.523438 C 381.515625 765.019531 381.472656 764.75 381.472656 764.75 L 395.0625 640.507812 C 395.0625 640.507812 400.117188 545.945312 400.128906 514.8125 C 400.136719 481.070312 396.742188 452.949219 396.742188 452.949219 L 336.621094 452.949219 L 358.351562 532.535156 L 361.589844 639.105469 "/>
<path style=" stroke:none;fill-rule:nonzero;fill:rgb(79.60968%,79.998779%,92.158508%);fill-opacity:1;" d="M 336.035156 785.03125 L 354.699219 785.03125 L 355.90625 639.105469 L 359.136719 532.535156 L 380.875 452.949219 L 322.207031 452.886719 C 322.207031 452.886719 317.359375 481.070312 317.371094 514.8125 C 317.390625 545.945312 322.445312 640.507812 322.445312 640.507812 L 336.035156 785.03125 "/>
<path style=" stroke:none;fill-rule:nonzero;fill:rgb(42.749023%,78.039551%,94.509888%);fill-opacity:1;" d="M 400.683594 452.824219 C 400.683594 452.824219 389.355469 388.527344 397.167969 346.808594 C 399.148438 336.296875 389.191406 312.261719 389.191406 312.261719 L 370.640625 306.238281 L 349.230469 306.238281 L 333.144531 311.746094 C 333.144531 311.746094 320.917969 337.144531 323.332031 348.222656 C 332.195312 388.929688 318.546875 452.886719 318.546875 452.886719 L 400.683594 452.824219 "/>
<path style=" stroke:none;fill-rule:nonzero;fill:rgb(84.709167%,85.099792%,94.119263%);fill-opacity:1;" d="M 370.640625 306.238281 L 349.230469 306.238281 L 349.230469 285.429688 L 370.640625 285.429688 L 370.640625 306.238281 "/>
<path style=" stroke:none;fill-rule:nonzero;fill:rgb(84.709167%,85.099792%,94.119263%);fill-opacity:1;" d="M 341.480469 233.265625 C 334.570312 243.136719 331.691406 256.164062 331.691406 256.164062 L 332.847656 275.464844 C 335.621094 285.429688 356.289062 297.945312 360.753906 297.945312 C 364.582031 297.945312 386.953125 282.296875 388.023438 275.34375 L 389.128906 256.703125 C 389.128906 256.703125 390.191406 243.3125 383.535156 233.265625 L 341.480469 233.265625 "/>
<path style=" stroke:none;fill-rule:nonzero;fill:rgb(79.60968%,79.998779%,92.158508%);fill-opacity:1;" d="M 293.175781 496.304688 C 293.597656 493.601562 296.011719 488.289062 296.953125 488.238281 L 297.507812 481.789062 L 309.898438 482.875 L 309.292969 489.269531 C 309.960938 489.476562 311.324219 495.253906 312.222656 497.203125 C 313.480469 499.976562 315.152344 507.207031 315.152344 507.207031 C 315.441406 508.242188 315.015625 509.363281 314.171875 509.59375 L 313.757812 509.707031 C 312.769531 509.964844 312.085938 509.167969 311.726562 508.023438 C 311.4375 507.117188 310.5 504.414062 310.5 504.414062 L 309.621094 503.464844 L 308.652344 518.328125 C 308.558594 519.414062 307.652344 521.25 305.886719 520.042969 C 304.492188 519.082031 305.433594 506.640625 305.320312 505.773438 L 304.804688 505.226562 L 303.316406 519.640625 C 303.203125 520.867188 302.933594 521.828125 301.851562 521.722656 L 301.210938 521.660156 C 300.140625 521.566406 299.851562 520.515625 299.964844 519.277344 L 300.902344 504.785156 L 300.542969 504.433594 C 300.191406 505.144531 299.65625 519.269531 297.035156 518.636719 C 295.980469 518.390625 295.507812 517.691406 295.609375 516.597656 L 297.066406 502.640625 L 296.578125 502.433594 C 296.230469 502.90625 295.527344 514.894531 292.78125 514.472656 C 291.863281 514.316406 291.566406 513.542969 291.75 511.777344 C 291.96875 509.386719 292.636719 502.351562 292.679688 502.238281 C 292.679688 502.238281 292.894531 498.089844 293.175781 496.304688 "/>
<path style=" stroke:none;fill-rule:nonzero;fill:rgb(42.749023%,78.039551%,94.509888%);fill-opacity:1;" d="M 315.273438 323.382812 C 313.75 327.015625 307.125 361.511719 299.355469 398.554688 L 294.421875 486.722656 L 311.449219 488.21875 L 317.070312 408.519531 L 326.976562 361.160156 C 340.460938 338.414062 333.144531 311.746094 333.144531 311.746094 C 333.144531 311.746094 316.339844 320.855469 315.273438 323.382812 "/>
<path style=" stroke:none;fill-rule:nonzero;fill:rgb(79.60968%,79.998779%,92.158508%);fill-opacity:1;" d="M 429.234375 494.964844 C 428.757812 492.273438 426.242188 487.011719 425.300781 486.96875 L 424.621094 480.53125 L 412.261719 481.851562 L 412.984375 488.238281 C 412.324219 488.464844 411.054688 494.261719 410.207031 496.234375 C 408.992188 499.027344 407.472656 506.289062 407.472656 506.289062 C 407.207031 507.332031 407.660156 508.4375 408.503906 508.664062 L 408.917969 508.765625 C 409.910156 509.003906 410.589844 508.1875 410.917969 507.042969 C 411.1875 506.125 412.066406 503.414062 412.066406 503.414062 L 412.921875 502.441406 L 414.179688 517.289062 C 414.3125 518.359375 415.242188 520.1875 416.996094 518.9375 C 418.367188 517.957031 417.171875 505.539062 417.273438 504.660156 L 417.78125 504.113281 L 419.546875 518.496094 C 419.691406 519.722656 419.96875 520.671875 421.050781 520.546875 L 421.703125 520.476562 C 422.765625 520.351562 423.03125 519.300781 422.898438 518.070312 L 421.671875 503.589844 L 422.03125 503.226562 C 422.394531 503.929688 423.207031 518.050781 425.808594 517.371094 C 426.859375 517.101562 427.324219 516.398438 427.199219 515.308594 L 425.46875 501.371094 L 425.941406 501.164062 C 426.3125 501.628906 427.230469 513.605469 429.976562 513.121094 C 430.894531 512.945312 431.171875 512.171875 430.96875 510.394531 C 430.6875 508.023438 429.882812 501 429.851562 500.886719 C 429.851562 500.886719 429.542969 496.75 429.234375 494.964844 "/>
<path style=" stroke:none;fill-rule:nonzero;fill:rgb(42.749023%,78.039551%,94.509888%);fill-opacity:1;" d="M 403.78125 322.496094 C 405.367188 326.105469 412.671875 360.457031 421.164062 397.355469 L 427.800781 485.410156 L 410.804688 487.226562 L 403.644531 407.652344 L 392.8125 360.5 C 378.894531 338.011719 388.871094 312.160156 388.871094 312.160156 C 388.871094 312.160156 402.675781 320 403.78125 322.496094 "/>
<path style=" stroke:none;fill-rule:nonzero;fill:rgb(10.5896%,11.759949%,25.099182%);fill-opacity:1;" d="M 321.023438 621.25 L 396.332031 621.457031 C 396.332031 621.457031 404.625 561.066406 407.433594 511.582031 C 409.351562 477.882812 400.683594 452.949219 400.683594 452.949219 L 318.546875 453 C 318.546875 453 308.804688 482.542969 310.066406 510.519531 C 311.808594 549.605469 321.023438 621.25 321.023438 621.25 "/>
<path style=" stroke:none;fill-rule:nonzero;fill:rgb(10.5896%,11.759949%,25.099182%);fill-opacity:1;" d="M 393.8125 258.238281 L 393.773438 258.207031 C 393.257812 232.554688 375.230469 225.589844 359.621094 225.589844 C 337.292969 225.589844 329.195312 248.304688 329.628906 259.847656 C 329.628906 259.847656 325.6875 305.339844 341.699219 313.789062 C 341.699219 313.789062 396.105469 320.527344 398.363281 310.332031 C 398.363281 310.332031 393.804688 271.597656 393.8125 258.238281 "/>
<path style=" stroke:none;fill-rule:nonzero;fill:rgb(10.5896%,11.759949%,25.099182%);fill-opacity:1;" d="M 381.636719 764.800781 C 381.636719 764.800781 383.226562 769.074219 394.132812 775.335938 C 395.402344 776.066406 397.25 779.925781 392.472656 780.6875 L 362.964844 781.421875 L 362.964844 764.800781 L 381.636719 764.800781 "/>
<path style=" stroke:none;fill-rule:nonzero;fill:rgb(10.5896%,11.759949%,25.099182%);fill-opacity:1;" d="M 336.074219 785.03125 C 336.074219 785.03125 333.0625 790.023438 322.910156 795.644531 C 321.609375 796.367188 319.785156 800.238281 324.550781 801 L 354.617188 801 L 354.699219 785.03125 L 336.074219 785.03125 "/>
<path style=" stroke:none;fill-rule:nonzero;fill:rgb(84.709167%,85.099792%,94.119263%);fill-opacity:1;" d="M 312.882812 262.664062 C 311.820312 250.253906 302.449219 240.21875 290.359375 238.144531 C 286.53125 223.0625 272.871094 211.910156 256.597656 211.910156 C 247.675781 211.910156 239.535156 215.273438 233.363281 220.792969 C 232.464844 201.453125 216.503906 186.050781 196.933594 186.050781 C 190.175781 186.050781 183.839844 187.886719 178.421875 191.09375 C 169.519531 176.847656 153.703125 167.367188 135.667969 167.367188 C 118.746094 167.367188 103.773438 175.714844 94.644531 188.527344 C 90.546875 186.925781 86.089844 186.050781 81.4375 186.050781 C 64.339844 186.050781 50 197.808594 46.035156 213.675781 C 40.09375 209.207031 32.695312 206.558594 24.679688 206.558594 C 15.300781 206.558594 6.789062 210.199219 0.433594 216.128906 L 0.433594 262.664062 L 312.882812 262.664062 "/>
<g clip-path="url(#clip3)" clip-rule="nonzero">
<path style=" stroke:none;fill-rule:nonzero;fill:rgb(84.709167%,85.099792%,94.119263%);fill-opacity:1;" d="M 1125.632812 826.480469 L 1125.632812 738.105469 C 1122.578125 739.105469 1119.667969 740.40625 1116.953125 742.003906 C 1106.164062 724.726562 1086.980469 713.234375 1065.109375 713.234375 C 1044.578125 713.234375 1026.4375 723.363281 1015.355469 738.890625 C 1010.382812 736.960938 1004.988281 735.886719 999.332031 735.886719 C 978.605469 735.886719 961.210938 750.144531 956.414062 769.394531 C 949.199219 763.976562 940.234375 760.757812 930.515625 760.757812 C 908.289062 760.757812 889.996094 777.550781 887.605469 799.132812 C 885.644531 798.773438 883.632812 798.574219 881.578125 798.574219 C 865.070312 798.574219 851.421875 810.675781 848.933594 826.480469 L 1125.632812 826.480469 "/>
</g>
<path style=" stroke:none;fill-rule:nonzero;fill:rgb(84.709167%,85.099792%,94.119263%);fill-opacity:1;" d="M 227.371094 955.878906 C 225.882812 944.894531 217.390625 936.136719 206.539062 934.269531 C 202.96875 920.21875 190.234375 909.820312 175.070312 909.820312 C 166.753906 909.820312 159.167969 912.957031 153.421875 918.105469 C 152.585938 900.070312 137.710938 885.710938 119.46875 885.710938 C 113.164062 885.710938 107.273438 887.433594 102.214844 890.417969 C 93.921875 877.140625 79.175781 868.300781 62.371094 868.300781 C 46.59375 868.300781 32.644531 876.089844 24.132812 888.023438 C 20.316406 886.539062 16.167969 885.710938 11.824219 885.710938 C 8.121094 885.710938 4.558594 886.332031 1.226562 887.425781 L 1.226562 955.878906 L 227.371094 955.878906 "/>
<path style=" stroke:none;fill-rule:nonzero;fill:rgb(84.709167%,85.099792%,94.119263%);fill-opacity:1;" d="M 821.632812 249.191406 C 820.097656 240.960938 813.542969 234.503906 805.28125 233.078125 C 802.453125 221.949219 792.371094 213.714844 780.363281 213.714844 C 773.769531 213.714844 767.753906 216.191406 763.214844 220.277344 C 762.542969 206 750.761719 194.621094 736.316406 194.621094 C 731.324219 194.621094 726.660156 195.996094 722.65625 198.347656 C 716.082031 187.835938 704.414062 180.839844 691.09375 180.839844 C 678.601562 180.839844 667.558594 187 660.8125 196.457031 C 657.789062 195.273438 654.507812 194.621094 651.074219 194.621094 C 638.445312 194.621094 627.859375 203.296875 624.9375 215.015625 C 620.554688 211.726562 615.09375 209.765625 609.171875 209.765625 C 595.644531 209.765625 584.511719 219.988281 583.058594 233.121094 C 581.863281 232.902344 580.644531 232.78125 579.386719 232.78125 C 569.542969 232.78125 561.359375 239.855469 559.605469 249.191406 L 821.632812 249.191406 "/>
<g clip-path="url(#clip4)" clip-rule="nonzero">
<path style=" stroke:none;fill-rule:nonzero;fill:rgb(84.709167%,85.099792%,94.119263%);fill-opacity:1;" d="M 995.332031 106.0625 C 994.484375 99.925781 989.726562 95.035156 983.652344 93.980469 C 981.648438 86.101562 974.507812 80.261719 965.988281 80.261719 C 961.324219 80.261719 957.050781 82.027344 953.832031 84.914062 C 953.367188 74.796875 945.011719 66.726562 934.777344 66.726562 C 931.238281 66.726562 927.9375 67.699219 925.097656 69.367188 C 920.433594 61.921875 912.160156 56.960938 902.730469 56.960938 C 893.867188 56.960938 886.046875 61.332031 881.257812 68.027344 C 879.113281 67.191406 876.792969 66.726562 874.355469 66.726562 C 865.410156 66.726562 857.898438 72.886719 855.835938 81.179688 C 852.71875 78.847656 848.851562 77.457031 844.660156 77.457031 C 835.078125 77.457031 827.183594 84.707031 826.152344 94.011719 C 825.304688 93.859375 824.441406 93.777344 823.550781 93.777344 C 816.351562 93.777344 810.398438 99.128906 809.4375 106.0625 L 995.332031 106.0625 "/>
</g>
<path style=" stroke:none;fill-rule:nonzero;fill:rgb(84.709167%,85.099792%,94.119263%);fill-opacity:1;" d="M 526.867188 123.421875 C 526.023438 117.273438 521.265625 112.386719 515.179688 111.34375 C 513.1875 103.453125 506.039062 97.613281 497.527344 97.613281 C 492.851562 97.613281 488.589844 99.378906 485.371094 102.265625 C 484.898438 92.144531 476.550781 84.089844 466.304688 84.089844 C 462.777344 84.089844 459.464844 85.050781 456.625 86.730469 C 451.972656 79.273438 443.699219 74.308594 434.257812 74.308594 C 425.40625 74.308594 417.574219 78.683594 412.796875 85.378906 C 410.652344 84.542969 408.328125 84.089844 405.882812 84.089844 C 396.949219 84.089844 389.4375 90.238281 387.375 98.542969 C 384.257812 96.210938 380.390625 94.816406 376.199219 94.816406 C 366.605469 94.816406 358.722656 102.058594 357.691406 111.375 C 356.84375 111.210938 355.976562 111.128906 355.082031 111.128906 C 347.878906 111.128906 341.9375 116.480469 340.964844 123.421875 L 526.867188 123.421875 "/>
<path style=" stroke:none;fill-rule:nonzero;fill:rgb(93.728638%,23.919678%,35.688782%);fill-opacity:1;" d="M 891.824219 514.253906 C 891.824219 621.949219 804.515625 709.230469 696.820312 709.230469 C 589.117188 709.230469 501.808594 621.949219 501.808594 514.253906 C 501.808594 406.578125 589.117188 319.277344 696.820312 319.277344 C 804.515625 319.277344 891.824219 406.578125 891.824219 514.253906 "/>
<path style=" stroke:none;fill-rule:nonzero;fill:rgb(100%,100%,100%);fill-opacity:1;" d="M 861.171875 514.253906 C 861.171875 605.011719 787.585938 678.582031 696.820312 678.582031 C 606.058594 678.582031 532.460938 605.011719 532.460938 514.253906 C 532.460938 423.507812 606.058594 349.945312 696.820312 349.945312 C 787.585938 349.945312 861.171875 423.507812 861.171875 514.253906 "/>
<path style=" stroke:none;fill-rule:nonzero;fill:rgb(93.728638%,23.919678%,35.688782%);fill-opacity:1;" d="M 832.558594 514.253906 C 832.558594 589.21875 771.800781 649.976562 696.820312 649.976562 C 621.84375 649.976562 561.070312 589.21875 561.070312 514.253906 C 561.070312 439.3125 621.84375 378.542969 696.820312 378.542969 C 771.800781 378.542969 832.558594 439.3125 832.558594 514.253906 "/>
<path style=" stroke:none;fill-rule:nonzero;fill:rgb(100%,100%,100%);fill-opacity:1;" d="M 801.019531 514.253906 C 801.019531 571.804688 754.363281 618.453125 696.820312 618.453125 C 639.269531 618.453125 592.601562 571.804688 592.601562 514.253906 C 592.601562 456.722656 639.269531 410.066406 696.820312 410.066406 C 754.363281 410.066406 801.019531 456.722656 801.019531 514.253906 "/>
<path style=" stroke:none;fill-rule:nonzero;fill:rgb(93.728638%,23.919678%,35.688782%);fill-opacity:1;" d="M 773.441406 514.253906 C 773.441406 556.570312 739.125 590.859375 696.820312 590.859375 C 654.5 590.859375 620.203125 556.570312 620.203125 514.253906 C 620.203125 471.949219 654.5 437.660156 696.820312 437.660156 C 739.125 437.660156 773.441406 471.949219 773.441406 514.253906 "/>
<path style=" stroke:none;fill-rule:nonzero;fill:rgb(10.5896%,11.759949%,25.099182%);fill-opacity:1;" d="M 967.296875 319.957031 L 968.183594 354.433594 L 929.585938 377.179688 L 928.171875 343.015625 L 967.296875 319.957031 "/>
<path style=" stroke:none;fill-rule:nonzero;fill:rgb(10.5896%,11.759949%,25.099182%);fill-opacity:1;" d="M 1001.316406 377.644531 L 971.578125 360.179688 L 932.980469 382.9375 L 962.191406 400.699219 L 1001.316406 377.644531 "/>
<path style=" stroke:none;fill-rule:nonzero;fill:rgb(42.749023%,78.039551%,94.509888%);fill-opacity:1;" d="M 974.003906 361.601562 L 713.152344 515.328125 L 707.367188 505.515625 L 968.113281 351.863281 L 969.558594 357.816406 L 974.003906 361.601562 "/>
<path style=" stroke:none;fill-rule:nonzero;fill:rgb(10.5896%,11.759949%,25.099182%);fill-opacity:1;" d="M 708.355469 464.914062 L 749.109375 534.226562 L 663.816406 537.464844 Z M 708.355469 464.914062 "/>
<path style=" stroke:none;fill-rule:nonzero;fill:rgb(100%,100%,100%);fill-opacity:1;" d="M 648.875 297.820312 L 652.835938 297.820312 C 653.929688 297.820312 654.816406 296.933594 654.816406 295.839844 C 654.816406 294.746094 653.929688 293.859375 652.835938 293.859375 L 648.875 293.859375 C 647.78125 293.859375 646.894531 294.746094 646.894531 295.839844 C 646.894531 296.933594 647.78125 297.820312 648.875 297.820312 "/>
<path style=" stroke:none;fill-rule:nonzero;fill:rgb(100%,100%,100%);fill-opacity:1;" d="M 664.019531 297.820312 L 672.410156 297.820312 C 673.503906 297.820312 674.390625 296.933594 674.390625 295.839844 C 674.390625 294.746094 673.503906 293.859375 672.410156 293.859375 L 664.019531 293.859375 C 662.925781 293.859375 662.039062 294.746094 662.039062 295.839844 C 662.039062 296.933594 662.925781 297.820312 664.019531 297.820312 Z M 683.59375 297.820312 L 691.980469 297.820312 C 693.074219 297.820312 693.964844 296.933594 693.964844 295.839844 C 693.964844 294.746094 693.074219 293.859375 691.980469 293.859375 L 683.59375 293.859375 C 682.5 293.859375 681.613281 294.746094 681.613281 295.839844 C 681.613281 296.933594 682.5 297.820312 683.59375 297.820312 Z M 703.167969 297.820312 L 711.554688 297.820312 C 712.648438 297.820312 713.535156 296.933594 713.535156 295.839844 C 713.535156 294.746094 712.648438 293.859375 711.554688 293.859375 L 703.167969 293.859375 C 702.074219 293.859375 701.183594 294.746094 701.183594 295.839844 C 701.183594 296.933594 702.074219 297.820312 703.167969 297.820312 Z M 722.738281 297.820312 L 731.128906 297.820312 C 732.21875 297.820312 733.109375 296.933594 733.109375 295.839844 C 733.109375 294.746094 732.21875 293.859375 731.128906 293.859375 L 722.738281 293.859375 C 721.644531 293.859375 720.757812 294.746094 720.757812 295.839844 C 720.757812 296.933594 721.644531 297.820312 722.738281 297.820312 Z M 742.3125 297.820312 L 750.699219 297.820312 C 751.792969 297.820312 752.679688 296.933594 752.679688 295.839844 C 752.679688 294.746094 751.792969 293.859375 750.699219 293.859375 L 742.3125 293.859375 C 741.21875 293.859375 740.332031 294.746094 740.332031 295.839844 C 740.332031 296.933594 741.21875 297.820312 742.3125 297.820312 "/>
<path style=" stroke:none;fill-rule:nonzero;fill:rgb(100%,100%,100%);fill-opacity:1;" d="M 761.894531 297.820312 L 765.855469 297.820312 C 766.949219 297.820312 767.835938 296.933594 767.835938 295.839844 C 767.835938 294.746094 766.949219 293.859375 765.855469 293.859375 L 761.894531 293.859375 C 760.800781 293.859375 759.914062 294.746094 759.914062 295.839844 C 759.914062 296.933594 760.800781 297.820312 761.894531 297.820312 "/>
<path style=" stroke:none;fill-rule:nonzero;fill:rgb(100%,100%,100%);fill-opacity:1;" d="M 654.527344 965.898438 L 658.492188 965.898438 C 659.585938 965.898438 660.472656 965.007812 660.472656 963.917969 C 660.472656 962.824219 659.585938 961.933594 658.492188 961.933594 L 654.527344 961.933594 C 653.433594 961.933594 652.546875 962.824219 652.546875 963.917969 C 652.546875 965.007812 653.433594 965.898438 654.527344 965.898438 "/>
<path style=" stroke:none;fill-rule:nonzero;fill:rgb(100%,100%,100%);fill-opacity:1;" d="M 669.304688 965.898438 L 677.402344 965.898438 C 678.496094 965.898438 679.382812 965.007812 679.382812 963.917969 C 679.382812 962.824219 678.496094 961.933594 677.402344 961.933594 L 669.304688 961.933594 C 668.199219 961.933594 667.324219 962.824219 667.324219 963.917969 C 667.324219 965.007812 668.199219 965.898438 669.304688 965.898438 Z M 688.207031 965.898438 L 696.304688 965.898438 C 697.398438 965.898438 698.285156 965.007812 698.285156 963.917969 C 698.285156 962.824219 697.398438 961.933594 696.304688 961.933594 L 688.207031 961.933594 C 687.113281 961.933594 686.226562 962.824219 686.226562 963.917969 C 686.226562 965.007812 687.113281 965.898438 688.207031 965.898438 Z M 707.109375 965.898438 L 715.21875 965.898438 C 716.3125 965.898438 717.199219 965.007812 717.199219 963.917969 C 717.199219 962.824219 716.3125 961.933594 715.21875 961.933594 L 707.109375 961.933594 C 706.015625 961.933594 705.125 962.824219 705.125 963.917969 C 705.125 965.007812 706.015625 965.898438 707.109375 965.898438 Z M 726.019531 965.898438 L 734.117188 965.898438 C 735.210938 965.898438 736.101562 965.007812 736.101562 963.917969 C 736.101562 962.824219 735.210938 961.933594 734.117188 961.933594 L 726.019531 961.933594 C 724.914062 961.933594 724.039062 962.824219 724.039062 963.917969 C 724.039062 965.007812 724.914062 965.898438 726.019531 965.898438 Z M 744.921875 965.898438 L 753.019531 965.898438 C 754.113281 965.898438 755.003906 965.007812 755.003906 963.917969 C 755.003906 962.824219 754.113281 961.933594 753.019531 961.933594 L 744.921875 961.933594 C 743.828125 961.933594 742.941406 962.824219 742.941406 963.917969 C 742.941406 965.007812 743.828125 965.898438 744.921875 965.898438 Z M 763.824219 965.898438 L 771.933594 965.898438 C 773.027344 965.898438 773.914062 965.007812 773.914062 963.917969 C 773.914062 962.824219 773.027344 961.933594 771.933594 961.933594 L 763.824219 961.933594 C 762.730469 961.933594 761.84375 962.824219 761.84375 963.917969 C 761.84375 965.007812 762.730469 965.898438 763.824219 965.898438 Z M 782.734375 965.898438 L 790.835938 965.898438 C 791.929688 965.898438 792.816406 965.007812 792.816406 963.917969 C 792.816406 962.824219 791.929688 961.933594 790.835938 961.933594 L 782.734375 961.933594 C 781.632812 961.933594 780.753906 962.824219 780.753906 963.917969 C 780.753906 965.007812 781.632812 965.898438 782.734375 965.898438 Z M 801.636719 965.898438 L 809.738281 965.898438 C 810.832031 965.898438 811.71875 965.007812 811.71875 963.917969 C 811.71875 962.824219 810.832031 961.933594 809.738281 961.933594 L 801.636719 961.933594 C 800.542969 961.933594 799.65625 962.824219 799.65625 963.917969 C 799.65625 965.007812 800.542969 965.898438 801.636719 965.898438 Z M 820.539062 965.898438 L 828.648438 965.898438 C 829.742188 965.898438 830.628906 965.007812 830.628906 963.917969 C 830.628906 962.824219 829.742188 961.933594 828.648438 961.933594 L 820.539062 961.933594 C 819.445312 961.933594 818.558594 962.824219 818.558594 963.917969 C 818.558594 965.007812 819.445312 965.898438 820.539062 965.898438 Z M 839.453125 965.898438 L 847.550781 965.898438 C 848.644531 965.898438 849.53125 965.007812 849.53125 963.917969 C 849.53125 962.824219 848.644531 961.933594 847.550781 961.933594 L 839.453125 961.933594 C 838.359375 961.933594 837.472656 962.824219 837.472656 963.917969 C 837.472656 965.007812 838.359375 965.898438 839.453125 965.898438 "/>
<path style=" stroke:none;fill-rule:nonzero;fill:rgb(100%,100%,100%);fill-opacity:1;" d="M 858.355469 965.898438 L 862.316406 965.898438 C 863.410156 965.898438 864.296875 965.007812 864.296875 963.917969 C 864.296875 962.824219 863.410156 961.933594 862.316406 961.933594 L 858.355469 961.933594 C 857.261719 961.933594 856.371094 962.824219 856.371094 963.917969 C 856.371094 965.007812 857.261719 965.898438 858.355469 965.898438 "/>
<path style=" stroke:none;fill-rule:nonzero;fill:rgb(100%,100%,100%);fill-opacity:1;" d="M 620.925781 112.46875 L 624.886719 112.46875 C 625.980469 112.46875 626.867188 111.582031 626.867188 110.488281 C 626.867188 109.394531 625.980469 108.507812 624.886719 108.507812 L 620.925781 108.507812 C 619.832031 108.507812 618.945312 109.394531 618.945312 110.488281 C 618.945312 111.582031 619.832031 112.46875 620.925781 112.46875 "/>
<path style=" stroke:none;fill-rule:nonzero;fill:rgb(100%,100%,100%);fill-opacity:1;" d="M 635.6875 112.46875 L 643.796875 112.46875 C 644.890625 112.46875 645.78125 111.582031 645.78125 110.488281 C 645.78125 109.394531 644.890625 108.507812 643.796875 108.507812 L 635.6875 108.507812 C 634.59375 108.507812 633.707031 109.394531 633.707031 110.488281 C 633.707031 111.582031 634.59375 112.46875 635.6875 112.46875 Z M 654.601562 112.46875 L 662.699219 112.46875 C 663.792969 112.46875 664.679688 111.582031 664.679688 110.488281 C 664.679688 109.394531 663.792969 108.507812 662.699219 108.507812 L 654.601562 108.507812 C 653.496094 108.507812 652.621094 109.394531 652.621094 110.488281 C 652.621094 111.582031 653.496094 112.46875 654.601562 112.46875 Z M 673.503906 112.46875 L 681.601562 112.46875 C 682.695312 112.46875 683.582031 111.582031 683.582031 110.488281 C 683.582031 109.394531 682.695312 108.507812 681.601562 108.507812 L 673.503906 108.507812 C 672.410156 108.507812 671.523438 109.394531 671.523438 110.488281 C 671.523438 111.582031 672.410156 112.46875 673.503906 112.46875 Z M 692.40625 112.46875 L 700.515625 112.46875 C 701.609375 112.46875 702.496094 111.582031 702.496094 110.488281 C 702.496094 109.394531 701.609375 108.507812 700.515625 108.507812 L 692.40625 108.507812 C 691.3125 108.507812 690.425781 109.394531 690.425781 110.488281 C 690.425781 111.582031 691.3125 112.46875 692.40625 112.46875 Z M 711.316406 112.46875 L 719.417969 112.46875 C 720.511719 112.46875 721.398438 111.582031 721.398438 110.488281 C 721.398438 109.394531 720.511719 108.507812 719.417969 108.507812 L 711.316406 108.507812 C 710.214844 108.507812 709.335938 109.394531 709.335938 110.488281 C 709.335938 111.582031 710.214844 112.46875 711.316406 112.46875 Z M 730.21875 112.46875 L 738.320312 112.46875 C 739.410156 112.46875 740.300781 111.582031 740.300781 110.488281 C 740.300781 109.394531 739.410156 108.507812 738.320312 108.507812 L 730.21875 108.507812 C 729.125 108.507812 728.238281 109.394531 728.238281 110.488281 C 728.238281 111.582031 729.125 112.46875 730.21875 112.46875 Z M 749.121094 112.46875 L 757.230469 112.46875 C 758.324219 112.46875 759.210938 111.582031 759.210938 110.488281 C 759.210938 109.394531 758.324219 108.507812 757.230469 108.507812 L 749.121094 108.507812 C 748.027344 108.507812 747.140625 109.394531 747.140625 110.488281 C 747.140625 111.582031 748.027344 112.46875 749.121094 112.46875 Z M 768.03125 112.46875 L 776.132812 112.46875 C 777.226562 112.46875 778.113281 111.582031 778.113281 110.488281 C 778.113281 109.394531 777.226562 108.507812 776.132812 108.507812 L 768.03125 108.507812 C 766.941406 108.507812 766.050781 109.394531 766.050781 110.488281 C 766.050781 111.582031 766.941406 112.46875 768.03125 112.46875 Z M 786.933594 112.46875 L 795.035156 112.46875 C 796.128906 112.46875 797.015625 111.582031 797.015625 110.488281 C 797.015625 109.394531 796.128906 108.507812 795.035156 108.507812 L 786.933594 108.507812 C 785.839844 108.507812 784.953125 109.394531 784.953125 110.488281 C 784.953125 111.582031 785.839844 112.46875 786.933594 112.46875 Z M 805.835938 112.46875 L 813.945312 112.46875 C 815.039062 112.46875 815.925781 111.582031 815.925781 110.488281 C 815.925781 109.394531 815.039062 108.507812 813.945312 108.507812 L 805.835938 108.507812 C 804.742188 108.507812 803.855469 109.394531 803.855469 110.488281 C 803.855469 111.582031 804.742188 112.46875 805.835938 112.46875 "/>
<path style=" stroke:none;fill-rule:nonzero;fill:rgb(100%,100%,100%);fill-opacity:1;" d="M 824.75 112.46875 L 828.710938 112.46875 C 829.804688 112.46875 830.691406 111.582031 830.691406 110.488281 C 830.691406 109.394531 829.804688 108.507812 828.710938 108.507812 L 824.75 108.507812 C 823.65625 108.507812 822.769531 109.394531 822.769531 110.488281 C 822.769531 111.582031 823.65625 112.46875 824.75 112.46875 "/>
<path style=" stroke:none;fill-rule:nonzero;fill:rgb(100%,100%,100%);fill-opacity:1;" d="M 663.847656 813.605469 L 667.808594 813.605469 C 668.902344 813.605469 669.789062 812.71875 669.789062 811.625 C 669.789062 810.53125 668.902344 809.644531 667.808594 809.644531 L 663.847656 809.644531 C 662.742188 809.644531 661.863281 810.53125 661.863281 811.625 C 661.863281 812.71875 662.742188 813.605469 663.847656 813.605469 "/>
<path style=" stroke:none;fill-rule:nonzero;fill:rgb(100%,100%,100%);fill-opacity:1;" d="M 677.710938 813.605469 L 685.152344 813.605469 C 686.246094 813.605469 687.132812 812.71875 687.132812 811.625 C 687.132812 810.53125 686.246094 809.644531 685.152344 809.644531 L 677.710938 809.644531 C 676.617188 809.644531 675.730469 810.53125 675.730469 811.625 C 675.730469 812.71875 676.617188 813.605469 677.710938 813.605469 Z M 695.066406 813.605469 L 702.507812 813.605469 C 703.597656 813.605469 704.488281 812.71875 704.488281 811.625 C 704.488281 810.53125 703.597656 809.644531 702.507812 809.644531 L 695.066406 809.644531 C 693.972656 809.644531 693.085938 810.53125 693.085938 811.625 C 693.085938 812.71875 693.972656 813.605469 695.066406 813.605469 Z M 712.421875 813.605469 L 719.859375 813.605469 C 720.953125 813.605469 721.839844 812.71875 721.839844 811.625 C 721.839844 810.53125 720.953125 809.644531 719.859375 809.644531 L 712.421875 809.644531 C 711.328125 809.644531 710.441406 810.53125 710.441406 811.625 C 710.441406 812.71875 711.328125 813.605469 712.421875 813.605469 Z M 729.777344 813.605469 L 737.214844 813.605469 C 738.308594 813.605469 739.195312 812.71875 739.195312 811.625 C 739.195312 810.53125 738.308594 809.644531 737.214844 809.644531 L 729.777344 809.644531 C 728.683594 809.644531 727.792969 810.53125 727.792969 811.625 C 727.792969 812.71875 728.683594 813.605469 729.777344 813.605469 Z M 747.128906 813.605469 L 754.570312 813.605469 C 755.664062 813.605469 756.550781 812.71875 756.550781 811.625 C 756.550781 810.53125 755.664062 809.644531 754.570312 809.644531 L 747.128906 809.644531 C 746.035156 809.644531 745.148438 810.53125 745.148438 811.625 C 745.148438 812.71875 746.035156 813.605469 747.128906 813.605469 Z M 764.484375 813.605469 L 771.921875 813.605469 C 773.015625 813.605469 773.902344 812.71875 773.902344 811.625 C 773.902344 810.53125 773.015625 809.644531 771.921875 809.644531 L 764.484375 809.644531 C 763.390625 809.644531 762.503906 810.53125 762.503906 811.625 C 762.503906 812.71875 763.390625 813.605469 764.484375 813.605469 "/>
<path style=" stroke:none;fill-rule:nonzero;fill:rgb(100%,100%,100%);fill-opacity:1;" d="M 781.828125 813.605469 L 785.789062 813.605469 C 786.894531 813.605469 787.769531 812.71875 787.769531 811.625 C 787.769531 810.53125 786.894531 809.644531 785.789062 809.644531 L 781.828125 809.644531 C 780.734375 809.644531 779.847656 810.53125 779.847656 811.625 C 779.847656 812.71875 780.734375 813.605469 781.828125 813.605469 "/>
<path style=" stroke:none;fill-rule:nonzero;fill:rgb(100%,100%,100%);fill-opacity:1;" d="M 114.824219 489.835938 L 118.582031 489.835938 C 119.46875 489.835938 120.199219 489.105469 120.199219 488.21875 C 120.199219 487.320312 119.46875 486.597656 118.582031 486.597656 L 114.824219 486.597656 C 113.9375 486.597656 113.203125 487.320312 113.203125 488.21875 C 113.203125 489.105469 113.9375 489.835938 114.824219 489.835938 "/>
<path style=" stroke:none;fill-rule:nonzero;fill:rgb(100%,100%,100%);fill-opacity:1;" d="M 129.011719 489.835938 L 136.832031 489.835938 C 137.730469 489.835938 138.453125 489.105469 138.453125 488.21875 C 138.453125 487.320312 137.730469 486.597656 136.832031 486.597656 L 129.011719 486.597656 C 128.113281 486.597656 127.390625 487.320312 127.390625 488.21875 C 127.390625 489.105469 128.113281 489.835938 129.011719 489.835938 Z M 147.261719 489.835938 L 155.09375 489.835938 C 155.980469 489.835938 156.714844 489.105469 156.714844 488.21875 C 156.714844 487.320312 155.980469 486.597656 155.09375 486.597656 L 147.261719 486.597656 C 146.367188 486.597656 145.644531 487.320312 145.644531 488.21875 C 145.644531 489.105469 146.367188 489.835938 147.261719 489.835938 Z M 165.515625 489.835938 L 173.347656 489.835938 C 174.242188 489.835938 174.964844 489.105469 174.964844 488.21875 C 174.964844 487.320312 174.242188 486.597656 173.347656 486.597656 L 165.515625 486.597656 C 164.628906 486.597656 163.894531 487.320312 163.894531 488.21875 C 163.894531 489.105469 164.628906 489.835938 165.515625 489.835938 Z M 183.777344 489.835938 L 191.597656 489.835938 C 192.496094 489.835938 193.21875 489.105469 193.21875 488.21875 C 193.21875 487.320312 192.496094 486.597656 191.597656 486.597656 L 183.777344 486.597656 C 182.878906 486.597656 182.15625 487.320312 182.15625 488.21875 C 182.15625 489.105469 182.878906 489.835938 183.777344 489.835938 Z M 202.027344 489.835938 L 209.859375 489.835938 C 210.746094 489.835938 211.480469 489.105469 211.480469 488.21875 C 211.480469 487.320312 210.746094 486.597656 209.859375 486.597656 L 202.027344 486.597656 C 201.140625 486.597656 200.410156 487.320312 200.410156 488.21875 C 200.410156 489.105469 201.140625 489.835938 202.027344 489.835938 "/>
<path style=" stroke:none;fill-rule:nonzero;fill:rgb(100%,100%,100%);fill-opacity:1;" d="M 220.292969 489.835938 L 224.035156 489.835938 C 224.933594 489.835938 225.65625 489.105469 225.65625 488.21875 C 225.65625 487.320312 224.933594 486.597656 224.035156 486.597656 L 220.292969 486.597656 C 219.394531 486.597656 218.671875 487.320312 218.671875 488.21875 C 218.671875 489.105469 219.394531 489.835938 220.292969 489.835938 "/>
<path style=" stroke:none;fill-rule:nonzero;fill:rgb(100%,100%,100%);fill-opacity:1;" d="M 159.222656 608.941406 L 162.015625 608.941406 C 163.109375 608.941406 164 608.066406 164 606.960938 C 164 605.867188 163.109375 604.980469 162.015625 604.980469 L 159.222656 604.980469 C 158.117188 604.980469 157.242188 605.867188 157.242188 606.960938 C 157.242188 608.066406 158.117188 608.941406 159.222656 608.941406 "/>
<path style=" stroke:none;fill-rule:nonzero;fill:rgb(100%,100%,100%);fill-opacity:1;" d="M 168.898438 608.941406 L 174.058594 608.941406 C 175.152344 608.941406 176.039062 608.066406 176.039062 606.960938 C 176.039062 605.867188 175.152344 604.980469 174.058594 604.980469 L 168.898438 604.980469 C 167.796875 604.980469 166.917969 605.867188 166.917969 606.960938 C 166.917969 608.066406 167.796875 608.941406 168.898438 608.941406 Z M 180.941406 608.941406 L 186.097656 608.941406 C 187.191406 608.941406 188.078125 608.066406 188.078125 606.960938 C 188.078125 605.867188 187.191406 604.980469 186.097656 604.980469 L 180.941406 604.980469 C 179.847656 604.980469 178.957031 605.867188 178.957031 606.960938 C 178.957031 608.066406 179.847656 608.941406 180.941406 608.941406 Z M 192.980469 608.941406 L 198.140625 608.941406 C 199.234375 608.941406 200.121094 608.066406 200.121094 606.960938 C 200.121094 605.867188 199.234375 604.980469 198.140625 604.980469 L 192.980469 604.980469 C 191.886719 604.980469 191 605.867188 191 606.960938 C 191 608.066406 191.886719 608.941406 192.980469 608.941406 Z M 205.019531 608.941406 L 210.191406 608.941406 C 211.285156 608.941406 212.171875 608.066406 212.171875 606.960938 C 212.171875 605.867188 211.285156 604.980469 210.191406 604.980469 L 205.019531 604.980469 C 203.925781 604.980469 203.039062 605.867188 203.039062 606.960938 C 203.039062 608.066406 203.925781 608.941406 205.019531 608.941406 "/>
<path style=" stroke:none;fill-rule:nonzero;fill:rgb(100%,100%,100%);fill-opacity:1;" d="M 217.070312 608.941406 L 219.859375 608.941406 C 220.960938 608.941406 221.839844 608.066406 221.839844 606.960938 C 221.839844 605.867188 220.960938 604.980469 219.859375 604.980469 L 217.070312 604.980469 C 215.980469 604.980469 215.089844 605.867188 215.089844 606.960938 C 215.089844 608.066406 215.980469 608.941406 217.070312 608.941406 "/>
<path style=" stroke:none;fill-rule:nonzero;fill:rgb(100%,100%,100%);fill-opacity:1;" d="M 792.910156 721.703125 L 795.703125 721.703125 C 796.796875 721.703125 797.6875 720.816406 797.6875 719.722656 C 797.6875 718.628906 796.796875 717.742188 795.703125 717.742188 L 792.910156 717.742188 C 791.816406 717.742188 790.929688 718.628906 790.929688 719.722656 C 790.929688 720.816406 791.816406 721.703125 792.910156 721.703125 "/>
<path style=" stroke:none;fill-rule:nonzero;fill:rgb(100%,100%,100%);fill-opacity:1;" d="M 802.585938 721.703125 L 807.746094 721.703125 C 808.839844 721.703125 809.726562 720.816406 809.726562 719.722656 C 809.726562 718.628906 808.839844 717.742188 807.746094 717.742188 L 802.585938 717.742188 C 801.492188 717.742188 800.605469 718.628906 800.605469 719.722656 C 800.605469 720.816406 801.492188 721.703125 802.585938 721.703125 Z M 814.628906 721.703125 L 819.796875 721.703125 C 820.890625 721.703125 821.777344 720.816406 821.777344 719.722656 C 821.777344 718.628906 820.890625 717.742188 819.796875 717.742188 L 814.628906 717.742188 C 813.535156 717.742188 812.648438 718.628906 812.648438 719.722656 C 812.648438 720.816406 813.535156 721.703125 814.628906 721.703125 Z M 826.679688 721.703125 L 831.835938 721.703125 C 832.929688 721.703125 833.816406 720.816406 833.816406 719.722656 C 833.816406 718.628906 832.929688 717.742188 831.835938 717.742188 L 826.679688 717.742188 C 825.585938 717.742188 824.699219 718.628906 824.699219 719.722656 C 824.699219 720.816406 825.585938 721.703125 826.679688 721.703125 Z M 838.71875 721.703125 L 843.878906 721.703125 C 844.972656 721.703125 845.859375 720.816406 845.859375 719.722656 C 845.859375 718.628906 844.972656 717.742188 843.878906 717.742188 L 838.71875 717.742188 C 837.625 717.742188 836.738281 718.628906 836.738281 719.722656 C 836.738281 720.816406 837.625 721.703125 838.71875 721.703125 "/>
<path style=" stroke:none;fill-rule:nonzero;fill:rgb(100%,100%,100%);fill-opacity:1;" d="M 850.761719 721.703125 L 853.554688 721.703125 C 854.648438 721.703125 855.535156 720.816406 855.535156 719.722656 C 855.535156 718.628906 854.648438 717.742188 853.554688 717.742188 L 850.761719 717.742188 C 849.667969 717.742188 848.777344 718.628906 848.777344 719.722656 C 848.777344 720.816406 849.667969 721.703125 850.761719 721.703125 "/>
<path style=" stroke:none;fill-rule:nonzero;fill:rgb(100%,100%,100%);fill-opacity:1;" d="M 1000.25 364.675781 L 1003.046875 364.675781 C 1004.140625 364.675781 1005.027344 363.789062 1005.027344 362.695312 C 1005.027344 361.601562 1004.140625 360.714844 1003.046875 360.714844 L 1000.25 360.714844 C 999.15625 360.714844 998.269531 361.601562 998.269531 362.695312 C 998.269531 363.789062 999.15625 364.675781 1000.25 364.675781 "/>
<path style=" stroke:none;fill-rule:nonzero;fill:rgb(100%,100%,100%);fill-opacity:1;" d="M 1009.929688 364.675781 L 1015.089844 364.675781 C 1016.183594 364.675781 1017.070312 363.789062 1017.070312 362.695312 C 1017.070312 361.601562 1016.183594 360.714844 1015.089844 360.714844 L 1009.929688 360.714844 C 1008.835938 360.714844 1007.949219 361.601562 1007.949219 362.695312 C 1007.949219 363.789062 1008.835938 364.675781 1009.929688 364.675781 Z M 1021.96875 364.675781 L 1027.140625 364.675781 C 1028.234375 364.675781 1029.121094 363.789062 1029.121094 362.695312 C 1029.121094 361.601562 1028.234375 360.714844 1027.140625 360.714844 L 1021.96875 360.714844 C 1020.875 360.714844 1019.988281 361.601562 1019.988281 362.695312 C 1019.988281 363.789062 1020.875 364.675781 1021.96875 364.675781 Z M 1034.019531 364.675781 L 1039.179688 364.675781 C 1040.273438 364.675781 1041.160156 363.789062 1041.160156 362.695312 C 1041.160156 361.601562 1040.273438 360.714844 1039.179688 360.714844 L 1034.019531 360.714844 C 1032.925781 360.714844 1032.039062 361.601562 1032.039062 362.695312 C 1032.039062 363.789062 1032.925781 364.675781 1034.019531 364.675781 Z M 1046.0625 364.675781 L 1051.222656 364.675781 C 1052.316406 364.675781 1053.203125 363.789062 1053.203125 362.695312 C 1053.203125 361.601562 1052.316406 360.714844 1051.222656 360.714844 L 1046.0625 360.714844 C 1044.96875 360.714844 1044.082031 361.601562 1044.082031 362.695312 C 1044.082031 363.789062 1044.96875 364.675781 1046.0625 364.675781 "/>
<path style=" stroke:none;fill-rule:nonzero;fill:rgb(100%,100%,100%);fill-opacity:1;" d="M 1058.101562 364.675781 L 1060.898438 364.675781 C 1061.992188 364.675781 1062.878906 363.789062 1062.878906 362.695312 C 1062.878906 361.601562 1061.992188 360.714844 1060.898438 360.714844 L 1058.101562 360.714844 C 1057.007812 360.714844 1056.121094 361.601562 1056.121094 362.695312 C 1056.121094 363.789062 1057.007812 364.675781 1058.101562 364.675781 "/>
<path style=" stroke:none;fill-rule:nonzero;fill:rgb(100%,100%,100%);fill-opacity:1;" d="M 122.769531 329.914062 L 126.523438 329.914062 C 127.617188 329.914062 128.503906 329.027344 128.503906 327.933594 C 128.503906 326.839844 127.617188 325.953125 126.523438 325.953125 L 122.769531 325.953125 C 121.675781 325.953125 120.789062 326.839844 120.789062 327.933594 C 120.789062 329.027344 121.675781 329.914062 122.769531 329.914062 "/>
<path style=" stroke:none;fill-rule:nonzero;fill:rgb(100%,100%,100%);fill-opacity:1;" d="M 136.945312 329.914062 L 144.777344 329.914062 C 145.871094 329.914062 146.757812 329.027344 146.757812 327.933594 C 146.757812 326.839844 145.871094 325.953125 144.777344 325.953125 L 136.945312 325.953125 C 135.851562 325.953125 134.964844 326.839844 134.964844 327.933594 C 134.964844 329.027344 135.851562 329.914062 136.945312 329.914062 Z M 155.207031 329.914062 L 163.027344 329.914062 C 164.121094 329.914062 165.007812 329.027344 165.007812 327.933594 C 165.007812 326.839844 164.121094 325.953125 163.027344 325.953125 L 155.207031 325.953125 C 154.113281 325.953125 153.226562 326.839844 153.226562 327.933594 C 153.226562 329.027344 154.113281 329.914062 155.207031 329.914062 Z M 173.460938 329.914062 L 181.28125 329.914062 C 182.375 329.914062 183.261719 329.027344 183.261719 327.933594 C 183.261719 326.839844 182.375 325.953125 181.28125 325.953125 L 173.460938 325.953125 C 172.367188 325.953125 171.480469 326.839844 171.480469 327.933594 C 171.480469 329.027344 172.367188 329.914062 173.460938 329.914062 Z M 191.722656 329.914062 L 199.542969 329.914062 C 200.636719 329.914062 201.523438 329.027344 201.523438 327.933594 C 201.523438 326.839844 200.636719 325.953125 199.542969 325.953125 L 191.722656 325.953125 C 190.617188 325.953125 189.742188 326.839844 189.742188 327.933594 C 189.742188 329.027344 190.617188 329.914062 191.722656 329.914062 Z M 209.972656 329.914062 L 217.792969 329.914062 C 218.886719 329.914062 219.777344 329.027344 219.777344 327.933594 C 219.777344 326.839844 218.886719 325.953125 217.792969 325.953125 L 209.972656 325.953125 C 208.878906 325.953125 207.992188 326.839844 207.992188 327.933594 C 207.992188 329.027344 208.878906 329.914062 209.972656 329.914062 "/>
<path style=" stroke:none;fill-rule:nonzero;fill:rgb(100%,100%,100%);fill-opacity:1;" d="M 228.226562 329.914062 L 231.980469 329.914062 C 233.074219 329.914062 233.960938 329.027344 233.960938 327.933594 C 233.960938 326.839844 233.074219 325.953125 231.980469 325.953125 L 228.226562 325.953125 C 227.132812 325.953125 226.246094 326.839844 226.246094 327.933594 C 226.246094 329.027344 227.132812 329.914062 228.226562 329.914062 "/>
<path style=" stroke:none;fill-rule:nonzero;fill:rgb(100%,100%,100%);fill-opacity:1;" d="M 866.464844 246.714844 L 870.425781 246.714844 C 871.519531 246.714844 872.40625 245.828125 872.40625 244.734375 C 872.40625 243.644531 871.519531 242.753906 870.425781 242.753906 L 866.464844 242.753906 C 865.371094 242.753906 864.480469 243.644531 864.480469 244.734375 C 864.480469 245.828125 865.371094 246.714844 866.464844 246.714844 "/>
<path style=" stroke:none;fill-rule:nonzero;fill:rgb(100%,100%,100%);fill-opacity:1;" d="M 880.011719 246.714844 L 887.203125 246.714844 C 888.296875 246.714844 889.183594 245.828125 889.183594 244.734375 C 889.183594 243.644531 888.296875 242.753906 887.203125 242.753906 L 880.011719 242.753906 C 878.917969 242.753906 878.027344 243.644531 878.027344 244.734375 C 878.027344 245.828125 878.917969 246.714844 880.011719 246.714844 Z M 896.785156 246.714844 L 903.976562 246.714844 C 905.070312 246.714844 905.960938 245.828125 905.960938 244.734375 C 905.960938 243.644531 905.070312 242.753906 903.976562 242.753906 L 896.785156 242.753906 C 895.691406 242.753906 894.804688 243.644531 894.804688 244.734375 C 894.804688 245.828125 895.691406 246.714844 896.785156 246.714844 Z M 913.5625 246.714844 L 920.753906 246.714844 C 921.847656 246.714844 922.734375 245.828125 922.734375 244.734375 C 922.734375 243.644531 921.847656 242.753906 920.753906 242.753906 L 913.5625 242.753906 C 912.46875 242.753906 911.582031 243.644531 911.582031 244.734375 C 911.582031 245.828125 912.46875 246.714844 913.5625 246.714844 Z M 930.339844 246.714844 L 937.53125 246.714844 C 938.625 246.714844 939.511719 245.828125 939.511719 244.734375 C 939.511719 243.644531 938.625 242.753906 937.53125 242.753906 L 930.339844 242.753906 C 929.234375 242.753906 928.359375 243.644531 928.359375 244.734375 C 928.359375 245.828125 929.234375 246.714844 930.339844 246.714844 "/>
<path style=" stroke:none;fill-rule:nonzero;fill:rgb(100%,100%,100%);fill-opacity:1;" d="M 947.117188 246.714844 L 951.078125 246.714844 C 952.171875 246.714844 953.058594 245.828125 953.058594 244.734375 C 953.058594 243.644531 952.171875 242.753906 951.078125 242.753906 L 947.117188 242.753906 C 946.011719 242.753906 945.136719 243.644531 945.136719 244.734375 C 945.136719 245.828125 946.011719 246.714844 947.117188 246.714844 "/>
<path style=" stroke:none;fill-rule:nonzero;fill:rgb(100%,100%,100%);fill-opacity:1;" d="M 903.503906 870.269531 L 907.464844 870.269531 C 908.546875 870.269531 909.445312 869.382812 909.445312 868.289062 C 909.445312 867.195312 908.546875 866.308594 907.464844 866.308594 L 903.503906 866.308594 C 902.398438 866.308594 901.523438 867.195312 901.523438 868.289062 C 901.523438 869.382812 902.398438 870.269531 903.503906 870.269531 "/>
<path style=" stroke:none;fill-rule:nonzero;fill:rgb(100%,100%,100%);fill-opacity:1;" d="M 917.050781 870.269531 L 924.230469 870.269531 C 925.324219 870.269531 926.210938 869.382812 926.210938 868.289062 C 926.210938 867.195312 925.324219 866.308594 924.230469 866.308594 L 917.050781 866.308594 C 915.945312 866.308594 915.070312 867.195312 915.070312 868.289062 C 915.070312 869.382812 915.945312 870.269531 917.050781 870.269531 Z M 933.816406 870.269531 L 941.007812 870.269531 C 942.101562 870.269531 942.988281 869.382812 942.988281 868.289062 C 942.988281 867.195312 942.101562 866.308594 941.007812 866.308594 L 933.816406 866.308594 C 932.722656 866.308594 931.835938 867.195312 931.835938 868.289062 C 931.835938 869.382812 932.722656 870.269531 933.816406 870.269531 Z M 950.59375 870.269531 L 957.785156 870.269531 C 958.878906 870.269531 959.765625 869.382812 959.765625 868.289062 C 959.765625 867.195312 958.878906 866.308594 957.785156 866.308594 L 950.59375 866.308594 C 949.5 866.308594 948.613281 867.195312 948.613281 868.289062 C 948.613281 869.382812 949.5 870.269531 950.59375 870.269531 Z M 967.371094 870.269531 L 974.5625 870.269531 C 975.65625 870.269531 976.542969 869.382812 976.542969 868.289062 C 976.542969 867.195312 975.65625 866.308594 974.5625 866.308594 L 967.371094 866.308594 C 966.277344 866.308594 965.386719 867.195312 965.386719 868.289062 C 965.386719 869.382812 966.277344 870.269531 967.371094 870.269531 "/>
<path style=" stroke:none;fill-rule:nonzero;fill:rgb(100%,100%,100%);fill-opacity:1;" d="M 984.144531 870.269531 L 988.109375 870.269531 C 989.203125 870.269531 990.089844 869.382812 990.089844 868.289062 C 990.089844 867.195312 989.203125 866.308594 988.109375 866.308594 L 984.144531 866.308594 C 983.050781 866.308594 982.164062 867.195312 982.164062 868.289062 C 982.164062 869.382812 983.050781 870.269531 984.144531 870.269531 "/>
</g>
</svg>
