<svg width="512" height="512" viewBox="0 0 512 512" fill="none" xmlns="http://www.w3.org/2000/svg">
<g clip-path="url(#clip0)">
<path d="M497.39 361.8L385.39 313.8C380.605 311.761 375.288 311.331 370.238 312.576C365.188 313.82 360.679 316.672 357.39 320.7L307.79 381.3C229.947 344.598 167.302 281.953 130.6 204.11L191.2 154.51C195.237 151.227 198.094 146.718 199.339 141.666C200.584 136.613 200.149 131.293 198.1 126.51L150.1 14.5102C147.851 9.3543 143.874 5.14466 138.854 2.6072C133.833 0.0697289 128.085 -0.636527 122.6 0.61021L18.6 24.6102C13.3117 25.8314 8.59345 28.809 5.21535 33.057C1.83725 37.3051 -0.00121821 42.5727 6.05621e-07 48.0002C6.05621e-07 304.5 207.9 512 464 512C469.429 512.004 474.699 510.166 478.949 506.788C483.199 503.41 486.178 498.69 487.4 493.4L511.4 389.4C512.639 383.888 511.917 378.117 509.36 373.08C506.803 368.042 502.57 364.054 497.39 361.8V361.8Z" fill="#F4F4F4"/>
</g>
<defs>
<clipPath id="clip0">
<rect width="512" height="512" fill="white"/>
</clipPath>
</defs>
</svg>
